G04 #@! TF.GenerationSoftware,KiCad,Pcbnew,5.1.5*
G04 #@! TF.CreationDate,2020-02-24T15:24:22+03:00*
G04 #@! TF.ProjectId,max3421eboard,6d617833-3432-4316-9562-6f6172642e6b,rev?*
G04 #@! TF.SameCoordinates,Original*
G04 #@! TF.FileFunction,Legend,Top*
G04 #@! TF.FilePolarity,Positive*
%FSLAX46Y46*%
G04 Gerber Fmt 4.6, Leading zero omitted, Abs format (unit mm)*
G04 Created by KiCad (PCBNEW 5.1.5) date 2020-02-24 15:24:22*
%MOMM*%
%LPD*%
G04 APERTURE LIST*
%ADD10C,0.150000*%
%ADD11C,0.400000*%
%ADD12C,0.120000*%
%ADD13C,0.254000*%
G04 APERTURE END LIST*
D10*
X37044761Y-64207380D02*
X37044761Y-63207380D01*
X37378095Y-63921666D01*
X37711428Y-63207380D01*
X37711428Y-64207380D01*
X38140000Y-63921666D02*
X38616190Y-63921666D01*
X38044761Y-64207380D02*
X38378095Y-63207380D01*
X38711428Y-64207380D01*
X38949523Y-63207380D02*
X39616190Y-64207380D01*
X39616190Y-63207380D02*
X38949523Y-64207380D01*
X39901904Y-63207380D02*
X40520952Y-63207380D01*
X40187619Y-63588333D01*
X40330476Y-63588333D01*
X40425714Y-63635952D01*
X40473333Y-63683571D01*
X40520952Y-63778809D01*
X40520952Y-64016904D01*
X40473333Y-64112142D01*
X40425714Y-64159761D01*
X40330476Y-64207380D01*
X40044761Y-64207380D01*
X39949523Y-64159761D01*
X39901904Y-64112142D01*
X41378095Y-63540714D02*
X41378095Y-64207380D01*
X41140000Y-63159761D02*
X40901904Y-63874047D01*
X41520952Y-63874047D01*
X41854285Y-63302619D02*
X41901904Y-63255000D01*
X41997142Y-63207380D01*
X42235238Y-63207380D01*
X42330476Y-63255000D01*
X42378095Y-63302619D01*
X42425714Y-63397857D01*
X42425714Y-63493095D01*
X42378095Y-63635952D01*
X41806666Y-64207380D01*
X42425714Y-64207380D01*
X43378095Y-64207380D02*
X42806666Y-64207380D01*
X43092380Y-64207380D02*
X43092380Y-63207380D01*
X42997142Y-63350238D01*
X42901904Y-63445476D01*
X42806666Y-63493095D01*
X43806666Y-63683571D02*
X44140000Y-63683571D01*
X44282857Y-64207380D02*
X43806666Y-64207380D01*
X43806666Y-63207380D01*
X44282857Y-63207380D01*
X36330476Y-65857380D02*
X36330476Y-64857380D01*
X36330476Y-65333571D02*
X36901904Y-65333571D01*
X36901904Y-65857380D02*
X36901904Y-64857380D01*
X37520952Y-65857380D02*
X37425714Y-65809761D01*
X37378095Y-65762142D01*
X37330476Y-65666904D01*
X37330476Y-65381190D01*
X37378095Y-65285952D01*
X37425714Y-65238333D01*
X37520952Y-65190714D01*
X37663809Y-65190714D01*
X37759047Y-65238333D01*
X37806666Y-65285952D01*
X37854285Y-65381190D01*
X37854285Y-65666904D01*
X37806666Y-65762142D01*
X37759047Y-65809761D01*
X37663809Y-65857380D01*
X37520952Y-65857380D01*
X38235238Y-65809761D02*
X38330476Y-65857380D01*
X38520952Y-65857380D01*
X38616190Y-65809761D01*
X38663809Y-65714523D01*
X38663809Y-65666904D01*
X38616190Y-65571666D01*
X38520952Y-65524047D01*
X38378095Y-65524047D01*
X38282857Y-65476428D01*
X38235238Y-65381190D01*
X38235238Y-65333571D01*
X38282857Y-65238333D01*
X38378095Y-65190714D01*
X38520952Y-65190714D01*
X38616190Y-65238333D01*
X38949523Y-65190714D02*
X39330476Y-65190714D01*
X39092380Y-64857380D02*
X39092380Y-65714523D01*
X39140000Y-65809761D01*
X39235238Y-65857380D01*
X39330476Y-65857380D01*
X40378095Y-64809761D02*
X39520952Y-66095476D01*
X41140000Y-65857380D02*
X41140000Y-64857380D01*
X41140000Y-65809761D02*
X41044761Y-65857380D01*
X40854285Y-65857380D01*
X40759047Y-65809761D01*
X40711428Y-65762142D01*
X40663809Y-65666904D01*
X40663809Y-65381190D01*
X40711428Y-65285952D01*
X40759047Y-65238333D01*
X40854285Y-65190714D01*
X41044761Y-65190714D01*
X41140000Y-65238333D01*
X41997142Y-65809761D02*
X41901904Y-65857380D01*
X41711428Y-65857380D01*
X41616190Y-65809761D01*
X41568571Y-65714523D01*
X41568571Y-65333571D01*
X41616190Y-65238333D01*
X41711428Y-65190714D01*
X41901904Y-65190714D01*
X41997142Y-65238333D01*
X42044761Y-65333571D01*
X42044761Y-65428809D01*
X41568571Y-65524047D01*
X42378095Y-65190714D02*
X42616190Y-65857380D01*
X42854285Y-65190714D01*
X43235238Y-65857380D02*
X43235238Y-65190714D01*
X43235238Y-64857380D02*
X43187619Y-64905000D01*
X43235238Y-64952619D01*
X43282857Y-64905000D01*
X43235238Y-64857380D01*
X43235238Y-64952619D01*
X44140000Y-65809761D02*
X44044761Y-65857380D01*
X43854285Y-65857380D01*
X43759047Y-65809761D01*
X43711428Y-65762142D01*
X43663809Y-65666904D01*
X43663809Y-65381190D01*
X43711428Y-65285952D01*
X43759047Y-65238333D01*
X43854285Y-65190714D01*
X44044761Y-65190714D01*
X44140000Y-65238333D01*
X44949523Y-65809761D02*
X44854285Y-65857380D01*
X44663809Y-65857380D01*
X44568571Y-65809761D01*
X44520952Y-65714523D01*
X44520952Y-65333571D01*
X44568571Y-65238333D01*
X44663809Y-65190714D01*
X44854285Y-65190714D01*
X44949523Y-65238333D01*
X44997142Y-65333571D01*
X44997142Y-65428809D01*
X44520952Y-65524047D01*
X35854285Y-66840714D02*
X36092380Y-67507380D01*
X36330476Y-66840714D01*
X36711428Y-67507380D02*
X36711428Y-66840714D01*
X36711428Y-66507380D02*
X36663809Y-66555000D01*
X36711428Y-66602619D01*
X36759047Y-66555000D01*
X36711428Y-66507380D01*
X36711428Y-66602619D01*
X37187619Y-67507380D02*
X37187619Y-66840714D01*
X37187619Y-67031190D02*
X37235238Y-66935952D01*
X37282857Y-66888333D01*
X37378095Y-66840714D01*
X37473333Y-66840714D01*
X37806666Y-67507380D02*
X37806666Y-66507380D01*
X37901904Y-67126428D02*
X38187619Y-67507380D01*
X38187619Y-66840714D02*
X37806666Y-67221666D01*
X38616190Y-67507380D02*
X38616190Y-66507380D01*
X38711428Y-67126428D02*
X38997142Y-67507380D01*
X38997142Y-66840714D02*
X38616190Y-67221666D01*
X39854285Y-66840714D02*
X39854285Y-67507380D01*
X39425714Y-66840714D02*
X39425714Y-67364523D01*
X39473333Y-67459761D01*
X39568571Y-67507380D01*
X39711428Y-67507380D01*
X39806666Y-67459761D01*
X39854285Y-67412142D01*
X40330476Y-66840714D02*
X40330476Y-67507380D01*
X40330476Y-66935952D02*
X40378095Y-66888333D01*
X40473333Y-66840714D01*
X40616190Y-66840714D01*
X40711428Y-66888333D01*
X40759047Y-66983571D01*
X40759047Y-67507380D01*
X41616190Y-67459761D02*
X41520952Y-67507380D01*
X41330476Y-67507380D01*
X41235238Y-67459761D01*
X41187619Y-67364523D01*
X41187619Y-66983571D01*
X41235238Y-66888333D01*
X41330476Y-66840714D01*
X41520952Y-66840714D01*
X41616190Y-66888333D01*
X41663809Y-66983571D01*
X41663809Y-67078809D01*
X41187619Y-67174047D01*
X42092380Y-66840714D02*
X42092380Y-67507380D01*
X42092380Y-66935952D02*
X42140000Y-66888333D01*
X42235238Y-66840714D01*
X42378095Y-66840714D01*
X42473333Y-66888333D01*
X42520952Y-66983571D01*
X42520952Y-67507380D01*
X42997142Y-67412142D02*
X43044761Y-67459761D01*
X42997142Y-67507380D01*
X42949523Y-67459761D01*
X42997142Y-67412142D01*
X42997142Y-67507380D01*
X43473333Y-66840714D02*
X43473333Y-67507380D01*
X43473333Y-66935952D02*
X43520952Y-66888333D01*
X43616190Y-66840714D01*
X43759047Y-66840714D01*
X43854285Y-66888333D01*
X43901904Y-66983571D01*
X43901904Y-67507380D01*
X44759047Y-67459761D02*
X44663809Y-67507380D01*
X44473333Y-67507380D01*
X44378095Y-67459761D01*
X44330476Y-67364523D01*
X44330476Y-66983571D01*
X44378095Y-66888333D01*
X44473333Y-66840714D01*
X44663809Y-66840714D01*
X44759047Y-66888333D01*
X44806666Y-66983571D01*
X44806666Y-67078809D01*
X44330476Y-67174047D01*
X45092380Y-66840714D02*
X45473333Y-66840714D01*
X45235238Y-66507380D02*
X45235238Y-67364523D01*
X45282857Y-67459761D01*
X45378095Y-67507380D01*
X45473333Y-67507380D01*
X28623095Y-62047380D02*
X28623095Y-61047380D01*
X29004047Y-61047380D01*
X29099285Y-61095000D01*
X29146904Y-61142619D01*
X29194523Y-61237857D01*
X29194523Y-61380714D01*
X29146904Y-61475952D01*
X29099285Y-61523571D01*
X29004047Y-61571190D01*
X28623095Y-61571190D01*
X29527857Y-61047380D02*
X29765952Y-62047380D01*
X29956428Y-61333095D01*
X30146904Y-62047380D01*
X30385000Y-61047380D01*
X31337380Y-62047380D02*
X31004047Y-61571190D01*
X30765952Y-62047380D02*
X30765952Y-61047380D01*
X31146904Y-61047380D01*
X31242142Y-61095000D01*
X31289761Y-61142619D01*
X31337380Y-61237857D01*
X31337380Y-61380714D01*
X31289761Y-61475952D01*
X31242142Y-61523571D01*
X31146904Y-61571190D01*
X30765952Y-61571190D01*
X31527857Y-62142619D02*
X32289761Y-62142619D01*
X32527857Y-62047380D02*
X32527857Y-61047380D01*
X32861190Y-61761666D01*
X33194523Y-61047380D01*
X33194523Y-62047380D01*
X33861190Y-61047380D02*
X34051666Y-61047380D01*
X34146904Y-61095000D01*
X34242142Y-61190238D01*
X34289761Y-61380714D01*
X34289761Y-61714047D01*
X34242142Y-61904523D01*
X34146904Y-61999761D01*
X34051666Y-62047380D01*
X33861190Y-62047380D01*
X33765952Y-61999761D01*
X33670714Y-61904523D01*
X33623095Y-61714047D01*
X33623095Y-61380714D01*
X33670714Y-61190238D01*
X33765952Y-61095000D01*
X33861190Y-61047380D01*
X34718333Y-62047380D02*
X34718333Y-61047380D01*
X34956428Y-61047380D01*
X35099285Y-61095000D01*
X35194523Y-61190238D01*
X35242142Y-61285476D01*
X35289761Y-61475952D01*
X35289761Y-61618809D01*
X35242142Y-61809285D01*
X35194523Y-61904523D01*
X35099285Y-61999761D01*
X34956428Y-62047380D01*
X34718333Y-62047380D01*
X35718333Y-61523571D02*
X36051666Y-61523571D01*
X36194523Y-62047380D02*
X35718333Y-62047380D01*
X35718333Y-61047380D01*
X36194523Y-61047380D01*
X36599761Y-92725714D02*
X36647380Y-92582857D01*
X36647380Y-92344761D01*
X36599761Y-92249523D01*
X36552142Y-92201904D01*
X36456904Y-92154285D01*
X36361666Y-92154285D01*
X36266428Y-92201904D01*
X36218809Y-92249523D01*
X36171190Y-92344761D01*
X36123571Y-92535238D01*
X36075952Y-92630476D01*
X36028333Y-92678095D01*
X35933095Y-92725714D01*
X35837857Y-92725714D01*
X35742619Y-92678095D01*
X35695000Y-92630476D01*
X35647380Y-92535238D01*
X35647380Y-92297142D01*
X35695000Y-92154285D01*
X36552142Y-91154285D02*
X36599761Y-91201904D01*
X36647380Y-91344761D01*
X36647380Y-91440000D01*
X36599761Y-91582857D01*
X36504523Y-91678095D01*
X36409285Y-91725714D01*
X36218809Y-91773333D01*
X36075952Y-91773333D01*
X35885476Y-91725714D01*
X35790238Y-91678095D01*
X35695000Y-91582857D01*
X35647380Y-91440000D01*
X35647380Y-91344761D01*
X35695000Y-91201904D01*
X35742619Y-91154285D01*
X36647380Y-90725714D02*
X35647380Y-90725714D01*
X36647380Y-90154285D02*
X36075952Y-90582857D01*
X35647380Y-90154285D02*
X36218809Y-90725714D01*
D11*
X36395000Y-80645000D02*
G75*
G03X36395000Y-80645000I-200000J0D01*
G01*
D10*
X36068095Y-76287380D02*
X36068095Y-77096904D01*
X36115714Y-77192142D01*
X36163333Y-77239761D01*
X36258571Y-77287380D01*
X36449047Y-77287380D01*
X36544285Y-77239761D01*
X36591904Y-77192142D01*
X36639523Y-77096904D01*
X36639523Y-76287380D01*
X37639523Y-77287380D02*
X37068095Y-77287380D01*
X37353809Y-77287380D02*
X37353809Y-76287380D01*
X37258571Y-76430238D01*
X37163333Y-76525476D01*
X37068095Y-76573095D01*
D12*
X37846000Y-92710000D02*
X37846000Y-91186000D01*
X32766000Y-90297000D02*
X32766000Y-92837000D01*
D10*
X22995000Y-72120000D02*
X22947380Y-72215238D01*
X22947380Y-72358095D01*
X22995000Y-72500952D01*
X23090238Y-72596190D01*
X23185476Y-72643809D01*
X23375952Y-72691428D01*
X23518809Y-72691428D01*
X23709285Y-72643809D01*
X23804523Y-72596190D01*
X23899761Y-72500952D01*
X23947380Y-72358095D01*
X23947380Y-72262857D01*
X23899761Y-72120000D01*
X23852142Y-72072380D01*
X23518809Y-72072380D01*
X23518809Y-72262857D01*
X23947380Y-71643809D02*
X22947380Y-71643809D01*
X22947380Y-71262857D01*
X22995000Y-71167619D01*
X23042619Y-71120000D01*
X23137857Y-71072380D01*
X23280714Y-71072380D01*
X23375952Y-71120000D01*
X23423571Y-71167619D01*
X23471190Y-71262857D01*
X23471190Y-71643809D01*
X23947380Y-70643809D02*
X22947380Y-70643809D01*
X23947380Y-70167619D02*
X22947380Y-70167619D01*
X23947380Y-69596190D01*
X22947380Y-69596190D01*
X20455000Y-72151666D02*
X20407380Y-72246904D01*
X20407380Y-72389761D01*
X20455000Y-72532619D01*
X20550238Y-72627857D01*
X20645476Y-72675476D01*
X20835952Y-72723095D01*
X20978809Y-72723095D01*
X21169285Y-72675476D01*
X21264523Y-72627857D01*
X21359761Y-72532619D01*
X21407380Y-72389761D01*
X21407380Y-72294523D01*
X21359761Y-72151666D01*
X21312142Y-72104047D01*
X20978809Y-72104047D01*
X20978809Y-72294523D01*
X21407380Y-71675476D02*
X20407380Y-71675476D01*
X20407380Y-71294523D01*
X20455000Y-71199285D01*
X20502619Y-71151666D01*
X20597857Y-71104047D01*
X20740714Y-71104047D01*
X20835952Y-71151666D01*
X20883571Y-71199285D01*
X20931190Y-71294523D01*
X20931190Y-71675476D01*
X20407380Y-70485000D02*
X20407380Y-70294523D01*
X20455000Y-70199285D01*
X20550238Y-70104047D01*
X20740714Y-70056428D01*
X21074047Y-70056428D01*
X21264523Y-70104047D01*
X21359761Y-70199285D01*
X21407380Y-70294523D01*
X21407380Y-70485000D01*
X21359761Y-70580238D01*
X21264523Y-70675476D01*
X21074047Y-70723095D01*
X20740714Y-70723095D01*
X20550238Y-70675476D01*
X20455000Y-70580238D01*
X20407380Y-70485000D01*
X20407380Y-69627857D02*
X21216904Y-69627857D01*
X21312142Y-69580238D01*
X21359761Y-69532619D01*
X21407380Y-69437380D01*
X21407380Y-69246904D01*
X21359761Y-69151666D01*
X21312142Y-69104047D01*
X21216904Y-69056428D01*
X20407380Y-69056428D01*
X20407380Y-68723095D02*
X20407380Y-68151666D01*
X21407380Y-68437380D02*
X20407380Y-68437380D01*
X18748380Y-74636380D02*
X18843619Y-74636380D01*
X18938857Y-74684000D01*
X18986476Y-74731619D01*
X19034095Y-74826857D01*
X19081714Y-75017333D01*
X19081714Y-75255428D01*
X19034095Y-75445904D01*
X18986476Y-75541142D01*
X18938857Y-75588761D01*
X18843619Y-75636380D01*
X18748380Y-75636380D01*
X18653142Y-75588761D01*
X18605523Y-75541142D01*
X18557904Y-75445904D01*
X18510285Y-75255428D01*
X18510285Y-75017333D01*
X18557904Y-74826857D01*
X18605523Y-74731619D01*
X18653142Y-74684000D01*
X18748380Y-74636380D01*
X19081714Y-78176380D02*
X18510285Y-78176380D01*
X18796000Y-78176380D02*
X18796000Y-77176380D01*
X18700761Y-77319238D01*
X18605523Y-77414476D01*
X18510285Y-77462095D01*
X18510285Y-79811619D02*
X18557904Y-79764000D01*
X18653142Y-79716380D01*
X18891238Y-79716380D01*
X18986476Y-79764000D01*
X19034095Y-79811619D01*
X19081714Y-79906857D01*
X19081714Y-80002095D01*
X19034095Y-80144952D01*
X18462666Y-80716380D01*
X19081714Y-80716380D01*
X18462666Y-82256380D02*
X19081714Y-82256380D01*
X18748380Y-82637333D01*
X18891238Y-82637333D01*
X18986476Y-82684952D01*
X19034095Y-82732571D01*
X19081714Y-82827809D01*
X19081714Y-83065904D01*
X19034095Y-83161142D01*
X18986476Y-83208761D01*
X18891238Y-83256380D01*
X18605523Y-83256380D01*
X18510285Y-83208761D01*
X18462666Y-83161142D01*
X18986476Y-85129714D02*
X18986476Y-85796380D01*
X18748380Y-84748761D02*
X18510285Y-85463047D01*
X19129333Y-85463047D01*
X19034095Y-87336380D02*
X18557904Y-87336380D01*
X18510285Y-87812571D01*
X18557904Y-87764952D01*
X18653142Y-87717333D01*
X18891238Y-87717333D01*
X18986476Y-87764952D01*
X19034095Y-87812571D01*
X19081714Y-87907809D01*
X19081714Y-88145904D01*
X19034095Y-88241142D01*
X18986476Y-88288761D01*
X18891238Y-88336380D01*
X18653142Y-88336380D01*
X18557904Y-88288761D01*
X18510285Y-88241142D01*
X18986476Y-89876380D02*
X18796000Y-89876380D01*
X18700761Y-89924000D01*
X18653142Y-89971619D01*
X18557904Y-90114476D01*
X18510285Y-90304952D01*
X18510285Y-90685904D01*
X18557904Y-90781142D01*
X18605523Y-90828761D01*
X18700761Y-90876380D01*
X18891238Y-90876380D01*
X18986476Y-90828761D01*
X19034095Y-90781142D01*
X19081714Y-90685904D01*
X19081714Y-90447809D01*
X19034095Y-90352571D01*
X18986476Y-90304952D01*
X18891238Y-90257333D01*
X18700761Y-90257333D01*
X18605523Y-90304952D01*
X18557904Y-90352571D01*
X18510285Y-90447809D01*
X18462666Y-92416380D02*
X19129333Y-92416380D01*
X18700761Y-93416380D01*
X49347380Y-92725761D02*
X48347380Y-92725761D01*
X49347380Y-92249571D02*
X48347380Y-92249571D01*
X49347380Y-91678142D01*
X48347380Y-91678142D01*
X48347380Y-91344809D02*
X48347380Y-90773380D01*
X49347380Y-91059095D02*
X48347380Y-91059095D01*
X39139761Y-92709904D02*
X39187380Y-92567047D01*
X39187380Y-92328952D01*
X39139761Y-92233714D01*
X39092142Y-92186095D01*
X38996904Y-92138476D01*
X38901666Y-92138476D01*
X38806428Y-92186095D01*
X38758809Y-92233714D01*
X38711190Y-92328952D01*
X38663571Y-92519428D01*
X38615952Y-92614666D01*
X38568333Y-92662285D01*
X38473095Y-92709904D01*
X38377857Y-92709904D01*
X38282619Y-92662285D01*
X38235000Y-92614666D01*
X38187380Y-92519428D01*
X38187380Y-92281333D01*
X38235000Y-92138476D01*
X39139761Y-91757523D02*
X39187380Y-91614666D01*
X39187380Y-91376571D01*
X39139761Y-91281333D01*
X39092142Y-91233714D01*
X38996904Y-91186095D01*
X38901666Y-91186095D01*
X38806428Y-91233714D01*
X38758809Y-91281333D01*
X38711190Y-91376571D01*
X38663571Y-91567047D01*
X38615952Y-91662285D01*
X38568333Y-91709904D01*
X38473095Y-91757523D01*
X38377857Y-91757523D01*
X38282619Y-91709904D01*
X38235000Y-91662285D01*
X38187380Y-91567047D01*
X38187380Y-91328952D01*
X38235000Y-91186095D01*
X41727380Y-92757428D02*
X40727380Y-92757428D01*
X41441666Y-92424095D01*
X40727380Y-92090761D01*
X41727380Y-92090761D01*
X41727380Y-91614571D02*
X40727380Y-91614571D01*
X41679761Y-91186000D02*
X41727380Y-91043142D01*
X41727380Y-90805047D01*
X41679761Y-90709809D01*
X41632142Y-90662190D01*
X41536904Y-90614571D01*
X41441666Y-90614571D01*
X41346428Y-90662190D01*
X41298809Y-90709809D01*
X41251190Y-90805047D01*
X41203571Y-90995523D01*
X41155952Y-91090761D01*
X41108333Y-91138380D01*
X41013095Y-91186000D01*
X40917857Y-91186000D01*
X40822619Y-91138380D01*
X40775000Y-91090761D01*
X40727380Y-90995523D01*
X40727380Y-90757428D01*
X40775000Y-90614571D01*
X40727380Y-89995523D02*
X40727380Y-89805047D01*
X40775000Y-89709809D01*
X40870238Y-89614571D01*
X41060714Y-89566952D01*
X41394047Y-89566952D01*
X41584523Y-89614571D01*
X41679761Y-89709809D01*
X41727380Y-89805047D01*
X41727380Y-89995523D01*
X41679761Y-90090761D01*
X41584523Y-90186000D01*
X41394047Y-90233619D01*
X41060714Y-90233619D01*
X40870238Y-90186000D01*
X40775000Y-90090761D01*
X40727380Y-89995523D01*
X44267380Y-92757428D02*
X43267380Y-92757428D01*
X43981666Y-92424095D01*
X43267380Y-92090761D01*
X44267380Y-92090761D01*
X43267380Y-91424095D02*
X43267380Y-91233619D01*
X43315000Y-91138380D01*
X43410238Y-91043142D01*
X43600714Y-90995523D01*
X43934047Y-90995523D01*
X44124523Y-91043142D01*
X44219761Y-91138380D01*
X44267380Y-91233619D01*
X44267380Y-91424095D01*
X44219761Y-91519333D01*
X44124523Y-91614571D01*
X43934047Y-91662190D01*
X43600714Y-91662190D01*
X43410238Y-91614571D01*
X43315000Y-91519333D01*
X43267380Y-91424095D01*
X44219761Y-90614571D02*
X44267380Y-90471714D01*
X44267380Y-90233619D01*
X44219761Y-90138380D01*
X44172142Y-90090761D01*
X44076904Y-90043142D01*
X43981666Y-90043142D01*
X43886428Y-90090761D01*
X43838809Y-90138380D01*
X43791190Y-90233619D01*
X43743571Y-90424095D01*
X43695952Y-90519333D01*
X43648333Y-90566952D01*
X43553095Y-90614571D01*
X43457857Y-90614571D01*
X43362619Y-90566952D01*
X43315000Y-90519333D01*
X43267380Y-90424095D01*
X43267380Y-90186000D01*
X43315000Y-90043142D01*
X44267380Y-89614571D02*
X43267380Y-89614571D01*
X45855000Y-92154285D02*
X45807380Y-92249523D01*
X45807380Y-92392380D01*
X45855000Y-92535238D01*
X45950238Y-92630476D01*
X46045476Y-92678095D01*
X46235952Y-92725714D01*
X46378809Y-92725714D01*
X46569285Y-92678095D01*
X46664523Y-92630476D01*
X46759761Y-92535238D01*
X46807380Y-92392380D01*
X46807380Y-92297142D01*
X46759761Y-92154285D01*
X46712142Y-92106666D01*
X46378809Y-92106666D01*
X46378809Y-92297142D01*
X46807380Y-91678095D02*
X45807380Y-91678095D01*
X45807380Y-91297142D01*
X45855000Y-91201904D01*
X45902619Y-91154285D01*
X45997857Y-91106666D01*
X46140714Y-91106666D01*
X46235952Y-91154285D01*
X46283571Y-91201904D01*
X46331190Y-91297142D01*
X46331190Y-91678095D01*
X45807380Y-90773333D02*
X46807380Y-90106666D01*
X45807380Y-90106666D02*
X46807380Y-90773333D01*
X34107380Y-92186047D02*
X33631190Y-92519380D01*
X34107380Y-92757476D02*
X33107380Y-92757476D01*
X33107380Y-92376523D01*
X33155000Y-92281285D01*
X33202619Y-92233666D01*
X33297857Y-92186047D01*
X33440714Y-92186047D01*
X33535952Y-92233666D01*
X33583571Y-92281285D01*
X33631190Y-92376523D01*
X33631190Y-92757476D01*
X33583571Y-91757476D02*
X33583571Y-91424142D01*
X34107380Y-91281285D02*
X34107380Y-91757476D01*
X33107380Y-91757476D01*
X33107380Y-91281285D01*
X34059761Y-90900333D02*
X34107380Y-90757476D01*
X34107380Y-90519380D01*
X34059761Y-90424142D01*
X34012142Y-90376523D01*
X33916904Y-90328904D01*
X33821666Y-90328904D01*
X33726428Y-90376523D01*
X33678809Y-90424142D01*
X33631190Y-90519380D01*
X33583571Y-90709857D01*
X33535952Y-90805095D01*
X33488333Y-90852714D01*
X33393095Y-90900333D01*
X33297857Y-90900333D01*
X33202619Y-90852714D01*
X33155000Y-90805095D01*
X33107380Y-90709857D01*
X33107380Y-90471761D01*
X33155000Y-90328904D01*
X53427380Y-92638333D02*
X54427380Y-92305000D01*
X53427380Y-91971666D01*
X53903571Y-91305000D02*
X53951190Y-91162142D01*
X53998809Y-91114523D01*
X54094047Y-91066904D01*
X54236904Y-91066904D01*
X54332142Y-91114523D01*
X54379761Y-91162142D01*
X54427380Y-91257380D01*
X54427380Y-91638333D01*
X53427380Y-91638333D01*
X53427380Y-91305000D01*
X53475000Y-91209761D01*
X53522619Y-91162142D01*
X53617857Y-91114523D01*
X53713095Y-91114523D01*
X53808333Y-91162142D01*
X53855952Y-91209761D01*
X53903571Y-91305000D01*
X53903571Y-91638333D01*
X53427380Y-90638333D02*
X54236904Y-90638333D01*
X54332142Y-90590714D01*
X54379761Y-90543095D01*
X54427380Y-90447857D01*
X54427380Y-90257380D01*
X54379761Y-90162142D01*
X54332142Y-90114523D01*
X54236904Y-90066904D01*
X53427380Y-90066904D01*
X54379761Y-89638333D02*
X54427380Y-89495476D01*
X54427380Y-89257380D01*
X54379761Y-89162142D01*
X54332142Y-89114523D01*
X54236904Y-89066904D01*
X54141666Y-89066904D01*
X54046428Y-89114523D01*
X53998809Y-89162142D01*
X53951190Y-89257380D01*
X53903571Y-89447857D01*
X53855952Y-89543095D01*
X53808333Y-89590714D01*
X53713095Y-89638333D01*
X53617857Y-89638333D01*
X53522619Y-89590714D01*
X53475000Y-89543095D01*
X53427380Y-89447857D01*
X53427380Y-89209761D01*
X53475000Y-89066904D01*
X50887380Y-92662190D02*
X50887380Y-92043142D01*
X51268333Y-92376476D01*
X51268333Y-92233619D01*
X51315952Y-92138380D01*
X51363571Y-92090761D01*
X51458809Y-92043142D01*
X51696904Y-92043142D01*
X51792142Y-92090761D01*
X51839761Y-92138380D01*
X51887380Y-92233619D01*
X51887380Y-92519333D01*
X51839761Y-92614571D01*
X51792142Y-92662190D01*
X51792142Y-91614571D02*
X51839761Y-91566952D01*
X51887380Y-91614571D01*
X51839761Y-91662190D01*
X51792142Y-91614571D01*
X51887380Y-91614571D01*
X50887380Y-91233619D02*
X50887380Y-90614571D01*
X51268333Y-90947904D01*
X51268333Y-90805047D01*
X51315952Y-90709809D01*
X51363571Y-90662190D01*
X51458809Y-90614571D01*
X51696904Y-90614571D01*
X51792142Y-90662190D01*
X51839761Y-90709809D01*
X51887380Y-90805047D01*
X51887380Y-91090761D01*
X51839761Y-91186000D01*
X51792142Y-91233619D01*
X50887380Y-90328857D02*
X51887380Y-89995523D01*
X50887380Y-89662190D01*
X30615000Y-92201904D02*
X30567380Y-92297142D01*
X30567380Y-92440000D01*
X30615000Y-92582857D01*
X30710238Y-92678095D01*
X30805476Y-92725714D01*
X30995952Y-92773333D01*
X31138809Y-92773333D01*
X31329285Y-92725714D01*
X31424523Y-92678095D01*
X31519761Y-92582857D01*
X31567380Y-92440000D01*
X31567380Y-92344761D01*
X31519761Y-92201904D01*
X31472142Y-92154285D01*
X31138809Y-92154285D01*
X31138809Y-92344761D01*
X31567380Y-91725714D02*
X30567380Y-91725714D01*
X31567380Y-91154285D01*
X30567380Y-91154285D01*
X31567380Y-90678095D02*
X30567380Y-90678095D01*
X30567380Y-90440000D01*
X30615000Y-90297142D01*
X30710238Y-90201904D01*
X30805476Y-90154285D01*
X30995952Y-90106666D01*
X31138809Y-90106666D01*
X31329285Y-90154285D01*
X31424523Y-90201904D01*
X31519761Y-90297142D01*
X31567380Y-90440000D01*
X31567380Y-90678095D01*
X35861666Y-55967380D02*
X36480714Y-55967380D01*
X36147380Y-56348333D01*
X36290238Y-56348333D01*
X36385476Y-56395952D01*
X36433095Y-56443571D01*
X36480714Y-56538809D01*
X36480714Y-56776904D01*
X36433095Y-56872142D01*
X36385476Y-56919761D01*
X36290238Y-56967380D01*
X36004523Y-56967380D01*
X35909285Y-56919761D01*
X35861666Y-56872142D01*
X33369285Y-56062619D02*
X33416904Y-56015000D01*
X33512142Y-55967380D01*
X33750238Y-55967380D01*
X33845476Y-56015000D01*
X33893095Y-56062619D01*
X33940714Y-56157857D01*
X33940714Y-56253095D01*
X33893095Y-56395952D01*
X33321666Y-56967380D01*
X33940714Y-56967380D01*
X31400714Y-56967380D02*
X30829285Y-56967380D01*
X31115000Y-56967380D02*
X31115000Y-55967380D01*
X31019761Y-56110238D01*
X30924523Y-56205476D01*
X30829285Y-56253095D01*
D12*
X30099000Y-48895000D02*
X29464000Y-48260000D01*
X30099000Y-47625000D02*
X29464000Y-48260000D01*
X29464000Y-48260000D02*
X30099000Y-47625000D01*
X31369000Y-48260000D02*
X29464000Y-48260000D01*
X38989000Y-48895000D02*
X39624000Y-48260000D01*
X38989000Y-47625000D02*
X39624000Y-48260000D01*
X37719000Y-48260000D02*
X39624000Y-48260000D01*
D10*
X55332380Y-78033333D02*
X56332380Y-77700000D01*
X55332380Y-77366666D01*
X55808571Y-76700000D02*
X55856190Y-76557142D01*
X55903809Y-76509523D01*
X55999047Y-76461904D01*
X56141904Y-76461904D01*
X56237142Y-76509523D01*
X56284761Y-76557142D01*
X56332380Y-76652380D01*
X56332380Y-77033333D01*
X55332380Y-77033333D01*
X55332380Y-76700000D01*
X55380000Y-76604761D01*
X55427619Y-76557142D01*
X55522857Y-76509523D01*
X55618095Y-76509523D01*
X55713333Y-76557142D01*
X55760952Y-76604761D01*
X55808571Y-76700000D01*
X55808571Y-77033333D01*
X55332380Y-76033333D02*
X56141904Y-76033333D01*
X56237142Y-75985714D01*
X56284761Y-75938095D01*
X56332380Y-75842857D01*
X56332380Y-75652380D01*
X56284761Y-75557142D01*
X56237142Y-75509523D01*
X56141904Y-75461904D01*
X55332380Y-75461904D01*
X56284761Y-75033333D02*
X56332380Y-74890476D01*
X56332380Y-74652380D01*
X56284761Y-74557142D01*
X56237142Y-74509523D01*
X56141904Y-74461904D01*
X56046666Y-74461904D01*
X55951428Y-74509523D01*
X55903809Y-74557142D01*
X55856190Y-74652380D01*
X55808571Y-74842857D01*
X55760952Y-74938095D01*
X55713333Y-74985714D01*
X55618095Y-75033333D01*
X55522857Y-75033333D01*
X55427619Y-74985714D01*
X55380000Y-74938095D01*
X55332380Y-74842857D01*
X55332380Y-74604761D01*
X55380000Y-74461904D01*
X52840000Y-76326904D02*
X52792380Y-76422142D01*
X52792380Y-76565000D01*
X52840000Y-76707857D01*
X52935238Y-76803095D01*
X53030476Y-76850714D01*
X53220952Y-76898333D01*
X53363809Y-76898333D01*
X53554285Y-76850714D01*
X53649523Y-76803095D01*
X53744761Y-76707857D01*
X53792380Y-76565000D01*
X53792380Y-76469761D01*
X53744761Y-76326904D01*
X53697142Y-76279285D01*
X53363809Y-76279285D01*
X53363809Y-76469761D01*
X53792380Y-75850714D02*
X52792380Y-75850714D01*
X53792380Y-75279285D01*
X52792380Y-75279285D01*
X53792380Y-74803095D02*
X52792380Y-74803095D01*
X52792380Y-74565000D01*
X52840000Y-74422142D01*
X52935238Y-74326904D01*
X53030476Y-74279285D01*
X53220952Y-74231666D01*
X53363809Y-74231666D01*
X53554285Y-74279285D01*
X53649523Y-74326904D01*
X53744761Y-74422142D01*
X53792380Y-74565000D01*
X53792380Y-74803095D01*
X51252380Y-75810952D02*
X50252380Y-75810952D01*
X50252380Y-75572857D01*
X50300000Y-75430000D01*
X50395238Y-75334761D01*
X50490476Y-75287142D01*
X50680952Y-75239523D01*
X50823809Y-75239523D01*
X51014285Y-75287142D01*
X51109523Y-75334761D01*
X51204761Y-75430000D01*
X51252380Y-75572857D01*
X51252380Y-75810952D01*
X50871428Y-74810952D02*
X50871428Y-74049047D01*
X48712380Y-75810952D02*
X47712380Y-75810952D01*
X47712380Y-75572857D01*
X47760000Y-75430000D01*
X47855238Y-75334761D01*
X47950476Y-75287142D01*
X48140952Y-75239523D01*
X48283809Y-75239523D01*
X48474285Y-75287142D01*
X48569523Y-75334761D01*
X48664761Y-75430000D01*
X48712380Y-75572857D01*
X48712380Y-75810952D01*
X48331428Y-74810952D02*
X48331428Y-74049047D01*
X48712380Y-74430000D02*
X47950476Y-74430000D01*
X30129714Y-50105428D02*
X30086857Y-50148285D01*
X29958285Y-50191142D01*
X29872571Y-50191142D01*
X29744000Y-50148285D01*
X29658285Y-50062571D01*
X29615428Y-49976857D01*
X29572571Y-49805428D01*
X29572571Y-49676857D01*
X29615428Y-49505428D01*
X29658285Y-49419714D01*
X29744000Y-49334000D01*
X29872571Y-49291142D01*
X29958285Y-49291142D01*
X30086857Y-49334000D01*
X30129714Y-49376857D01*
X30686857Y-49291142D02*
X30858285Y-49291142D01*
X30944000Y-49334000D01*
X31029714Y-49419714D01*
X31072571Y-49591142D01*
X31072571Y-49891142D01*
X31029714Y-50062571D01*
X30944000Y-50148285D01*
X30858285Y-50191142D01*
X30686857Y-50191142D01*
X30601142Y-50148285D01*
X30515428Y-50062571D01*
X30472571Y-49891142D01*
X30472571Y-49591142D01*
X30515428Y-49419714D01*
X30601142Y-49334000D01*
X30686857Y-49291142D01*
X31458285Y-50191142D02*
X31458285Y-49291142D01*
X31972571Y-50191142D01*
X31972571Y-49291142D01*
X32401142Y-50191142D02*
X32401142Y-49291142D01*
X32915428Y-50191142D01*
X32915428Y-49291142D01*
X33344000Y-49719714D02*
X33644000Y-49719714D01*
X33772571Y-50191142D02*
X33344000Y-50191142D01*
X33344000Y-49291142D01*
X33772571Y-49291142D01*
X34672571Y-50105428D02*
X34629714Y-50148285D01*
X34501142Y-50191142D01*
X34415428Y-50191142D01*
X34286857Y-50148285D01*
X34201142Y-50062571D01*
X34158285Y-49976857D01*
X34115428Y-49805428D01*
X34115428Y-49676857D01*
X34158285Y-49505428D01*
X34201142Y-49419714D01*
X34286857Y-49334000D01*
X34415428Y-49291142D01*
X34501142Y-49291142D01*
X34629714Y-49334000D01*
X34672571Y-49376857D01*
X34929714Y-49291142D02*
X35444000Y-49291142D01*
X35186857Y-50191142D02*
X35186857Y-49291142D01*
X36729714Y-49719714D02*
X36858285Y-49762571D01*
X36901142Y-49805428D01*
X36944000Y-49891142D01*
X36944000Y-50019714D01*
X36901142Y-50105428D01*
X36858285Y-50148285D01*
X36772571Y-50191142D01*
X36429714Y-50191142D01*
X36429714Y-49291142D01*
X36729714Y-49291142D01*
X36815428Y-49334000D01*
X36858285Y-49376857D01*
X36901142Y-49462571D01*
X36901142Y-49548285D01*
X36858285Y-49634000D01*
X36815428Y-49676857D01*
X36729714Y-49719714D01*
X36429714Y-49719714D01*
X37501142Y-49291142D02*
X37672571Y-49291142D01*
X37758285Y-49334000D01*
X37844000Y-49419714D01*
X37886857Y-49591142D01*
X37886857Y-49891142D01*
X37844000Y-50062571D01*
X37758285Y-50148285D01*
X37672571Y-50191142D01*
X37501142Y-50191142D01*
X37415428Y-50148285D01*
X37329714Y-50062571D01*
X37286857Y-49891142D01*
X37286857Y-49591142D01*
X37329714Y-49419714D01*
X37415428Y-49334000D01*
X37501142Y-49291142D01*
X38144000Y-49291142D02*
X38658285Y-49291142D01*
X38401142Y-50191142D02*
X38401142Y-49291142D01*
X38958285Y-50191142D02*
X38958285Y-49291142D01*
X38958285Y-49719714D02*
X39472571Y-49719714D01*
X39472571Y-50191142D02*
X39472571Y-49291142D01*
X32208285Y-48667142D02*
X32208285Y-47767142D01*
X32422571Y-47767142D01*
X32551142Y-47810000D01*
X32636857Y-47895714D01*
X32679714Y-47981428D01*
X32722571Y-48152857D01*
X32722571Y-48281428D01*
X32679714Y-48452857D01*
X32636857Y-48538571D01*
X32551142Y-48624285D01*
X32422571Y-48667142D01*
X32208285Y-48667142D01*
X33279714Y-47767142D02*
X33451142Y-47767142D01*
X33536857Y-47810000D01*
X33622571Y-47895714D01*
X33665428Y-48067142D01*
X33665428Y-48367142D01*
X33622571Y-48538571D01*
X33536857Y-48624285D01*
X33451142Y-48667142D01*
X33279714Y-48667142D01*
X33194000Y-48624285D01*
X33108285Y-48538571D01*
X33065428Y-48367142D01*
X33065428Y-48067142D01*
X33108285Y-47895714D01*
X33194000Y-47810000D01*
X33279714Y-47767142D01*
X34736857Y-48667142D02*
X34736857Y-47767142D01*
X35251142Y-48667142D01*
X35251142Y-47767142D01*
X35851142Y-47767142D02*
X36022571Y-47767142D01*
X36108285Y-47810000D01*
X36194000Y-47895714D01*
X36236857Y-48067142D01*
X36236857Y-48367142D01*
X36194000Y-48538571D01*
X36108285Y-48624285D01*
X36022571Y-48667142D01*
X35851142Y-48667142D01*
X35765428Y-48624285D01*
X35679714Y-48538571D01*
X35636857Y-48367142D01*
X35636857Y-48067142D01*
X35679714Y-47895714D01*
X35765428Y-47810000D01*
X35851142Y-47767142D01*
X36494000Y-47767142D02*
X37008285Y-47767142D01*
X36751142Y-48667142D02*
X36751142Y-47767142D01*
D12*
X40425000Y-73160000D02*
X40425000Y-74160000D01*
X42125000Y-74160000D02*
X42125000Y-73160000D01*
D13*
X39018679Y-80645000D02*
G75*
G03X39018679Y-80645000I-499999J0D01*
G01*
X37104466Y-80645000D02*
X40640000Y-84180534D01*
X40640000Y-77109466D02*
X37104466Y-80645000D01*
X44175534Y-80645000D02*
X40640000Y-77109466D01*
X40640000Y-84180534D02*
X44175534Y-80645000D01*
D12*
X38345000Y-52660000D02*
X38345000Y-53860000D01*
X36585000Y-53860000D02*
X36585000Y-52660000D01*
X41020000Y-60325000D02*
X41020000Y-57995000D01*
X56010000Y-60325000D02*
X56010000Y-58205000D01*
X41020000Y-60325000D02*
X56010000Y-60325000D01*
X41020000Y-46235000D02*
X56010000Y-46235000D01*
X41020000Y-55035000D02*
X41020000Y-46235000D01*
X56010000Y-54835000D02*
X56010000Y-46235000D01*
X42330000Y-73160000D02*
X42330000Y-74160000D01*
X44030000Y-74160000D02*
X44030000Y-73160000D01*
X51300000Y-85002000D02*
X50300000Y-85002000D01*
X50300000Y-86702000D02*
X51300000Y-86702000D01*
X44235000Y-71910000D02*
X44235000Y-72910000D01*
X45935000Y-72910000D02*
X45935000Y-71910000D01*
X28765000Y-45965000D02*
X20765000Y-45965000D01*
X28765000Y-53285000D02*
X20765000Y-53285000D01*
X20765000Y-53285000D02*
X20765000Y-45965000D01*
X20765000Y-46585000D02*
X28765000Y-46585000D01*
X28765000Y-45965000D02*
X28765000Y-53285000D01*
X46930000Y-70425000D02*
X46930000Y-73085000D01*
X54610000Y-70425000D02*
X46930000Y-70425000D01*
X54610000Y-73085000D02*
X46930000Y-73085000D01*
X54610000Y-70425000D02*
X54610000Y-73085000D01*
X55880000Y-70425000D02*
X57210000Y-70425000D01*
X57210000Y-70425000D02*
X57210000Y-71755000D01*
X46745000Y-66720000D02*
X46745000Y-65520000D01*
X48505000Y-65520000D02*
X48505000Y-66720000D01*
X27780000Y-70380000D02*
X35030000Y-70380000D01*
X35030000Y-70380000D02*
X35030000Y-66780000D01*
X35030000Y-66780000D02*
X27780000Y-66780000D01*
X49920000Y-66720000D02*
X49920000Y-65520000D01*
X51680000Y-65520000D02*
X51680000Y-66720000D01*
X22165000Y-94040000D02*
X24825000Y-94040000D01*
X22165000Y-76200000D02*
X22165000Y-94040000D01*
X24825000Y-76200000D02*
X24825000Y-94040000D01*
X22165000Y-76200000D02*
X24825000Y-76200000D01*
X22165000Y-74930000D02*
X22165000Y-73600000D01*
X22165000Y-73600000D02*
X23495000Y-73600000D01*
X51775000Y-82815000D02*
X51775000Y-81015000D01*
X48555000Y-81015000D02*
X48555000Y-83465000D01*
X27420000Y-76590000D02*
X28620000Y-76590000D01*
X28620000Y-78350000D02*
X27420000Y-78350000D01*
X28620000Y-73270000D02*
X27420000Y-73270000D01*
X27420000Y-71510000D02*
X28620000Y-71510000D01*
X40595000Y-86750000D02*
X41795000Y-86750000D01*
X41795000Y-88510000D02*
X40595000Y-88510000D01*
X27420000Y-74050000D02*
X28620000Y-74050000D01*
X28620000Y-75810000D02*
X27420000Y-75810000D01*
X25790000Y-57195000D02*
X25790000Y-55995000D01*
X27550000Y-55995000D02*
X27550000Y-57195000D01*
X22615000Y-57195000D02*
X22615000Y-55995000D01*
X24375000Y-55995000D02*
X24375000Y-57195000D01*
X38162000Y-70882000D02*
X39562000Y-70882000D01*
X40262000Y-71582000D02*
X40262000Y-72182000D01*
X39562000Y-72882000D02*
X38162000Y-72882000D01*
X37462000Y-72182000D02*
X37462000Y-71582000D01*
X37462000Y-71582000D02*
G75*
G02X38162000Y-70882000I700000J0D01*
G01*
X38162000Y-72882000D02*
G75*
G02X37462000Y-72182000I0J700000D01*
G01*
X40262000Y-72182000D02*
G75*
G02X39562000Y-72882000I-700000J0D01*
G01*
X39562000Y-70882000D02*
G75*
G02X40262000Y-71582000I0J-700000D01*
G01*
X33810000Y-84035000D02*
X34810000Y-84035000D01*
X34810000Y-82335000D02*
X33810000Y-82335000D01*
X50792000Y-77636000D02*
X49792000Y-77636000D01*
X49792000Y-79336000D02*
X50792000Y-79336000D01*
X53936000Y-82288000D02*
X53936000Y-81288000D01*
X52236000Y-81288000D02*
X52236000Y-82288000D01*
X32500000Y-66255000D02*
X33500000Y-66255000D01*
X33500000Y-64555000D02*
X32500000Y-64555000D01*
X27420000Y-66255000D02*
X28420000Y-66255000D01*
X28420000Y-64555000D02*
X27420000Y-64555000D01*
X37525000Y-60385000D02*
X37525000Y-57725000D01*
X32385000Y-60385000D02*
X37525000Y-60385000D01*
X32385000Y-57725000D02*
X37525000Y-57725000D01*
X32385000Y-60385000D02*
X32385000Y-57725000D01*
X31115000Y-60385000D02*
X29785000Y-60385000D01*
X29785000Y-60385000D02*
X29785000Y-59055000D01*
X34217000Y-52050000D02*
X32417000Y-52050000D01*
X32417000Y-55270000D02*
X34867000Y-55270000D01*
X55305000Y-95945000D02*
X55305000Y-93285000D01*
X32385000Y-95945000D02*
X55305000Y-95945000D01*
X32385000Y-93285000D02*
X55305000Y-93285000D01*
X32385000Y-95945000D02*
X32385000Y-93285000D01*
X31115000Y-95945000D02*
X29785000Y-95945000D01*
X29785000Y-95945000D02*
X29785000Y-94615000D01*
X19625000Y-94040000D02*
X22285000Y-94040000D01*
X19625000Y-76200000D02*
X19625000Y-94040000D01*
X22285000Y-76200000D02*
X22285000Y-94040000D01*
X19625000Y-76200000D02*
X22285000Y-76200000D01*
X19625000Y-74930000D02*
X19625000Y-73600000D01*
X19625000Y-73600000D02*
X20955000Y-73600000D01*
D10*
X38219142Y-75287142D02*
X38171523Y-75334761D01*
X38028666Y-75382380D01*
X37933428Y-75382380D01*
X37790571Y-75334761D01*
X37695333Y-75239523D01*
X37647714Y-75144285D01*
X37600095Y-74953809D01*
X37600095Y-74810952D01*
X37647714Y-74620476D01*
X37695333Y-74525238D01*
X37790571Y-74430000D01*
X37933428Y-74382380D01*
X38028666Y-74382380D01*
X38171523Y-74430000D01*
X38219142Y-74477619D01*
X39171523Y-75382380D02*
X38600095Y-75382380D01*
X38885809Y-75382380D02*
X38885809Y-74382380D01*
X38790571Y-74525238D01*
X38695333Y-74620476D01*
X38600095Y-74668095D01*
X39790571Y-74382380D02*
X39885809Y-74382380D01*
X39981047Y-74430000D01*
X40028666Y-74477619D01*
X40076285Y-74572857D01*
X40123904Y-74763333D01*
X40123904Y-75001428D01*
X40076285Y-75191904D01*
X40028666Y-75287142D01*
X39981047Y-75334761D01*
X39885809Y-75382380D01*
X39790571Y-75382380D01*
X39695333Y-75334761D01*
X39647714Y-75287142D01*
X39600095Y-75191904D01*
X39552476Y-75001428D01*
X39552476Y-74763333D01*
X39600095Y-74572857D01*
X39647714Y-74477619D01*
X39695333Y-74430000D01*
X39790571Y-74382380D01*
X39330333Y-53886380D02*
X38854142Y-53886380D01*
X38854142Y-52886380D01*
X40187476Y-53886380D02*
X39616047Y-53886380D01*
X39901761Y-53886380D02*
X39901761Y-52886380D01*
X39806523Y-53029238D01*
X39711285Y-53124476D01*
X39616047Y-53172095D01*
X48311666Y-60987380D02*
X48311666Y-61701666D01*
X48264047Y-61844523D01*
X48168809Y-61939761D01*
X48025952Y-61987380D01*
X47930714Y-61987380D01*
X49311666Y-61987380D02*
X48740238Y-61987380D01*
X49025952Y-61987380D02*
X49025952Y-60987380D01*
X48930714Y-61130238D01*
X48835476Y-61225476D01*
X48740238Y-61273095D01*
X43013333Y-71096142D02*
X42965714Y-71143761D01*
X42822857Y-71191380D01*
X42727619Y-71191380D01*
X42584761Y-71143761D01*
X42489523Y-71048523D01*
X42441904Y-70953285D01*
X42394285Y-70762809D01*
X42394285Y-70619952D01*
X42441904Y-70429476D01*
X42489523Y-70334238D01*
X42584761Y-70239000D01*
X42727619Y-70191380D01*
X42822857Y-70191380D01*
X42965714Y-70239000D01*
X43013333Y-70286619D01*
X43489523Y-71191380D02*
X43680000Y-71191380D01*
X43775238Y-71143761D01*
X43822857Y-71096142D01*
X43918095Y-70953285D01*
X43965714Y-70762809D01*
X43965714Y-70381857D01*
X43918095Y-70286619D01*
X43870476Y-70239000D01*
X43775238Y-70191380D01*
X43584761Y-70191380D01*
X43489523Y-70239000D01*
X43441904Y-70286619D01*
X43394285Y-70381857D01*
X43394285Y-70619952D01*
X43441904Y-70715190D01*
X43489523Y-70762809D01*
X43584761Y-70810428D01*
X43775238Y-70810428D01*
X43870476Y-70762809D01*
X43918095Y-70715190D01*
X43965714Y-70619952D01*
X53808333Y-86209142D02*
X53760714Y-86256761D01*
X53617857Y-86304380D01*
X53522619Y-86304380D01*
X53379761Y-86256761D01*
X53284523Y-86161523D01*
X53236904Y-86066285D01*
X53189285Y-85875809D01*
X53189285Y-85732952D01*
X53236904Y-85542476D01*
X53284523Y-85447238D01*
X53379761Y-85352000D01*
X53522619Y-85304380D01*
X53617857Y-85304380D01*
X53760714Y-85352000D01*
X53808333Y-85399619D01*
X54379761Y-85732952D02*
X54284523Y-85685333D01*
X54236904Y-85637714D01*
X54189285Y-85542476D01*
X54189285Y-85494857D01*
X54236904Y-85399619D01*
X54284523Y-85352000D01*
X54379761Y-85304380D01*
X54570238Y-85304380D01*
X54665476Y-85352000D01*
X54713095Y-85399619D01*
X54760714Y-85494857D01*
X54760714Y-85542476D01*
X54713095Y-85637714D01*
X54665476Y-85685333D01*
X54570238Y-85732952D01*
X54379761Y-85732952D01*
X54284523Y-85780571D01*
X54236904Y-85828190D01*
X54189285Y-85923428D01*
X54189285Y-86113904D01*
X54236904Y-86209142D01*
X54284523Y-86256761D01*
X54379761Y-86304380D01*
X54570238Y-86304380D01*
X54665476Y-86256761D01*
X54713095Y-86209142D01*
X54760714Y-86113904D01*
X54760714Y-85923428D01*
X54713095Y-85828190D01*
X54665476Y-85780571D01*
X54570238Y-85732952D01*
X45045333Y-75541142D02*
X44997714Y-75588761D01*
X44854857Y-75636380D01*
X44759619Y-75636380D01*
X44616761Y-75588761D01*
X44521523Y-75493523D01*
X44473904Y-75398285D01*
X44426285Y-75207809D01*
X44426285Y-75064952D01*
X44473904Y-74874476D01*
X44521523Y-74779238D01*
X44616761Y-74684000D01*
X44759619Y-74636380D01*
X44854857Y-74636380D01*
X44997714Y-74684000D01*
X45045333Y-74731619D01*
X45902476Y-74636380D02*
X45712000Y-74636380D01*
X45616761Y-74684000D01*
X45569142Y-74731619D01*
X45473904Y-74874476D01*
X45426285Y-75064952D01*
X45426285Y-75445904D01*
X45473904Y-75541142D01*
X45521523Y-75588761D01*
X45616761Y-75636380D01*
X45807238Y-75636380D01*
X45902476Y-75588761D01*
X45950095Y-75541142D01*
X45997714Y-75445904D01*
X45997714Y-75207809D01*
X45950095Y-75112571D01*
X45902476Y-75064952D01*
X45807238Y-75017333D01*
X45616761Y-75017333D01*
X45521523Y-75064952D01*
X45473904Y-75112571D01*
X45426285Y-75207809D01*
X24812666Y-53808380D02*
X24812666Y-54522666D01*
X24765047Y-54665523D01*
X24669809Y-54760761D01*
X24526952Y-54808380D01*
X24431714Y-54808380D01*
X25241238Y-53903619D02*
X25288857Y-53856000D01*
X25384095Y-53808380D01*
X25622190Y-53808380D01*
X25717428Y-53856000D01*
X25765047Y-53903619D01*
X25812666Y-53998857D01*
X25812666Y-54094095D01*
X25765047Y-54236952D01*
X25193619Y-54808380D01*
X25812666Y-54808380D01*
X55546666Y-68667380D02*
X55546666Y-69381666D01*
X55499047Y-69524523D01*
X55403809Y-69619761D01*
X55260952Y-69667380D01*
X55165714Y-69667380D01*
X55927619Y-68667380D02*
X56594285Y-68667380D01*
X56165714Y-69667380D01*
X47458333Y-69667380D02*
X47125000Y-69191190D01*
X46886904Y-69667380D02*
X46886904Y-68667380D01*
X47267857Y-68667380D01*
X47363095Y-68715000D01*
X47410714Y-68762619D01*
X47458333Y-68857857D01*
X47458333Y-69000714D01*
X47410714Y-69095952D01*
X47363095Y-69143571D01*
X47267857Y-69191190D01*
X46886904Y-69191190D01*
X48410714Y-69667380D02*
X47839285Y-69667380D01*
X48125000Y-69667380D02*
X48125000Y-68667380D01*
X48029761Y-68810238D01*
X47934523Y-68905476D01*
X47839285Y-68953095D01*
X33813809Y-71096190D02*
X33813809Y-71572380D01*
X33480476Y-70572380D02*
X33813809Y-71096190D01*
X34147142Y-70572380D01*
X35004285Y-71572380D02*
X34432857Y-71572380D01*
X34718571Y-71572380D02*
X34718571Y-70572380D01*
X34623333Y-70715238D01*
X34528095Y-70810476D01*
X34432857Y-70858095D01*
X50887333Y-69667380D02*
X50554000Y-69191190D01*
X50315904Y-69667380D02*
X50315904Y-68667380D01*
X50696857Y-68667380D01*
X50792095Y-68715000D01*
X50839714Y-68762619D01*
X50887333Y-68857857D01*
X50887333Y-69000714D01*
X50839714Y-69095952D01*
X50792095Y-69143571D01*
X50696857Y-69191190D01*
X50315904Y-69191190D01*
X51268285Y-68762619D02*
X51315904Y-68715000D01*
X51411142Y-68667380D01*
X51649238Y-68667380D01*
X51744476Y-68715000D01*
X51792095Y-68762619D01*
X51839714Y-68857857D01*
X51839714Y-68953095D01*
X51792095Y-69095952D01*
X51220666Y-69667380D01*
X51839714Y-69667380D01*
X22947380Y-68278333D02*
X23661666Y-68278333D01*
X23804523Y-68325952D01*
X23899761Y-68421190D01*
X23947380Y-68564047D01*
X23947380Y-68659285D01*
X23280714Y-67373571D02*
X23947380Y-67373571D01*
X22899761Y-67611666D02*
X23614047Y-67849761D01*
X23614047Y-67230714D01*
X46609095Y-81621380D02*
X46609095Y-82430904D01*
X46656714Y-82526142D01*
X46704333Y-82573761D01*
X46799571Y-82621380D01*
X46990047Y-82621380D01*
X47085285Y-82573761D01*
X47132904Y-82526142D01*
X47180523Y-82430904D01*
X47180523Y-81621380D01*
X47609095Y-81716619D02*
X47656714Y-81669000D01*
X47751952Y-81621380D01*
X47990047Y-81621380D01*
X48085285Y-81669000D01*
X48132904Y-81716619D01*
X48180523Y-81811857D01*
X48180523Y-81907095D01*
X48132904Y-82049952D01*
X47561476Y-82621380D01*
X48180523Y-82621380D01*
X32218333Y-77922380D02*
X31885000Y-77446190D01*
X31646904Y-77922380D02*
X31646904Y-76922380D01*
X32027857Y-76922380D01*
X32123095Y-76970000D01*
X32170714Y-77017619D01*
X32218333Y-77112857D01*
X32218333Y-77255714D01*
X32170714Y-77350952D01*
X32123095Y-77398571D01*
X32027857Y-77446190D01*
X31646904Y-77446190D01*
X32789761Y-77350952D02*
X32694523Y-77303333D01*
X32646904Y-77255714D01*
X32599285Y-77160476D01*
X32599285Y-77112857D01*
X32646904Y-77017619D01*
X32694523Y-76970000D01*
X32789761Y-76922380D01*
X32980238Y-76922380D01*
X33075476Y-76970000D01*
X33123095Y-77017619D01*
X33170714Y-77112857D01*
X33170714Y-77160476D01*
X33123095Y-77255714D01*
X33075476Y-77303333D01*
X32980238Y-77350952D01*
X32789761Y-77350952D01*
X32694523Y-77398571D01*
X32646904Y-77446190D01*
X32599285Y-77541428D01*
X32599285Y-77731904D01*
X32646904Y-77827142D01*
X32694523Y-77874761D01*
X32789761Y-77922380D01*
X32980238Y-77922380D01*
X33075476Y-77874761D01*
X33123095Y-77827142D01*
X33170714Y-77731904D01*
X33170714Y-77541428D01*
X33123095Y-77446190D01*
X33075476Y-77398571D01*
X32980238Y-77350952D01*
X32218333Y-72842380D02*
X31885000Y-72366190D01*
X31646904Y-72842380D02*
X31646904Y-71842380D01*
X32027857Y-71842380D01*
X32123095Y-71890000D01*
X32170714Y-71937619D01*
X32218333Y-72032857D01*
X32218333Y-72175714D01*
X32170714Y-72270952D01*
X32123095Y-72318571D01*
X32027857Y-72366190D01*
X31646904Y-72366190D01*
X32551666Y-71842380D02*
X33218333Y-71842380D01*
X32789761Y-72842380D01*
X44283333Y-88082380D02*
X43950000Y-87606190D01*
X43711904Y-88082380D02*
X43711904Y-87082380D01*
X44092857Y-87082380D01*
X44188095Y-87130000D01*
X44235714Y-87177619D01*
X44283333Y-87272857D01*
X44283333Y-87415714D01*
X44235714Y-87510952D01*
X44188095Y-87558571D01*
X44092857Y-87606190D01*
X43711904Y-87606190D01*
X45140476Y-87082380D02*
X44950000Y-87082380D01*
X44854761Y-87130000D01*
X44807142Y-87177619D01*
X44711904Y-87320476D01*
X44664285Y-87510952D01*
X44664285Y-87891904D01*
X44711904Y-87987142D01*
X44759523Y-88034761D01*
X44854761Y-88082380D01*
X45045238Y-88082380D01*
X45140476Y-88034761D01*
X45188095Y-87987142D01*
X45235714Y-87891904D01*
X45235714Y-87653809D01*
X45188095Y-87558571D01*
X45140476Y-87510952D01*
X45045238Y-87463333D01*
X44854761Y-87463333D01*
X44759523Y-87510952D01*
X44711904Y-87558571D01*
X44664285Y-87653809D01*
X32218333Y-75382380D02*
X31885000Y-74906190D01*
X31646904Y-75382380D02*
X31646904Y-74382380D01*
X32027857Y-74382380D01*
X32123095Y-74430000D01*
X32170714Y-74477619D01*
X32218333Y-74572857D01*
X32218333Y-74715714D01*
X32170714Y-74810952D01*
X32123095Y-74858571D01*
X32027857Y-74906190D01*
X31646904Y-74906190D01*
X33123095Y-74382380D02*
X32646904Y-74382380D01*
X32599285Y-74858571D01*
X32646904Y-74810952D01*
X32742142Y-74763333D01*
X32980238Y-74763333D01*
X33075476Y-74810952D01*
X33123095Y-74858571D01*
X33170714Y-74953809D01*
X33170714Y-75191904D01*
X33123095Y-75287142D01*
X33075476Y-75334761D01*
X32980238Y-75382380D01*
X32742142Y-75382380D01*
X32646904Y-75334761D01*
X32599285Y-75287142D01*
X26503333Y-60142380D02*
X26170000Y-59666190D01*
X25931904Y-60142380D02*
X25931904Y-59142380D01*
X26312857Y-59142380D01*
X26408095Y-59190000D01*
X26455714Y-59237619D01*
X26503333Y-59332857D01*
X26503333Y-59475714D01*
X26455714Y-59570952D01*
X26408095Y-59618571D01*
X26312857Y-59666190D01*
X25931904Y-59666190D01*
X27360476Y-59475714D02*
X27360476Y-60142380D01*
X27122380Y-59094761D02*
X26884285Y-59809047D01*
X27503333Y-59809047D01*
X23328333Y-60142380D02*
X22995000Y-59666190D01*
X22756904Y-60142380D02*
X22756904Y-59142380D01*
X23137857Y-59142380D01*
X23233095Y-59190000D01*
X23280714Y-59237619D01*
X23328333Y-59332857D01*
X23328333Y-59475714D01*
X23280714Y-59570952D01*
X23233095Y-59618571D01*
X23137857Y-59666190D01*
X22756904Y-59666190D01*
X23661666Y-59142380D02*
X24280714Y-59142380D01*
X23947380Y-59523333D01*
X24090238Y-59523333D01*
X24185476Y-59570952D01*
X24233095Y-59618571D01*
X24280714Y-59713809D01*
X24280714Y-59951904D01*
X24233095Y-60047142D01*
X24185476Y-60094761D01*
X24090238Y-60142380D01*
X23804523Y-60142380D01*
X23709285Y-60094761D01*
X23661666Y-60047142D01*
X38028666Y-69429380D02*
X38028666Y-70143666D01*
X37981047Y-70286523D01*
X37885809Y-70381761D01*
X37742952Y-70429380D01*
X37647714Y-70429380D01*
X38504857Y-70429380D02*
X38504857Y-69429380D01*
X38885809Y-69429380D01*
X38981047Y-69477000D01*
X39028666Y-69524619D01*
X39076285Y-69619857D01*
X39076285Y-69762714D01*
X39028666Y-69857952D01*
X38981047Y-69905571D01*
X38885809Y-69953190D01*
X38504857Y-69953190D01*
X40028666Y-70429380D02*
X39457238Y-70429380D01*
X39742952Y-70429380D02*
X39742952Y-69429380D01*
X39647714Y-69572238D01*
X39552476Y-69667476D01*
X39457238Y-69715095D01*
X30968333Y-83542142D02*
X30920714Y-83589761D01*
X30777857Y-83637380D01*
X30682619Y-83637380D01*
X30539761Y-83589761D01*
X30444523Y-83494523D01*
X30396904Y-83399285D01*
X30349285Y-83208809D01*
X30349285Y-83065952D01*
X30396904Y-82875476D01*
X30444523Y-82780238D01*
X30539761Y-82685000D01*
X30682619Y-82637380D01*
X30777857Y-82637380D01*
X30920714Y-82685000D01*
X30968333Y-82732619D01*
X31301666Y-82637380D02*
X31968333Y-82637380D01*
X31539761Y-83637380D01*
X47077333Y-78843142D02*
X47029714Y-78890761D01*
X46886857Y-78938380D01*
X46791619Y-78938380D01*
X46648761Y-78890761D01*
X46553523Y-78795523D01*
X46505904Y-78700285D01*
X46458285Y-78509809D01*
X46458285Y-78366952D01*
X46505904Y-78176476D01*
X46553523Y-78081238D01*
X46648761Y-77986000D01*
X46791619Y-77938380D01*
X46886857Y-77938380D01*
X47029714Y-77986000D01*
X47077333Y-78033619D01*
X47934476Y-78271714D02*
X47934476Y-78938380D01*
X47696380Y-77890761D02*
X47458285Y-78605047D01*
X48077333Y-78605047D01*
X54824333Y-82145142D02*
X54776714Y-82192761D01*
X54633857Y-82240380D01*
X54538619Y-82240380D01*
X54395761Y-82192761D01*
X54300523Y-82097523D01*
X54252904Y-82002285D01*
X54205285Y-81811809D01*
X54205285Y-81668952D01*
X54252904Y-81478476D01*
X54300523Y-81383238D01*
X54395761Y-81288000D01*
X54538619Y-81240380D01*
X54633857Y-81240380D01*
X54776714Y-81288000D01*
X54824333Y-81335619D01*
X55157666Y-81240380D02*
X55776714Y-81240380D01*
X55443380Y-81621333D01*
X55586238Y-81621333D01*
X55681476Y-81668952D01*
X55729095Y-81716571D01*
X55776714Y-81811809D01*
X55776714Y-82049904D01*
X55729095Y-82145142D01*
X55681476Y-82192761D01*
X55586238Y-82240380D01*
X55300523Y-82240380D01*
X55205285Y-82192761D01*
X55157666Y-82145142D01*
X33488333Y-63857142D02*
X33440714Y-63904761D01*
X33297857Y-63952380D01*
X33202619Y-63952380D01*
X33059761Y-63904761D01*
X32964523Y-63809523D01*
X32916904Y-63714285D01*
X32869285Y-63523809D01*
X32869285Y-63380952D01*
X32916904Y-63190476D01*
X32964523Y-63095238D01*
X33059761Y-63000000D01*
X33202619Y-62952380D01*
X33297857Y-62952380D01*
X33440714Y-63000000D01*
X33488333Y-63047619D01*
X33869285Y-63047619D02*
X33916904Y-63000000D01*
X34012142Y-62952380D01*
X34250238Y-62952380D01*
X34345476Y-63000000D01*
X34393095Y-63047619D01*
X34440714Y-63142857D01*
X34440714Y-63238095D01*
X34393095Y-63380952D01*
X33821666Y-63952380D01*
X34440714Y-63952380D01*
X27138333Y-63857142D02*
X27090714Y-63904761D01*
X26947857Y-63952380D01*
X26852619Y-63952380D01*
X26709761Y-63904761D01*
X26614523Y-63809523D01*
X26566904Y-63714285D01*
X26519285Y-63523809D01*
X26519285Y-63380952D01*
X26566904Y-63190476D01*
X26614523Y-63095238D01*
X26709761Y-63000000D01*
X26852619Y-62952380D01*
X26947857Y-62952380D01*
X27090714Y-63000000D01*
X27138333Y-63047619D01*
X28090714Y-63952380D02*
X27519285Y-63952380D01*
X27805000Y-63952380D02*
X27805000Y-62952380D01*
X27709761Y-63095238D01*
X27614523Y-63190476D01*
X27519285Y-63238095D01*
X37766666Y-61047380D02*
X37766666Y-61761666D01*
X37719047Y-61904523D01*
X37623809Y-61999761D01*
X37480952Y-62047380D01*
X37385714Y-62047380D01*
X38671428Y-61047380D02*
X38480952Y-61047380D01*
X38385714Y-61095000D01*
X38338095Y-61142619D01*
X38242857Y-61285476D01*
X38195238Y-61475952D01*
X38195238Y-61856904D01*
X38242857Y-61952142D01*
X38290476Y-61999761D01*
X38385714Y-62047380D01*
X38576190Y-62047380D01*
X38671428Y-61999761D01*
X38719047Y-61952142D01*
X38766666Y-61856904D01*
X38766666Y-61618809D01*
X38719047Y-61523571D01*
X38671428Y-61475952D01*
X38576190Y-61428333D01*
X38385714Y-61428333D01*
X38290476Y-61475952D01*
X38242857Y-61523571D01*
X38195238Y-61618809D01*
X29591095Y-53300380D02*
X29591095Y-54109904D01*
X29638714Y-54205142D01*
X29686333Y-54252761D01*
X29781571Y-54300380D01*
X29972047Y-54300380D01*
X30067285Y-54252761D01*
X30114904Y-54205142D01*
X30162523Y-54109904D01*
X30162523Y-53300380D01*
X30543476Y-53300380D02*
X31162523Y-53300380D01*
X30829190Y-53681333D01*
X30972047Y-53681333D01*
X31067285Y-53728952D01*
X31114904Y-53776571D01*
X31162523Y-53871809D01*
X31162523Y-54109904D01*
X31114904Y-54205142D01*
X31067285Y-54252761D01*
X30972047Y-54300380D01*
X30686333Y-54300380D01*
X30591095Y-54252761D01*
X30543476Y-54205142D01*
X27606666Y-94067380D02*
X27606666Y-94781666D01*
X27559047Y-94924523D01*
X27463809Y-95019761D01*
X27320952Y-95067380D01*
X27225714Y-95067380D01*
X27987619Y-94067380D02*
X28606666Y-94067380D01*
X28273333Y-94448333D01*
X28416190Y-94448333D01*
X28511428Y-94495952D01*
X28559047Y-94543571D01*
X28606666Y-94638809D01*
X28606666Y-94876904D01*
X28559047Y-94972142D01*
X28511428Y-95019761D01*
X28416190Y-95067380D01*
X28130476Y-95067380D01*
X28035238Y-95019761D01*
X27987619Y-94972142D01*
X20407380Y-67008333D02*
X21121666Y-67008333D01*
X21264523Y-67055952D01*
X21359761Y-67151190D01*
X21407380Y-67294047D01*
X21407380Y-67389285D01*
X20407380Y-66055952D02*
X20407380Y-66532142D01*
X20883571Y-66579761D01*
X20835952Y-66532142D01*
X20788333Y-66436904D01*
X20788333Y-66198809D01*
X20835952Y-66103571D01*
X20883571Y-66055952D01*
X20978809Y-66008333D01*
X21216904Y-66008333D01*
X21312142Y-66055952D01*
X21359761Y-66103571D01*
X21407380Y-66198809D01*
X21407380Y-66436904D01*
X21359761Y-66532142D01*
X21312142Y-66579761D01*
M02*
