G04 #@! TF.GenerationSoftware,KiCad,Pcbnew,5.1.5*
G04 #@! TF.CreationDate,2020-02-24T15:24:22+03:00*
G04 #@! TF.ProjectId,max3421eboard,6d617833-3432-4316-9562-6f6172642e6b,rev?*
G04 #@! TF.SameCoordinates,Original*
G04 #@! TF.FileFunction,Soldermask,Top*
G04 #@! TF.FilePolarity,Negative*
%FSLAX46Y46*%
G04 Gerber Fmt 4.6, Leading zero omitted, Abs format (unit mm)*
G04 Created by KiCad (PCBNEW 5.1.5) date 2020-02-24 15:24:22*
%MOMM*%
%LPD*%
G04 APERTURE LIST*
%ADD10C,0.100000*%
G04 APERTURE END LIST*
D10*
G36*
X39497000Y-72517000D02*
G01*
X38227000Y-72517000D01*
X38227000Y-71247000D01*
X39497000Y-71247000D01*
X39497000Y-72517000D01*
G37*
X39497000Y-72517000D02*
X38227000Y-72517000D01*
X38227000Y-71247000D01*
X39497000Y-71247000D01*
X39497000Y-72517000D01*
G36*
X49008512Y-93718927D02*
G01*
X49157812Y-93748624D01*
X49321784Y-93816544D01*
X49469354Y-93915147D01*
X49594853Y-94040646D01*
X49693456Y-94188216D01*
X49761376Y-94352188D01*
X49796000Y-94526259D01*
X49796000Y-94703741D01*
X49761376Y-94877812D01*
X49693456Y-95041784D01*
X49594853Y-95189354D01*
X49469354Y-95314853D01*
X49321784Y-95413456D01*
X49157812Y-95481376D01*
X49008512Y-95511073D01*
X48983742Y-95516000D01*
X48806258Y-95516000D01*
X48781488Y-95511073D01*
X48632188Y-95481376D01*
X48468216Y-95413456D01*
X48320646Y-95314853D01*
X48195147Y-95189354D01*
X48096544Y-95041784D01*
X48028624Y-94877812D01*
X47994000Y-94703741D01*
X47994000Y-94526259D01*
X48028624Y-94352188D01*
X48096544Y-94188216D01*
X48195147Y-94040646D01*
X48320646Y-93915147D01*
X48468216Y-93816544D01*
X48632188Y-93748624D01*
X48781488Y-93718927D01*
X48806258Y-93714000D01*
X48983742Y-93714000D01*
X49008512Y-93718927D01*
G37*
G36*
X51548512Y-93718927D02*
G01*
X51697812Y-93748624D01*
X51861784Y-93816544D01*
X52009354Y-93915147D01*
X52134853Y-94040646D01*
X52233456Y-94188216D01*
X52301376Y-94352188D01*
X52336000Y-94526259D01*
X52336000Y-94703741D01*
X52301376Y-94877812D01*
X52233456Y-95041784D01*
X52134853Y-95189354D01*
X52009354Y-95314853D01*
X51861784Y-95413456D01*
X51697812Y-95481376D01*
X51548512Y-95511073D01*
X51523742Y-95516000D01*
X51346258Y-95516000D01*
X51321488Y-95511073D01*
X51172188Y-95481376D01*
X51008216Y-95413456D01*
X50860646Y-95314853D01*
X50735147Y-95189354D01*
X50636544Y-95041784D01*
X50568624Y-94877812D01*
X50534000Y-94703741D01*
X50534000Y-94526259D01*
X50568624Y-94352188D01*
X50636544Y-94188216D01*
X50735147Y-94040646D01*
X50860646Y-93915147D01*
X51008216Y-93816544D01*
X51172188Y-93748624D01*
X51321488Y-93718927D01*
X51346258Y-93714000D01*
X51523742Y-93714000D01*
X51548512Y-93718927D01*
G37*
G36*
X54088512Y-93718927D02*
G01*
X54237812Y-93748624D01*
X54401784Y-93816544D01*
X54549354Y-93915147D01*
X54674853Y-94040646D01*
X54773456Y-94188216D01*
X54841376Y-94352188D01*
X54876000Y-94526259D01*
X54876000Y-94703741D01*
X54841376Y-94877812D01*
X54773456Y-95041784D01*
X54674853Y-95189354D01*
X54549354Y-95314853D01*
X54401784Y-95413456D01*
X54237812Y-95481376D01*
X54088512Y-95511073D01*
X54063742Y-95516000D01*
X53886258Y-95516000D01*
X53861488Y-95511073D01*
X53712188Y-95481376D01*
X53548216Y-95413456D01*
X53400646Y-95314853D01*
X53275147Y-95189354D01*
X53176544Y-95041784D01*
X53108624Y-94877812D01*
X53074000Y-94703741D01*
X53074000Y-94526259D01*
X53108624Y-94352188D01*
X53176544Y-94188216D01*
X53275147Y-94040646D01*
X53400646Y-93915147D01*
X53548216Y-93816544D01*
X53712188Y-93748624D01*
X53861488Y-93718927D01*
X53886258Y-93714000D01*
X54063742Y-93714000D01*
X54088512Y-93718927D01*
G37*
G36*
X46468512Y-93718927D02*
G01*
X46617812Y-93748624D01*
X46781784Y-93816544D01*
X46929354Y-93915147D01*
X47054853Y-94040646D01*
X47153456Y-94188216D01*
X47221376Y-94352188D01*
X47256000Y-94526259D01*
X47256000Y-94703741D01*
X47221376Y-94877812D01*
X47153456Y-95041784D01*
X47054853Y-95189354D01*
X46929354Y-95314853D01*
X46781784Y-95413456D01*
X46617812Y-95481376D01*
X46468512Y-95511073D01*
X46443742Y-95516000D01*
X46266258Y-95516000D01*
X46241488Y-95511073D01*
X46092188Y-95481376D01*
X45928216Y-95413456D01*
X45780646Y-95314853D01*
X45655147Y-95189354D01*
X45556544Y-95041784D01*
X45488624Y-94877812D01*
X45454000Y-94703741D01*
X45454000Y-94526259D01*
X45488624Y-94352188D01*
X45556544Y-94188216D01*
X45655147Y-94040646D01*
X45780646Y-93915147D01*
X45928216Y-93816544D01*
X46092188Y-93748624D01*
X46241488Y-93718927D01*
X46266258Y-93714000D01*
X46443742Y-93714000D01*
X46468512Y-93718927D01*
G37*
G36*
X43928512Y-93718927D02*
G01*
X44077812Y-93748624D01*
X44241784Y-93816544D01*
X44389354Y-93915147D01*
X44514853Y-94040646D01*
X44613456Y-94188216D01*
X44681376Y-94352188D01*
X44716000Y-94526259D01*
X44716000Y-94703741D01*
X44681376Y-94877812D01*
X44613456Y-95041784D01*
X44514853Y-95189354D01*
X44389354Y-95314853D01*
X44241784Y-95413456D01*
X44077812Y-95481376D01*
X43928512Y-95511073D01*
X43903742Y-95516000D01*
X43726258Y-95516000D01*
X43701488Y-95511073D01*
X43552188Y-95481376D01*
X43388216Y-95413456D01*
X43240646Y-95314853D01*
X43115147Y-95189354D01*
X43016544Y-95041784D01*
X42948624Y-94877812D01*
X42914000Y-94703741D01*
X42914000Y-94526259D01*
X42948624Y-94352188D01*
X43016544Y-94188216D01*
X43115147Y-94040646D01*
X43240646Y-93915147D01*
X43388216Y-93816544D01*
X43552188Y-93748624D01*
X43701488Y-93718927D01*
X43726258Y-93714000D01*
X43903742Y-93714000D01*
X43928512Y-93718927D01*
G37*
G36*
X41388512Y-93718927D02*
G01*
X41537812Y-93748624D01*
X41701784Y-93816544D01*
X41849354Y-93915147D01*
X41974853Y-94040646D01*
X42073456Y-94188216D01*
X42141376Y-94352188D01*
X42176000Y-94526259D01*
X42176000Y-94703741D01*
X42141376Y-94877812D01*
X42073456Y-95041784D01*
X41974853Y-95189354D01*
X41849354Y-95314853D01*
X41701784Y-95413456D01*
X41537812Y-95481376D01*
X41388512Y-95511073D01*
X41363742Y-95516000D01*
X41186258Y-95516000D01*
X41161488Y-95511073D01*
X41012188Y-95481376D01*
X40848216Y-95413456D01*
X40700646Y-95314853D01*
X40575147Y-95189354D01*
X40476544Y-95041784D01*
X40408624Y-94877812D01*
X40374000Y-94703741D01*
X40374000Y-94526259D01*
X40408624Y-94352188D01*
X40476544Y-94188216D01*
X40575147Y-94040646D01*
X40700646Y-93915147D01*
X40848216Y-93816544D01*
X41012188Y-93748624D01*
X41161488Y-93718927D01*
X41186258Y-93714000D01*
X41363742Y-93714000D01*
X41388512Y-93718927D01*
G37*
G36*
X38848512Y-93718927D02*
G01*
X38997812Y-93748624D01*
X39161784Y-93816544D01*
X39309354Y-93915147D01*
X39434853Y-94040646D01*
X39533456Y-94188216D01*
X39601376Y-94352188D01*
X39636000Y-94526259D01*
X39636000Y-94703741D01*
X39601376Y-94877812D01*
X39533456Y-95041784D01*
X39434853Y-95189354D01*
X39309354Y-95314853D01*
X39161784Y-95413456D01*
X38997812Y-95481376D01*
X38848512Y-95511073D01*
X38823742Y-95516000D01*
X38646258Y-95516000D01*
X38621488Y-95511073D01*
X38472188Y-95481376D01*
X38308216Y-95413456D01*
X38160646Y-95314853D01*
X38035147Y-95189354D01*
X37936544Y-95041784D01*
X37868624Y-94877812D01*
X37834000Y-94703741D01*
X37834000Y-94526259D01*
X37868624Y-94352188D01*
X37936544Y-94188216D01*
X38035147Y-94040646D01*
X38160646Y-93915147D01*
X38308216Y-93816544D01*
X38472188Y-93748624D01*
X38621488Y-93718927D01*
X38646258Y-93714000D01*
X38823742Y-93714000D01*
X38848512Y-93718927D01*
G37*
G36*
X36308512Y-93718927D02*
G01*
X36457812Y-93748624D01*
X36621784Y-93816544D01*
X36769354Y-93915147D01*
X36894853Y-94040646D01*
X36993456Y-94188216D01*
X37061376Y-94352188D01*
X37096000Y-94526259D01*
X37096000Y-94703741D01*
X37061376Y-94877812D01*
X36993456Y-95041784D01*
X36894853Y-95189354D01*
X36769354Y-95314853D01*
X36621784Y-95413456D01*
X36457812Y-95481376D01*
X36308512Y-95511073D01*
X36283742Y-95516000D01*
X36106258Y-95516000D01*
X36081488Y-95511073D01*
X35932188Y-95481376D01*
X35768216Y-95413456D01*
X35620646Y-95314853D01*
X35495147Y-95189354D01*
X35396544Y-95041784D01*
X35328624Y-94877812D01*
X35294000Y-94703741D01*
X35294000Y-94526259D01*
X35328624Y-94352188D01*
X35396544Y-94188216D01*
X35495147Y-94040646D01*
X35620646Y-93915147D01*
X35768216Y-93816544D01*
X35932188Y-93748624D01*
X36081488Y-93718927D01*
X36106258Y-93714000D01*
X36283742Y-93714000D01*
X36308512Y-93718927D01*
G37*
G36*
X33768512Y-93718927D02*
G01*
X33917812Y-93748624D01*
X34081784Y-93816544D01*
X34229354Y-93915147D01*
X34354853Y-94040646D01*
X34453456Y-94188216D01*
X34521376Y-94352188D01*
X34556000Y-94526259D01*
X34556000Y-94703741D01*
X34521376Y-94877812D01*
X34453456Y-95041784D01*
X34354853Y-95189354D01*
X34229354Y-95314853D01*
X34081784Y-95413456D01*
X33917812Y-95481376D01*
X33768512Y-95511073D01*
X33743742Y-95516000D01*
X33566258Y-95516000D01*
X33541488Y-95511073D01*
X33392188Y-95481376D01*
X33228216Y-95413456D01*
X33080646Y-95314853D01*
X32955147Y-95189354D01*
X32856544Y-95041784D01*
X32788624Y-94877812D01*
X32754000Y-94703741D01*
X32754000Y-94526259D01*
X32788624Y-94352188D01*
X32856544Y-94188216D01*
X32955147Y-94040646D01*
X33080646Y-93915147D01*
X33228216Y-93816544D01*
X33392188Y-93748624D01*
X33541488Y-93718927D01*
X33566258Y-93714000D01*
X33743742Y-93714000D01*
X33768512Y-93718927D01*
G37*
G36*
X32016000Y-95516000D02*
G01*
X30214000Y-95516000D01*
X30214000Y-93714000D01*
X32016000Y-93714000D01*
X32016000Y-95516000D01*
G37*
G36*
X21068512Y-91813927D02*
G01*
X21217812Y-91843624D01*
X21381784Y-91911544D01*
X21529354Y-92010147D01*
X21654853Y-92135646D01*
X21753456Y-92283216D01*
X21821376Y-92447188D01*
X21856000Y-92621259D01*
X21856000Y-92798741D01*
X21821376Y-92972812D01*
X21753456Y-93136784D01*
X21654853Y-93284354D01*
X21529354Y-93409853D01*
X21381784Y-93508456D01*
X21217812Y-93576376D01*
X21068512Y-93606073D01*
X21043742Y-93611000D01*
X20866258Y-93611000D01*
X20841488Y-93606073D01*
X20692188Y-93576376D01*
X20528216Y-93508456D01*
X20380646Y-93409853D01*
X20255147Y-93284354D01*
X20156544Y-93136784D01*
X20088624Y-92972812D01*
X20054000Y-92798741D01*
X20054000Y-92621259D01*
X20088624Y-92447188D01*
X20156544Y-92283216D01*
X20255147Y-92135646D01*
X20380646Y-92010147D01*
X20528216Y-91911544D01*
X20692188Y-91843624D01*
X20841488Y-91813927D01*
X20866258Y-91809000D01*
X21043742Y-91809000D01*
X21068512Y-91813927D01*
G37*
G36*
X23608512Y-91813927D02*
G01*
X23757812Y-91843624D01*
X23921784Y-91911544D01*
X24069354Y-92010147D01*
X24194853Y-92135646D01*
X24293456Y-92283216D01*
X24361376Y-92447188D01*
X24396000Y-92621259D01*
X24396000Y-92798741D01*
X24361376Y-92972812D01*
X24293456Y-93136784D01*
X24194853Y-93284354D01*
X24069354Y-93409853D01*
X23921784Y-93508456D01*
X23757812Y-93576376D01*
X23608512Y-93606073D01*
X23583742Y-93611000D01*
X23406258Y-93611000D01*
X23381488Y-93606073D01*
X23232188Y-93576376D01*
X23068216Y-93508456D01*
X22920646Y-93409853D01*
X22795147Y-93284354D01*
X22696544Y-93136784D01*
X22628624Y-92972812D01*
X22594000Y-92798741D01*
X22594000Y-92621259D01*
X22628624Y-92447188D01*
X22696544Y-92283216D01*
X22795147Y-92135646D01*
X22920646Y-92010147D01*
X23068216Y-91911544D01*
X23232188Y-91843624D01*
X23381488Y-91813927D01*
X23406258Y-91809000D01*
X23583742Y-91809000D01*
X23608512Y-91813927D01*
G37*
G36*
X21068512Y-89273927D02*
G01*
X21217812Y-89303624D01*
X21381784Y-89371544D01*
X21529354Y-89470147D01*
X21654853Y-89595646D01*
X21753456Y-89743216D01*
X21821376Y-89907188D01*
X21856000Y-90081259D01*
X21856000Y-90258741D01*
X21821376Y-90432812D01*
X21753456Y-90596784D01*
X21654853Y-90744354D01*
X21529354Y-90869853D01*
X21381784Y-90968456D01*
X21217812Y-91036376D01*
X21068512Y-91066073D01*
X21043742Y-91071000D01*
X20866258Y-91071000D01*
X20841488Y-91066073D01*
X20692188Y-91036376D01*
X20528216Y-90968456D01*
X20380646Y-90869853D01*
X20255147Y-90744354D01*
X20156544Y-90596784D01*
X20088624Y-90432812D01*
X20054000Y-90258741D01*
X20054000Y-90081259D01*
X20088624Y-89907188D01*
X20156544Y-89743216D01*
X20255147Y-89595646D01*
X20380646Y-89470147D01*
X20528216Y-89371544D01*
X20692188Y-89303624D01*
X20841488Y-89273927D01*
X20866258Y-89269000D01*
X21043742Y-89269000D01*
X21068512Y-89273927D01*
G37*
G36*
X23608512Y-89273927D02*
G01*
X23757812Y-89303624D01*
X23921784Y-89371544D01*
X24069354Y-89470147D01*
X24194853Y-89595646D01*
X24293456Y-89743216D01*
X24361376Y-89907188D01*
X24396000Y-90081259D01*
X24396000Y-90258741D01*
X24361376Y-90432812D01*
X24293456Y-90596784D01*
X24194853Y-90744354D01*
X24069354Y-90869853D01*
X23921784Y-90968456D01*
X23757812Y-91036376D01*
X23608512Y-91066073D01*
X23583742Y-91071000D01*
X23406258Y-91071000D01*
X23381488Y-91066073D01*
X23232188Y-91036376D01*
X23068216Y-90968456D01*
X22920646Y-90869853D01*
X22795147Y-90744354D01*
X22696544Y-90596784D01*
X22628624Y-90432812D01*
X22594000Y-90258741D01*
X22594000Y-90081259D01*
X22628624Y-89907188D01*
X22696544Y-89743216D01*
X22795147Y-89595646D01*
X22920646Y-89470147D01*
X23068216Y-89371544D01*
X23232188Y-89303624D01*
X23381488Y-89273927D01*
X23406258Y-89269000D01*
X23583742Y-89269000D01*
X23608512Y-89273927D01*
G37*
G36*
X23608512Y-86733927D02*
G01*
X23757812Y-86763624D01*
X23921784Y-86831544D01*
X24069354Y-86930147D01*
X24194853Y-87055646D01*
X24293456Y-87203216D01*
X24361376Y-87367188D01*
X24396000Y-87541259D01*
X24396000Y-87718741D01*
X24361376Y-87892812D01*
X24293456Y-88056784D01*
X24194853Y-88204354D01*
X24069354Y-88329853D01*
X23921784Y-88428456D01*
X23757812Y-88496376D01*
X23608512Y-88526073D01*
X23583742Y-88531000D01*
X23406258Y-88531000D01*
X23381488Y-88526073D01*
X23232188Y-88496376D01*
X23068216Y-88428456D01*
X22920646Y-88329853D01*
X22795147Y-88204354D01*
X22696544Y-88056784D01*
X22628624Y-87892812D01*
X22594000Y-87718741D01*
X22594000Y-87541259D01*
X22628624Y-87367188D01*
X22696544Y-87203216D01*
X22795147Y-87055646D01*
X22920646Y-86930147D01*
X23068216Y-86831544D01*
X23232188Y-86763624D01*
X23381488Y-86733927D01*
X23406258Y-86729000D01*
X23583742Y-86729000D01*
X23608512Y-86733927D01*
G37*
G36*
X21068512Y-86733927D02*
G01*
X21217812Y-86763624D01*
X21381784Y-86831544D01*
X21529354Y-86930147D01*
X21654853Y-87055646D01*
X21753456Y-87203216D01*
X21821376Y-87367188D01*
X21856000Y-87541259D01*
X21856000Y-87718741D01*
X21821376Y-87892812D01*
X21753456Y-88056784D01*
X21654853Y-88204354D01*
X21529354Y-88329853D01*
X21381784Y-88428456D01*
X21217812Y-88496376D01*
X21068512Y-88526073D01*
X21043742Y-88531000D01*
X20866258Y-88531000D01*
X20841488Y-88526073D01*
X20692188Y-88496376D01*
X20528216Y-88428456D01*
X20380646Y-88329853D01*
X20255147Y-88204354D01*
X20156544Y-88056784D01*
X20088624Y-87892812D01*
X20054000Y-87718741D01*
X20054000Y-87541259D01*
X20088624Y-87367188D01*
X20156544Y-87203216D01*
X20255147Y-87055646D01*
X20380646Y-86930147D01*
X20528216Y-86831544D01*
X20692188Y-86763624D01*
X20841488Y-86733927D01*
X20866258Y-86729000D01*
X21043742Y-86729000D01*
X21068512Y-86733927D01*
G37*
G36*
X40646000Y-88331000D02*
G01*
X39044000Y-88331000D01*
X39044000Y-86929000D01*
X40646000Y-86929000D01*
X40646000Y-88331000D01*
G37*
G36*
X43346000Y-88331000D02*
G01*
X41744000Y-88331000D01*
X41744000Y-86929000D01*
X43346000Y-86929000D01*
X43346000Y-88331000D01*
G37*
G36*
X52851000Y-86528000D02*
G01*
X51249000Y-86528000D01*
X51249000Y-85176000D01*
X52851000Y-85176000D01*
X52851000Y-86528000D01*
G37*
G36*
X50351000Y-86528000D02*
G01*
X48749000Y-86528000D01*
X48749000Y-85176000D01*
X50351000Y-85176000D01*
X50351000Y-86528000D01*
G37*
G36*
X21068512Y-84193927D02*
G01*
X21217812Y-84223624D01*
X21381784Y-84291544D01*
X21529354Y-84390147D01*
X21654853Y-84515646D01*
X21753456Y-84663216D01*
X21821376Y-84827188D01*
X21856000Y-85001259D01*
X21856000Y-85178741D01*
X21821376Y-85352812D01*
X21753456Y-85516784D01*
X21654853Y-85664354D01*
X21529354Y-85789853D01*
X21381784Y-85888456D01*
X21217812Y-85956376D01*
X21068512Y-85986073D01*
X21043742Y-85991000D01*
X20866258Y-85991000D01*
X20841488Y-85986073D01*
X20692188Y-85956376D01*
X20528216Y-85888456D01*
X20380646Y-85789853D01*
X20255147Y-85664354D01*
X20156544Y-85516784D01*
X20088624Y-85352812D01*
X20054000Y-85178741D01*
X20054000Y-85001259D01*
X20088624Y-84827188D01*
X20156544Y-84663216D01*
X20255147Y-84515646D01*
X20380646Y-84390147D01*
X20528216Y-84291544D01*
X20692188Y-84223624D01*
X20841488Y-84193927D01*
X20866258Y-84189000D01*
X21043742Y-84189000D01*
X21068512Y-84193927D01*
G37*
G36*
X23608512Y-84193927D02*
G01*
X23757812Y-84223624D01*
X23921784Y-84291544D01*
X24069354Y-84390147D01*
X24194853Y-84515646D01*
X24293456Y-84663216D01*
X24361376Y-84827188D01*
X24396000Y-85001259D01*
X24396000Y-85178741D01*
X24361376Y-85352812D01*
X24293456Y-85516784D01*
X24194853Y-85664354D01*
X24069354Y-85789853D01*
X23921784Y-85888456D01*
X23757812Y-85956376D01*
X23608512Y-85986073D01*
X23583742Y-85991000D01*
X23406258Y-85991000D01*
X23381488Y-85986073D01*
X23232188Y-85956376D01*
X23068216Y-85888456D01*
X22920646Y-85789853D01*
X22795147Y-85664354D01*
X22696544Y-85516784D01*
X22628624Y-85352812D01*
X22594000Y-85178741D01*
X22594000Y-85001259D01*
X22628624Y-84827188D01*
X22696544Y-84663216D01*
X22795147Y-84515646D01*
X22920646Y-84390147D01*
X23068216Y-84291544D01*
X23232188Y-84223624D01*
X23381488Y-84193927D01*
X23406258Y-84189000D01*
X23583742Y-84189000D01*
X23608512Y-84193927D01*
G37*
G36*
X44918350Y-82196746D02*
G01*
X44666620Y-82448476D01*
X44564796Y-82550299D01*
X44313066Y-82802029D01*
X44211243Y-82903853D01*
X43959513Y-83155583D01*
X43871125Y-83243970D01*
X43605959Y-83509136D01*
X43517571Y-83597523D01*
X43504136Y-83610959D01*
X43238970Y-83876125D01*
X43150583Y-83964513D01*
X42898853Y-84216243D01*
X42797029Y-84318066D01*
X42545299Y-84569796D01*
X42443476Y-84671620D01*
X42191746Y-84923350D01*
X41311398Y-84043002D01*
X41563128Y-83791272D01*
X41563129Y-83791273D01*
X41576565Y-83777837D01*
X41576574Y-83777826D01*
X41664952Y-83689449D01*
X41664951Y-83689448D01*
X41916681Y-83437718D01*
X41916682Y-83437719D01*
X42005059Y-83349341D01*
X42005070Y-83349332D01*
X42018506Y-83335896D01*
X42018505Y-83335895D01*
X42270235Y-83084165D01*
X42270236Y-83084166D01*
X42283672Y-83070730D01*
X42283681Y-83070719D01*
X42372059Y-82982342D01*
X42372058Y-82982341D01*
X42623788Y-82730611D01*
X42623789Y-82730612D01*
X42725612Y-82628789D01*
X42725611Y-82628788D01*
X42977341Y-82377058D01*
X42977342Y-82377059D01*
X43065719Y-82288681D01*
X43065730Y-82288672D01*
X43079166Y-82275236D01*
X43079165Y-82275235D01*
X43330895Y-82023505D01*
X43330896Y-82023506D01*
X43344332Y-82010070D01*
X43344341Y-82010059D01*
X43432719Y-81921682D01*
X43432718Y-81921681D01*
X43684448Y-81669951D01*
X43684449Y-81669952D01*
X43772826Y-81581574D01*
X43772837Y-81581565D01*
X43786273Y-81568129D01*
X43786272Y-81568128D01*
X44038002Y-81316398D01*
X44918350Y-82196746D01*
G37*
G36*
X37493728Y-81568128D02*
G01*
X37493728Y-81568129D01*
X37507164Y-81581565D01*
X37507170Y-81581570D01*
X37595552Y-81669952D01*
X37595552Y-81669951D01*
X37847282Y-81921681D01*
X37847282Y-81921682D01*
X37935664Y-82010064D01*
X37935669Y-82010070D01*
X37949105Y-82023506D01*
X37949105Y-82023505D01*
X38200835Y-82275235D01*
X38200835Y-82275236D01*
X38214271Y-82288672D01*
X38214277Y-82288677D01*
X38302659Y-82377059D01*
X38302659Y-82377058D01*
X38554389Y-82628788D01*
X38554389Y-82628789D01*
X38656212Y-82730612D01*
X38656212Y-82730611D01*
X38907942Y-82982341D01*
X38907942Y-82982342D01*
X38996324Y-83070724D01*
X38996329Y-83070730D01*
X39009765Y-83084166D01*
X39009765Y-83084165D01*
X39261495Y-83335895D01*
X39261495Y-83335896D01*
X39274931Y-83349332D01*
X39274937Y-83349337D01*
X39363319Y-83437719D01*
X39363319Y-83437718D01*
X39615049Y-83689448D01*
X39615049Y-83689449D01*
X39703431Y-83777831D01*
X39703436Y-83777837D01*
X39716872Y-83791273D01*
X39716872Y-83791272D01*
X39968602Y-84043002D01*
X39088254Y-84923350D01*
X38836524Y-84671620D01*
X38836525Y-84671620D01*
X38748143Y-84583238D01*
X38748138Y-84583232D01*
X38734702Y-84569796D01*
X38734701Y-84569796D01*
X38482971Y-84318066D01*
X38482972Y-84318066D01*
X38469536Y-84304630D01*
X38469530Y-84304625D01*
X38381148Y-84216243D01*
X38381147Y-84216243D01*
X38129417Y-83964513D01*
X38129418Y-83964513D01*
X38041036Y-83876131D01*
X38041031Y-83876125D01*
X38027595Y-83862689D01*
X38027594Y-83862689D01*
X37775864Y-83610959D01*
X37775865Y-83610959D01*
X37674042Y-83509136D01*
X37674041Y-83509136D01*
X37422311Y-83257406D01*
X37422312Y-83257406D01*
X37408876Y-83243970D01*
X37408870Y-83243965D01*
X37320488Y-83155583D01*
X37320487Y-83155583D01*
X37068757Y-82903853D01*
X37068758Y-82903853D01*
X36980376Y-82815471D01*
X36980371Y-82815465D01*
X36966935Y-82802029D01*
X36966934Y-82802029D01*
X36715204Y-82550299D01*
X36715205Y-82550299D01*
X36701769Y-82536863D01*
X36701763Y-82536858D01*
X36613381Y-82448476D01*
X36613380Y-82448476D01*
X36574381Y-82409477D01*
X36555445Y-82393937D01*
X36533834Y-82382386D01*
X36510385Y-82375273D01*
X36496131Y-82373869D01*
X36494727Y-82359615D01*
X36487614Y-82336166D01*
X36476063Y-82314555D01*
X36460523Y-82295619D01*
X36361650Y-82196746D01*
X37241998Y-81316398D01*
X37493728Y-81568128D01*
G37*
G36*
X51491000Y-84096000D02*
G01*
X48839000Y-84096000D01*
X48839000Y-82434000D01*
X51491000Y-82434000D01*
X51491000Y-84096000D01*
G37*
G36*
X36361000Y-83861000D02*
G01*
X34759000Y-83861000D01*
X34759000Y-82509000D01*
X36361000Y-82509000D01*
X36361000Y-83861000D01*
G37*
G36*
X33861000Y-83861000D02*
G01*
X32259000Y-83861000D01*
X32259000Y-82509000D01*
X33861000Y-82509000D01*
X33861000Y-83861000D01*
G37*
G36*
X53762000Y-83839000D02*
G01*
X52410000Y-83839000D01*
X52410000Y-82237000D01*
X53762000Y-82237000D01*
X53762000Y-83839000D01*
G37*
G36*
X21068512Y-81653927D02*
G01*
X21217812Y-81683624D01*
X21381784Y-81751544D01*
X21529354Y-81850147D01*
X21654853Y-81975646D01*
X21753456Y-82123216D01*
X21821376Y-82287188D01*
X21856000Y-82461259D01*
X21856000Y-82638741D01*
X21821376Y-82812812D01*
X21753456Y-82976784D01*
X21654853Y-83124354D01*
X21529354Y-83249853D01*
X21381784Y-83348456D01*
X21217812Y-83416376D01*
X21068512Y-83446073D01*
X21043742Y-83451000D01*
X20866258Y-83451000D01*
X20841488Y-83446073D01*
X20692188Y-83416376D01*
X20528216Y-83348456D01*
X20380646Y-83249853D01*
X20255147Y-83124354D01*
X20156544Y-82976784D01*
X20088624Y-82812812D01*
X20054000Y-82638741D01*
X20054000Y-82461259D01*
X20088624Y-82287188D01*
X20156544Y-82123216D01*
X20255147Y-81975646D01*
X20380646Y-81850147D01*
X20528216Y-81751544D01*
X20692188Y-81683624D01*
X20841488Y-81653927D01*
X20866258Y-81649000D01*
X21043742Y-81649000D01*
X21068512Y-81653927D01*
G37*
G36*
X23608512Y-81653927D02*
G01*
X23757812Y-81683624D01*
X23921784Y-81751544D01*
X24069354Y-81850147D01*
X24194853Y-81975646D01*
X24293456Y-82123216D01*
X24361376Y-82287188D01*
X24396000Y-82461259D01*
X24396000Y-82638741D01*
X24361376Y-82812812D01*
X24293456Y-82976784D01*
X24194853Y-83124354D01*
X24069354Y-83249853D01*
X23921784Y-83348456D01*
X23757812Y-83416376D01*
X23608512Y-83446073D01*
X23583742Y-83451000D01*
X23406258Y-83451000D01*
X23381488Y-83446073D01*
X23232188Y-83416376D01*
X23068216Y-83348456D01*
X22920646Y-83249853D01*
X22795147Y-83124354D01*
X22696544Y-82976784D01*
X22628624Y-82812812D01*
X22594000Y-82638741D01*
X22594000Y-82461259D01*
X22628624Y-82287188D01*
X22696544Y-82123216D01*
X22795147Y-81975646D01*
X22920646Y-81850147D01*
X23068216Y-81751544D01*
X23232188Y-81683624D01*
X23381488Y-81653927D01*
X23406258Y-81649000D01*
X23583742Y-81649000D01*
X23608512Y-81653927D01*
G37*
G36*
X49591000Y-81396000D02*
G01*
X48839000Y-81396000D01*
X48839000Y-79734000D01*
X49591000Y-79734000D01*
X49591000Y-81396000D01*
G37*
G36*
X51491000Y-81396000D02*
G01*
X50739000Y-81396000D01*
X50739000Y-79734000D01*
X51491000Y-79734000D01*
X51491000Y-81396000D01*
G37*
G36*
X53762000Y-81339000D02*
G01*
X52410000Y-81339000D01*
X52410000Y-79737000D01*
X53762000Y-79737000D01*
X53762000Y-81339000D01*
G37*
G36*
X21068512Y-79113927D02*
G01*
X21217812Y-79143624D01*
X21381784Y-79211544D01*
X21529354Y-79310147D01*
X21654853Y-79435646D01*
X21753456Y-79583216D01*
X21821376Y-79747188D01*
X21856000Y-79921259D01*
X21856000Y-80098741D01*
X21821376Y-80272812D01*
X21753456Y-80436784D01*
X21654853Y-80584354D01*
X21529354Y-80709853D01*
X21381784Y-80808456D01*
X21217812Y-80876376D01*
X21068512Y-80906073D01*
X21043742Y-80911000D01*
X20866258Y-80911000D01*
X20841488Y-80906073D01*
X20692188Y-80876376D01*
X20528216Y-80808456D01*
X20380646Y-80709853D01*
X20255147Y-80584354D01*
X20156544Y-80436784D01*
X20088624Y-80272812D01*
X20054000Y-80098741D01*
X20054000Y-79921259D01*
X20088624Y-79747188D01*
X20156544Y-79583216D01*
X20255147Y-79435646D01*
X20380646Y-79310147D01*
X20528216Y-79211544D01*
X20692188Y-79143624D01*
X20841488Y-79113927D01*
X20866258Y-79109000D01*
X21043742Y-79109000D01*
X21068512Y-79113927D01*
G37*
G36*
X23608512Y-79113927D02*
G01*
X23757812Y-79143624D01*
X23921784Y-79211544D01*
X24069354Y-79310147D01*
X24194853Y-79435646D01*
X24293456Y-79583216D01*
X24361376Y-79747188D01*
X24396000Y-79921259D01*
X24396000Y-80098741D01*
X24361376Y-80272812D01*
X24293456Y-80436784D01*
X24194853Y-80584354D01*
X24069354Y-80709853D01*
X23921784Y-80808456D01*
X23757812Y-80876376D01*
X23608512Y-80906073D01*
X23583742Y-80911000D01*
X23406258Y-80911000D01*
X23381488Y-80906073D01*
X23232188Y-80876376D01*
X23068216Y-80808456D01*
X22920646Y-80709853D01*
X22795147Y-80584354D01*
X22696544Y-80436784D01*
X22628624Y-80272812D01*
X22594000Y-80098741D01*
X22594000Y-79921259D01*
X22628624Y-79747188D01*
X22696544Y-79583216D01*
X22795147Y-79435646D01*
X22920646Y-79310147D01*
X23068216Y-79211544D01*
X23232188Y-79143624D01*
X23381488Y-79113927D01*
X23406258Y-79109000D01*
X23583742Y-79109000D01*
X23608512Y-79113927D01*
G37*
G36*
X39968602Y-77246998D02*
G01*
X39703436Y-77512164D01*
X39615049Y-77600552D01*
X39363319Y-77852282D01*
X39261495Y-77954105D01*
X39009765Y-78205835D01*
X38907942Y-78307659D01*
X38302659Y-78912942D01*
X38200835Y-79014765D01*
X37949105Y-79266495D01*
X37847282Y-79368319D01*
X37595552Y-79620049D01*
X37507164Y-79708436D01*
X37241998Y-79973602D01*
X36361650Y-79093254D01*
X36613380Y-78841524D01*
X36613381Y-78841525D01*
X36701758Y-78753147D01*
X36701769Y-78753138D01*
X36715205Y-78739702D01*
X36715204Y-78739701D01*
X36966934Y-78487971D01*
X36966935Y-78487972D01*
X36980371Y-78474536D01*
X36980380Y-78474525D01*
X37068758Y-78386148D01*
X37068757Y-78386147D01*
X37320487Y-78134417D01*
X37320488Y-78134418D01*
X37408865Y-78046040D01*
X37408876Y-78046031D01*
X37422312Y-78032595D01*
X37422311Y-78032594D01*
X37674041Y-77780864D01*
X37674042Y-77780865D01*
X37762429Y-77692477D01*
X37775865Y-77679042D01*
X37775864Y-77679041D01*
X38027594Y-77427311D01*
X38027595Y-77427312D01*
X38041031Y-77413876D01*
X38041040Y-77413865D01*
X38129418Y-77325488D01*
X38129417Y-77325487D01*
X38381147Y-77073757D01*
X38381148Y-77073758D01*
X38469525Y-76985380D01*
X38469536Y-76985371D01*
X38482972Y-76971935D01*
X38482971Y-76971934D01*
X38734701Y-76720204D01*
X38734702Y-76720205D01*
X38748138Y-76706769D01*
X38748147Y-76706758D01*
X38836525Y-76618381D01*
X38836524Y-76618380D01*
X39088254Y-76366650D01*
X39968602Y-77246998D01*
G37*
G36*
X42443476Y-76618380D02*
G01*
X42443476Y-76618381D01*
X42531858Y-76706763D01*
X42531863Y-76706769D01*
X42545299Y-76720205D01*
X42545299Y-76720204D01*
X42797029Y-76971934D01*
X42797029Y-76971935D01*
X42810465Y-76985371D01*
X42810471Y-76985376D01*
X42898853Y-77073758D01*
X42898853Y-77073757D01*
X43150583Y-77325487D01*
X43150583Y-77325488D01*
X43238965Y-77413870D01*
X43238970Y-77413876D01*
X43252406Y-77427312D01*
X43252406Y-77427311D01*
X43504136Y-77679041D01*
X43504136Y-77679042D01*
X43605959Y-77780865D01*
X43605959Y-77780864D01*
X43857689Y-78032594D01*
X43857689Y-78032595D01*
X43871125Y-78046031D01*
X43871131Y-78046036D01*
X43959513Y-78134418D01*
X43959513Y-78134417D01*
X44211243Y-78386147D01*
X44211243Y-78386148D01*
X44299625Y-78474530D01*
X44299630Y-78474536D01*
X44313066Y-78487972D01*
X44313066Y-78487971D01*
X44564796Y-78739701D01*
X44564796Y-78739702D01*
X44578232Y-78753138D01*
X44578238Y-78753143D01*
X44666620Y-78841525D01*
X44666620Y-78841524D01*
X44918350Y-79093254D01*
X44038002Y-79973602D01*
X43786272Y-79721872D01*
X43786273Y-79721872D01*
X43772837Y-79708436D01*
X43772831Y-79708431D01*
X43684449Y-79620049D01*
X43684448Y-79620049D01*
X43432718Y-79368319D01*
X43432719Y-79368319D01*
X43344337Y-79279937D01*
X43344332Y-79279931D01*
X43330896Y-79266495D01*
X43330895Y-79266495D01*
X43079165Y-79014765D01*
X43079166Y-79014765D01*
X43065730Y-79001329D01*
X43065724Y-79001324D01*
X42977342Y-78912942D01*
X42977341Y-78912942D01*
X42725611Y-78661212D01*
X42725612Y-78661212D01*
X42623789Y-78559389D01*
X42623788Y-78559389D01*
X42372058Y-78307659D01*
X42372059Y-78307659D01*
X42283677Y-78219277D01*
X42283672Y-78219271D01*
X42270236Y-78205835D01*
X42270235Y-78205835D01*
X42018505Y-77954105D01*
X42018506Y-77954105D01*
X42005070Y-77940669D01*
X42005064Y-77940664D01*
X41916682Y-77852282D01*
X41916681Y-77852282D01*
X41664951Y-77600552D01*
X41664952Y-77600552D01*
X41576570Y-77512170D01*
X41576565Y-77512164D01*
X41563129Y-77498728D01*
X41563128Y-77498728D01*
X41311398Y-77246998D01*
X42191746Y-76366650D01*
X42443476Y-76618380D01*
G37*
G36*
X52343000Y-79162000D02*
G01*
X50741000Y-79162000D01*
X50741000Y-77810000D01*
X52343000Y-77810000D01*
X52343000Y-79162000D01*
G37*
G36*
X49843000Y-79162000D02*
G01*
X48241000Y-79162000D01*
X48241000Y-77810000D01*
X49843000Y-77810000D01*
X49843000Y-79162000D01*
G37*
G36*
X21068512Y-76573927D02*
G01*
X21217812Y-76603624D01*
X21381784Y-76671544D01*
X21529354Y-76770147D01*
X21654853Y-76895646D01*
X21753456Y-77043216D01*
X21821376Y-77207188D01*
X21856000Y-77381259D01*
X21856000Y-77558741D01*
X21821376Y-77732812D01*
X21753456Y-77896784D01*
X21654853Y-78044354D01*
X21529354Y-78169853D01*
X21381784Y-78268456D01*
X21217812Y-78336376D01*
X21068512Y-78366073D01*
X21043742Y-78371000D01*
X20866258Y-78371000D01*
X20841488Y-78366073D01*
X20692188Y-78336376D01*
X20528216Y-78268456D01*
X20380646Y-78169853D01*
X20255147Y-78044354D01*
X20156544Y-77896784D01*
X20088624Y-77732812D01*
X20054000Y-77558741D01*
X20054000Y-77381259D01*
X20088624Y-77207188D01*
X20156544Y-77043216D01*
X20255147Y-76895646D01*
X20380646Y-76770147D01*
X20528216Y-76671544D01*
X20692188Y-76603624D01*
X20841488Y-76573927D01*
X20866258Y-76569000D01*
X21043742Y-76569000D01*
X21068512Y-76573927D01*
G37*
G36*
X23608512Y-76573927D02*
G01*
X23757812Y-76603624D01*
X23921784Y-76671544D01*
X24069354Y-76770147D01*
X24194853Y-76895646D01*
X24293456Y-77043216D01*
X24361376Y-77207188D01*
X24396000Y-77381259D01*
X24396000Y-77558741D01*
X24361376Y-77732812D01*
X24293456Y-77896784D01*
X24194853Y-78044354D01*
X24069354Y-78169853D01*
X23921784Y-78268456D01*
X23757812Y-78336376D01*
X23608512Y-78366073D01*
X23583742Y-78371000D01*
X23406258Y-78371000D01*
X23381488Y-78366073D01*
X23232188Y-78336376D01*
X23068216Y-78268456D01*
X22920646Y-78169853D01*
X22795147Y-78044354D01*
X22696544Y-77896784D01*
X22628624Y-77732812D01*
X22594000Y-77558741D01*
X22594000Y-77381259D01*
X22628624Y-77207188D01*
X22696544Y-77043216D01*
X22795147Y-76895646D01*
X22920646Y-76770147D01*
X23068216Y-76671544D01*
X23232188Y-76603624D01*
X23381488Y-76573927D01*
X23406258Y-76569000D01*
X23583742Y-76569000D01*
X23608512Y-76573927D01*
G37*
G36*
X27471000Y-78171000D02*
G01*
X25869000Y-78171000D01*
X25869000Y-76769000D01*
X27471000Y-76769000D01*
X27471000Y-78171000D01*
G37*
G36*
X30171000Y-78171000D02*
G01*
X28569000Y-78171000D01*
X28569000Y-76769000D01*
X30171000Y-76769000D01*
X30171000Y-78171000D01*
G37*
G36*
X21856000Y-75831000D02*
G01*
X20054000Y-75831000D01*
X20054000Y-74029000D01*
X21856000Y-74029000D01*
X21856000Y-75831000D01*
G37*
G36*
X24396000Y-75831000D02*
G01*
X22594000Y-75831000D01*
X22594000Y-74029000D01*
X24396000Y-74029000D01*
X24396000Y-75831000D01*
G37*
G36*
X41951000Y-75711000D02*
G01*
X40599000Y-75711000D01*
X40599000Y-74109000D01*
X41951000Y-74109000D01*
X41951000Y-75711000D01*
G37*
G36*
X43856000Y-75711000D02*
G01*
X42504000Y-75711000D01*
X42504000Y-74109000D01*
X43856000Y-74109000D01*
X43856000Y-75711000D01*
G37*
G36*
X30171000Y-75631000D02*
G01*
X28569000Y-75631000D01*
X28569000Y-74229000D01*
X30171000Y-74229000D01*
X30171000Y-75631000D01*
G37*
G36*
X27471000Y-75631000D02*
G01*
X25869000Y-75631000D01*
X25869000Y-74229000D01*
X27471000Y-74229000D01*
X27471000Y-75631000D01*
G37*
G36*
X45761000Y-74461000D02*
G01*
X44409000Y-74461000D01*
X44409000Y-72859000D01*
X45761000Y-72859000D01*
X45761000Y-74461000D01*
G37*
G36*
X43856000Y-73211000D02*
G01*
X42504000Y-73211000D01*
X42504000Y-71609000D01*
X43856000Y-71609000D01*
X43856000Y-73211000D01*
G37*
G36*
X41951000Y-73211000D02*
G01*
X40599000Y-73211000D01*
X40599000Y-71609000D01*
X41951000Y-71609000D01*
X41951000Y-73211000D01*
G37*
G36*
X27471000Y-73091000D02*
G01*
X25869000Y-73091000D01*
X25869000Y-71689000D01*
X27471000Y-71689000D01*
X27471000Y-73091000D01*
G37*
G36*
X30171000Y-73091000D02*
G01*
X28569000Y-73091000D01*
X28569000Y-71689000D01*
X30171000Y-71689000D01*
X30171000Y-73091000D01*
G37*
G36*
X38721999Y-71081737D02*
G01*
X38731608Y-71084652D01*
X38740472Y-71089390D01*
X38748237Y-71095763D01*
X38758448Y-71108206D01*
X38765378Y-71118575D01*
X38782705Y-71135902D01*
X38803080Y-71149515D01*
X38825720Y-71158891D01*
X38849753Y-71163671D01*
X38874257Y-71163670D01*
X38898290Y-71158888D01*
X38920929Y-71149510D01*
X38941302Y-71135895D01*
X38958629Y-71118568D01*
X38965558Y-71108198D01*
X38975763Y-71095763D01*
X38983528Y-71089390D01*
X38992392Y-71084652D01*
X39002001Y-71081737D01*
X39018140Y-71080148D01*
X39505861Y-71080148D01*
X39524199Y-71081954D01*
X39536450Y-71082556D01*
X39554869Y-71082556D01*
X39577149Y-71084750D01*
X39661233Y-71101476D01*
X39682660Y-71107976D01*
X39761858Y-71140780D01*
X39767303Y-71143691D01*
X39767309Y-71143693D01*
X39776169Y-71148429D01*
X39776173Y-71148432D01*
X39781614Y-71151340D01*
X39852899Y-71198971D01*
X39870204Y-71213172D01*
X39930828Y-71273796D01*
X39945029Y-71291101D01*
X39992660Y-71362386D01*
X39995568Y-71367827D01*
X39995571Y-71367831D01*
X40000307Y-71376691D01*
X40000309Y-71376697D01*
X40003220Y-71382142D01*
X40036024Y-71461340D01*
X40042524Y-71482767D01*
X40059250Y-71566851D01*
X40061444Y-71589131D01*
X40061444Y-71607550D01*
X40062046Y-71619801D01*
X40063852Y-71638139D01*
X40063852Y-72125862D01*
X40062046Y-72144199D01*
X40061444Y-72156450D01*
X40061444Y-72174869D01*
X40059250Y-72197149D01*
X40042524Y-72281233D01*
X40036024Y-72302660D01*
X40003220Y-72381858D01*
X40000309Y-72387303D01*
X40000307Y-72387309D01*
X39995571Y-72396169D01*
X39995568Y-72396173D01*
X39992660Y-72401614D01*
X39945029Y-72472899D01*
X39930828Y-72490204D01*
X39870204Y-72550828D01*
X39852899Y-72565029D01*
X39781614Y-72612660D01*
X39776173Y-72615568D01*
X39776169Y-72615571D01*
X39767309Y-72620307D01*
X39767303Y-72620309D01*
X39761858Y-72623220D01*
X39682660Y-72656024D01*
X39661233Y-72662524D01*
X39577149Y-72679250D01*
X39554869Y-72681444D01*
X39536450Y-72681444D01*
X39524199Y-72682046D01*
X39505862Y-72683852D01*
X39018140Y-72683852D01*
X39002001Y-72682263D01*
X38992392Y-72679348D01*
X38983528Y-72674610D01*
X38975763Y-72668237D01*
X38965552Y-72655794D01*
X38958622Y-72645425D01*
X38941295Y-72628098D01*
X38920920Y-72614485D01*
X38898280Y-72605109D01*
X38874247Y-72600329D01*
X38849743Y-72600330D01*
X38825710Y-72605112D01*
X38803071Y-72614490D01*
X38782698Y-72628105D01*
X38765371Y-72645432D01*
X38758442Y-72655802D01*
X38748237Y-72668237D01*
X38740472Y-72674610D01*
X38731608Y-72679348D01*
X38721999Y-72682263D01*
X38705860Y-72683852D01*
X38218138Y-72683852D01*
X38199801Y-72682046D01*
X38187550Y-72681444D01*
X38169131Y-72681444D01*
X38146851Y-72679250D01*
X38062767Y-72662524D01*
X38041340Y-72656024D01*
X37962142Y-72623220D01*
X37956697Y-72620309D01*
X37956691Y-72620307D01*
X37947831Y-72615571D01*
X37947827Y-72615568D01*
X37942386Y-72612660D01*
X37871101Y-72565029D01*
X37853796Y-72550828D01*
X37793172Y-72490204D01*
X37778971Y-72472899D01*
X37731340Y-72401614D01*
X37728432Y-72396173D01*
X37728429Y-72396169D01*
X37723693Y-72387309D01*
X37723691Y-72387303D01*
X37720780Y-72381858D01*
X37687976Y-72302660D01*
X37681476Y-72281233D01*
X37664750Y-72197149D01*
X37662556Y-72174869D01*
X37662556Y-72156450D01*
X37661954Y-72144199D01*
X37660148Y-72125862D01*
X37660148Y-71638139D01*
X37661954Y-71619801D01*
X37662556Y-71607550D01*
X37662556Y-71589131D01*
X37664750Y-71566851D01*
X37681476Y-71482767D01*
X37687976Y-71461340D01*
X37720780Y-71382142D01*
X37723691Y-71376697D01*
X37723693Y-71376691D01*
X37728429Y-71367831D01*
X37728432Y-71367827D01*
X37731340Y-71362386D01*
X37778971Y-71291101D01*
X37793172Y-71273796D01*
X37853796Y-71213172D01*
X37871101Y-71198971D01*
X37942386Y-71151340D01*
X37947827Y-71148432D01*
X37947831Y-71148429D01*
X37956691Y-71143693D01*
X37956697Y-71143691D01*
X37962142Y-71140780D01*
X38041340Y-71107976D01*
X38062767Y-71101476D01*
X38146851Y-71084750D01*
X38169131Y-71082556D01*
X38187550Y-71082556D01*
X38199801Y-71081954D01*
X38218139Y-71080148D01*
X38705860Y-71080148D01*
X38721999Y-71081737D01*
G37*
G36*
X56781000Y-72656000D02*
G01*
X54979000Y-72656000D01*
X54979000Y-70854000D01*
X56781000Y-70854000D01*
X56781000Y-72656000D01*
G37*
G36*
X48373512Y-70858927D02*
G01*
X48522812Y-70888624D01*
X48686784Y-70956544D01*
X48834354Y-71055147D01*
X48959853Y-71180646D01*
X49058456Y-71328216D01*
X49126376Y-71492188D01*
X49161000Y-71666259D01*
X49161000Y-71843741D01*
X49126376Y-72017812D01*
X49058456Y-72181784D01*
X48959853Y-72329354D01*
X48834354Y-72454853D01*
X48686784Y-72553456D01*
X48522812Y-72621376D01*
X48373512Y-72651073D01*
X48348742Y-72656000D01*
X48171258Y-72656000D01*
X48146488Y-72651073D01*
X47997188Y-72621376D01*
X47833216Y-72553456D01*
X47685646Y-72454853D01*
X47560147Y-72329354D01*
X47461544Y-72181784D01*
X47393624Y-72017812D01*
X47359000Y-71843741D01*
X47359000Y-71666259D01*
X47393624Y-71492188D01*
X47461544Y-71328216D01*
X47560147Y-71180646D01*
X47685646Y-71055147D01*
X47833216Y-70956544D01*
X47997188Y-70888624D01*
X48146488Y-70858927D01*
X48171258Y-70854000D01*
X48348742Y-70854000D01*
X48373512Y-70858927D01*
G37*
G36*
X50913512Y-70858927D02*
G01*
X51062812Y-70888624D01*
X51226784Y-70956544D01*
X51374354Y-71055147D01*
X51499853Y-71180646D01*
X51598456Y-71328216D01*
X51666376Y-71492188D01*
X51701000Y-71666259D01*
X51701000Y-71843741D01*
X51666376Y-72017812D01*
X51598456Y-72181784D01*
X51499853Y-72329354D01*
X51374354Y-72454853D01*
X51226784Y-72553456D01*
X51062812Y-72621376D01*
X50913512Y-72651073D01*
X50888742Y-72656000D01*
X50711258Y-72656000D01*
X50686488Y-72651073D01*
X50537188Y-72621376D01*
X50373216Y-72553456D01*
X50225646Y-72454853D01*
X50100147Y-72329354D01*
X50001544Y-72181784D01*
X49933624Y-72017812D01*
X49899000Y-71843741D01*
X49899000Y-71666259D01*
X49933624Y-71492188D01*
X50001544Y-71328216D01*
X50100147Y-71180646D01*
X50225646Y-71055147D01*
X50373216Y-70956544D01*
X50537188Y-70888624D01*
X50686488Y-70858927D01*
X50711258Y-70854000D01*
X50888742Y-70854000D01*
X50913512Y-70858927D01*
G37*
G36*
X53453512Y-70858927D02*
G01*
X53602812Y-70888624D01*
X53766784Y-70956544D01*
X53914354Y-71055147D01*
X54039853Y-71180646D01*
X54138456Y-71328216D01*
X54206376Y-71492188D01*
X54241000Y-71666259D01*
X54241000Y-71843741D01*
X54206376Y-72017812D01*
X54138456Y-72181784D01*
X54039853Y-72329354D01*
X53914354Y-72454853D01*
X53766784Y-72553456D01*
X53602812Y-72621376D01*
X53453512Y-72651073D01*
X53428742Y-72656000D01*
X53251258Y-72656000D01*
X53226488Y-72651073D01*
X53077188Y-72621376D01*
X52913216Y-72553456D01*
X52765646Y-72454853D01*
X52640147Y-72329354D01*
X52541544Y-72181784D01*
X52473624Y-72017812D01*
X52439000Y-71843741D01*
X52439000Y-71666259D01*
X52473624Y-71492188D01*
X52541544Y-71328216D01*
X52640147Y-71180646D01*
X52765646Y-71055147D01*
X52913216Y-70956544D01*
X53077188Y-70888624D01*
X53226488Y-70858927D01*
X53251258Y-70854000D01*
X53428742Y-70854000D01*
X53453512Y-70858927D01*
G37*
G36*
X45761000Y-71961000D02*
G01*
X44409000Y-71961000D01*
X44409000Y-70359000D01*
X45761000Y-70359000D01*
X45761000Y-71961000D01*
G37*
G36*
X29681000Y-69831000D02*
G01*
X26079000Y-69831000D01*
X26079000Y-67329000D01*
X29681000Y-67329000D01*
X29681000Y-69831000D01*
G37*
G36*
X34881000Y-69831000D02*
G01*
X31279000Y-69831000D01*
X31279000Y-67329000D01*
X34881000Y-67329000D01*
X34881000Y-69831000D01*
G37*
G36*
X48326000Y-68271000D02*
G01*
X46924000Y-68271000D01*
X46924000Y-66669000D01*
X48326000Y-66669000D01*
X48326000Y-68271000D01*
G37*
G36*
X51501000Y-68271000D02*
G01*
X50099000Y-68271000D01*
X50099000Y-66669000D01*
X51501000Y-66669000D01*
X51501000Y-68271000D01*
G37*
G36*
X35051000Y-66081000D02*
G01*
X33449000Y-66081000D01*
X33449000Y-64729000D01*
X35051000Y-64729000D01*
X35051000Y-66081000D01*
G37*
G36*
X29971000Y-66081000D02*
G01*
X28369000Y-66081000D01*
X28369000Y-64729000D01*
X29971000Y-64729000D01*
X29971000Y-66081000D01*
G37*
G36*
X27471000Y-66081000D02*
G01*
X25869000Y-66081000D01*
X25869000Y-64729000D01*
X27471000Y-64729000D01*
X27471000Y-66081000D01*
G37*
G36*
X32551000Y-66081000D02*
G01*
X30949000Y-66081000D01*
X30949000Y-64729000D01*
X32551000Y-64729000D01*
X32551000Y-66081000D01*
G37*
G36*
X51501000Y-65571000D02*
G01*
X50099000Y-65571000D01*
X50099000Y-63969000D01*
X51501000Y-63969000D01*
X51501000Y-65571000D01*
G37*
G36*
X48326000Y-65571000D02*
G01*
X46924000Y-65571000D01*
X46924000Y-63969000D01*
X48326000Y-63969000D01*
X48326000Y-65571000D01*
G37*
G36*
X47733642Y-58414781D02*
G01*
X47879414Y-58475162D01*
X47879416Y-58475163D01*
X48010608Y-58562822D01*
X48122178Y-58674392D01*
X48209837Y-58805584D01*
X48209838Y-58805586D01*
X48270219Y-58951358D01*
X48301000Y-59106107D01*
X48301000Y-59263893D01*
X48270219Y-59418642D01*
X48209838Y-59564414D01*
X48209837Y-59564416D01*
X48122178Y-59695608D01*
X48010608Y-59807178D01*
X47879416Y-59894837D01*
X47879415Y-59894838D01*
X47879414Y-59894838D01*
X47733642Y-59955219D01*
X47578893Y-59986000D01*
X47421107Y-59986000D01*
X47266358Y-59955219D01*
X47120586Y-59894838D01*
X47120585Y-59894838D01*
X47120584Y-59894837D01*
X46989392Y-59807178D01*
X46877822Y-59695608D01*
X46790163Y-59564416D01*
X46790162Y-59564414D01*
X46729781Y-59418642D01*
X46699000Y-59263893D01*
X46699000Y-59106107D01*
X46729781Y-58951358D01*
X46790162Y-58805586D01*
X46790163Y-58805584D01*
X46877822Y-58674392D01*
X46989392Y-58562822D01*
X47120584Y-58475163D01*
X47120586Y-58475162D01*
X47266358Y-58414781D01*
X47421107Y-58384000D01*
X47578893Y-58384000D01*
X47733642Y-58414781D01*
G37*
G36*
X45193642Y-58414781D02*
G01*
X45339414Y-58475162D01*
X45339416Y-58475163D01*
X45470608Y-58562822D01*
X45582178Y-58674392D01*
X45669837Y-58805584D01*
X45669838Y-58805586D01*
X45730219Y-58951358D01*
X45761000Y-59106107D01*
X45761000Y-59263893D01*
X45730219Y-59418642D01*
X45669838Y-59564414D01*
X45669837Y-59564416D01*
X45582178Y-59695608D01*
X45470608Y-59807178D01*
X45339416Y-59894837D01*
X45339415Y-59894838D01*
X45339414Y-59894838D01*
X45193642Y-59955219D01*
X45038893Y-59986000D01*
X44881107Y-59986000D01*
X44726358Y-59955219D01*
X44580586Y-59894838D01*
X44580585Y-59894838D01*
X44580584Y-59894837D01*
X44449392Y-59807178D01*
X44337822Y-59695608D01*
X44250163Y-59564416D01*
X44250162Y-59564414D01*
X44189781Y-59418642D01*
X44159000Y-59263893D01*
X44159000Y-59106107D01*
X44189781Y-58951358D01*
X44250162Y-58805586D01*
X44250163Y-58805584D01*
X44337822Y-58674392D01*
X44449392Y-58562822D01*
X44580584Y-58475163D01*
X44580586Y-58475162D01*
X44726358Y-58414781D01*
X44881107Y-58384000D01*
X45038893Y-58384000D01*
X45193642Y-58414781D01*
G37*
G36*
X49763642Y-58414781D02*
G01*
X49909414Y-58475162D01*
X49909416Y-58475163D01*
X50040608Y-58562822D01*
X50152178Y-58674392D01*
X50239837Y-58805584D01*
X50239838Y-58805586D01*
X50300219Y-58951358D01*
X50331000Y-59106107D01*
X50331000Y-59263893D01*
X50300219Y-59418642D01*
X50239838Y-59564414D01*
X50239837Y-59564416D01*
X50152178Y-59695608D01*
X50040608Y-59807178D01*
X49909416Y-59894837D01*
X49909415Y-59894838D01*
X49909414Y-59894838D01*
X49763642Y-59955219D01*
X49608893Y-59986000D01*
X49451107Y-59986000D01*
X49296358Y-59955219D01*
X49150586Y-59894838D01*
X49150585Y-59894838D01*
X49150584Y-59894837D01*
X49019392Y-59807178D01*
X48907822Y-59695608D01*
X48820163Y-59564416D01*
X48820162Y-59564414D01*
X48759781Y-59418642D01*
X48729000Y-59263893D01*
X48729000Y-59106107D01*
X48759781Y-58951358D01*
X48820162Y-58805586D01*
X48820163Y-58805584D01*
X48907822Y-58674392D01*
X49019392Y-58562822D01*
X49150584Y-58475163D01*
X49150586Y-58475162D01*
X49296358Y-58414781D01*
X49451107Y-58384000D01*
X49608893Y-58384000D01*
X49763642Y-58414781D01*
G37*
G36*
X52303642Y-58414781D02*
G01*
X52449414Y-58475162D01*
X52449416Y-58475163D01*
X52580608Y-58562822D01*
X52692178Y-58674392D01*
X52779837Y-58805584D01*
X52779838Y-58805586D01*
X52840219Y-58951358D01*
X52871000Y-59106107D01*
X52871000Y-59263893D01*
X52840219Y-59418642D01*
X52779838Y-59564414D01*
X52779837Y-59564416D01*
X52692178Y-59695608D01*
X52580608Y-59807178D01*
X52449416Y-59894837D01*
X52449415Y-59894838D01*
X52449414Y-59894838D01*
X52303642Y-59955219D01*
X52148893Y-59986000D01*
X51991107Y-59986000D01*
X51836358Y-59955219D01*
X51690586Y-59894838D01*
X51690585Y-59894838D01*
X51690584Y-59894837D01*
X51559392Y-59807178D01*
X51447822Y-59695608D01*
X51360163Y-59564416D01*
X51360162Y-59564414D01*
X51299781Y-59418642D01*
X51269000Y-59263893D01*
X51269000Y-59106107D01*
X51299781Y-58951358D01*
X51360162Y-58805586D01*
X51360163Y-58805584D01*
X51447822Y-58674392D01*
X51559392Y-58562822D01*
X51690584Y-58475163D01*
X51690586Y-58475162D01*
X51836358Y-58414781D01*
X51991107Y-58384000D01*
X52148893Y-58384000D01*
X52303642Y-58414781D01*
G37*
G36*
X36308512Y-58158927D02*
G01*
X36457812Y-58188624D01*
X36621784Y-58256544D01*
X36769354Y-58355147D01*
X36894853Y-58480646D01*
X36993456Y-58628216D01*
X37061376Y-58792188D01*
X37096000Y-58966259D01*
X37096000Y-59143741D01*
X37061376Y-59317812D01*
X36993456Y-59481784D01*
X36894853Y-59629354D01*
X36769354Y-59754853D01*
X36621784Y-59853456D01*
X36457812Y-59921376D01*
X36308512Y-59951073D01*
X36283742Y-59956000D01*
X36106258Y-59956000D01*
X36081488Y-59951073D01*
X35932188Y-59921376D01*
X35768216Y-59853456D01*
X35620646Y-59754853D01*
X35495147Y-59629354D01*
X35396544Y-59481784D01*
X35328624Y-59317812D01*
X35294000Y-59143741D01*
X35294000Y-58966259D01*
X35328624Y-58792188D01*
X35396544Y-58628216D01*
X35495147Y-58480646D01*
X35620646Y-58355147D01*
X35768216Y-58256544D01*
X35932188Y-58188624D01*
X36081488Y-58158927D01*
X36106258Y-58154000D01*
X36283742Y-58154000D01*
X36308512Y-58158927D01*
G37*
G36*
X33768512Y-58158927D02*
G01*
X33917812Y-58188624D01*
X34081784Y-58256544D01*
X34229354Y-58355147D01*
X34354853Y-58480646D01*
X34453456Y-58628216D01*
X34521376Y-58792188D01*
X34556000Y-58966259D01*
X34556000Y-59143741D01*
X34521376Y-59317812D01*
X34453456Y-59481784D01*
X34354853Y-59629354D01*
X34229354Y-59754853D01*
X34081784Y-59853456D01*
X33917812Y-59921376D01*
X33768512Y-59951073D01*
X33743742Y-59956000D01*
X33566258Y-59956000D01*
X33541488Y-59951073D01*
X33392188Y-59921376D01*
X33228216Y-59853456D01*
X33080646Y-59754853D01*
X32955147Y-59629354D01*
X32856544Y-59481784D01*
X32788624Y-59317812D01*
X32754000Y-59143741D01*
X32754000Y-58966259D01*
X32788624Y-58792188D01*
X32856544Y-58628216D01*
X32955147Y-58480646D01*
X33080646Y-58355147D01*
X33228216Y-58256544D01*
X33392188Y-58188624D01*
X33541488Y-58158927D01*
X33566258Y-58154000D01*
X33743742Y-58154000D01*
X33768512Y-58158927D01*
G37*
G36*
X32016000Y-59956000D02*
G01*
X30214000Y-59956000D01*
X30214000Y-58154000D01*
X32016000Y-58154000D01*
X32016000Y-59956000D01*
G37*
G36*
X27371000Y-58746000D02*
G01*
X25969000Y-58746000D01*
X25969000Y-57144000D01*
X27371000Y-57144000D01*
X27371000Y-58746000D01*
G37*
G36*
X24196000Y-58746000D02*
G01*
X22794000Y-58746000D01*
X22794000Y-57144000D01*
X24196000Y-57144000D01*
X24196000Y-58746000D01*
G37*
G36*
X42173362Y-54986000D02*
G01*
X42362410Y-55023604D01*
X42644674Y-55140521D01*
X42898705Y-55310259D01*
X43114741Y-55526295D01*
X43284479Y-55780326D01*
X43401396Y-56062590D01*
X43461000Y-56362240D01*
X43461000Y-56667760D01*
X43401396Y-56967410D01*
X43284479Y-57249674D01*
X43114741Y-57503705D01*
X42898705Y-57719741D01*
X42644674Y-57889479D01*
X42362410Y-58006396D01*
X42212585Y-58036198D01*
X42062761Y-58066000D01*
X41757239Y-58066000D01*
X41607415Y-58036198D01*
X41457590Y-58006396D01*
X41175326Y-57889479D01*
X40921295Y-57719741D01*
X40705259Y-57503705D01*
X40535521Y-57249674D01*
X40418604Y-56967410D01*
X40359000Y-56667760D01*
X40359000Y-56362240D01*
X40418604Y-56062590D01*
X40535521Y-55780326D01*
X40705259Y-55526295D01*
X40921295Y-55310259D01*
X41175326Y-55140521D01*
X41457590Y-55023604D01*
X41646638Y-54986000D01*
X41757239Y-54964000D01*
X42062761Y-54964000D01*
X42173362Y-54986000D01*
G37*
G36*
X55893362Y-54986000D02*
G01*
X56082410Y-55023604D01*
X56364674Y-55140521D01*
X56618705Y-55310259D01*
X56834741Y-55526295D01*
X57004479Y-55780326D01*
X57121396Y-56062590D01*
X57181000Y-56362240D01*
X57181000Y-56667760D01*
X57121396Y-56967410D01*
X57004479Y-57249674D01*
X56834741Y-57503705D01*
X56618705Y-57719741D01*
X56364674Y-57889479D01*
X56082410Y-58006396D01*
X55932585Y-58036198D01*
X55782761Y-58066000D01*
X55477239Y-58066000D01*
X55327415Y-58036198D01*
X55177590Y-58006396D01*
X54895326Y-57889479D01*
X54641295Y-57719741D01*
X54425259Y-57503705D01*
X54255521Y-57249674D01*
X54138604Y-56967410D01*
X54079000Y-56667760D01*
X54079000Y-56362240D01*
X54138604Y-56062590D01*
X54255521Y-55780326D01*
X54425259Y-55526295D01*
X54641295Y-55310259D01*
X54895326Y-55140521D01*
X55177590Y-55023604D01*
X55366638Y-54986000D01*
X55477239Y-54964000D01*
X55782761Y-54964000D01*
X55893362Y-54986000D01*
G37*
G36*
X27371000Y-56046000D02*
G01*
X25969000Y-56046000D01*
X25969000Y-54444000D01*
X27371000Y-54444000D01*
X27371000Y-56046000D01*
G37*
G36*
X24196000Y-56046000D02*
G01*
X22794000Y-56046000D01*
X22794000Y-54444000D01*
X24196000Y-54444000D01*
X24196000Y-56046000D01*
G37*
G36*
X38166000Y-55411000D02*
G01*
X36764000Y-55411000D01*
X36764000Y-53809000D01*
X38166000Y-53809000D01*
X38166000Y-55411000D01*
G37*
G36*
X34998000Y-54986000D02*
G01*
X33836000Y-54986000D01*
X33836000Y-52334000D01*
X34998000Y-52334000D01*
X34998000Y-54986000D01*
G37*
G36*
X32798000Y-54986000D02*
G01*
X31636000Y-54986000D01*
X31636000Y-54234000D01*
X32798000Y-54234000D01*
X32798000Y-54986000D01*
G37*
G36*
X32798000Y-53086000D02*
G01*
X31636000Y-53086000D01*
X31636000Y-52334000D01*
X32798000Y-52334000D01*
X32798000Y-53086000D01*
G37*
G36*
X38166000Y-52711000D02*
G01*
X36764000Y-52711000D01*
X36764000Y-51109000D01*
X38166000Y-51109000D01*
X38166000Y-52711000D01*
G37*
G36*
X22462818Y-50992696D02*
G01*
X22576105Y-51027062D01*
X22680512Y-51082869D01*
X22772027Y-51157973D01*
X22847131Y-51249488D01*
X22902938Y-51353895D01*
X22937304Y-51467182D01*
X22946000Y-51555482D01*
X22946000Y-52014519D01*
X22937304Y-52102818D01*
X22902938Y-52216105D01*
X22847131Y-52320512D01*
X22847130Y-52320513D01*
X22772027Y-52412027D01*
X22696923Y-52473662D01*
X22680511Y-52487131D01*
X22576104Y-52542938D01*
X22462817Y-52577304D01*
X22345000Y-52588907D01*
X22227182Y-52577304D01*
X22113895Y-52542938D01*
X22009488Y-52487131D01*
X21995572Y-52475711D01*
X21917973Y-52412027D01*
X21842870Y-52320512D01*
X21842869Y-52320511D01*
X21787062Y-52216104D01*
X21752696Y-52102817D01*
X21744000Y-52014518D01*
X21744000Y-51555481D01*
X21752696Y-51467182D01*
X21787062Y-51353895D01*
X21842869Y-51249488D01*
X21917974Y-51157973D01*
X22009489Y-51082869D01*
X22113896Y-51027062D01*
X22227183Y-50992696D01*
X22345000Y-50981093D01*
X22462818Y-50992696D01*
G37*
G36*
X27302818Y-50992696D02*
G01*
X27416105Y-51027062D01*
X27520512Y-51082869D01*
X27612027Y-51157973D01*
X27687131Y-51249488D01*
X27742938Y-51353895D01*
X27777304Y-51467182D01*
X27786000Y-51555482D01*
X27786000Y-52014519D01*
X27777304Y-52102818D01*
X27742938Y-52216105D01*
X27687131Y-52320512D01*
X27687130Y-52320513D01*
X27612027Y-52412027D01*
X27536923Y-52473662D01*
X27520511Y-52487131D01*
X27416104Y-52542938D01*
X27302817Y-52577304D01*
X27185000Y-52588907D01*
X27067182Y-52577304D01*
X26953895Y-52542938D01*
X26849488Y-52487131D01*
X26835572Y-52475711D01*
X26757973Y-52412027D01*
X26682870Y-52320512D01*
X26682869Y-52320511D01*
X26627062Y-52216104D01*
X26592696Y-52102817D01*
X26584000Y-52014518D01*
X26584000Y-51555481D01*
X26592696Y-51467182D01*
X26627062Y-51353895D01*
X26682869Y-51249488D01*
X26757974Y-51157973D01*
X26849489Y-51082869D01*
X26953896Y-51027062D01*
X27067183Y-50992696D01*
X27185000Y-50981093D01*
X27302818Y-50992696D01*
G37*
G36*
X26316000Y-52541000D02*
G01*
X23214000Y-52541000D01*
X23214000Y-50789000D01*
X26316000Y-50789000D01*
X26316000Y-52541000D01*
G37*
G36*
X26491000Y-49846000D02*
G01*
X24959000Y-49846000D01*
X24959000Y-47244000D01*
X26491000Y-47244000D01*
X26491000Y-49846000D01*
G37*
G36*
X24571000Y-49846000D02*
G01*
X23039000Y-49846000D01*
X23039000Y-47244000D01*
X24571000Y-47244000D01*
X24571000Y-49846000D01*
G37*
G36*
X27622618Y-47893420D02*
G01*
X27713404Y-47920960D01*
X27745336Y-47930646D01*
X27858425Y-47991094D01*
X27957554Y-48072446D01*
X28038906Y-48171575D01*
X28099354Y-48284664D01*
X28099355Y-48284668D01*
X28136580Y-48407382D01*
X28146000Y-48503027D01*
X28146000Y-49066973D01*
X28136580Y-49162618D01*
X28109040Y-49253404D01*
X28099354Y-49285336D01*
X28038906Y-49398425D01*
X27957554Y-49497553D01*
X27858424Y-49578906D01*
X27745335Y-49639354D01*
X27713403Y-49649040D01*
X27622617Y-49676580D01*
X27495000Y-49689149D01*
X27367382Y-49676580D01*
X27276596Y-49649040D01*
X27244664Y-49639354D01*
X27131575Y-49578906D01*
X27032447Y-49497554D01*
X26951094Y-49398424D01*
X26890646Y-49285335D01*
X26880960Y-49253403D01*
X26853420Y-49162617D01*
X26844000Y-49066972D01*
X26844000Y-48503027D01*
X26853420Y-48407382D01*
X26890645Y-48284668D01*
X26890646Y-48284664D01*
X26951094Y-48171575D01*
X27032447Y-48072447D01*
X27131576Y-47991094D01*
X27244665Y-47930646D01*
X27276597Y-47920960D01*
X27367383Y-47893420D01*
X27495000Y-47880851D01*
X27622618Y-47893420D01*
G37*
G36*
X22162618Y-47893420D02*
G01*
X22253404Y-47920960D01*
X22285336Y-47930646D01*
X22398425Y-47991094D01*
X22497554Y-48072446D01*
X22578906Y-48171575D01*
X22639354Y-48284664D01*
X22639355Y-48284668D01*
X22676580Y-48407382D01*
X22686000Y-48503027D01*
X22686000Y-49066973D01*
X22676580Y-49162618D01*
X22649040Y-49253404D01*
X22639354Y-49285336D01*
X22578906Y-49398425D01*
X22497554Y-49497553D01*
X22398424Y-49578906D01*
X22285335Y-49639354D01*
X22253403Y-49649040D01*
X22162617Y-49676580D01*
X22035000Y-49689149D01*
X21907382Y-49676580D01*
X21816596Y-49649040D01*
X21784664Y-49639354D01*
X21671575Y-49578906D01*
X21572447Y-49497554D01*
X21491094Y-49398424D01*
X21430646Y-49285335D01*
X21420960Y-49253403D01*
X21393420Y-49162617D01*
X21384000Y-49066972D01*
X21384000Y-48503027D01*
X21393420Y-48407382D01*
X21430645Y-48284668D01*
X21430646Y-48284664D01*
X21491094Y-48171575D01*
X21572447Y-48072447D01*
X21671576Y-47991094D01*
X21784665Y-47930646D01*
X21816597Y-47920960D01*
X21907383Y-47893420D01*
X22035000Y-47880851D01*
X22162618Y-47893420D01*
G37*
M02*
