G04 #@! TF.GenerationSoftware,KiCad,Pcbnew,5.1.5*
G04 #@! TF.CreationDate,2020-02-24T15:24:22+03:00*
G04 #@! TF.ProjectId,max3421eboard,6d617833-3432-4316-9562-6f6172642e6b,rev?*
G04 #@! TF.SameCoordinates,Original*
G04 #@! TF.FileFunction,Legend,Bot*
G04 #@! TF.FilePolarity,Positive*
%FSLAX46Y46*%
G04 Gerber Fmt 4.6, Leading zero omitted, Abs format (unit mm)*
G04 Created by KiCad (PCBNEW 5.1.5) date 2020-02-24 15:24:22*
%MOMM*%
%LPD*%
G04 APERTURE LIST*
%ADD10C,0.150000*%
%ADD11C,0.100000*%
%ADD12C,0.010000*%
G04 APERTURE END LIST*
D10*
X56515000Y-63754000D02*
X27940000Y-63754000D01*
X51181000Y-70231000D02*
X51181000Y-61976000D01*
X27940000Y-68326000D02*
X56515000Y-68326000D01*
X56515000Y-66040000D02*
X27940000Y-66040000D01*
D11*
G36*
X52197000Y-67564000D02*
G01*
X54737000Y-67564000D01*
X54737000Y-66802000D01*
X52197000Y-66802000D01*
X52197000Y-67564000D01*
G37*
X52197000Y-67564000D02*
X54737000Y-67564000D01*
X54737000Y-66802000D01*
X52197000Y-66802000D01*
X52197000Y-67564000D01*
G36*
X53721000Y-65278000D02*
G01*
X56261000Y-65278000D01*
X56261000Y-64516000D01*
X53721000Y-64516000D01*
X53721000Y-65278000D01*
G37*
X53721000Y-65278000D02*
X56261000Y-65278000D01*
X56261000Y-64516000D01*
X53721000Y-64516000D01*
X53721000Y-65278000D01*
D10*
X54457953Y-69469000D02*
G75*
G03X54457953Y-69469000I-228953J0D01*
G01*
X53467000Y-68707000D02*
X53467000Y-70231000D01*
X56515000Y-70231000D02*
X56515000Y-68707000D01*
X54991000Y-68707000D02*
X54991000Y-70231000D01*
X55981953Y-69469000D02*
G75*
G03X55981953Y-69469000I-228953J0D01*
G01*
X51943000Y-70231000D02*
X56515000Y-70231000D01*
X52933953Y-69469000D02*
G75*
G03X52933953Y-69469000I-228953J0D01*
G01*
X56515000Y-68707000D02*
X54991000Y-68707000D01*
X51943000Y-68707000D02*
X51943000Y-70231000D01*
X56515000Y-68707000D02*
X51943000Y-68707000D01*
X54457953Y-67183000D02*
G75*
G03X54457953Y-67183000I-228953J0D01*
G01*
X53467000Y-66421000D02*
X53467000Y-67945000D01*
X56515000Y-67945000D02*
X56515000Y-66421000D01*
X54991000Y-66421000D02*
X54991000Y-67945000D01*
X55981953Y-67183000D02*
G75*
G03X55981953Y-67183000I-228953J0D01*
G01*
X51943000Y-67945000D02*
X56515000Y-67945000D01*
X52933953Y-67183000D02*
G75*
G03X52933953Y-67183000I-228953J0D01*
G01*
X56515000Y-66421000D02*
X54991000Y-66421000D01*
X51943000Y-66421000D02*
X51943000Y-67945000D01*
X56515000Y-66421000D02*
X51943000Y-66421000D01*
X52933953Y-64897000D02*
G75*
G03X52933953Y-64897000I-228953J0D01*
G01*
X54457953Y-64897000D02*
G75*
G03X54457953Y-64897000I-228953J0D01*
G01*
X55981953Y-64897000D02*
G75*
G03X55981953Y-64897000I-228953J0D01*
G01*
X53467000Y-64135000D02*
X53467000Y-65659000D01*
X54991000Y-64135000D02*
X54991000Y-65659000D01*
X56515000Y-64135000D02*
X54991000Y-64135000D01*
X56515000Y-65659000D02*
X56515000Y-64135000D01*
X51943000Y-65659000D02*
X56515000Y-65659000D01*
X51943000Y-64135000D02*
X51943000Y-65659000D01*
X56515000Y-64135000D02*
X51943000Y-64135000D01*
D12*
G36*
X38760400Y-89997458D02*
G01*
X38636759Y-90251369D01*
X38513117Y-90505280D01*
X38693720Y-90505280D01*
X38736804Y-90446860D01*
X38755396Y-90421703D01*
X38783723Y-90383443D01*
X38819404Y-90335290D01*
X38860060Y-90280455D01*
X38903312Y-90222149D01*
X38925048Y-90192860D01*
X39070208Y-89997280D01*
X38760400Y-89997458D01*
G37*
X38760400Y-89997458D02*
X38636759Y-90251369D01*
X38513117Y-90505280D01*
X38693720Y-90505280D01*
X38736804Y-90446860D01*
X38755396Y-90421703D01*
X38783723Y-90383443D01*
X38819404Y-90335290D01*
X38860060Y-90280455D01*
X38903312Y-90222149D01*
X38925048Y-90192860D01*
X39070208Y-89997280D01*
X38760400Y-89997458D01*
G36*
X45325497Y-90051441D02*
G01*
X45342692Y-90075148D01*
X45369703Y-90112105D01*
X45404262Y-90159221D01*
X45444103Y-90213410D01*
X45486959Y-90271581D01*
X45511720Y-90305139D01*
X45659040Y-90504677D01*
X45747940Y-90504978D01*
X45787594Y-90504745D01*
X45818134Y-90503868D01*
X45834964Y-90502508D01*
X45836840Y-90501805D01*
X45832573Y-90492128D01*
X45820530Y-90466569D01*
X45801853Y-90427503D01*
X45777684Y-90377308D01*
X45749163Y-90318360D01*
X45717432Y-90253036D01*
X45714886Y-90247805D01*
X45592931Y-89997280D01*
X45286594Y-89997280D01*
X45325497Y-90051441D01*
G37*
X45325497Y-90051441D02*
X45342692Y-90075148D01*
X45369703Y-90112105D01*
X45404262Y-90159221D01*
X45444103Y-90213410D01*
X45486959Y-90271581D01*
X45511720Y-90305139D01*
X45659040Y-90504677D01*
X45747940Y-90504978D01*
X45787594Y-90504745D01*
X45818134Y-90503868D01*
X45834964Y-90502508D01*
X45836840Y-90501805D01*
X45832573Y-90492128D01*
X45820530Y-90466569D01*
X45801853Y-90427503D01*
X45777684Y-90377308D01*
X45749163Y-90318360D01*
X45717432Y-90253036D01*
X45714886Y-90247805D01*
X45592931Y-89997280D01*
X45286594Y-89997280D01*
X45325497Y-90051441D01*
G36*
X40735691Y-91072201D02*
G01*
X40675611Y-91093099D01*
X40619606Y-91131352D01*
X40610983Y-91139385D01*
X40568319Y-91193883D01*
X40543300Y-91255058D01*
X40535878Y-91319595D01*
X40546003Y-91384179D01*
X40573628Y-91445495D01*
X40616250Y-91497905D01*
X40670485Y-91536476D01*
X40732832Y-91558110D01*
X40799432Y-91562292D01*
X40866430Y-91548506D01*
X40897370Y-91535469D01*
X40955106Y-91496180D01*
X40997284Y-91444349D01*
X41022948Y-91381569D01*
X41031160Y-91313000D01*
X41022283Y-91245361D01*
X40997550Y-91186842D01*
X40959807Y-91138618D01*
X40911903Y-91101865D01*
X40856683Y-91077760D01*
X40796997Y-91067480D01*
X40735691Y-91072201D01*
G37*
X40735691Y-91072201D02*
X40675611Y-91093099D01*
X40619606Y-91131352D01*
X40610983Y-91139385D01*
X40568319Y-91193883D01*
X40543300Y-91255058D01*
X40535878Y-91319595D01*
X40546003Y-91384179D01*
X40573628Y-91445495D01*
X40616250Y-91497905D01*
X40670485Y-91536476D01*
X40732832Y-91558110D01*
X40799432Y-91562292D01*
X40866430Y-91548506D01*
X40897370Y-91535469D01*
X40955106Y-91496180D01*
X40997284Y-91444349D01*
X41022948Y-91381569D01*
X41031160Y-91313000D01*
X41022283Y-91245361D01*
X40997550Y-91186842D01*
X40959807Y-91138618D01*
X40911903Y-91101865D01*
X40856683Y-91077760D01*
X40796997Y-91067480D01*
X40735691Y-91072201D01*
G36*
X44169771Y-91072201D02*
G01*
X44109691Y-91093099D01*
X44053686Y-91131352D01*
X44045063Y-91139385D01*
X44002399Y-91193883D01*
X43977380Y-91255058D01*
X43969958Y-91319595D01*
X43980083Y-91384179D01*
X44007708Y-91445495D01*
X44050330Y-91497905D01*
X44104565Y-91536476D01*
X44166912Y-91558110D01*
X44233512Y-91562292D01*
X44300510Y-91548506D01*
X44331450Y-91535469D01*
X44389186Y-91496180D01*
X44431364Y-91444349D01*
X44457028Y-91381569D01*
X44465240Y-91313000D01*
X44456363Y-91245361D01*
X44431630Y-91186842D01*
X44393887Y-91138618D01*
X44345983Y-91101865D01*
X44290763Y-91077760D01*
X44231077Y-91067480D01*
X44169771Y-91072201D01*
G37*
X44169771Y-91072201D02*
X44109691Y-91093099D01*
X44053686Y-91131352D01*
X44045063Y-91139385D01*
X44002399Y-91193883D01*
X43977380Y-91255058D01*
X43969958Y-91319595D01*
X43980083Y-91384179D01*
X44007708Y-91445495D01*
X44050330Y-91497905D01*
X44104565Y-91536476D01*
X44166912Y-91558110D01*
X44233512Y-91562292D01*
X44300510Y-91548506D01*
X44331450Y-91535469D01*
X44389186Y-91496180D01*
X44431364Y-91444349D01*
X44457028Y-91381569D01*
X44465240Y-91313000D01*
X44456363Y-91245361D01*
X44431630Y-91186842D01*
X44393887Y-91138618D01*
X44345983Y-91101865D01*
X44290763Y-91077760D01*
X44231077Y-91067480D01*
X44169771Y-91072201D01*
G36*
X42924414Y-90770002D02*
G01*
X42880490Y-90771548D01*
X42848233Y-90773867D01*
X42831220Y-90776751D01*
X42829480Y-90778076D01*
X42836644Y-90788372D01*
X42855640Y-90807931D01*
X42882726Y-90832962D01*
X42889924Y-90839284D01*
X42952207Y-90900237D01*
X43015011Y-90973722D01*
X43072950Y-91052829D01*
X43120641Y-91130646D01*
X43128383Y-91145269D01*
X43184483Y-91273313D01*
X43221914Y-91403945D01*
X43241275Y-91540033D01*
X43243163Y-91684446D01*
X43242704Y-91694000D01*
X43231043Y-91808864D01*
X43208570Y-91907107D01*
X43175015Y-91989476D01*
X43130110Y-92056722D01*
X43101613Y-92086489D01*
X43050289Y-92126006D01*
X42996762Y-92149802D01*
X42935506Y-92159715D01*
X42882991Y-92159258D01*
X42804329Y-92147680D01*
X42739417Y-92122391D01*
X42685864Y-92082026D01*
X42641282Y-92025222D01*
X42637545Y-92019120D01*
X42632222Y-92009640D01*
X42627866Y-91999309D01*
X42624379Y-91986111D01*
X42621665Y-91968031D01*
X42619627Y-91943053D01*
X42618167Y-91909162D01*
X42617189Y-91864344D01*
X42616596Y-91806583D01*
X42616291Y-91733863D01*
X42616177Y-91644170D01*
X42616158Y-91574620D01*
X42616120Y-91165680D01*
X42392600Y-91165680D01*
X42392498Y-91993720D01*
X42354449Y-92043516D01*
X42317239Y-92083007D01*
X42272354Y-92117644D01*
X42260520Y-92124796D01*
X42232323Y-92139754D01*
X42208162Y-92149052D01*
X42181604Y-92154017D01*
X42146214Y-92155979D01*
X42108120Y-92156280D01*
X42060905Y-92155689D01*
X42027916Y-92153137D01*
X42003075Y-92147458D01*
X41980306Y-92137482D01*
X41964734Y-92128728D01*
X41901564Y-92080118D01*
X41850350Y-92015516D01*
X41811022Y-91934765D01*
X41783507Y-91837713D01*
X41767736Y-91724203D01*
X41765896Y-91698054D01*
X41766549Y-91559317D01*
X41784363Y-91421756D01*
X41818509Y-91289621D01*
X41868158Y-91167159D01*
X41870423Y-91162586D01*
X41915443Y-91080694D01*
X41965829Y-91006726D01*
X42026128Y-90934552D01*
X42084497Y-90874047D01*
X42119721Y-90838882D01*
X42149009Y-90808880D01*
X42169660Y-90786867D01*
X42178975Y-90775665D01*
X42179240Y-90774987D01*
X42169677Y-90773024D01*
X42143371Y-90771365D01*
X42103898Y-90770147D01*
X42054835Y-90769505D01*
X42032291Y-90769440D01*
X41885341Y-90769440D01*
X41833926Y-90831221D01*
X41732279Y-90966655D01*
X41650474Y-91104768D01*
X41588635Y-91245314D01*
X41546885Y-91388051D01*
X41542385Y-91409520D01*
X41533747Y-91470860D01*
X41528726Y-91545308D01*
X41527296Y-91626224D01*
X41529429Y-91706963D01*
X41535099Y-91780883D01*
X41544140Y-91840686D01*
X41576318Y-91957558D01*
X41620588Y-92061590D01*
X41676052Y-92151644D01*
X41741814Y-92226579D01*
X41816977Y-92285258D01*
X41900644Y-92326541D01*
X41935400Y-92337684D01*
X42039933Y-92357155D01*
X42140633Y-92357434D01*
X42236195Y-92338757D01*
X42325312Y-92301361D01*
X42395759Y-92254444D01*
X42425167Y-92228005D01*
X42455284Y-92196226D01*
X42480924Y-92165017D01*
X42496903Y-92140290D01*
X42497971Y-92137928D01*
X42507126Y-92135411D01*
X42524035Y-92150328D01*
X42524785Y-92151200D01*
X42584686Y-92216653D01*
X42639790Y-92266414D01*
X42693725Y-92303279D01*
X42750122Y-92330048D01*
X42762781Y-92334706D01*
X42828253Y-92351111D01*
X42902274Y-92359137D01*
X42974504Y-92357891D01*
X42998115Y-92354996D01*
X43089671Y-92333472D01*
X43169374Y-92298472D01*
X43242504Y-92247445D01*
X43268672Y-92224254D01*
X43335982Y-92147860D01*
X43391195Y-92057362D01*
X43434046Y-91955172D01*
X43464273Y-91843703D01*
X43481614Y-91725368D01*
X43485806Y-91602580D01*
X43476585Y-91477751D01*
X43453690Y-91353295D01*
X43416857Y-91231625D01*
X43385141Y-91154794D01*
X43353039Y-91092507D01*
X43310912Y-91021619D01*
X43262734Y-90948255D01*
X43212482Y-90878542D01*
X43176323Y-90832940D01*
X43123380Y-90769440D01*
X42976430Y-90769440D01*
X42924414Y-90770002D01*
G37*
X42924414Y-90770002D02*
X42880490Y-90771548D01*
X42848233Y-90773867D01*
X42831220Y-90776751D01*
X42829480Y-90778076D01*
X42836644Y-90788372D01*
X42855640Y-90807931D01*
X42882726Y-90832962D01*
X42889924Y-90839284D01*
X42952207Y-90900237D01*
X43015011Y-90973722D01*
X43072950Y-91052829D01*
X43120641Y-91130646D01*
X43128383Y-91145269D01*
X43184483Y-91273313D01*
X43221914Y-91403945D01*
X43241275Y-91540033D01*
X43243163Y-91684446D01*
X43242704Y-91694000D01*
X43231043Y-91808864D01*
X43208570Y-91907107D01*
X43175015Y-91989476D01*
X43130110Y-92056722D01*
X43101613Y-92086489D01*
X43050289Y-92126006D01*
X42996762Y-92149802D01*
X42935506Y-92159715D01*
X42882991Y-92159258D01*
X42804329Y-92147680D01*
X42739417Y-92122391D01*
X42685864Y-92082026D01*
X42641282Y-92025222D01*
X42637545Y-92019120D01*
X42632222Y-92009640D01*
X42627866Y-91999309D01*
X42624379Y-91986111D01*
X42621665Y-91968031D01*
X42619627Y-91943053D01*
X42618167Y-91909162D01*
X42617189Y-91864344D01*
X42616596Y-91806583D01*
X42616291Y-91733863D01*
X42616177Y-91644170D01*
X42616158Y-91574620D01*
X42616120Y-91165680D01*
X42392600Y-91165680D01*
X42392498Y-91993720D01*
X42354449Y-92043516D01*
X42317239Y-92083007D01*
X42272354Y-92117644D01*
X42260520Y-92124796D01*
X42232323Y-92139754D01*
X42208162Y-92149052D01*
X42181604Y-92154017D01*
X42146214Y-92155979D01*
X42108120Y-92156280D01*
X42060905Y-92155689D01*
X42027916Y-92153137D01*
X42003075Y-92147458D01*
X41980306Y-92137482D01*
X41964734Y-92128728D01*
X41901564Y-92080118D01*
X41850350Y-92015516D01*
X41811022Y-91934765D01*
X41783507Y-91837713D01*
X41767736Y-91724203D01*
X41765896Y-91698054D01*
X41766549Y-91559317D01*
X41784363Y-91421756D01*
X41818509Y-91289621D01*
X41868158Y-91167159D01*
X41870423Y-91162586D01*
X41915443Y-91080694D01*
X41965829Y-91006726D01*
X42026128Y-90934552D01*
X42084497Y-90874047D01*
X42119721Y-90838882D01*
X42149009Y-90808880D01*
X42169660Y-90786867D01*
X42178975Y-90775665D01*
X42179240Y-90774987D01*
X42169677Y-90773024D01*
X42143371Y-90771365D01*
X42103898Y-90770147D01*
X42054835Y-90769505D01*
X42032291Y-90769440D01*
X41885341Y-90769440D01*
X41833926Y-90831221D01*
X41732279Y-90966655D01*
X41650474Y-91104768D01*
X41588635Y-91245314D01*
X41546885Y-91388051D01*
X41542385Y-91409520D01*
X41533747Y-91470860D01*
X41528726Y-91545308D01*
X41527296Y-91626224D01*
X41529429Y-91706963D01*
X41535099Y-91780883D01*
X41544140Y-91840686D01*
X41576318Y-91957558D01*
X41620588Y-92061590D01*
X41676052Y-92151644D01*
X41741814Y-92226579D01*
X41816977Y-92285258D01*
X41900644Y-92326541D01*
X41935400Y-92337684D01*
X42039933Y-92357155D01*
X42140633Y-92357434D01*
X42236195Y-92338757D01*
X42325312Y-92301361D01*
X42395759Y-92254444D01*
X42425167Y-92228005D01*
X42455284Y-92196226D01*
X42480924Y-92165017D01*
X42496903Y-92140290D01*
X42497971Y-92137928D01*
X42507126Y-92135411D01*
X42524035Y-92150328D01*
X42524785Y-92151200D01*
X42584686Y-92216653D01*
X42639790Y-92266414D01*
X42693725Y-92303279D01*
X42750122Y-92330048D01*
X42762781Y-92334706D01*
X42828253Y-92351111D01*
X42902274Y-92359137D01*
X42974504Y-92357891D01*
X42998115Y-92354996D01*
X43089671Y-92333472D01*
X43169374Y-92298472D01*
X43242504Y-92247445D01*
X43268672Y-92224254D01*
X43335982Y-92147860D01*
X43391195Y-92057362D01*
X43434046Y-91955172D01*
X43464273Y-91843703D01*
X43481614Y-91725368D01*
X43485806Y-91602580D01*
X43476585Y-91477751D01*
X43453690Y-91353295D01*
X43416857Y-91231625D01*
X43385141Y-91154794D01*
X43353039Y-91092507D01*
X43310912Y-91021619D01*
X43262734Y-90948255D01*
X43212482Y-90878542D01*
X43176323Y-90832940D01*
X43123380Y-90769440D01*
X42976430Y-90769440D01*
X42924414Y-90770002D01*
G36*
X37907976Y-90161097D02*
G01*
X37859144Y-90161731D01*
X37838805Y-90162101D01*
X37694450Y-90164920D01*
X37644845Y-90225880D01*
X37592581Y-90294376D01*
X37536396Y-90375321D01*
X37480283Y-90462446D01*
X37428235Y-90549484D01*
X37384244Y-90630167D01*
X37373018Y-90652600D01*
X37295965Y-90832799D01*
X37237179Y-91018858D01*
X37196671Y-91209020D01*
X37174451Y-91401529D01*
X37170529Y-91594629D01*
X37184916Y-91786565D01*
X37217624Y-91975580D01*
X37268661Y-92159918D01*
X37338039Y-92337824D01*
X37362568Y-92389960D01*
X37405530Y-92471056D01*
X37458329Y-92560456D01*
X37516817Y-92651720D01*
X37576850Y-92738406D01*
X37634282Y-92814075D01*
X37640516Y-92821760D01*
X37694522Y-92887800D01*
X37845672Y-92890621D01*
X37996821Y-92893443D01*
X37949676Y-92851944D01*
X37909501Y-92812928D01*
X37862255Y-92761209D01*
X37811657Y-92701302D01*
X37761427Y-92637723D01*
X37715284Y-92574984D01*
X37686246Y-92532200D01*
X37590479Y-92366737D01*
X37513294Y-92195086D01*
X37454564Y-92018653D01*
X37414159Y-91838846D01*
X37391951Y-91657071D01*
X37387811Y-91474735D01*
X37401611Y-91293246D01*
X37433223Y-91114011D01*
X37482516Y-90938437D01*
X37549364Y-90767931D01*
X37633637Y-90603900D01*
X37735207Y-90447750D01*
X37853946Y-90300890D01*
X37894116Y-90257579D01*
X37927649Y-90222373D01*
X37955402Y-90192855D01*
X37974710Y-90171891D01*
X37982906Y-90162345D01*
X37983016Y-90162101D01*
X37973514Y-90161281D01*
X37947299Y-90160947D01*
X37907976Y-90161097D01*
G37*
X37907976Y-90161097D02*
X37859144Y-90161731D01*
X37838805Y-90162101D01*
X37694450Y-90164920D01*
X37644845Y-90225880D01*
X37592581Y-90294376D01*
X37536396Y-90375321D01*
X37480283Y-90462446D01*
X37428235Y-90549484D01*
X37384244Y-90630167D01*
X37373018Y-90652600D01*
X37295965Y-90832799D01*
X37237179Y-91018858D01*
X37196671Y-91209020D01*
X37174451Y-91401529D01*
X37170529Y-91594629D01*
X37184916Y-91786565D01*
X37217624Y-91975580D01*
X37268661Y-92159918D01*
X37338039Y-92337824D01*
X37362568Y-92389960D01*
X37405530Y-92471056D01*
X37458329Y-92560456D01*
X37516817Y-92651720D01*
X37576850Y-92738406D01*
X37634282Y-92814075D01*
X37640516Y-92821760D01*
X37694522Y-92887800D01*
X37845672Y-92890621D01*
X37996821Y-92893443D01*
X37949676Y-92851944D01*
X37909501Y-92812928D01*
X37862255Y-92761209D01*
X37811657Y-92701302D01*
X37761427Y-92637723D01*
X37715284Y-92574984D01*
X37686246Y-92532200D01*
X37590479Y-92366737D01*
X37513294Y-92195086D01*
X37454564Y-92018653D01*
X37414159Y-91838846D01*
X37391951Y-91657071D01*
X37387811Y-91474735D01*
X37401611Y-91293246D01*
X37433223Y-91114011D01*
X37482516Y-90938437D01*
X37549364Y-90767931D01*
X37633637Y-90603900D01*
X37735207Y-90447750D01*
X37853946Y-90300890D01*
X37894116Y-90257579D01*
X37927649Y-90222373D01*
X37955402Y-90192855D01*
X37974710Y-90171891D01*
X37982906Y-90162345D01*
X37983016Y-90162101D01*
X37973514Y-90161281D01*
X37947299Y-90160947D01*
X37907976Y-90161097D01*
G36*
X47165499Y-90238580D02*
G01*
X47269478Y-90351979D01*
X47362485Y-90475632D01*
X47446862Y-90612927D01*
X47512227Y-90740107D01*
X47586982Y-90919987D01*
X47641971Y-91103182D01*
X47677191Y-91288636D01*
X47692638Y-91475295D01*
X47688309Y-91662103D01*
X47664200Y-91848003D01*
X47620308Y-92031940D01*
X47556628Y-92212858D01*
X47517637Y-92301282D01*
X47435695Y-92458612D01*
X47345315Y-92599902D01*
X47244215Y-92728477D01*
X47169451Y-92809060D01*
X47086599Y-92892880D01*
X47380285Y-92892880D01*
X47435148Y-92824300D01*
X47553877Y-92665195D01*
X47653694Y-92507568D01*
X47735625Y-92348972D01*
X47800695Y-92186959D01*
X47849930Y-92019080D01*
X47884356Y-91842888D01*
X47900093Y-91714320D01*
X47908938Y-91515885D01*
X47897732Y-91318934D01*
X47866736Y-91124293D01*
X47816206Y-90932791D01*
X47746404Y-90745254D01*
X47657587Y-90562511D01*
X47550015Y-90385388D01*
X47434954Y-90228420D01*
X47380285Y-90159840D01*
X47086151Y-90159840D01*
X47165499Y-90238580D01*
G37*
X47165499Y-90238580D02*
X47269478Y-90351979D01*
X47362485Y-90475632D01*
X47446862Y-90612927D01*
X47512227Y-90740107D01*
X47586982Y-90919987D01*
X47641971Y-91103182D01*
X47677191Y-91288636D01*
X47692638Y-91475295D01*
X47688309Y-91662103D01*
X47664200Y-91848003D01*
X47620308Y-92031940D01*
X47556628Y-92212858D01*
X47517637Y-92301282D01*
X47435695Y-92458612D01*
X47345315Y-92599902D01*
X47244215Y-92728477D01*
X47169451Y-92809060D01*
X47086599Y-92892880D01*
X47380285Y-92892880D01*
X47435148Y-92824300D01*
X47553877Y-92665195D01*
X47653694Y-92507568D01*
X47735625Y-92348972D01*
X47800695Y-92186959D01*
X47849930Y-92019080D01*
X47884356Y-91842888D01*
X47900093Y-91714320D01*
X47908938Y-91515885D01*
X47897732Y-91318934D01*
X47866736Y-91124293D01*
X47816206Y-90932791D01*
X47746404Y-90745254D01*
X47657587Y-90562511D01*
X47550015Y-90385388D01*
X47434954Y-90228420D01*
X47380285Y-90159840D01*
X47086151Y-90159840D01*
X47165499Y-90238580D01*
D10*
X50512023Y-69873761D02*
X50369166Y-69921380D01*
X50131071Y-69921380D01*
X50035833Y-69873761D01*
X49988214Y-69826142D01*
X49940595Y-69730904D01*
X49940595Y-69635666D01*
X49988214Y-69540428D01*
X50035833Y-69492809D01*
X50131071Y-69445190D01*
X50321547Y-69397571D01*
X50416785Y-69349952D01*
X50464404Y-69302333D01*
X50512023Y-69207095D01*
X50512023Y-69111857D01*
X50464404Y-69016619D01*
X50416785Y-68969000D01*
X50321547Y-68921380D01*
X50083452Y-68921380D01*
X49940595Y-68969000D01*
X49131071Y-69873761D02*
X49226309Y-69921380D01*
X49416785Y-69921380D01*
X49512023Y-69873761D01*
X49559642Y-69778523D01*
X49559642Y-69397571D01*
X49512023Y-69302333D01*
X49416785Y-69254714D01*
X49226309Y-69254714D01*
X49131071Y-69302333D01*
X49083452Y-69397571D01*
X49083452Y-69492809D01*
X49559642Y-69588047D01*
X48512023Y-69921380D02*
X48607261Y-69873761D01*
X48654880Y-69778523D01*
X48654880Y-68921380D01*
X48273928Y-69254714D02*
X47892976Y-69254714D01*
X48131071Y-69921380D02*
X48131071Y-69064238D01*
X48083452Y-68969000D01*
X47988214Y-68921380D01*
X47892976Y-68921380D01*
X47559642Y-69540428D02*
X46797738Y-69540428D01*
X46321547Y-69254714D02*
X46321547Y-70254714D01*
X46321547Y-69302333D02*
X46226309Y-69254714D01*
X46035833Y-69254714D01*
X45940595Y-69302333D01*
X45892976Y-69349952D01*
X45845357Y-69445190D01*
X45845357Y-69730904D01*
X45892976Y-69826142D01*
X45940595Y-69873761D01*
X46035833Y-69921380D01*
X46226309Y-69921380D01*
X46321547Y-69873761D01*
X45273928Y-69921380D02*
X45369166Y-69873761D01*
X45416785Y-69826142D01*
X45464404Y-69730904D01*
X45464404Y-69445190D01*
X45416785Y-69349952D01*
X45369166Y-69302333D01*
X45273928Y-69254714D01*
X45131071Y-69254714D01*
X45035833Y-69302333D01*
X44988214Y-69349952D01*
X44940595Y-69445190D01*
X44940595Y-69730904D01*
X44988214Y-69826142D01*
X45035833Y-69873761D01*
X45131071Y-69921380D01*
X45273928Y-69921380D01*
X44607261Y-69254714D02*
X44416785Y-69921380D01*
X44226309Y-69445190D01*
X44035833Y-69921380D01*
X43845357Y-69254714D01*
X43083452Y-69873761D02*
X43178690Y-69921380D01*
X43369166Y-69921380D01*
X43464404Y-69873761D01*
X43512023Y-69778523D01*
X43512023Y-69397571D01*
X43464404Y-69302333D01*
X43369166Y-69254714D01*
X43178690Y-69254714D01*
X43083452Y-69302333D01*
X43035833Y-69397571D01*
X43035833Y-69492809D01*
X43512023Y-69588047D01*
X42607261Y-69921380D02*
X42607261Y-69254714D01*
X42607261Y-69445190D02*
X42559642Y-69349952D01*
X42512023Y-69302333D01*
X42416785Y-69254714D01*
X42321547Y-69254714D01*
X41607261Y-69873761D02*
X41702500Y-69921380D01*
X41892976Y-69921380D01*
X41988214Y-69873761D01*
X42035833Y-69778523D01*
X42035833Y-69397571D01*
X41988214Y-69302333D01*
X41892976Y-69254714D01*
X41702500Y-69254714D01*
X41607261Y-69302333D01*
X41559642Y-69397571D01*
X41559642Y-69492809D01*
X42035833Y-69588047D01*
X40702500Y-69921380D02*
X40702500Y-68921380D01*
X40702500Y-69873761D02*
X40797738Y-69921380D01*
X40988214Y-69921380D01*
X41083452Y-69873761D01*
X41131071Y-69826142D01*
X41178690Y-69730904D01*
X41178690Y-69445190D01*
X41131071Y-69349952D01*
X41083452Y-69302333D01*
X40988214Y-69254714D01*
X40797738Y-69254714D01*
X40702500Y-69302333D01*
X39035833Y-69921380D02*
X39035833Y-68921380D01*
X39035833Y-69873761D02*
X39131071Y-69921380D01*
X39321547Y-69921380D01*
X39416785Y-69873761D01*
X39464404Y-69826142D01*
X39512023Y-69730904D01*
X39512023Y-69445190D01*
X39464404Y-69349952D01*
X39416785Y-69302333D01*
X39321547Y-69254714D01*
X39131071Y-69254714D01*
X39035833Y-69302333D01*
X38178690Y-69873761D02*
X38273928Y-69921380D01*
X38464404Y-69921380D01*
X38559642Y-69873761D01*
X38607261Y-69778523D01*
X38607261Y-69397571D01*
X38559642Y-69302333D01*
X38464404Y-69254714D01*
X38273928Y-69254714D01*
X38178690Y-69302333D01*
X38131071Y-69397571D01*
X38131071Y-69492809D01*
X38607261Y-69588047D01*
X37797738Y-69254714D02*
X37559642Y-69921380D01*
X37321547Y-69254714D01*
X36940595Y-69921380D02*
X36940595Y-69254714D01*
X36940595Y-68921380D02*
X36988214Y-68969000D01*
X36940595Y-69016619D01*
X36892976Y-68969000D01*
X36940595Y-68921380D01*
X36940595Y-69016619D01*
X36035833Y-69873761D02*
X36131071Y-69921380D01*
X36321547Y-69921380D01*
X36416785Y-69873761D01*
X36464404Y-69826142D01*
X36512023Y-69730904D01*
X36512023Y-69445190D01*
X36464404Y-69349952D01*
X36416785Y-69302333D01*
X36321547Y-69254714D01*
X36131071Y-69254714D01*
X36035833Y-69302333D01*
X35226309Y-69873761D02*
X35321547Y-69921380D01*
X35512023Y-69921380D01*
X35607261Y-69873761D01*
X35654880Y-69778523D01*
X35654880Y-69397571D01*
X35607261Y-69302333D01*
X35512023Y-69254714D01*
X35321547Y-69254714D01*
X35226309Y-69302333D01*
X35178690Y-69397571D01*
X35178690Y-69492809D01*
X35654880Y-69588047D01*
X33702500Y-70302333D02*
X33750119Y-70254714D01*
X33845357Y-70111857D01*
X33892976Y-70016619D01*
X33940595Y-69873761D01*
X33988214Y-69635666D01*
X33988214Y-69445190D01*
X33940595Y-69207095D01*
X33892976Y-69064238D01*
X33845357Y-68969000D01*
X33750119Y-68826142D01*
X33702500Y-68778523D01*
X33321547Y-69921380D02*
X33321547Y-68921380D01*
X32988214Y-69635666D01*
X32654880Y-68921380D01*
X32654880Y-69921380D01*
X32178690Y-69921380D02*
X32178690Y-69254714D01*
X32178690Y-68921380D02*
X32226309Y-68969000D01*
X32178690Y-69016619D01*
X32131071Y-68969000D01*
X32178690Y-68921380D01*
X32178690Y-69016619D01*
X31273928Y-69873761D02*
X31369166Y-69921380D01*
X31559642Y-69921380D01*
X31654880Y-69873761D01*
X31702500Y-69826142D01*
X31750119Y-69730904D01*
X31750119Y-69445190D01*
X31702500Y-69349952D01*
X31654880Y-69302333D01*
X31559642Y-69254714D01*
X31369166Y-69254714D01*
X31273928Y-69302333D01*
X30845357Y-69921380D02*
X30845357Y-69254714D01*
X30845357Y-69445190D02*
X30797738Y-69349952D01*
X30750119Y-69302333D01*
X30654880Y-69254714D01*
X30559642Y-69254714D01*
X30083452Y-69921380D02*
X30178690Y-69873761D01*
X30226309Y-69826142D01*
X30273928Y-69730904D01*
X30273928Y-69445190D01*
X30226309Y-69349952D01*
X30178690Y-69302333D01*
X30083452Y-69254714D01*
X29940595Y-69254714D01*
X29845357Y-69302333D01*
X29797738Y-69349952D01*
X29750119Y-69445190D01*
X29750119Y-69730904D01*
X29797738Y-69826142D01*
X29845357Y-69873761D01*
X29940595Y-69921380D01*
X30083452Y-69921380D01*
X28988214Y-69397571D02*
X28845357Y-69445190D01*
X28797738Y-69492809D01*
X28750119Y-69588047D01*
X28750119Y-69730904D01*
X28797738Y-69826142D01*
X28845357Y-69873761D01*
X28940595Y-69921380D01*
X29321547Y-69921380D01*
X29321547Y-68921380D01*
X28988214Y-68921380D01*
X28892976Y-68969000D01*
X28845357Y-69016619D01*
X28797738Y-69111857D01*
X28797738Y-69207095D01*
X28845357Y-69302333D01*
X28892976Y-69349952D01*
X28988214Y-69397571D01*
X29321547Y-69397571D01*
X28416785Y-70302333D02*
X28369166Y-70254714D01*
X28273928Y-70111857D01*
X28226309Y-70016619D01*
X28178690Y-69873761D01*
X28131071Y-69635666D01*
X28131071Y-69445190D01*
X28178690Y-69207095D01*
X28226309Y-69064238D01*
X28273928Y-68969000D01*
X28369166Y-68826142D01*
X28416785Y-68778523D01*
X50464404Y-65349380D02*
X50464404Y-64349380D01*
X50464404Y-64825571D02*
X49892976Y-64825571D01*
X49892976Y-65349380D02*
X49892976Y-64349380D01*
X49273928Y-65349380D02*
X49369166Y-65301761D01*
X49416785Y-65254142D01*
X49464404Y-65158904D01*
X49464404Y-64873190D01*
X49416785Y-64777952D01*
X49369166Y-64730333D01*
X49273928Y-64682714D01*
X49131071Y-64682714D01*
X49035833Y-64730333D01*
X48988214Y-64777952D01*
X48940595Y-64873190D01*
X48940595Y-65158904D01*
X48988214Y-65254142D01*
X49035833Y-65301761D01*
X49131071Y-65349380D01*
X49273928Y-65349380D01*
X48559642Y-65301761D02*
X48464404Y-65349380D01*
X48273928Y-65349380D01*
X48178690Y-65301761D01*
X48131071Y-65206523D01*
X48131071Y-65158904D01*
X48178690Y-65063666D01*
X48273928Y-65016047D01*
X48416785Y-65016047D01*
X48512023Y-64968428D01*
X48559642Y-64873190D01*
X48559642Y-64825571D01*
X48512023Y-64730333D01*
X48416785Y-64682714D01*
X48273928Y-64682714D01*
X48178690Y-64730333D01*
X47845357Y-64682714D02*
X47464404Y-64682714D01*
X47702500Y-64349380D02*
X47702500Y-65206523D01*
X47654880Y-65301761D01*
X47559642Y-65349380D01*
X47464404Y-65349380D01*
X46416785Y-64301761D02*
X47273928Y-65587476D01*
X45654880Y-65349380D02*
X45654880Y-64349380D01*
X45654880Y-65301761D02*
X45750119Y-65349380D01*
X45940595Y-65349380D01*
X46035833Y-65301761D01*
X46083452Y-65254142D01*
X46131071Y-65158904D01*
X46131071Y-64873190D01*
X46083452Y-64777952D01*
X46035833Y-64730333D01*
X45940595Y-64682714D01*
X45750119Y-64682714D01*
X45654880Y-64730333D01*
X44797738Y-65301761D02*
X44892976Y-65349380D01*
X45083452Y-65349380D01*
X45178690Y-65301761D01*
X45226309Y-65206523D01*
X45226309Y-64825571D01*
X45178690Y-64730333D01*
X45083452Y-64682714D01*
X44892976Y-64682714D01*
X44797738Y-64730333D01*
X44750119Y-64825571D01*
X44750119Y-64920809D01*
X45226309Y-65016047D01*
X44416785Y-64682714D02*
X44178690Y-65349380D01*
X43940595Y-64682714D01*
X43559642Y-65349380D02*
X43559642Y-64682714D01*
X43559642Y-64349380D02*
X43607261Y-64397000D01*
X43559642Y-64444619D01*
X43512023Y-64397000D01*
X43559642Y-64349380D01*
X43559642Y-64444619D01*
X42654880Y-65301761D02*
X42750119Y-65349380D01*
X42940595Y-65349380D01*
X43035833Y-65301761D01*
X43083452Y-65254142D01*
X43131071Y-65158904D01*
X43131071Y-64873190D01*
X43083452Y-64777952D01*
X43035833Y-64730333D01*
X42940595Y-64682714D01*
X42750119Y-64682714D01*
X42654880Y-64730333D01*
X41845357Y-65301761D02*
X41940595Y-65349380D01*
X42131071Y-65349380D01*
X42226309Y-65301761D01*
X42273928Y-65206523D01*
X42273928Y-64825571D01*
X42226309Y-64730333D01*
X42131071Y-64682714D01*
X41940595Y-64682714D01*
X41845357Y-64730333D01*
X41797738Y-64825571D01*
X41797738Y-64920809D01*
X42273928Y-65016047D01*
X40321547Y-65730333D02*
X40369166Y-65682714D01*
X40464404Y-65539857D01*
X40512023Y-65444619D01*
X40559642Y-65301761D01*
X40607261Y-65063666D01*
X40607261Y-64873190D01*
X40559642Y-64635095D01*
X40512023Y-64492238D01*
X40464404Y-64397000D01*
X40369166Y-64254142D01*
X40321547Y-64206523D01*
X39940595Y-65349380D02*
X39940595Y-64349380D01*
X39607261Y-65063666D01*
X39273928Y-64349380D01*
X39273928Y-65349380D01*
X38797738Y-65349380D02*
X38797738Y-64682714D01*
X38797738Y-64349380D02*
X38845357Y-64397000D01*
X38797738Y-64444619D01*
X38750119Y-64397000D01*
X38797738Y-64349380D01*
X38797738Y-64444619D01*
X37892976Y-65301761D02*
X37988214Y-65349380D01*
X38178690Y-65349380D01*
X38273928Y-65301761D01*
X38321547Y-65254142D01*
X38369166Y-65158904D01*
X38369166Y-64873190D01*
X38321547Y-64777952D01*
X38273928Y-64730333D01*
X38178690Y-64682714D01*
X37988214Y-64682714D01*
X37892976Y-64730333D01*
X37464404Y-65349380D02*
X37464404Y-64682714D01*
X37464404Y-64873190D02*
X37416785Y-64777952D01*
X37369166Y-64730333D01*
X37273928Y-64682714D01*
X37178690Y-64682714D01*
X36702500Y-65349380D02*
X36797738Y-65301761D01*
X36845357Y-65254142D01*
X36892976Y-65158904D01*
X36892976Y-64873190D01*
X36845357Y-64777952D01*
X36797738Y-64730333D01*
X36702500Y-64682714D01*
X36559642Y-64682714D01*
X36464404Y-64730333D01*
X36416785Y-64777952D01*
X36369166Y-64873190D01*
X36369166Y-65158904D01*
X36416785Y-65254142D01*
X36464404Y-65301761D01*
X36559642Y-65349380D01*
X36702500Y-65349380D01*
X35607261Y-64825571D02*
X35464404Y-64873190D01*
X35416785Y-64920809D01*
X35369166Y-65016047D01*
X35369166Y-65158904D01*
X35416785Y-65254142D01*
X35464404Y-65301761D01*
X35559642Y-65349380D01*
X35940595Y-65349380D01*
X35940595Y-64349380D01*
X35607261Y-64349380D01*
X35512023Y-64397000D01*
X35464404Y-64444619D01*
X35416785Y-64539857D01*
X35416785Y-64635095D01*
X35464404Y-64730333D01*
X35512023Y-64777952D01*
X35607261Y-64825571D01*
X35940595Y-64825571D01*
X33750119Y-65349380D02*
X33750119Y-64825571D01*
X33797738Y-64730333D01*
X33892976Y-64682714D01*
X34083452Y-64682714D01*
X34178690Y-64730333D01*
X33750119Y-65301761D02*
X33845357Y-65349380D01*
X34083452Y-65349380D01*
X34178690Y-65301761D01*
X34226309Y-65206523D01*
X34226309Y-65111285D01*
X34178690Y-65016047D01*
X34083452Y-64968428D01*
X33845357Y-64968428D01*
X33750119Y-64920809D01*
X33273928Y-64682714D02*
X33273928Y-65349380D01*
X33273928Y-64777952D02*
X33226309Y-64730333D01*
X33131071Y-64682714D01*
X32988214Y-64682714D01*
X32892976Y-64730333D01*
X32845357Y-64825571D01*
X32845357Y-65349380D01*
X31940595Y-65349380D02*
X31940595Y-64349380D01*
X31940595Y-65301761D02*
X32035833Y-65349380D01*
X32226309Y-65349380D01*
X32321547Y-65301761D01*
X32369166Y-65254142D01*
X32416785Y-65158904D01*
X32416785Y-64873190D01*
X32369166Y-64777952D01*
X32321547Y-64730333D01*
X32226309Y-64682714D01*
X32035833Y-64682714D01*
X31940595Y-64730333D01*
X30750119Y-65063666D02*
X30273928Y-65063666D01*
X30845357Y-65349380D02*
X30512023Y-64349380D01*
X30178690Y-65349380D01*
X29940595Y-65730333D02*
X29892976Y-65682714D01*
X29797738Y-65539857D01*
X29750119Y-65444619D01*
X29702500Y-65301761D01*
X29654880Y-65063666D01*
X29654880Y-64873190D01*
X29702500Y-64635095D01*
X29750119Y-64492238D01*
X29797738Y-64397000D01*
X29892976Y-64254142D01*
X29940595Y-64206523D01*
X50131071Y-67111571D02*
X49988214Y-67159190D01*
X49940595Y-67206809D01*
X49892976Y-67302047D01*
X49892976Y-67444904D01*
X49940595Y-67540142D01*
X49988214Y-67587761D01*
X50083452Y-67635380D01*
X50464404Y-67635380D01*
X50464404Y-66635380D01*
X50131071Y-66635380D01*
X50035833Y-66683000D01*
X49988214Y-66730619D01*
X49940595Y-66825857D01*
X49940595Y-66921095D01*
X49988214Y-67016333D01*
X50035833Y-67063952D01*
X50131071Y-67111571D01*
X50464404Y-67111571D01*
X49035833Y-66968714D02*
X49035833Y-67635380D01*
X49464404Y-66968714D02*
X49464404Y-67492523D01*
X49416785Y-67587761D01*
X49321547Y-67635380D01*
X49178690Y-67635380D01*
X49083452Y-67587761D01*
X49035833Y-67540142D01*
X48607261Y-67587761D02*
X48512023Y-67635380D01*
X48321547Y-67635380D01*
X48226309Y-67587761D01*
X48178690Y-67492523D01*
X48178690Y-67444904D01*
X48226309Y-67349666D01*
X48321547Y-67302047D01*
X48464404Y-67302047D01*
X48559642Y-67254428D01*
X48607261Y-67159190D01*
X48607261Y-67111571D01*
X48559642Y-67016333D01*
X48464404Y-66968714D01*
X48321547Y-66968714D01*
X48226309Y-67016333D01*
X47750119Y-67254428D02*
X46988214Y-67254428D01*
X46512023Y-66968714D02*
X46512023Y-67968714D01*
X46512023Y-67016333D02*
X46416785Y-66968714D01*
X46226309Y-66968714D01*
X46131071Y-67016333D01*
X46083452Y-67063952D01*
X46035833Y-67159190D01*
X46035833Y-67444904D01*
X46083452Y-67540142D01*
X46131071Y-67587761D01*
X46226309Y-67635380D01*
X46416785Y-67635380D01*
X46512023Y-67587761D01*
X45464404Y-67635380D02*
X45559642Y-67587761D01*
X45607261Y-67540142D01*
X45654880Y-67444904D01*
X45654880Y-67159190D01*
X45607261Y-67063952D01*
X45559642Y-67016333D01*
X45464404Y-66968714D01*
X45321547Y-66968714D01*
X45226309Y-67016333D01*
X45178690Y-67063952D01*
X45131071Y-67159190D01*
X45131071Y-67444904D01*
X45178690Y-67540142D01*
X45226309Y-67587761D01*
X45321547Y-67635380D01*
X45464404Y-67635380D01*
X44797738Y-66968714D02*
X44607261Y-67635380D01*
X44416785Y-67159190D01*
X44226309Y-67635380D01*
X44035833Y-66968714D01*
X43273928Y-67587761D02*
X43369166Y-67635380D01*
X43559642Y-67635380D01*
X43654880Y-67587761D01*
X43702500Y-67492523D01*
X43702500Y-67111571D01*
X43654880Y-67016333D01*
X43559642Y-66968714D01*
X43369166Y-66968714D01*
X43273928Y-67016333D01*
X43226309Y-67111571D01*
X43226309Y-67206809D01*
X43702500Y-67302047D01*
X42797738Y-67635380D02*
X42797738Y-66968714D01*
X42797738Y-67159190D02*
X42750119Y-67063952D01*
X42702500Y-67016333D01*
X42607261Y-66968714D01*
X42512023Y-66968714D01*
X41797738Y-67587761D02*
X41892976Y-67635380D01*
X42083452Y-67635380D01*
X42178690Y-67587761D01*
X42226309Y-67492523D01*
X42226309Y-67111571D01*
X42178690Y-67016333D01*
X42083452Y-66968714D01*
X41892976Y-66968714D01*
X41797738Y-67016333D01*
X41750119Y-67111571D01*
X41750119Y-67206809D01*
X42226309Y-67302047D01*
X40892976Y-67635380D02*
X40892976Y-66635380D01*
X40892976Y-67587761D02*
X40988214Y-67635380D01*
X41178690Y-67635380D01*
X41273928Y-67587761D01*
X41321547Y-67540142D01*
X41369166Y-67444904D01*
X41369166Y-67159190D01*
X41321547Y-67063952D01*
X41273928Y-67016333D01*
X41178690Y-66968714D01*
X40988214Y-66968714D01*
X40892976Y-67016333D01*
X39226309Y-67635380D02*
X39226309Y-66635380D01*
X39226309Y-67587761D02*
X39321547Y-67635380D01*
X39512023Y-67635380D01*
X39607261Y-67587761D01*
X39654880Y-67540142D01*
X39702500Y-67444904D01*
X39702500Y-67159190D01*
X39654880Y-67063952D01*
X39607261Y-67016333D01*
X39512023Y-66968714D01*
X39321547Y-66968714D01*
X39226309Y-67016333D01*
X38369166Y-67587761D02*
X38464404Y-67635380D01*
X38654880Y-67635380D01*
X38750119Y-67587761D01*
X38797738Y-67492523D01*
X38797738Y-67111571D01*
X38750119Y-67016333D01*
X38654880Y-66968714D01*
X38464404Y-66968714D01*
X38369166Y-67016333D01*
X38321547Y-67111571D01*
X38321547Y-67206809D01*
X38797738Y-67302047D01*
X37988214Y-66968714D02*
X37750119Y-67635380D01*
X37512023Y-66968714D01*
X37131071Y-67635380D02*
X37131071Y-66968714D01*
X37131071Y-66635380D02*
X37178690Y-66683000D01*
X37131071Y-66730619D01*
X37083452Y-66683000D01*
X37131071Y-66635380D01*
X37131071Y-66730619D01*
X36226309Y-67587761D02*
X36321547Y-67635380D01*
X36512023Y-67635380D01*
X36607261Y-67587761D01*
X36654880Y-67540142D01*
X36702500Y-67444904D01*
X36702500Y-67159190D01*
X36654880Y-67063952D01*
X36607261Y-67016333D01*
X36512023Y-66968714D01*
X36321547Y-66968714D01*
X36226309Y-67016333D01*
X35416785Y-67587761D02*
X35512023Y-67635380D01*
X35702500Y-67635380D01*
X35797738Y-67587761D01*
X35845357Y-67492523D01*
X35845357Y-67111571D01*
X35797738Y-67016333D01*
X35702500Y-66968714D01*
X35512023Y-66968714D01*
X35416785Y-67016333D01*
X35369166Y-67111571D01*
X35369166Y-67206809D01*
X35845357Y-67302047D01*
X33892976Y-68016333D02*
X33940595Y-67968714D01*
X34035833Y-67825857D01*
X34083452Y-67730619D01*
X34131071Y-67587761D01*
X34178690Y-67349666D01*
X34178690Y-67159190D01*
X34131071Y-66921095D01*
X34083452Y-66778238D01*
X34035833Y-66683000D01*
X33940595Y-66540142D01*
X33892976Y-66492523D01*
X33512023Y-67635380D02*
X33512023Y-66635380D01*
X33178690Y-67349666D01*
X32845357Y-66635380D01*
X32845357Y-67635380D01*
X32369166Y-67635380D02*
X32369166Y-66968714D01*
X32369166Y-66635380D02*
X32416785Y-66683000D01*
X32369166Y-66730619D01*
X32321547Y-66683000D01*
X32369166Y-66635380D01*
X32369166Y-66730619D01*
X31464404Y-67587761D02*
X31559642Y-67635380D01*
X31750119Y-67635380D01*
X31845357Y-67587761D01*
X31892976Y-67540142D01*
X31940595Y-67444904D01*
X31940595Y-67159190D01*
X31892976Y-67063952D01*
X31845357Y-67016333D01*
X31750119Y-66968714D01*
X31559642Y-66968714D01*
X31464404Y-67016333D01*
X31035833Y-67635380D02*
X31035833Y-66968714D01*
X31035833Y-67159190D02*
X30988214Y-67063952D01*
X30940595Y-67016333D01*
X30845357Y-66968714D01*
X30750119Y-66968714D01*
X30273928Y-67635380D02*
X30369166Y-67587761D01*
X30416785Y-67540142D01*
X30464404Y-67444904D01*
X30464404Y-67159190D01*
X30416785Y-67063952D01*
X30369166Y-67016333D01*
X30273928Y-66968714D01*
X30131071Y-66968714D01*
X30035833Y-67016333D01*
X29988214Y-67063952D01*
X29940595Y-67159190D01*
X29940595Y-67444904D01*
X29988214Y-67540142D01*
X30035833Y-67587761D01*
X30131071Y-67635380D01*
X30273928Y-67635380D01*
X29178690Y-67111571D02*
X29035833Y-67159190D01*
X28988214Y-67206809D01*
X28940595Y-67302047D01*
X28940595Y-67444904D01*
X28988214Y-67540142D01*
X29035833Y-67587761D01*
X29131071Y-67635380D01*
X29512023Y-67635380D01*
X29512023Y-66635380D01*
X29178690Y-66635380D01*
X29083452Y-66683000D01*
X29035833Y-66730619D01*
X28988214Y-66825857D01*
X28988214Y-66921095D01*
X29035833Y-67016333D01*
X29083452Y-67063952D01*
X29178690Y-67111571D01*
X29512023Y-67111571D01*
X28607261Y-68016333D02*
X28559642Y-67968714D01*
X28464404Y-67825857D01*
X28416785Y-67730619D01*
X28369166Y-67587761D01*
X28321547Y-67349666D01*
X28321547Y-67159190D01*
X28369166Y-66921095D01*
X28416785Y-66778238D01*
X28464404Y-66683000D01*
X28559642Y-66540142D01*
X28607261Y-66492523D01*
X50464404Y-63063380D02*
X50464404Y-62063380D01*
X50083452Y-62063380D01*
X49988214Y-62111000D01*
X49940595Y-62158619D01*
X49892976Y-62253857D01*
X49892976Y-62396714D01*
X49940595Y-62491952D01*
X49988214Y-62539571D01*
X50083452Y-62587190D01*
X50464404Y-62587190D01*
X49559642Y-62063380D02*
X49321547Y-63063380D01*
X49131071Y-62349095D01*
X48940595Y-63063380D01*
X48702500Y-62063380D01*
X47750119Y-63063380D02*
X48083452Y-62587190D01*
X48321547Y-63063380D02*
X48321547Y-62063380D01*
X47940595Y-62063380D01*
X47845357Y-62111000D01*
X47797738Y-62158619D01*
X47750119Y-62253857D01*
X47750119Y-62396714D01*
X47797738Y-62491952D01*
X47845357Y-62539571D01*
X47940595Y-62587190D01*
X48321547Y-62587190D01*
X47559642Y-63158619D02*
X46797738Y-63158619D01*
X46559642Y-63063380D02*
X46559642Y-62063380D01*
X46226309Y-62777666D01*
X45892976Y-62063380D01*
X45892976Y-63063380D01*
X45226309Y-62063380D02*
X45035833Y-62063380D01*
X44940595Y-62111000D01*
X44845357Y-62206238D01*
X44797738Y-62396714D01*
X44797738Y-62730047D01*
X44845357Y-62920523D01*
X44940595Y-63015761D01*
X45035833Y-63063380D01*
X45226309Y-63063380D01*
X45321547Y-63015761D01*
X45416785Y-62920523D01*
X45464404Y-62730047D01*
X45464404Y-62396714D01*
X45416785Y-62206238D01*
X45321547Y-62111000D01*
X45226309Y-62063380D01*
X44369166Y-63063380D02*
X44369166Y-62063380D01*
X44131071Y-62063380D01*
X43988214Y-62111000D01*
X43892976Y-62206238D01*
X43845357Y-62301476D01*
X43797738Y-62491952D01*
X43797738Y-62634809D01*
X43845357Y-62825285D01*
X43892976Y-62920523D01*
X43988214Y-63015761D01*
X44131071Y-63063380D01*
X44369166Y-63063380D01*
X43369166Y-62539571D02*
X43035833Y-62539571D01*
X42892976Y-63063380D02*
X43369166Y-63063380D01*
X43369166Y-62063380D01*
X42892976Y-62063380D01*
X41416785Y-62063380D02*
X41416785Y-62777666D01*
X41464404Y-62920523D01*
X41559642Y-63015761D01*
X41702500Y-63063380D01*
X41797738Y-63063380D01*
X40512023Y-62063380D02*
X40702500Y-62063380D01*
X40797738Y-62111000D01*
X40845357Y-62158619D01*
X40940595Y-62301476D01*
X40988214Y-62491952D01*
X40988214Y-62872904D01*
X40940595Y-62968142D01*
X40892976Y-63015761D01*
X40797738Y-63063380D01*
X40607261Y-63063380D01*
X40512023Y-63015761D01*
X40464404Y-62968142D01*
X40416785Y-62872904D01*
X40416785Y-62634809D01*
X40464404Y-62539571D01*
X40512023Y-62491952D01*
X40607261Y-62444333D01*
X40797738Y-62444333D01*
X40892976Y-62491952D01*
X40940595Y-62539571D01*
X40988214Y-62634809D01*
X39226309Y-62063380D02*
X39226309Y-62872904D01*
X39178690Y-62968142D01*
X39131071Y-63015761D01*
X39035833Y-63063380D01*
X38845357Y-63063380D01*
X38750119Y-63015761D01*
X38702500Y-62968142D01*
X38654880Y-62872904D01*
X38654880Y-62063380D01*
X38226309Y-63015761D02*
X38131071Y-63063380D01*
X37940595Y-63063380D01*
X37845357Y-63015761D01*
X37797738Y-62920523D01*
X37797738Y-62872904D01*
X37845357Y-62777666D01*
X37940595Y-62730047D01*
X38083452Y-62730047D01*
X38178690Y-62682428D01*
X38226309Y-62587190D01*
X38226309Y-62539571D01*
X38178690Y-62444333D01*
X38083452Y-62396714D01*
X37940595Y-62396714D01*
X37845357Y-62444333D01*
X36940595Y-63063380D02*
X36940595Y-62539571D01*
X36988214Y-62444333D01*
X37083452Y-62396714D01*
X37273928Y-62396714D01*
X37369166Y-62444333D01*
X36940595Y-63015761D02*
X37035833Y-63063380D01*
X37273928Y-63063380D01*
X37369166Y-63015761D01*
X37416785Y-62920523D01*
X37416785Y-62825285D01*
X37369166Y-62730047D01*
X37273928Y-62682428D01*
X37035833Y-62682428D01*
X36940595Y-62634809D01*
X36035833Y-62396714D02*
X36035833Y-63206238D01*
X36083452Y-63301476D01*
X36131071Y-63349095D01*
X36226309Y-63396714D01*
X36369166Y-63396714D01*
X36464404Y-63349095D01*
X36035833Y-63015761D02*
X36131071Y-63063380D01*
X36321547Y-63063380D01*
X36416785Y-63015761D01*
X36464404Y-62968142D01*
X36512023Y-62872904D01*
X36512023Y-62587190D01*
X36464404Y-62491952D01*
X36416785Y-62444333D01*
X36321547Y-62396714D01*
X36131071Y-62396714D01*
X36035833Y-62444333D01*
X35178690Y-63015761D02*
X35273928Y-63063380D01*
X35464404Y-63063380D01*
X35559642Y-63015761D01*
X35607261Y-62920523D01*
X35607261Y-62539571D01*
X35559642Y-62444333D01*
X35464404Y-62396714D01*
X35273928Y-62396714D01*
X35178690Y-62444333D01*
X35131071Y-62539571D01*
X35131071Y-62634809D01*
X35607261Y-62730047D01*
X53038333Y-62063380D02*
X52419285Y-62063380D01*
X52752619Y-62444333D01*
X52609761Y-62444333D01*
X52514523Y-62491952D01*
X52466904Y-62539571D01*
X52419285Y-62634809D01*
X52419285Y-62872904D01*
X52466904Y-62968142D01*
X52514523Y-63015761D01*
X52609761Y-63063380D01*
X52895476Y-63063380D01*
X52990714Y-63015761D01*
X53038333Y-62968142D01*
X54514714Y-62158619D02*
X54467095Y-62111000D01*
X54371857Y-62063380D01*
X54133761Y-62063380D01*
X54038523Y-62111000D01*
X53990904Y-62158619D01*
X53943285Y-62253857D01*
X53943285Y-62349095D01*
X53990904Y-62491952D01*
X54562333Y-63063380D01*
X53943285Y-63063380D01*
X55467285Y-63063380D02*
X56038714Y-63063380D01*
X55753000Y-63063380D02*
X55753000Y-62063380D01*
X55848238Y-62206238D01*
X55943476Y-62301476D01*
X56038714Y-62349095D01*
M02*
