G04 #@! TF.GenerationSoftware,KiCad,Pcbnew,5.1.5*
G04 #@! TF.CreationDate,2020-02-24T15:17:29+03:00*
G04 #@! TF.ProjectId,max3421eboard,6d617833-3432-4316-9562-6f6172642e6b,rev?*
G04 #@! TF.SameCoordinates,Original*
G04 #@! TF.FileFunction,Legend,Bot*
G04 #@! TF.FilePolarity,Positive*
%FSLAX46Y46*%
G04 Gerber Fmt 4.6, Leading zero omitted, Abs format (unit mm)*
G04 Created by KiCad (PCBNEW 5.1.5) date 2020-02-24 15:17:29*
%MOMM*%
%LPD*%
G04 APERTURE LIST*
%ADD10C,0.150000*%
%ADD11C,0.100000*%
%ADD12C,0.010000*%
G04 APERTURE END LIST*
D10*
X56515000Y-62865000D02*
X27940000Y-62865000D01*
X51181000Y-69342000D02*
X51181000Y-61087000D01*
X27940000Y-67437000D02*
X56515000Y-67437000D01*
X56515000Y-65151000D02*
X27940000Y-65151000D01*
D11*
G36*
X52197000Y-66675000D02*
G01*
X54737000Y-66675000D01*
X54737000Y-65913000D01*
X52197000Y-65913000D01*
X52197000Y-66675000D01*
G37*
X52197000Y-66675000D02*
X54737000Y-66675000D01*
X54737000Y-65913000D01*
X52197000Y-65913000D01*
X52197000Y-66675000D01*
G36*
X53721000Y-64389000D02*
G01*
X56261000Y-64389000D01*
X56261000Y-63627000D01*
X53721000Y-63627000D01*
X53721000Y-64389000D01*
G37*
X53721000Y-64389000D02*
X56261000Y-64389000D01*
X56261000Y-63627000D01*
X53721000Y-63627000D01*
X53721000Y-64389000D01*
D10*
X54457953Y-68580000D02*
G75*
G03X54457953Y-68580000I-228953J0D01*
G01*
X53467000Y-67818000D02*
X53467000Y-69342000D01*
X56515000Y-69342000D02*
X56515000Y-67818000D01*
X54991000Y-67818000D02*
X54991000Y-69342000D01*
X55981953Y-68580000D02*
G75*
G03X55981953Y-68580000I-228953J0D01*
G01*
X51943000Y-69342000D02*
X56515000Y-69342000D01*
X52933953Y-68580000D02*
G75*
G03X52933953Y-68580000I-228953J0D01*
G01*
X56515000Y-67818000D02*
X54991000Y-67818000D01*
X51943000Y-67818000D02*
X51943000Y-69342000D01*
X56515000Y-67818000D02*
X51943000Y-67818000D01*
X54457953Y-66294000D02*
G75*
G03X54457953Y-66294000I-228953J0D01*
G01*
X53467000Y-65532000D02*
X53467000Y-67056000D01*
X56515000Y-67056000D02*
X56515000Y-65532000D01*
X54991000Y-65532000D02*
X54991000Y-67056000D01*
X55981953Y-66294000D02*
G75*
G03X55981953Y-66294000I-228953J0D01*
G01*
X51943000Y-67056000D02*
X56515000Y-67056000D01*
X52933953Y-66294000D02*
G75*
G03X52933953Y-66294000I-228953J0D01*
G01*
X56515000Y-65532000D02*
X54991000Y-65532000D01*
X51943000Y-65532000D02*
X51943000Y-67056000D01*
X56515000Y-65532000D02*
X51943000Y-65532000D01*
X52933953Y-64008000D02*
G75*
G03X52933953Y-64008000I-228953J0D01*
G01*
X54457953Y-64008000D02*
G75*
G03X54457953Y-64008000I-228953J0D01*
G01*
X55981953Y-64008000D02*
G75*
G03X55981953Y-64008000I-228953J0D01*
G01*
X53467000Y-63246000D02*
X53467000Y-64770000D01*
X54991000Y-63246000D02*
X54991000Y-64770000D01*
X56515000Y-63246000D02*
X54991000Y-63246000D01*
X56515000Y-64770000D02*
X56515000Y-63246000D01*
X51943000Y-64770000D02*
X56515000Y-64770000D01*
X51943000Y-63246000D02*
X51943000Y-64770000D01*
X56515000Y-63246000D02*
X51943000Y-63246000D01*
D12*
G36*
X38760400Y-89997458D02*
G01*
X38636759Y-90251369D01*
X38513117Y-90505280D01*
X38693720Y-90505280D01*
X38736804Y-90446860D01*
X38755396Y-90421703D01*
X38783723Y-90383443D01*
X38819404Y-90335290D01*
X38860060Y-90280455D01*
X38903312Y-90222149D01*
X38925048Y-90192860D01*
X39070208Y-89997280D01*
X38760400Y-89997458D01*
G37*
X38760400Y-89997458D02*
X38636759Y-90251369D01*
X38513117Y-90505280D01*
X38693720Y-90505280D01*
X38736804Y-90446860D01*
X38755396Y-90421703D01*
X38783723Y-90383443D01*
X38819404Y-90335290D01*
X38860060Y-90280455D01*
X38903312Y-90222149D01*
X38925048Y-90192860D01*
X39070208Y-89997280D01*
X38760400Y-89997458D01*
G36*
X45325497Y-90051441D02*
G01*
X45342692Y-90075148D01*
X45369703Y-90112105D01*
X45404262Y-90159221D01*
X45444103Y-90213410D01*
X45486959Y-90271581D01*
X45511720Y-90305139D01*
X45659040Y-90504677D01*
X45747940Y-90504978D01*
X45787594Y-90504745D01*
X45818134Y-90503868D01*
X45834964Y-90502508D01*
X45836840Y-90501805D01*
X45832573Y-90492128D01*
X45820530Y-90466569D01*
X45801853Y-90427503D01*
X45777684Y-90377308D01*
X45749163Y-90318360D01*
X45717432Y-90253036D01*
X45714886Y-90247805D01*
X45592931Y-89997280D01*
X45286594Y-89997280D01*
X45325497Y-90051441D01*
G37*
X45325497Y-90051441D02*
X45342692Y-90075148D01*
X45369703Y-90112105D01*
X45404262Y-90159221D01*
X45444103Y-90213410D01*
X45486959Y-90271581D01*
X45511720Y-90305139D01*
X45659040Y-90504677D01*
X45747940Y-90504978D01*
X45787594Y-90504745D01*
X45818134Y-90503868D01*
X45834964Y-90502508D01*
X45836840Y-90501805D01*
X45832573Y-90492128D01*
X45820530Y-90466569D01*
X45801853Y-90427503D01*
X45777684Y-90377308D01*
X45749163Y-90318360D01*
X45717432Y-90253036D01*
X45714886Y-90247805D01*
X45592931Y-89997280D01*
X45286594Y-89997280D01*
X45325497Y-90051441D01*
G36*
X40735691Y-91072201D02*
G01*
X40675611Y-91093099D01*
X40619606Y-91131352D01*
X40610983Y-91139385D01*
X40568319Y-91193883D01*
X40543300Y-91255058D01*
X40535878Y-91319595D01*
X40546003Y-91384179D01*
X40573628Y-91445495D01*
X40616250Y-91497905D01*
X40670485Y-91536476D01*
X40732832Y-91558110D01*
X40799432Y-91562292D01*
X40866430Y-91548506D01*
X40897370Y-91535469D01*
X40955106Y-91496180D01*
X40997284Y-91444349D01*
X41022948Y-91381569D01*
X41031160Y-91313000D01*
X41022283Y-91245361D01*
X40997550Y-91186842D01*
X40959807Y-91138618D01*
X40911903Y-91101865D01*
X40856683Y-91077760D01*
X40796997Y-91067480D01*
X40735691Y-91072201D01*
G37*
X40735691Y-91072201D02*
X40675611Y-91093099D01*
X40619606Y-91131352D01*
X40610983Y-91139385D01*
X40568319Y-91193883D01*
X40543300Y-91255058D01*
X40535878Y-91319595D01*
X40546003Y-91384179D01*
X40573628Y-91445495D01*
X40616250Y-91497905D01*
X40670485Y-91536476D01*
X40732832Y-91558110D01*
X40799432Y-91562292D01*
X40866430Y-91548506D01*
X40897370Y-91535469D01*
X40955106Y-91496180D01*
X40997284Y-91444349D01*
X41022948Y-91381569D01*
X41031160Y-91313000D01*
X41022283Y-91245361D01*
X40997550Y-91186842D01*
X40959807Y-91138618D01*
X40911903Y-91101865D01*
X40856683Y-91077760D01*
X40796997Y-91067480D01*
X40735691Y-91072201D01*
G36*
X44169771Y-91072201D02*
G01*
X44109691Y-91093099D01*
X44053686Y-91131352D01*
X44045063Y-91139385D01*
X44002399Y-91193883D01*
X43977380Y-91255058D01*
X43969958Y-91319595D01*
X43980083Y-91384179D01*
X44007708Y-91445495D01*
X44050330Y-91497905D01*
X44104565Y-91536476D01*
X44166912Y-91558110D01*
X44233512Y-91562292D01*
X44300510Y-91548506D01*
X44331450Y-91535469D01*
X44389186Y-91496180D01*
X44431364Y-91444349D01*
X44457028Y-91381569D01*
X44465240Y-91313000D01*
X44456363Y-91245361D01*
X44431630Y-91186842D01*
X44393887Y-91138618D01*
X44345983Y-91101865D01*
X44290763Y-91077760D01*
X44231077Y-91067480D01*
X44169771Y-91072201D01*
G37*
X44169771Y-91072201D02*
X44109691Y-91093099D01*
X44053686Y-91131352D01*
X44045063Y-91139385D01*
X44002399Y-91193883D01*
X43977380Y-91255058D01*
X43969958Y-91319595D01*
X43980083Y-91384179D01*
X44007708Y-91445495D01*
X44050330Y-91497905D01*
X44104565Y-91536476D01*
X44166912Y-91558110D01*
X44233512Y-91562292D01*
X44300510Y-91548506D01*
X44331450Y-91535469D01*
X44389186Y-91496180D01*
X44431364Y-91444349D01*
X44457028Y-91381569D01*
X44465240Y-91313000D01*
X44456363Y-91245361D01*
X44431630Y-91186842D01*
X44393887Y-91138618D01*
X44345983Y-91101865D01*
X44290763Y-91077760D01*
X44231077Y-91067480D01*
X44169771Y-91072201D01*
G36*
X42924414Y-90770002D02*
G01*
X42880490Y-90771548D01*
X42848233Y-90773867D01*
X42831220Y-90776751D01*
X42829480Y-90778076D01*
X42836644Y-90788372D01*
X42855640Y-90807931D01*
X42882726Y-90832962D01*
X42889924Y-90839284D01*
X42952207Y-90900237D01*
X43015011Y-90973722D01*
X43072950Y-91052829D01*
X43120641Y-91130646D01*
X43128383Y-91145269D01*
X43184483Y-91273313D01*
X43221914Y-91403945D01*
X43241275Y-91540033D01*
X43243163Y-91684446D01*
X43242704Y-91694000D01*
X43231043Y-91808864D01*
X43208570Y-91907107D01*
X43175015Y-91989476D01*
X43130110Y-92056722D01*
X43101613Y-92086489D01*
X43050289Y-92126006D01*
X42996762Y-92149802D01*
X42935506Y-92159715D01*
X42882991Y-92159258D01*
X42804329Y-92147680D01*
X42739417Y-92122391D01*
X42685864Y-92082026D01*
X42641282Y-92025222D01*
X42637545Y-92019120D01*
X42632222Y-92009640D01*
X42627866Y-91999309D01*
X42624379Y-91986111D01*
X42621665Y-91968031D01*
X42619627Y-91943053D01*
X42618167Y-91909162D01*
X42617189Y-91864344D01*
X42616596Y-91806583D01*
X42616291Y-91733863D01*
X42616177Y-91644170D01*
X42616158Y-91574620D01*
X42616120Y-91165680D01*
X42392600Y-91165680D01*
X42392498Y-91993720D01*
X42354449Y-92043516D01*
X42317239Y-92083007D01*
X42272354Y-92117644D01*
X42260520Y-92124796D01*
X42232323Y-92139754D01*
X42208162Y-92149052D01*
X42181604Y-92154017D01*
X42146214Y-92155979D01*
X42108120Y-92156280D01*
X42060905Y-92155689D01*
X42027916Y-92153137D01*
X42003075Y-92147458D01*
X41980306Y-92137482D01*
X41964734Y-92128728D01*
X41901564Y-92080118D01*
X41850350Y-92015516D01*
X41811022Y-91934765D01*
X41783507Y-91837713D01*
X41767736Y-91724203D01*
X41765896Y-91698054D01*
X41766549Y-91559317D01*
X41784363Y-91421756D01*
X41818509Y-91289621D01*
X41868158Y-91167159D01*
X41870423Y-91162586D01*
X41915443Y-91080694D01*
X41965829Y-91006726D01*
X42026128Y-90934552D01*
X42084497Y-90874047D01*
X42119721Y-90838882D01*
X42149009Y-90808880D01*
X42169660Y-90786867D01*
X42178975Y-90775665D01*
X42179240Y-90774987D01*
X42169677Y-90773024D01*
X42143371Y-90771365D01*
X42103898Y-90770147D01*
X42054835Y-90769505D01*
X42032291Y-90769440D01*
X41885341Y-90769440D01*
X41833926Y-90831221D01*
X41732279Y-90966655D01*
X41650474Y-91104768D01*
X41588635Y-91245314D01*
X41546885Y-91388051D01*
X41542385Y-91409520D01*
X41533747Y-91470860D01*
X41528726Y-91545308D01*
X41527296Y-91626224D01*
X41529429Y-91706963D01*
X41535099Y-91780883D01*
X41544140Y-91840686D01*
X41576318Y-91957558D01*
X41620588Y-92061590D01*
X41676052Y-92151644D01*
X41741814Y-92226579D01*
X41816977Y-92285258D01*
X41900644Y-92326541D01*
X41935400Y-92337684D01*
X42039933Y-92357155D01*
X42140633Y-92357434D01*
X42236195Y-92338757D01*
X42325312Y-92301361D01*
X42395759Y-92254444D01*
X42425167Y-92228005D01*
X42455284Y-92196226D01*
X42480924Y-92165017D01*
X42496903Y-92140290D01*
X42497971Y-92137928D01*
X42507126Y-92135411D01*
X42524035Y-92150328D01*
X42524785Y-92151200D01*
X42584686Y-92216653D01*
X42639790Y-92266414D01*
X42693725Y-92303279D01*
X42750122Y-92330048D01*
X42762781Y-92334706D01*
X42828253Y-92351111D01*
X42902274Y-92359137D01*
X42974504Y-92357891D01*
X42998115Y-92354996D01*
X43089671Y-92333472D01*
X43169374Y-92298472D01*
X43242504Y-92247445D01*
X43268672Y-92224254D01*
X43335982Y-92147860D01*
X43391195Y-92057362D01*
X43434046Y-91955172D01*
X43464273Y-91843703D01*
X43481614Y-91725368D01*
X43485806Y-91602580D01*
X43476585Y-91477751D01*
X43453690Y-91353295D01*
X43416857Y-91231625D01*
X43385141Y-91154794D01*
X43353039Y-91092507D01*
X43310912Y-91021619D01*
X43262734Y-90948255D01*
X43212482Y-90878542D01*
X43176323Y-90832940D01*
X43123380Y-90769440D01*
X42976430Y-90769440D01*
X42924414Y-90770002D01*
G37*
X42924414Y-90770002D02*
X42880490Y-90771548D01*
X42848233Y-90773867D01*
X42831220Y-90776751D01*
X42829480Y-90778076D01*
X42836644Y-90788372D01*
X42855640Y-90807931D01*
X42882726Y-90832962D01*
X42889924Y-90839284D01*
X42952207Y-90900237D01*
X43015011Y-90973722D01*
X43072950Y-91052829D01*
X43120641Y-91130646D01*
X43128383Y-91145269D01*
X43184483Y-91273313D01*
X43221914Y-91403945D01*
X43241275Y-91540033D01*
X43243163Y-91684446D01*
X43242704Y-91694000D01*
X43231043Y-91808864D01*
X43208570Y-91907107D01*
X43175015Y-91989476D01*
X43130110Y-92056722D01*
X43101613Y-92086489D01*
X43050289Y-92126006D01*
X42996762Y-92149802D01*
X42935506Y-92159715D01*
X42882991Y-92159258D01*
X42804329Y-92147680D01*
X42739417Y-92122391D01*
X42685864Y-92082026D01*
X42641282Y-92025222D01*
X42637545Y-92019120D01*
X42632222Y-92009640D01*
X42627866Y-91999309D01*
X42624379Y-91986111D01*
X42621665Y-91968031D01*
X42619627Y-91943053D01*
X42618167Y-91909162D01*
X42617189Y-91864344D01*
X42616596Y-91806583D01*
X42616291Y-91733863D01*
X42616177Y-91644170D01*
X42616158Y-91574620D01*
X42616120Y-91165680D01*
X42392600Y-91165680D01*
X42392498Y-91993720D01*
X42354449Y-92043516D01*
X42317239Y-92083007D01*
X42272354Y-92117644D01*
X42260520Y-92124796D01*
X42232323Y-92139754D01*
X42208162Y-92149052D01*
X42181604Y-92154017D01*
X42146214Y-92155979D01*
X42108120Y-92156280D01*
X42060905Y-92155689D01*
X42027916Y-92153137D01*
X42003075Y-92147458D01*
X41980306Y-92137482D01*
X41964734Y-92128728D01*
X41901564Y-92080118D01*
X41850350Y-92015516D01*
X41811022Y-91934765D01*
X41783507Y-91837713D01*
X41767736Y-91724203D01*
X41765896Y-91698054D01*
X41766549Y-91559317D01*
X41784363Y-91421756D01*
X41818509Y-91289621D01*
X41868158Y-91167159D01*
X41870423Y-91162586D01*
X41915443Y-91080694D01*
X41965829Y-91006726D01*
X42026128Y-90934552D01*
X42084497Y-90874047D01*
X42119721Y-90838882D01*
X42149009Y-90808880D01*
X42169660Y-90786867D01*
X42178975Y-90775665D01*
X42179240Y-90774987D01*
X42169677Y-90773024D01*
X42143371Y-90771365D01*
X42103898Y-90770147D01*
X42054835Y-90769505D01*
X42032291Y-90769440D01*
X41885341Y-90769440D01*
X41833926Y-90831221D01*
X41732279Y-90966655D01*
X41650474Y-91104768D01*
X41588635Y-91245314D01*
X41546885Y-91388051D01*
X41542385Y-91409520D01*
X41533747Y-91470860D01*
X41528726Y-91545308D01*
X41527296Y-91626224D01*
X41529429Y-91706963D01*
X41535099Y-91780883D01*
X41544140Y-91840686D01*
X41576318Y-91957558D01*
X41620588Y-92061590D01*
X41676052Y-92151644D01*
X41741814Y-92226579D01*
X41816977Y-92285258D01*
X41900644Y-92326541D01*
X41935400Y-92337684D01*
X42039933Y-92357155D01*
X42140633Y-92357434D01*
X42236195Y-92338757D01*
X42325312Y-92301361D01*
X42395759Y-92254444D01*
X42425167Y-92228005D01*
X42455284Y-92196226D01*
X42480924Y-92165017D01*
X42496903Y-92140290D01*
X42497971Y-92137928D01*
X42507126Y-92135411D01*
X42524035Y-92150328D01*
X42524785Y-92151200D01*
X42584686Y-92216653D01*
X42639790Y-92266414D01*
X42693725Y-92303279D01*
X42750122Y-92330048D01*
X42762781Y-92334706D01*
X42828253Y-92351111D01*
X42902274Y-92359137D01*
X42974504Y-92357891D01*
X42998115Y-92354996D01*
X43089671Y-92333472D01*
X43169374Y-92298472D01*
X43242504Y-92247445D01*
X43268672Y-92224254D01*
X43335982Y-92147860D01*
X43391195Y-92057362D01*
X43434046Y-91955172D01*
X43464273Y-91843703D01*
X43481614Y-91725368D01*
X43485806Y-91602580D01*
X43476585Y-91477751D01*
X43453690Y-91353295D01*
X43416857Y-91231625D01*
X43385141Y-91154794D01*
X43353039Y-91092507D01*
X43310912Y-91021619D01*
X43262734Y-90948255D01*
X43212482Y-90878542D01*
X43176323Y-90832940D01*
X43123380Y-90769440D01*
X42976430Y-90769440D01*
X42924414Y-90770002D01*
G36*
X37907976Y-90161097D02*
G01*
X37859144Y-90161731D01*
X37838805Y-90162101D01*
X37694450Y-90164920D01*
X37644845Y-90225880D01*
X37592581Y-90294376D01*
X37536396Y-90375321D01*
X37480283Y-90462446D01*
X37428235Y-90549484D01*
X37384244Y-90630167D01*
X37373018Y-90652600D01*
X37295965Y-90832799D01*
X37237179Y-91018858D01*
X37196671Y-91209020D01*
X37174451Y-91401529D01*
X37170529Y-91594629D01*
X37184916Y-91786565D01*
X37217624Y-91975580D01*
X37268661Y-92159918D01*
X37338039Y-92337824D01*
X37362568Y-92389960D01*
X37405530Y-92471056D01*
X37458329Y-92560456D01*
X37516817Y-92651720D01*
X37576850Y-92738406D01*
X37634282Y-92814075D01*
X37640516Y-92821760D01*
X37694522Y-92887800D01*
X37845672Y-92890621D01*
X37996821Y-92893443D01*
X37949676Y-92851944D01*
X37909501Y-92812928D01*
X37862255Y-92761209D01*
X37811657Y-92701302D01*
X37761427Y-92637723D01*
X37715284Y-92574984D01*
X37686246Y-92532200D01*
X37590479Y-92366737D01*
X37513294Y-92195086D01*
X37454564Y-92018653D01*
X37414159Y-91838846D01*
X37391951Y-91657071D01*
X37387811Y-91474735D01*
X37401611Y-91293246D01*
X37433223Y-91114011D01*
X37482516Y-90938437D01*
X37549364Y-90767931D01*
X37633637Y-90603900D01*
X37735207Y-90447750D01*
X37853946Y-90300890D01*
X37894116Y-90257579D01*
X37927649Y-90222373D01*
X37955402Y-90192855D01*
X37974710Y-90171891D01*
X37982906Y-90162345D01*
X37983016Y-90162101D01*
X37973514Y-90161281D01*
X37947299Y-90160947D01*
X37907976Y-90161097D01*
G37*
X37907976Y-90161097D02*
X37859144Y-90161731D01*
X37838805Y-90162101D01*
X37694450Y-90164920D01*
X37644845Y-90225880D01*
X37592581Y-90294376D01*
X37536396Y-90375321D01*
X37480283Y-90462446D01*
X37428235Y-90549484D01*
X37384244Y-90630167D01*
X37373018Y-90652600D01*
X37295965Y-90832799D01*
X37237179Y-91018858D01*
X37196671Y-91209020D01*
X37174451Y-91401529D01*
X37170529Y-91594629D01*
X37184916Y-91786565D01*
X37217624Y-91975580D01*
X37268661Y-92159918D01*
X37338039Y-92337824D01*
X37362568Y-92389960D01*
X37405530Y-92471056D01*
X37458329Y-92560456D01*
X37516817Y-92651720D01*
X37576850Y-92738406D01*
X37634282Y-92814075D01*
X37640516Y-92821760D01*
X37694522Y-92887800D01*
X37845672Y-92890621D01*
X37996821Y-92893443D01*
X37949676Y-92851944D01*
X37909501Y-92812928D01*
X37862255Y-92761209D01*
X37811657Y-92701302D01*
X37761427Y-92637723D01*
X37715284Y-92574984D01*
X37686246Y-92532200D01*
X37590479Y-92366737D01*
X37513294Y-92195086D01*
X37454564Y-92018653D01*
X37414159Y-91838846D01*
X37391951Y-91657071D01*
X37387811Y-91474735D01*
X37401611Y-91293246D01*
X37433223Y-91114011D01*
X37482516Y-90938437D01*
X37549364Y-90767931D01*
X37633637Y-90603900D01*
X37735207Y-90447750D01*
X37853946Y-90300890D01*
X37894116Y-90257579D01*
X37927649Y-90222373D01*
X37955402Y-90192855D01*
X37974710Y-90171891D01*
X37982906Y-90162345D01*
X37983016Y-90162101D01*
X37973514Y-90161281D01*
X37947299Y-90160947D01*
X37907976Y-90161097D01*
G36*
X47165499Y-90238580D02*
G01*
X47269478Y-90351979D01*
X47362485Y-90475632D01*
X47446862Y-90612927D01*
X47512227Y-90740107D01*
X47586982Y-90919987D01*
X47641971Y-91103182D01*
X47677191Y-91288636D01*
X47692638Y-91475295D01*
X47688309Y-91662103D01*
X47664200Y-91848003D01*
X47620308Y-92031940D01*
X47556628Y-92212858D01*
X47517637Y-92301282D01*
X47435695Y-92458612D01*
X47345315Y-92599902D01*
X47244215Y-92728477D01*
X47169451Y-92809060D01*
X47086599Y-92892880D01*
X47380285Y-92892880D01*
X47435148Y-92824300D01*
X47553877Y-92665195D01*
X47653694Y-92507568D01*
X47735625Y-92348972D01*
X47800695Y-92186959D01*
X47849930Y-92019080D01*
X47884356Y-91842888D01*
X47900093Y-91714320D01*
X47908938Y-91515885D01*
X47897732Y-91318934D01*
X47866736Y-91124293D01*
X47816206Y-90932791D01*
X47746404Y-90745254D01*
X47657587Y-90562511D01*
X47550015Y-90385388D01*
X47434954Y-90228420D01*
X47380285Y-90159840D01*
X47086151Y-90159840D01*
X47165499Y-90238580D01*
G37*
X47165499Y-90238580D02*
X47269478Y-90351979D01*
X47362485Y-90475632D01*
X47446862Y-90612927D01*
X47512227Y-90740107D01*
X47586982Y-90919987D01*
X47641971Y-91103182D01*
X47677191Y-91288636D01*
X47692638Y-91475295D01*
X47688309Y-91662103D01*
X47664200Y-91848003D01*
X47620308Y-92031940D01*
X47556628Y-92212858D01*
X47517637Y-92301282D01*
X47435695Y-92458612D01*
X47345315Y-92599902D01*
X47244215Y-92728477D01*
X47169451Y-92809060D01*
X47086599Y-92892880D01*
X47380285Y-92892880D01*
X47435148Y-92824300D01*
X47553877Y-92665195D01*
X47653694Y-92507568D01*
X47735625Y-92348972D01*
X47800695Y-92186959D01*
X47849930Y-92019080D01*
X47884356Y-91842888D01*
X47900093Y-91714320D01*
X47908938Y-91515885D01*
X47897732Y-91318934D01*
X47866736Y-91124293D01*
X47816206Y-90932791D01*
X47746404Y-90745254D01*
X47657587Y-90562511D01*
X47550015Y-90385388D01*
X47434954Y-90228420D01*
X47380285Y-90159840D01*
X47086151Y-90159840D01*
X47165499Y-90238580D01*
D10*
X50512023Y-68984761D02*
X50369166Y-69032380D01*
X50131071Y-69032380D01*
X50035833Y-68984761D01*
X49988214Y-68937142D01*
X49940595Y-68841904D01*
X49940595Y-68746666D01*
X49988214Y-68651428D01*
X50035833Y-68603809D01*
X50131071Y-68556190D01*
X50321547Y-68508571D01*
X50416785Y-68460952D01*
X50464404Y-68413333D01*
X50512023Y-68318095D01*
X50512023Y-68222857D01*
X50464404Y-68127619D01*
X50416785Y-68080000D01*
X50321547Y-68032380D01*
X50083452Y-68032380D01*
X49940595Y-68080000D01*
X49131071Y-68984761D02*
X49226309Y-69032380D01*
X49416785Y-69032380D01*
X49512023Y-68984761D01*
X49559642Y-68889523D01*
X49559642Y-68508571D01*
X49512023Y-68413333D01*
X49416785Y-68365714D01*
X49226309Y-68365714D01*
X49131071Y-68413333D01*
X49083452Y-68508571D01*
X49083452Y-68603809D01*
X49559642Y-68699047D01*
X48512023Y-69032380D02*
X48607261Y-68984761D01*
X48654880Y-68889523D01*
X48654880Y-68032380D01*
X48273928Y-68365714D02*
X47892976Y-68365714D01*
X48131071Y-69032380D02*
X48131071Y-68175238D01*
X48083452Y-68080000D01*
X47988214Y-68032380D01*
X47892976Y-68032380D01*
X47559642Y-68651428D02*
X46797738Y-68651428D01*
X46321547Y-68365714D02*
X46321547Y-69365714D01*
X46321547Y-68413333D02*
X46226309Y-68365714D01*
X46035833Y-68365714D01*
X45940595Y-68413333D01*
X45892976Y-68460952D01*
X45845357Y-68556190D01*
X45845357Y-68841904D01*
X45892976Y-68937142D01*
X45940595Y-68984761D01*
X46035833Y-69032380D01*
X46226309Y-69032380D01*
X46321547Y-68984761D01*
X45273928Y-69032380D02*
X45369166Y-68984761D01*
X45416785Y-68937142D01*
X45464404Y-68841904D01*
X45464404Y-68556190D01*
X45416785Y-68460952D01*
X45369166Y-68413333D01*
X45273928Y-68365714D01*
X45131071Y-68365714D01*
X45035833Y-68413333D01*
X44988214Y-68460952D01*
X44940595Y-68556190D01*
X44940595Y-68841904D01*
X44988214Y-68937142D01*
X45035833Y-68984761D01*
X45131071Y-69032380D01*
X45273928Y-69032380D01*
X44607261Y-68365714D02*
X44416785Y-69032380D01*
X44226309Y-68556190D01*
X44035833Y-69032380D01*
X43845357Y-68365714D01*
X43083452Y-68984761D02*
X43178690Y-69032380D01*
X43369166Y-69032380D01*
X43464404Y-68984761D01*
X43512023Y-68889523D01*
X43512023Y-68508571D01*
X43464404Y-68413333D01*
X43369166Y-68365714D01*
X43178690Y-68365714D01*
X43083452Y-68413333D01*
X43035833Y-68508571D01*
X43035833Y-68603809D01*
X43512023Y-68699047D01*
X42607261Y-69032380D02*
X42607261Y-68365714D01*
X42607261Y-68556190D02*
X42559642Y-68460952D01*
X42512023Y-68413333D01*
X42416785Y-68365714D01*
X42321547Y-68365714D01*
X41607261Y-68984761D02*
X41702500Y-69032380D01*
X41892976Y-69032380D01*
X41988214Y-68984761D01*
X42035833Y-68889523D01*
X42035833Y-68508571D01*
X41988214Y-68413333D01*
X41892976Y-68365714D01*
X41702500Y-68365714D01*
X41607261Y-68413333D01*
X41559642Y-68508571D01*
X41559642Y-68603809D01*
X42035833Y-68699047D01*
X40702500Y-69032380D02*
X40702500Y-68032380D01*
X40702500Y-68984761D02*
X40797738Y-69032380D01*
X40988214Y-69032380D01*
X41083452Y-68984761D01*
X41131071Y-68937142D01*
X41178690Y-68841904D01*
X41178690Y-68556190D01*
X41131071Y-68460952D01*
X41083452Y-68413333D01*
X40988214Y-68365714D01*
X40797738Y-68365714D01*
X40702500Y-68413333D01*
X39035833Y-69032380D02*
X39035833Y-68032380D01*
X39035833Y-68984761D02*
X39131071Y-69032380D01*
X39321547Y-69032380D01*
X39416785Y-68984761D01*
X39464404Y-68937142D01*
X39512023Y-68841904D01*
X39512023Y-68556190D01*
X39464404Y-68460952D01*
X39416785Y-68413333D01*
X39321547Y-68365714D01*
X39131071Y-68365714D01*
X39035833Y-68413333D01*
X38178690Y-68984761D02*
X38273928Y-69032380D01*
X38464404Y-69032380D01*
X38559642Y-68984761D01*
X38607261Y-68889523D01*
X38607261Y-68508571D01*
X38559642Y-68413333D01*
X38464404Y-68365714D01*
X38273928Y-68365714D01*
X38178690Y-68413333D01*
X38131071Y-68508571D01*
X38131071Y-68603809D01*
X38607261Y-68699047D01*
X37797738Y-68365714D02*
X37559642Y-69032380D01*
X37321547Y-68365714D01*
X36940595Y-69032380D02*
X36940595Y-68365714D01*
X36940595Y-68032380D02*
X36988214Y-68080000D01*
X36940595Y-68127619D01*
X36892976Y-68080000D01*
X36940595Y-68032380D01*
X36940595Y-68127619D01*
X36035833Y-68984761D02*
X36131071Y-69032380D01*
X36321547Y-69032380D01*
X36416785Y-68984761D01*
X36464404Y-68937142D01*
X36512023Y-68841904D01*
X36512023Y-68556190D01*
X36464404Y-68460952D01*
X36416785Y-68413333D01*
X36321547Y-68365714D01*
X36131071Y-68365714D01*
X36035833Y-68413333D01*
X35226309Y-68984761D02*
X35321547Y-69032380D01*
X35512023Y-69032380D01*
X35607261Y-68984761D01*
X35654880Y-68889523D01*
X35654880Y-68508571D01*
X35607261Y-68413333D01*
X35512023Y-68365714D01*
X35321547Y-68365714D01*
X35226309Y-68413333D01*
X35178690Y-68508571D01*
X35178690Y-68603809D01*
X35654880Y-68699047D01*
X50464404Y-64460380D02*
X50464404Y-63460380D01*
X50464404Y-63936571D02*
X49892976Y-63936571D01*
X49892976Y-64460380D02*
X49892976Y-63460380D01*
X49273928Y-64460380D02*
X49369166Y-64412761D01*
X49416785Y-64365142D01*
X49464404Y-64269904D01*
X49464404Y-63984190D01*
X49416785Y-63888952D01*
X49369166Y-63841333D01*
X49273928Y-63793714D01*
X49131071Y-63793714D01*
X49035833Y-63841333D01*
X48988214Y-63888952D01*
X48940595Y-63984190D01*
X48940595Y-64269904D01*
X48988214Y-64365142D01*
X49035833Y-64412761D01*
X49131071Y-64460380D01*
X49273928Y-64460380D01*
X48559642Y-64412761D02*
X48464404Y-64460380D01*
X48273928Y-64460380D01*
X48178690Y-64412761D01*
X48131071Y-64317523D01*
X48131071Y-64269904D01*
X48178690Y-64174666D01*
X48273928Y-64127047D01*
X48416785Y-64127047D01*
X48512023Y-64079428D01*
X48559642Y-63984190D01*
X48559642Y-63936571D01*
X48512023Y-63841333D01*
X48416785Y-63793714D01*
X48273928Y-63793714D01*
X48178690Y-63841333D01*
X47845357Y-63793714D02*
X47464404Y-63793714D01*
X47702500Y-63460380D02*
X47702500Y-64317523D01*
X47654880Y-64412761D01*
X47559642Y-64460380D01*
X47464404Y-64460380D01*
X46416785Y-63412761D02*
X47273928Y-64698476D01*
X45654880Y-64460380D02*
X45654880Y-63460380D01*
X45654880Y-64412761D02*
X45750119Y-64460380D01*
X45940595Y-64460380D01*
X46035833Y-64412761D01*
X46083452Y-64365142D01*
X46131071Y-64269904D01*
X46131071Y-63984190D01*
X46083452Y-63888952D01*
X46035833Y-63841333D01*
X45940595Y-63793714D01*
X45750119Y-63793714D01*
X45654880Y-63841333D01*
X44797738Y-64412761D02*
X44892976Y-64460380D01*
X45083452Y-64460380D01*
X45178690Y-64412761D01*
X45226309Y-64317523D01*
X45226309Y-63936571D01*
X45178690Y-63841333D01*
X45083452Y-63793714D01*
X44892976Y-63793714D01*
X44797738Y-63841333D01*
X44750119Y-63936571D01*
X44750119Y-64031809D01*
X45226309Y-64127047D01*
X44416785Y-63793714D02*
X44178690Y-64460380D01*
X43940595Y-63793714D01*
X43559642Y-64460380D02*
X43559642Y-63793714D01*
X43559642Y-63460380D02*
X43607261Y-63508000D01*
X43559642Y-63555619D01*
X43512023Y-63508000D01*
X43559642Y-63460380D01*
X43559642Y-63555619D01*
X42654880Y-64412761D02*
X42750119Y-64460380D01*
X42940595Y-64460380D01*
X43035833Y-64412761D01*
X43083452Y-64365142D01*
X43131071Y-64269904D01*
X43131071Y-63984190D01*
X43083452Y-63888952D01*
X43035833Y-63841333D01*
X42940595Y-63793714D01*
X42750119Y-63793714D01*
X42654880Y-63841333D01*
X41845357Y-64412761D02*
X41940595Y-64460380D01*
X42131071Y-64460380D01*
X42226309Y-64412761D01*
X42273928Y-64317523D01*
X42273928Y-63936571D01*
X42226309Y-63841333D01*
X42131071Y-63793714D01*
X41940595Y-63793714D01*
X41845357Y-63841333D01*
X41797738Y-63936571D01*
X41797738Y-64031809D01*
X42273928Y-64127047D01*
X40321547Y-64841333D02*
X40369166Y-64793714D01*
X40464404Y-64650857D01*
X40512023Y-64555619D01*
X40559642Y-64412761D01*
X40607261Y-64174666D01*
X40607261Y-63984190D01*
X40559642Y-63746095D01*
X40512023Y-63603238D01*
X40464404Y-63508000D01*
X40369166Y-63365142D01*
X40321547Y-63317523D01*
X39940595Y-64460380D02*
X39940595Y-63460380D01*
X39607261Y-64174666D01*
X39273928Y-63460380D01*
X39273928Y-64460380D01*
X38797738Y-64460380D02*
X38797738Y-63793714D01*
X38797738Y-63460380D02*
X38845357Y-63508000D01*
X38797738Y-63555619D01*
X38750119Y-63508000D01*
X38797738Y-63460380D01*
X38797738Y-63555619D01*
X37892976Y-64412761D02*
X37988214Y-64460380D01*
X38178690Y-64460380D01*
X38273928Y-64412761D01*
X38321547Y-64365142D01*
X38369166Y-64269904D01*
X38369166Y-63984190D01*
X38321547Y-63888952D01*
X38273928Y-63841333D01*
X38178690Y-63793714D01*
X37988214Y-63793714D01*
X37892976Y-63841333D01*
X37464404Y-64460380D02*
X37464404Y-63793714D01*
X37464404Y-63984190D02*
X37416785Y-63888952D01*
X37369166Y-63841333D01*
X37273928Y-63793714D01*
X37178690Y-63793714D01*
X36702500Y-64460380D02*
X36797738Y-64412761D01*
X36845357Y-64365142D01*
X36892976Y-64269904D01*
X36892976Y-63984190D01*
X36845357Y-63888952D01*
X36797738Y-63841333D01*
X36702500Y-63793714D01*
X36559642Y-63793714D01*
X36464404Y-63841333D01*
X36416785Y-63888952D01*
X36369166Y-63984190D01*
X36369166Y-64269904D01*
X36416785Y-64365142D01*
X36464404Y-64412761D01*
X36559642Y-64460380D01*
X36702500Y-64460380D01*
X35607261Y-63936571D02*
X35464404Y-63984190D01*
X35416785Y-64031809D01*
X35369166Y-64127047D01*
X35369166Y-64269904D01*
X35416785Y-64365142D01*
X35464404Y-64412761D01*
X35559642Y-64460380D01*
X35940595Y-64460380D01*
X35940595Y-63460380D01*
X35607261Y-63460380D01*
X35512023Y-63508000D01*
X35464404Y-63555619D01*
X35416785Y-63650857D01*
X35416785Y-63746095D01*
X35464404Y-63841333D01*
X35512023Y-63888952D01*
X35607261Y-63936571D01*
X35940595Y-63936571D01*
X33750119Y-64460380D02*
X33750119Y-63936571D01*
X33797738Y-63841333D01*
X33892976Y-63793714D01*
X34083452Y-63793714D01*
X34178690Y-63841333D01*
X33750119Y-64412761D02*
X33845357Y-64460380D01*
X34083452Y-64460380D01*
X34178690Y-64412761D01*
X34226309Y-64317523D01*
X34226309Y-64222285D01*
X34178690Y-64127047D01*
X34083452Y-64079428D01*
X33845357Y-64079428D01*
X33750119Y-64031809D01*
X33273928Y-63793714D02*
X33273928Y-64460380D01*
X33273928Y-63888952D02*
X33226309Y-63841333D01*
X33131071Y-63793714D01*
X32988214Y-63793714D01*
X32892976Y-63841333D01*
X32845357Y-63936571D01*
X32845357Y-64460380D01*
X31940595Y-64460380D02*
X31940595Y-63460380D01*
X31940595Y-64412761D02*
X32035833Y-64460380D01*
X32226309Y-64460380D01*
X32321547Y-64412761D01*
X32369166Y-64365142D01*
X32416785Y-64269904D01*
X32416785Y-63984190D01*
X32369166Y-63888952D01*
X32321547Y-63841333D01*
X32226309Y-63793714D01*
X32035833Y-63793714D01*
X31940595Y-63841333D01*
X30750119Y-64174666D02*
X30273928Y-64174666D01*
X30845357Y-64460380D02*
X30512023Y-63460380D01*
X30178690Y-64460380D01*
X29940595Y-64841333D02*
X29892976Y-64793714D01*
X29797738Y-64650857D01*
X29750119Y-64555619D01*
X29702500Y-64412761D01*
X29654880Y-64174666D01*
X29654880Y-63984190D01*
X29702500Y-63746095D01*
X29750119Y-63603238D01*
X29797738Y-63508000D01*
X29892976Y-63365142D01*
X29940595Y-63317523D01*
X50131071Y-66222571D02*
X49988214Y-66270190D01*
X49940595Y-66317809D01*
X49892976Y-66413047D01*
X49892976Y-66555904D01*
X49940595Y-66651142D01*
X49988214Y-66698761D01*
X50083452Y-66746380D01*
X50464404Y-66746380D01*
X50464404Y-65746380D01*
X50131071Y-65746380D01*
X50035833Y-65794000D01*
X49988214Y-65841619D01*
X49940595Y-65936857D01*
X49940595Y-66032095D01*
X49988214Y-66127333D01*
X50035833Y-66174952D01*
X50131071Y-66222571D01*
X50464404Y-66222571D01*
X49035833Y-66079714D02*
X49035833Y-66746380D01*
X49464404Y-66079714D02*
X49464404Y-66603523D01*
X49416785Y-66698761D01*
X49321547Y-66746380D01*
X49178690Y-66746380D01*
X49083452Y-66698761D01*
X49035833Y-66651142D01*
X48607261Y-66698761D02*
X48512023Y-66746380D01*
X48321547Y-66746380D01*
X48226309Y-66698761D01*
X48178690Y-66603523D01*
X48178690Y-66555904D01*
X48226309Y-66460666D01*
X48321547Y-66413047D01*
X48464404Y-66413047D01*
X48559642Y-66365428D01*
X48607261Y-66270190D01*
X48607261Y-66222571D01*
X48559642Y-66127333D01*
X48464404Y-66079714D01*
X48321547Y-66079714D01*
X48226309Y-66127333D01*
X47750119Y-66365428D02*
X46988214Y-66365428D01*
X46512023Y-66079714D02*
X46512023Y-67079714D01*
X46512023Y-66127333D02*
X46416785Y-66079714D01*
X46226309Y-66079714D01*
X46131071Y-66127333D01*
X46083452Y-66174952D01*
X46035833Y-66270190D01*
X46035833Y-66555904D01*
X46083452Y-66651142D01*
X46131071Y-66698761D01*
X46226309Y-66746380D01*
X46416785Y-66746380D01*
X46512023Y-66698761D01*
X45464404Y-66746380D02*
X45559642Y-66698761D01*
X45607261Y-66651142D01*
X45654880Y-66555904D01*
X45654880Y-66270190D01*
X45607261Y-66174952D01*
X45559642Y-66127333D01*
X45464404Y-66079714D01*
X45321547Y-66079714D01*
X45226309Y-66127333D01*
X45178690Y-66174952D01*
X45131071Y-66270190D01*
X45131071Y-66555904D01*
X45178690Y-66651142D01*
X45226309Y-66698761D01*
X45321547Y-66746380D01*
X45464404Y-66746380D01*
X44797738Y-66079714D02*
X44607261Y-66746380D01*
X44416785Y-66270190D01*
X44226309Y-66746380D01*
X44035833Y-66079714D01*
X43273928Y-66698761D02*
X43369166Y-66746380D01*
X43559642Y-66746380D01*
X43654880Y-66698761D01*
X43702500Y-66603523D01*
X43702500Y-66222571D01*
X43654880Y-66127333D01*
X43559642Y-66079714D01*
X43369166Y-66079714D01*
X43273928Y-66127333D01*
X43226309Y-66222571D01*
X43226309Y-66317809D01*
X43702500Y-66413047D01*
X42797738Y-66746380D02*
X42797738Y-66079714D01*
X42797738Y-66270190D02*
X42750119Y-66174952D01*
X42702500Y-66127333D01*
X42607261Y-66079714D01*
X42512023Y-66079714D01*
X41797738Y-66698761D02*
X41892976Y-66746380D01*
X42083452Y-66746380D01*
X42178690Y-66698761D01*
X42226309Y-66603523D01*
X42226309Y-66222571D01*
X42178690Y-66127333D01*
X42083452Y-66079714D01*
X41892976Y-66079714D01*
X41797738Y-66127333D01*
X41750119Y-66222571D01*
X41750119Y-66317809D01*
X42226309Y-66413047D01*
X40892976Y-66746380D02*
X40892976Y-65746380D01*
X40892976Y-66698761D02*
X40988214Y-66746380D01*
X41178690Y-66746380D01*
X41273928Y-66698761D01*
X41321547Y-66651142D01*
X41369166Y-66555904D01*
X41369166Y-66270190D01*
X41321547Y-66174952D01*
X41273928Y-66127333D01*
X41178690Y-66079714D01*
X40988214Y-66079714D01*
X40892976Y-66127333D01*
X39226309Y-66746380D02*
X39226309Y-65746380D01*
X39226309Y-66698761D02*
X39321547Y-66746380D01*
X39512023Y-66746380D01*
X39607261Y-66698761D01*
X39654880Y-66651142D01*
X39702500Y-66555904D01*
X39702500Y-66270190D01*
X39654880Y-66174952D01*
X39607261Y-66127333D01*
X39512023Y-66079714D01*
X39321547Y-66079714D01*
X39226309Y-66127333D01*
X38369166Y-66698761D02*
X38464404Y-66746380D01*
X38654880Y-66746380D01*
X38750119Y-66698761D01*
X38797738Y-66603523D01*
X38797738Y-66222571D01*
X38750119Y-66127333D01*
X38654880Y-66079714D01*
X38464404Y-66079714D01*
X38369166Y-66127333D01*
X38321547Y-66222571D01*
X38321547Y-66317809D01*
X38797738Y-66413047D01*
X37988214Y-66079714D02*
X37750119Y-66746380D01*
X37512023Y-66079714D01*
X37131071Y-66746380D02*
X37131071Y-66079714D01*
X37131071Y-65746380D02*
X37178690Y-65794000D01*
X37131071Y-65841619D01*
X37083452Y-65794000D01*
X37131071Y-65746380D01*
X37131071Y-65841619D01*
X36226309Y-66698761D02*
X36321547Y-66746380D01*
X36512023Y-66746380D01*
X36607261Y-66698761D01*
X36654880Y-66651142D01*
X36702500Y-66555904D01*
X36702500Y-66270190D01*
X36654880Y-66174952D01*
X36607261Y-66127333D01*
X36512023Y-66079714D01*
X36321547Y-66079714D01*
X36226309Y-66127333D01*
X35416785Y-66698761D02*
X35512023Y-66746380D01*
X35702500Y-66746380D01*
X35797738Y-66698761D01*
X35845357Y-66603523D01*
X35845357Y-66222571D01*
X35797738Y-66127333D01*
X35702500Y-66079714D01*
X35512023Y-66079714D01*
X35416785Y-66127333D01*
X35369166Y-66222571D01*
X35369166Y-66317809D01*
X35845357Y-66413047D01*
X33892976Y-67127333D02*
X33940595Y-67079714D01*
X34035833Y-66936857D01*
X34083452Y-66841619D01*
X34131071Y-66698761D01*
X34178690Y-66460666D01*
X34178690Y-66270190D01*
X34131071Y-66032095D01*
X34083452Y-65889238D01*
X34035833Y-65794000D01*
X33940595Y-65651142D01*
X33892976Y-65603523D01*
X33512023Y-66746380D02*
X33512023Y-65746380D01*
X33178690Y-66460666D01*
X32845357Y-65746380D01*
X32845357Y-66746380D01*
X32369166Y-66746380D02*
X32369166Y-66079714D01*
X32369166Y-65746380D02*
X32416785Y-65794000D01*
X32369166Y-65841619D01*
X32321547Y-65794000D01*
X32369166Y-65746380D01*
X32369166Y-65841619D01*
X31464404Y-66698761D02*
X31559642Y-66746380D01*
X31750119Y-66746380D01*
X31845357Y-66698761D01*
X31892976Y-66651142D01*
X31940595Y-66555904D01*
X31940595Y-66270190D01*
X31892976Y-66174952D01*
X31845357Y-66127333D01*
X31750119Y-66079714D01*
X31559642Y-66079714D01*
X31464404Y-66127333D01*
X31035833Y-66746380D02*
X31035833Y-66079714D01*
X31035833Y-66270190D02*
X30988214Y-66174952D01*
X30940595Y-66127333D01*
X30845357Y-66079714D01*
X30750119Y-66079714D01*
X30273928Y-66746380D02*
X30369166Y-66698761D01*
X30416785Y-66651142D01*
X30464404Y-66555904D01*
X30464404Y-66270190D01*
X30416785Y-66174952D01*
X30369166Y-66127333D01*
X30273928Y-66079714D01*
X30131071Y-66079714D01*
X30035833Y-66127333D01*
X29988214Y-66174952D01*
X29940595Y-66270190D01*
X29940595Y-66555904D01*
X29988214Y-66651142D01*
X30035833Y-66698761D01*
X30131071Y-66746380D01*
X30273928Y-66746380D01*
X29178690Y-66222571D02*
X29035833Y-66270190D01*
X28988214Y-66317809D01*
X28940595Y-66413047D01*
X28940595Y-66555904D01*
X28988214Y-66651142D01*
X29035833Y-66698761D01*
X29131071Y-66746380D01*
X29512023Y-66746380D01*
X29512023Y-65746380D01*
X29178690Y-65746380D01*
X29083452Y-65794000D01*
X29035833Y-65841619D01*
X28988214Y-65936857D01*
X28988214Y-66032095D01*
X29035833Y-66127333D01*
X29083452Y-66174952D01*
X29178690Y-66222571D01*
X29512023Y-66222571D01*
X28607261Y-67127333D02*
X28559642Y-67079714D01*
X28464404Y-66936857D01*
X28416785Y-66841619D01*
X28369166Y-66698761D01*
X28321547Y-66460666D01*
X28321547Y-66270190D01*
X28369166Y-66032095D01*
X28416785Y-65889238D01*
X28464404Y-65794000D01*
X28559642Y-65651142D01*
X28607261Y-65603523D01*
X50464404Y-62174380D02*
X50464404Y-61174380D01*
X50083452Y-61174380D01*
X49988214Y-61222000D01*
X49940595Y-61269619D01*
X49892976Y-61364857D01*
X49892976Y-61507714D01*
X49940595Y-61602952D01*
X49988214Y-61650571D01*
X50083452Y-61698190D01*
X50464404Y-61698190D01*
X49559642Y-61174380D02*
X49321547Y-62174380D01*
X49131071Y-61460095D01*
X48940595Y-62174380D01*
X48702500Y-61174380D01*
X47750119Y-62174380D02*
X48083452Y-61698190D01*
X48321547Y-62174380D02*
X48321547Y-61174380D01*
X47940595Y-61174380D01*
X47845357Y-61222000D01*
X47797738Y-61269619D01*
X47750119Y-61364857D01*
X47750119Y-61507714D01*
X47797738Y-61602952D01*
X47845357Y-61650571D01*
X47940595Y-61698190D01*
X48321547Y-61698190D01*
X47559642Y-62269619D02*
X46797738Y-62269619D01*
X46559642Y-62174380D02*
X46559642Y-61174380D01*
X46226309Y-61888666D01*
X45892976Y-61174380D01*
X45892976Y-62174380D01*
X45226309Y-61174380D02*
X45035833Y-61174380D01*
X44940595Y-61222000D01*
X44845357Y-61317238D01*
X44797738Y-61507714D01*
X44797738Y-61841047D01*
X44845357Y-62031523D01*
X44940595Y-62126761D01*
X45035833Y-62174380D01*
X45226309Y-62174380D01*
X45321547Y-62126761D01*
X45416785Y-62031523D01*
X45464404Y-61841047D01*
X45464404Y-61507714D01*
X45416785Y-61317238D01*
X45321547Y-61222000D01*
X45226309Y-61174380D01*
X44369166Y-62174380D02*
X44369166Y-61174380D01*
X44131071Y-61174380D01*
X43988214Y-61222000D01*
X43892976Y-61317238D01*
X43845357Y-61412476D01*
X43797738Y-61602952D01*
X43797738Y-61745809D01*
X43845357Y-61936285D01*
X43892976Y-62031523D01*
X43988214Y-62126761D01*
X44131071Y-62174380D01*
X44369166Y-62174380D01*
X43369166Y-61650571D02*
X43035833Y-61650571D01*
X42892976Y-62174380D02*
X43369166Y-62174380D01*
X43369166Y-61174380D01*
X42892976Y-61174380D01*
X41416785Y-61174380D02*
X41416785Y-61888666D01*
X41464404Y-62031523D01*
X41559642Y-62126761D01*
X41702500Y-62174380D01*
X41797738Y-62174380D01*
X40512023Y-61174380D02*
X40702500Y-61174380D01*
X40797738Y-61222000D01*
X40845357Y-61269619D01*
X40940595Y-61412476D01*
X40988214Y-61602952D01*
X40988214Y-61983904D01*
X40940595Y-62079142D01*
X40892976Y-62126761D01*
X40797738Y-62174380D01*
X40607261Y-62174380D01*
X40512023Y-62126761D01*
X40464404Y-62079142D01*
X40416785Y-61983904D01*
X40416785Y-61745809D01*
X40464404Y-61650571D01*
X40512023Y-61602952D01*
X40607261Y-61555333D01*
X40797738Y-61555333D01*
X40892976Y-61602952D01*
X40940595Y-61650571D01*
X40988214Y-61745809D01*
X39226309Y-61174380D02*
X39226309Y-61983904D01*
X39178690Y-62079142D01*
X39131071Y-62126761D01*
X39035833Y-62174380D01*
X38845357Y-62174380D01*
X38750119Y-62126761D01*
X38702500Y-62079142D01*
X38654880Y-61983904D01*
X38654880Y-61174380D01*
X38226309Y-62126761D02*
X38131071Y-62174380D01*
X37940595Y-62174380D01*
X37845357Y-62126761D01*
X37797738Y-62031523D01*
X37797738Y-61983904D01*
X37845357Y-61888666D01*
X37940595Y-61841047D01*
X38083452Y-61841047D01*
X38178690Y-61793428D01*
X38226309Y-61698190D01*
X38226309Y-61650571D01*
X38178690Y-61555333D01*
X38083452Y-61507714D01*
X37940595Y-61507714D01*
X37845357Y-61555333D01*
X36940595Y-62174380D02*
X36940595Y-61650571D01*
X36988214Y-61555333D01*
X37083452Y-61507714D01*
X37273928Y-61507714D01*
X37369166Y-61555333D01*
X36940595Y-62126761D02*
X37035833Y-62174380D01*
X37273928Y-62174380D01*
X37369166Y-62126761D01*
X37416785Y-62031523D01*
X37416785Y-61936285D01*
X37369166Y-61841047D01*
X37273928Y-61793428D01*
X37035833Y-61793428D01*
X36940595Y-61745809D01*
X36035833Y-61507714D02*
X36035833Y-62317238D01*
X36083452Y-62412476D01*
X36131071Y-62460095D01*
X36226309Y-62507714D01*
X36369166Y-62507714D01*
X36464404Y-62460095D01*
X36035833Y-62126761D02*
X36131071Y-62174380D01*
X36321547Y-62174380D01*
X36416785Y-62126761D01*
X36464404Y-62079142D01*
X36512023Y-61983904D01*
X36512023Y-61698190D01*
X36464404Y-61602952D01*
X36416785Y-61555333D01*
X36321547Y-61507714D01*
X36131071Y-61507714D01*
X36035833Y-61555333D01*
X35178690Y-62126761D02*
X35273928Y-62174380D01*
X35464404Y-62174380D01*
X35559642Y-62126761D01*
X35607261Y-62031523D01*
X35607261Y-61650571D01*
X35559642Y-61555333D01*
X35464404Y-61507714D01*
X35273928Y-61507714D01*
X35178690Y-61555333D01*
X35131071Y-61650571D01*
X35131071Y-61745809D01*
X35607261Y-61841047D01*
X53038333Y-61174380D02*
X52419285Y-61174380D01*
X52752619Y-61555333D01*
X52609761Y-61555333D01*
X52514523Y-61602952D01*
X52466904Y-61650571D01*
X52419285Y-61745809D01*
X52419285Y-61983904D01*
X52466904Y-62079142D01*
X52514523Y-62126761D01*
X52609761Y-62174380D01*
X52895476Y-62174380D01*
X52990714Y-62126761D01*
X53038333Y-62079142D01*
X54514714Y-61269619D02*
X54467095Y-61222000D01*
X54371857Y-61174380D01*
X54133761Y-61174380D01*
X54038523Y-61222000D01*
X53990904Y-61269619D01*
X53943285Y-61364857D01*
X53943285Y-61460095D01*
X53990904Y-61602952D01*
X54562333Y-62174380D01*
X53943285Y-62174380D01*
X55467285Y-62174380D02*
X56038714Y-62174380D01*
X55753000Y-62174380D02*
X55753000Y-61174380D01*
X55848238Y-61317238D01*
X55943476Y-61412476D01*
X56038714Y-61460095D01*
M02*
