M48
; DRILL file {KiCad 5.1.5} date Пн 24 фев 2020 18:37:22
; FORMAT={-:-/ absolute / metric / decimal}
; #@! TF.CreationDate,2020-02-24T18:37:22+03:00
; #@! TF.GenerationSoftware,Kicad,Pcbnew,5.1.5
; #@! TF.FileFunction,Plated,1,2,PTH
FMAT,2
METRIC
T1C0.400
T2C0.650
T3C0.700
T4C1.000
T5C2.300
%
G90
G05
T1
X3.79Y-6.34
X5.695Y-19.04
X10.775Y-13.325
X10.775Y-16.5
X12.68Y-18.405
X13.315Y-25.39
X13.315Y-27.93
X13.315Y-30.47
X14.585Y-9.515
X14.585Y-15.865
X14.585Y-15.865
X14.585Y-38.725
X15.62Y-37.855
X16.4Y-39.45
X16.49Y-34.915
X17.691Y-40.561
X17.887Y-6.657
X18.395Y-15.865
X20.3Y-40.63
X20.427Y-26.66
X21.57Y-34.915
X22.84Y-31.74
X23.475Y-38.09
X23.602Y-29.2
X24.64Y-32.905
X24.745Y-38.725
X26.015Y-38.725
X27.285Y-22.85
X27.92Y-14.595
X28.555Y-26.66
X28.555Y-30.47
X31.73Y-27.93
X33.0Y-14.595
X34.27Y-40.122
X35.286Y-31.486
T4
X5.695Y-27.93
X5.695Y-30.47
X5.695Y-33.01
X5.695Y-35.55
X5.695Y-38.09
X5.695Y-40.63
X5.695Y-43.17
X5.695Y-45.71
X13.315Y-12.055
X15.855Y-12.055
X18.395Y-12.055
X3.155Y-27.93
X3.155Y-30.47
X3.155Y-33.01
X3.155Y-35.55
X3.155Y-38.09
X3.155Y-40.63
X3.155Y-43.17
X3.155Y-45.71
X30.46Y-24.755
X33.0Y-24.755
X35.54Y-24.755
X38.08Y-24.755
X13.315Y-47.615
X15.855Y-47.615
X18.395Y-47.615
X20.935Y-47.615
X23.475Y-47.615
X26.015Y-47.615
X28.555Y-47.615
X31.095Y-47.615
X33.635Y-47.615
X36.175Y-47.615
X27.16Y-12.185
X29.7Y-12.185
X31.73Y-12.185
X34.27Y-12.185
T5
X24.11Y-9.515
X37.83Y-9.515
T2
G00X4.545Y-4.585
M15
G01X4.545Y-4.985
M16
G05
G00X9.385Y-4.585
M15
G01X9.385Y-4.985
M16
G05
T3
G00X4.235Y-1.535
M15
G01X4.235Y-2.035
M16
G05
G00X9.695Y-1.535
M15
G01X9.695Y-2.035
M16
G05
T0
M30
