G04 #@! TF.GenerationSoftware,KiCad,Pcbnew,5.1.5*
G04 #@! TF.CreationDate,2020-02-24T18:37:19+03:00*
G04 #@! TF.ProjectId,max3421eboard,6d617833-3432-4316-9562-6f6172642e6b,rev?*
G04 #@! TF.SameCoordinates,PXf42400PY2bde780*
G04 #@! TF.FileFunction,Legend,Bot*
G04 #@! TF.FilePolarity,Positive*
%FSLAX46Y46*%
G04 Gerber Fmt 4.6, Leading zero omitted, Abs format (unit mm)*
G04 Created by KiCad (PCBNEW 5.1.5) date 2020-02-24 18:37:19*
%MOMM*%
%LPD*%
G04 APERTURE LIST*
%ADD10C,0.150000*%
%ADD11C,0.100000*%
%ADD12C,0.010000*%
G04 APERTURE END LIST*
D10*
X38715000Y-16754000D02*
X10140000Y-16754000D01*
X33381000Y-23231000D02*
X33381000Y-14976000D01*
X10140000Y-21326000D02*
X38715000Y-21326000D01*
X38715000Y-19040000D02*
X10140000Y-19040000D01*
D11*
G36*
X34397000Y-20564000D02*
G01*
X36937000Y-20564000D01*
X36937000Y-19802000D01*
X34397000Y-19802000D01*
X34397000Y-20564000D01*
G37*
X34397000Y-20564000D02*
X36937000Y-20564000D01*
X36937000Y-19802000D01*
X34397000Y-19802000D01*
X34397000Y-20564000D01*
G36*
X35921000Y-18278000D02*
G01*
X38461000Y-18278000D01*
X38461000Y-17516000D01*
X35921000Y-17516000D01*
X35921000Y-18278000D01*
G37*
X35921000Y-18278000D02*
X38461000Y-18278000D01*
X38461000Y-17516000D01*
X35921000Y-17516000D01*
X35921000Y-18278000D01*
D10*
X36657953Y-22469000D02*
G75*
G03X36657953Y-22469000I-228953J0D01*
G01*
X35667000Y-21707000D02*
X35667000Y-23231000D01*
X38715000Y-23231000D02*
X38715000Y-21707000D01*
X37191000Y-21707000D02*
X37191000Y-23231000D01*
X38181953Y-22469000D02*
G75*
G03X38181953Y-22469000I-228953J0D01*
G01*
X34143000Y-23231000D02*
X38715000Y-23231000D01*
X35133953Y-22469000D02*
G75*
G03X35133953Y-22469000I-228953J0D01*
G01*
X38715000Y-21707000D02*
X37191000Y-21707000D01*
X34143000Y-21707000D02*
X34143000Y-23231000D01*
X38715000Y-21707000D02*
X34143000Y-21707000D01*
X36657953Y-20183000D02*
G75*
G03X36657953Y-20183000I-228953J0D01*
G01*
X35667000Y-19421000D02*
X35667000Y-20945000D01*
X38715000Y-20945000D02*
X38715000Y-19421000D01*
X37191000Y-19421000D02*
X37191000Y-20945000D01*
X38181953Y-20183000D02*
G75*
G03X38181953Y-20183000I-228953J0D01*
G01*
X34143000Y-20945000D02*
X38715000Y-20945000D01*
X35133953Y-20183000D02*
G75*
G03X35133953Y-20183000I-228953J0D01*
G01*
X38715000Y-19421000D02*
X37191000Y-19421000D01*
X34143000Y-19421000D02*
X34143000Y-20945000D01*
X38715000Y-19421000D02*
X34143000Y-19421000D01*
X35133953Y-17897000D02*
G75*
G03X35133953Y-17897000I-228953J0D01*
G01*
X36657953Y-17897000D02*
G75*
G03X36657953Y-17897000I-228953J0D01*
G01*
X38181953Y-17897000D02*
G75*
G03X38181953Y-17897000I-228953J0D01*
G01*
X35667000Y-17135000D02*
X35667000Y-18659000D01*
X37191000Y-17135000D02*
X37191000Y-18659000D01*
X38715000Y-17135000D02*
X37191000Y-17135000D01*
X38715000Y-18659000D02*
X38715000Y-17135000D01*
X34143000Y-18659000D02*
X38715000Y-18659000D01*
X34143000Y-17135000D02*
X34143000Y-18659000D01*
X38715000Y-17135000D02*
X34143000Y-17135000D01*
D12*
G36*
X20960400Y-42997458D02*
G01*
X20836759Y-43251369D01*
X20713117Y-43505280D01*
X20893720Y-43505280D01*
X20936804Y-43446860D01*
X20955396Y-43421703D01*
X20983723Y-43383443D01*
X21019404Y-43335290D01*
X21060060Y-43280455D01*
X21103312Y-43222149D01*
X21125048Y-43192860D01*
X21270208Y-42997280D01*
X20960400Y-42997458D01*
G37*
X20960400Y-42997458D02*
X20836759Y-43251369D01*
X20713117Y-43505280D01*
X20893720Y-43505280D01*
X20936804Y-43446860D01*
X20955396Y-43421703D01*
X20983723Y-43383443D01*
X21019404Y-43335290D01*
X21060060Y-43280455D01*
X21103312Y-43222149D01*
X21125048Y-43192860D01*
X21270208Y-42997280D01*
X20960400Y-42997458D01*
G36*
X27525497Y-43051441D02*
G01*
X27542692Y-43075148D01*
X27569703Y-43112105D01*
X27604262Y-43159221D01*
X27644103Y-43213410D01*
X27686959Y-43271581D01*
X27711720Y-43305139D01*
X27859040Y-43504677D01*
X27947940Y-43504978D01*
X27987594Y-43504745D01*
X28018134Y-43503868D01*
X28034964Y-43502508D01*
X28036840Y-43501805D01*
X28032573Y-43492128D01*
X28020530Y-43466569D01*
X28001853Y-43427503D01*
X27977684Y-43377308D01*
X27949163Y-43318360D01*
X27917432Y-43253036D01*
X27914886Y-43247805D01*
X27792931Y-42997280D01*
X27486594Y-42997280D01*
X27525497Y-43051441D01*
G37*
X27525497Y-43051441D02*
X27542692Y-43075148D01*
X27569703Y-43112105D01*
X27604262Y-43159221D01*
X27644103Y-43213410D01*
X27686959Y-43271581D01*
X27711720Y-43305139D01*
X27859040Y-43504677D01*
X27947940Y-43504978D01*
X27987594Y-43504745D01*
X28018134Y-43503868D01*
X28034964Y-43502508D01*
X28036840Y-43501805D01*
X28032573Y-43492128D01*
X28020530Y-43466569D01*
X28001853Y-43427503D01*
X27977684Y-43377308D01*
X27949163Y-43318360D01*
X27917432Y-43253036D01*
X27914886Y-43247805D01*
X27792931Y-42997280D01*
X27486594Y-42997280D01*
X27525497Y-43051441D01*
G36*
X22935691Y-44072201D02*
G01*
X22875611Y-44093099D01*
X22819606Y-44131352D01*
X22810983Y-44139385D01*
X22768319Y-44193883D01*
X22743300Y-44255058D01*
X22735878Y-44319595D01*
X22746003Y-44384179D01*
X22773628Y-44445495D01*
X22816250Y-44497905D01*
X22870485Y-44536476D01*
X22932832Y-44558110D01*
X22999432Y-44562292D01*
X23066430Y-44548506D01*
X23097370Y-44535469D01*
X23155106Y-44496180D01*
X23197284Y-44444349D01*
X23222948Y-44381569D01*
X23231160Y-44313000D01*
X23222283Y-44245361D01*
X23197550Y-44186842D01*
X23159807Y-44138618D01*
X23111903Y-44101865D01*
X23056683Y-44077760D01*
X22996997Y-44067480D01*
X22935691Y-44072201D01*
G37*
X22935691Y-44072201D02*
X22875611Y-44093099D01*
X22819606Y-44131352D01*
X22810983Y-44139385D01*
X22768319Y-44193883D01*
X22743300Y-44255058D01*
X22735878Y-44319595D01*
X22746003Y-44384179D01*
X22773628Y-44445495D01*
X22816250Y-44497905D01*
X22870485Y-44536476D01*
X22932832Y-44558110D01*
X22999432Y-44562292D01*
X23066430Y-44548506D01*
X23097370Y-44535469D01*
X23155106Y-44496180D01*
X23197284Y-44444349D01*
X23222948Y-44381569D01*
X23231160Y-44313000D01*
X23222283Y-44245361D01*
X23197550Y-44186842D01*
X23159807Y-44138618D01*
X23111903Y-44101865D01*
X23056683Y-44077760D01*
X22996997Y-44067480D01*
X22935691Y-44072201D01*
G36*
X26369771Y-44072201D02*
G01*
X26309691Y-44093099D01*
X26253686Y-44131352D01*
X26245063Y-44139385D01*
X26202399Y-44193883D01*
X26177380Y-44255058D01*
X26169958Y-44319595D01*
X26180083Y-44384179D01*
X26207708Y-44445495D01*
X26250330Y-44497905D01*
X26304565Y-44536476D01*
X26366912Y-44558110D01*
X26433512Y-44562292D01*
X26500510Y-44548506D01*
X26531450Y-44535469D01*
X26589186Y-44496180D01*
X26631364Y-44444349D01*
X26657028Y-44381569D01*
X26665240Y-44313000D01*
X26656363Y-44245361D01*
X26631630Y-44186842D01*
X26593887Y-44138618D01*
X26545983Y-44101865D01*
X26490763Y-44077760D01*
X26431077Y-44067480D01*
X26369771Y-44072201D01*
G37*
X26369771Y-44072201D02*
X26309691Y-44093099D01*
X26253686Y-44131352D01*
X26245063Y-44139385D01*
X26202399Y-44193883D01*
X26177380Y-44255058D01*
X26169958Y-44319595D01*
X26180083Y-44384179D01*
X26207708Y-44445495D01*
X26250330Y-44497905D01*
X26304565Y-44536476D01*
X26366912Y-44558110D01*
X26433512Y-44562292D01*
X26500510Y-44548506D01*
X26531450Y-44535469D01*
X26589186Y-44496180D01*
X26631364Y-44444349D01*
X26657028Y-44381569D01*
X26665240Y-44313000D01*
X26656363Y-44245361D01*
X26631630Y-44186842D01*
X26593887Y-44138618D01*
X26545983Y-44101865D01*
X26490763Y-44077760D01*
X26431077Y-44067480D01*
X26369771Y-44072201D01*
G36*
X25124414Y-43770002D02*
G01*
X25080490Y-43771548D01*
X25048233Y-43773867D01*
X25031220Y-43776751D01*
X25029480Y-43778076D01*
X25036644Y-43788372D01*
X25055640Y-43807931D01*
X25082726Y-43832962D01*
X25089924Y-43839284D01*
X25152207Y-43900237D01*
X25215011Y-43973722D01*
X25272950Y-44052829D01*
X25320641Y-44130646D01*
X25328383Y-44145269D01*
X25384483Y-44273313D01*
X25421914Y-44403945D01*
X25441275Y-44540033D01*
X25443163Y-44684446D01*
X25442704Y-44694000D01*
X25431043Y-44808864D01*
X25408570Y-44907107D01*
X25375015Y-44989476D01*
X25330110Y-45056722D01*
X25301613Y-45086489D01*
X25250289Y-45126006D01*
X25196762Y-45149802D01*
X25135506Y-45159715D01*
X25082991Y-45159258D01*
X25004329Y-45147680D01*
X24939417Y-45122391D01*
X24885864Y-45082026D01*
X24841282Y-45025222D01*
X24837545Y-45019120D01*
X24832222Y-45009640D01*
X24827866Y-44999309D01*
X24824379Y-44986111D01*
X24821665Y-44968031D01*
X24819627Y-44943053D01*
X24818167Y-44909162D01*
X24817189Y-44864344D01*
X24816596Y-44806583D01*
X24816291Y-44733863D01*
X24816177Y-44644170D01*
X24816158Y-44574620D01*
X24816120Y-44165680D01*
X24592600Y-44165680D01*
X24592498Y-44993720D01*
X24554449Y-45043516D01*
X24517239Y-45083007D01*
X24472354Y-45117644D01*
X24460520Y-45124796D01*
X24432323Y-45139754D01*
X24408162Y-45149052D01*
X24381604Y-45154017D01*
X24346214Y-45155979D01*
X24308120Y-45156280D01*
X24260905Y-45155689D01*
X24227916Y-45153137D01*
X24203075Y-45147458D01*
X24180306Y-45137482D01*
X24164734Y-45128728D01*
X24101564Y-45080118D01*
X24050350Y-45015516D01*
X24011022Y-44934765D01*
X23983507Y-44837713D01*
X23967736Y-44724203D01*
X23965896Y-44698054D01*
X23966549Y-44559317D01*
X23984363Y-44421756D01*
X24018509Y-44289621D01*
X24068158Y-44167159D01*
X24070423Y-44162586D01*
X24115443Y-44080694D01*
X24165829Y-44006726D01*
X24226128Y-43934552D01*
X24284497Y-43874047D01*
X24319721Y-43838882D01*
X24349009Y-43808880D01*
X24369660Y-43786867D01*
X24378975Y-43775665D01*
X24379240Y-43774987D01*
X24369677Y-43773024D01*
X24343371Y-43771365D01*
X24303898Y-43770147D01*
X24254835Y-43769505D01*
X24232291Y-43769440D01*
X24085341Y-43769440D01*
X24033926Y-43831221D01*
X23932279Y-43966655D01*
X23850474Y-44104768D01*
X23788635Y-44245314D01*
X23746885Y-44388051D01*
X23742385Y-44409520D01*
X23733747Y-44470860D01*
X23728726Y-44545308D01*
X23727296Y-44626224D01*
X23729429Y-44706963D01*
X23735099Y-44780883D01*
X23744140Y-44840686D01*
X23776318Y-44957558D01*
X23820588Y-45061590D01*
X23876052Y-45151644D01*
X23941814Y-45226579D01*
X24016977Y-45285258D01*
X24100644Y-45326541D01*
X24135400Y-45337684D01*
X24239933Y-45357155D01*
X24340633Y-45357434D01*
X24436195Y-45338757D01*
X24525312Y-45301361D01*
X24595759Y-45254444D01*
X24625167Y-45228005D01*
X24655284Y-45196226D01*
X24680924Y-45165017D01*
X24696903Y-45140290D01*
X24697971Y-45137928D01*
X24707126Y-45135411D01*
X24724035Y-45150328D01*
X24724785Y-45151200D01*
X24784686Y-45216653D01*
X24839790Y-45266414D01*
X24893725Y-45303279D01*
X24950122Y-45330048D01*
X24962781Y-45334706D01*
X25028253Y-45351111D01*
X25102274Y-45359137D01*
X25174504Y-45357891D01*
X25198115Y-45354996D01*
X25289671Y-45333472D01*
X25369374Y-45298472D01*
X25442504Y-45247445D01*
X25468672Y-45224254D01*
X25535982Y-45147860D01*
X25591195Y-45057362D01*
X25634046Y-44955172D01*
X25664273Y-44843703D01*
X25681614Y-44725368D01*
X25685806Y-44602580D01*
X25676585Y-44477751D01*
X25653690Y-44353295D01*
X25616857Y-44231625D01*
X25585141Y-44154794D01*
X25553039Y-44092507D01*
X25510912Y-44021619D01*
X25462734Y-43948255D01*
X25412482Y-43878542D01*
X25376323Y-43832940D01*
X25323380Y-43769440D01*
X25176430Y-43769440D01*
X25124414Y-43770002D01*
G37*
X25124414Y-43770002D02*
X25080490Y-43771548D01*
X25048233Y-43773867D01*
X25031220Y-43776751D01*
X25029480Y-43778076D01*
X25036644Y-43788372D01*
X25055640Y-43807931D01*
X25082726Y-43832962D01*
X25089924Y-43839284D01*
X25152207Y-43900237D01*
X25215011Y-43973722D01*
X25272950Y-44052829D01*
X25320641Y-44130646D01*
X25328383Y-44145269D01*
X25384483Y-44273313D01*
X25421914Y-44403945D01*
X25441275Y-44540033D01*
X25443163Y-44684446D01*
X25442704Y-44694000D01*
X25431043Y-44808864D01*
X25408570Y-44907107D01*
X25375015Y-44989476D01*
X25330110Y-45056722D01*
X25301613Y-45086489D01*
X25250289Y-45126006D01*
X25196762Y-45149802D01*
X25135506Y-45159715D01*
X25082991Y-45159258D01*
X25004329Y-45147680D01*
X24939417Y-45122391D01*
X24885864Y-45082026D01*
X24841282Y-45025222D01*
X24837545Y-45019120D01*
X24832222Y-45009640D01*
X24827866Y-44999309D01*
X24824379Y-44986111D01*
X24821665Y-44968031D01*
X24819627Y-44943053D01*
X24818167Y-44909162D01*
X24817189Y-44864344D01*
X24816596Y-44806583D01*
X24816291Y-44733863D01*
X24816177Y-44644170D01*
X24816158Y-44574620D01*
X24816120Y-44165680D01*
X24592600Y-44165680D01*
X24592498Y-44993720D01*
X24554449Y-45043516D01*
X24517239Y-45083007D01*
X24472354Y-45117644D01*
X24460520Y-45124796D01*
X24432323Y-45139754D01*
X24408162Y-45149052D01*
X24381604Y-45154017D01*
X24346214Y-45155979D01*
X24308120Y-45156280D01*
X24260905Y-45155689D01*
X24227916Y-45153137D01*
X24203075Y-45147458D01*
X24180306Y-45137482D01*
X24164734Y-45128728D01*
X24101564Y-45080118D01*
X24050350Y-45015516D01*
X24011022Y-44934765D01*
X23983507Y-44837713D01*
X23967736Y-44724203D01*
X23965896Y-44698054D01*
X23966549Y-44559317D01*
X23984363Y-44421756D01*
X24018509Y-44289621D01*
X24068158Y-44167159D01*
X24070423Y-44162586D01*
X24115443Y-44080694D01*
X24165829Y-44006726D01*
X24226128Y-43934552D01*
X24284497Y-43874047D01*
X24319721Y-43838882D01*
X24349009Y-43808880D01*
X24369660Y-43786867D01*
X24378975Y-43775665D01*
X24379240Y-43774987D01*
X24369677Y-43773024D01*
X24343371Y-43771365D01*
X24303898Y-43770147D01*
X24254835Y-43769505D01*
X24232291Y-43769440D01*
X24085341Y-43769440D01*
X24033926Y-43831221D01*
X23932279Y-43966655D01*
X23850474Y-44104768D01*
X23788635Y-44245314D01*
X23746885Y-44388051D01*
X23742385Y-44409520D01*
X23733747Y-44470860D01*
X23728726Y-44545308D01*
X23727296Y-44626224D01*
X23729429Y-44706963D01*
X23735099Y-44780883D01*
X23744140Y-44840686D01*
X23776318Y-44957558D01*
X23820588Y-45061590D01*
X23876052Y-45151644D01*
X23941814Y-45226579D01*
X24016977Y-45285258D01*
X24100644Y-45326541D01*
X24135400Y-45337684D01*
X24239933Y-45357155D01*
X24340633Y-45357434D01*
X24436195Y-45338757D01*
X24525312Y-45301361D01*
X24595759Y-45254444D01*
X24625167Y-45228005D01*
X24655284Y-45196226D01*
X24680924Y-45165017D01*
X24696903Y-45140290D01*
X24697971Y-45137928D01*
X24707126Y-45135411D01*
X24724035Y-45150328D01*
X24724785Y-45151200D01*
X24784686Y-45216653D01*
X24839790Y-45266414D01*
X24893725Y-45303279D01*
X24950122Y-45330048D01*
X24962781Y-45334706D01*
X25028253Y-45351111D01*
X25102274Y-45359137D01*
X25174504Y-45357891D01*
X25198115Y-45354996D01*
X25289671Y-45333472D01*
X25369374Y-45298472D01*
X25442504Y-45247445D01*
X25468672Y-45224254D01*
X25535982Y-45147860D01*
X25591195Y-45057362D01*
X25634046Y-44955172D01*
X25664273Y-44843703D01*
X25681614Y-44725368D01*
X25685806Y-44602580D01*
X25676585Y-44477751D01*
X25653690Y-44353295D01*
X25616857Y-44231625D01*
X25585141Y-44154794D01*
X25553039Y-44092507D01*
X25510912Y-44021619D01*
X25462734Y-43948255D01*
X25412482Y-43878542D01*
X25376323Y-43832940D01*
X25323380Y-43769440D01*
X25176430Y-43769440D01*
X25124414Y-43770002D01*
G36*
X20107976Y-43161097D02*
G01*
X20059144Y-43161731D01*
X20038805Y-43162101D01*
X19894450Y-43164920D01*
X19844845Y-43225880D01*
X19792581Y-43294376D01*
X19736396Y-43375321D01*
X19680283Y-43462446D01*
X19628235Y-43549484D01*
X19584244Y-43630167D01*
X19573018Y-43652600D01*
X19495965Y-43832799D01*
X19437179Y-44018858D01*
X19396671Y-44209020D01*
X19374451Y-44401529D01*
X19370529Y-44594629D01*
X19384916Y-44786565D01*
X19417624Y-44975580D01*
X19468661Y-45159918D01*
X19538039Y-45337824D01*
X19562568Y-45389960D01*
X19605530Y-45471056D01*
X19658329Y-45560456D01*
X19716817Y-45651720D01*
X19776850Y-45738406D01*
X19834282Y-45814075D01*
X19840516Y-45821760D01*
X19894522Y-45887800D01*
X20045672Y-45890621D01*
X20196821Y-45893443D01*
X20149676Y-45851944D01*
X20109501Y-45812928D01*
X20062255Y-45761209D01*
X20011657Y-45701302D01*
X19961427Y-45637723D01*
X19915284Y-45574984D01*
X19886246Y-45532200D01*
X19790479Y-45366737D01*
X19713294Y-45195086D01*
X19654564Y-45018653D01*
X19614159Y-44838846D01*
X19591951Y-44657071D01*
X19587811Y-44474735D01*
X19601611Y-44293246D01*
X19633223Y-44114011D01*
X19682516Y-43938437D01*
X19749364Y-43767931D01*
X19833637Y-43603900D01*
X19935207Y-43447750D01*
X20053946Y-43300890D01*
X20094116Y-43257579D01*
X20127649Y-43222373D01*
X20155402Y-43192855D01*
X20174710Y-43171891D01*
X20182906Y-43162345D01*
X20183016Y-43162101D01*
X20173514Y-43161281D01*
X20147299Y-43160947D01*
X20107976Y-43161097D01*
G37*
X20107976Y-43161097D02*
X20059144Y-43161731D01*
X20038805Y-43162101D01*
X19894450Y-43164920D01*
X19844845Y-43225880D01*
X19792581Y-43294376D01*
X19736396Y-43375321D01*
X19680283Y-43462446D01*
X19628235Y-43549484D01*
X19584244Y-43630167D01*
X19573018Y-43652600D01*
X19495965Y-43832799D01*
X19437179Y-44018858D01*
X19396671Y-44209020D01*
X19374451Y-44401529D01*
X19370529Y-44594629D01*
X19384916Y-44786565D01*
X19417624Y-44975580D01*
X19468661Y-45159918D01*
X19538039Y-45337824D01*
X19562568Y-45389960D01*
X19605530Y-45471056D01*
X19658329Y-45560456D01*
X19716817Y-45651720D01*
X19776850Y-45738406D01*
X19834282Y-45814075D01*
X19840516Y-45821760D01*
X19894522Y-45887800D01*
X20045672Y-45890621D01*
X20196821Y-45893443D01*
X20149676Y-45851944D01*
X20109501Y-45812928D01*
X20062255Y-45761209D01*
X20011657Y-45701302D01*
X19961427Y-45637723D01*
X19915284Y-45574984D01*
X19886246Y-45532200D01*
X19790479Y-45366737D01*
X19713294Y-45195086D01*
X19654564Y-45018653D01*
X19614159Y-44838846D01*
X19591951Y-44657071D01*
X19587811Y-44474735D01*
X19601611Y-44293246D01*
X19633223Y-44114011D01*
X19682516Y-43938437D01*
X19749364Y-43767931D01*
X19833637Y-43603900D01*
X19935207Y-43447750D01*
X20053946Y-43300890D01*
X20094116Y-43257579D01*
X20127649Y-43222373D01*
X20155402Y-43192855D01*
X20174710Y-43171891D01*
X20182906Y-43162345D01*
X20183016Y-43162101D01*
X20173514Y-43161281D01*
X20147299Y-43160947D01*
X20107976Y-43161097D01*
G36*
X29365499Y-43238580D02*
G01*
X29469478Y-43351979D01*
X29562485Y-43475632D01*
X29646862Y-43612927D01*
X29712227Y-43740107D01*
X29786982Y-43919987D01*
X29841971Y-44103182D01*
X29877191Y-44288636D01*
X29892638Y-44475295D01*
X29888309Y-44662103D01*
X29864200Y-44848003D01*
X29820308Y-45031940D01*
X29756628Y-45212858D01*
X29717637Y-45301282D01*
X29635695Y-45458612D01*
X29545315Y-45599902D01*
X29444215Y-45728477D01*
X29369451Y-45809060D01*
X29286599Y-45892880D01*
X29580285Y-45892880D01*
X29635148Y-45824300D01*
X29753877Y-45665195D01*
X29853694Y-45507568D01*
X29935625Y-45348972D01*
X30000695Y-45186959D01*
X30049930Y-45019080D01*
X30084356Y-44842888D01*
X30100093Y-44714320D01*
X30108938Y-44515885D01*
X30097732Y-44318934D01*
X30066736Y-44124293D01*
X30016206Y-43932791D01*
X29946404Y-43745254D01*
X29857587Y-43562511D01*
X29750015Y-43385388D01*
X29634954Y-43228420D01*
X29580285Y-43159840D01*
X29286151Y-43159840D01*
X29365499Y-43238580D01*
G37*
X29365499Y-43238580D02*
X29469478Y-43351979D01*
X29562485Y-43475632D01*
X29646862Y-43612927D01*
X29712227Y-43740107D01*
X29786982Y-43919987D01*
X29841971Y-44103182D01*
X29877191Y-44288636D01*
X29892638Y-44475295D01*
X29888309Y-44662103D01*
X29864200Y-44848003D01*
X29820308Y-45031940D01*
X29756628Y-45212858D01*
X29717637Y-45301282D01*
X29635695Y-45458612D01*
X29545315Y-45599902D01*
X29444215Y-45728477D01*
X29369451Y-45809060D01*
X29286599Y-45892880D01*
X29580285Y-45892880D01*
X29635148Y-45824300D01*
X29753877Y-45665195D01*
X29853694Y-45507568D01*
X29935625Y-45348972D01*
X30000695Y-45186959D01*
X30049930Y-45019080D01*
X30084356Y-44842888D01*
X30100093Y-44714320D01*
X30108938Y-44515885D01*
X30097732Y-44318934D01*
X30066736Y-44124293D01*
X30016206Y-43932791D01*
X29946404Y-43745254D01*
X29857587Y-43562511D01*
X29750015Y-43385388D01*
X29634954Y-43228420D01*
X29580285Y-43159840D01*
X29286151Y-43159840D01*
X29365499Y-43238580D01*
D10*
X32712023Y-22873761D02*
X32569166Y-22921380D01*
X32331071Y-22921380D01*
X32235833Y-22873761D01*
X32188214Y-22826142D01*
X32140595Y-22730904D01*
X32140595Y-22635666D01*
X32188214Y-22540428D01*
X32235833Y-22492809D01*
X32331071Y-22445190D01*
X32521547Y-22397571D01*
X32616785Y-22349952D01*
X32664404Y-22302333D01*
X32712023Y-22207095D01*
X32712023Y-22111857D01*
X32664404Y-22016619D01*
X32616785Y-21969000D01*
X32521547Y-21921380D01*
X32283452Y-21921380D01*
X32140595Y-21969000D01*
X31331071Y-22873761D02*
X31426309Y-22921380D01*
X31616785Y-22921380D01*
X31712023Y-22873761D01*
X31759642Y-22778523D01*
X31759642Y-22397571D01*
X31712023Y-22302333D01*
X31616785Y-22254714D01*
X31426309Y-22254714D01*
X31331071Y-22302333D01*
X31283452Y-22397571D01*
X31283452Y-22492809D01*
X31759642Y-22588047D01*
X30712023Y-22921380D02*
X30807261Y-22873761D01*
X30854880Y-22778523D01*
X30854880Y-21921380D01*
X30473928Y-22254714D02*
X30092976Y-22254714D01*
X30331071Y-22921380D02*
X30331071Y-22064238D01*
X30283452Y-21969000D01*
X30188214Y-21921380D01*
X30092976Y-21921380D01*
X29759642Y-22540428D02*
X28997738Y-22540428D01*
X28521547Y-22254714D02*
X28521547Y-23254714D01*
X28521547Y-22302333D02*
X28426309Y-22254714D01*
X28235833Y-22254714D01*
X28140595Y-22302333D01*
X28092976Y-22349952D01*
X28045357Y-22445190D01*
X28045357Y-22730904D01*
X28092976Y-22826142D01*
X28140595Y-22873761D01*
X28235833Y-22921380D01*
X28426309Y-22921380D01*
X28521547Y-22873761D01*
X27473928Y-22921380D02*
X27569166Y-22873761D01*
X27616785Y-22826142D01*
X27664404Y-22730904D01*
X27664404Y-22445190D01*
X27616785Y-22349952D01*
X27569166Y-22302333D01*
X27473928Y-22254714D01*
X27331071Y-22254714D01*
X27235833Y-22302333D01*
X27188214Y-22349952D01*
X27140595Y-22445190D01*
X27140595Y-22730904D01*
X27188214Y-22826142D01*
X27235833Y-22873761D01*
X27331071Y-22921380D01*
X27473928Y-22921380D01*
X26807261Y-22254714D02*
X26616785Y-22921380D01*
X26426309Y-22445190D01*
X26235833Y-22921380D01*
X26045357Y-22254714D01*
X25283452Y-22873761D02*
X25378690Y-22921380D01*
X25569166Y-22921380D01*
X25664404Y-22873761D01*
X25712023Y-22778523D01*
X25712023Y-22397571D01*
X25664404Y-22302333D01*
X25569166Y-22254714D01*
X25378690Y-22254714D01*
X25283452Y-22302333D01*
X25235833Y-22397571D01*
X25235833Y-22492809D01*
X25712023Y-22588047D01*
X24807261Y-22921380D02*
X24807261Y-22254714D01*
X24807261Y-22445190D02*
X24759642Y-22349952D01*
X24712023Y-22302333D01*
X24616785Y-22254714D01*
X24521547Y-22254714D01*
X23807261Y-22873761D02*
X23902500Y-22921380D01*
X24092976Y-22921380D01*
X24188214Y-22873761D01*
X24235833Y-22778523D01*
X24235833Y-22397571D01*
X24188214Y-22302333D01*
X24092976Y-22254714D01*
X23902500Y-22254714D01*
X23807261Y-22302333D01*
X23759642Y-22397571D01*
X23759642Y-22492809D01*
X24235833Y-22588047D01*
X22902500Y-22921380D02*
X22902500Y-21921380D01*
X22902500Y-22873761D02*
X22997738Y-22921380D01*
X23188214Y-22921380D01*
X23283452Y-22873761D01*
X23331071Y-22826142D01*
X23378690Y-22730904D01*
X23378690Y-22445190D01*
X23331071Y-22349952D01*
X23283452Y-22302333D01*
X23188214Y-22254714D01*
X22997738Y-22254714D01*
X22902500Y-22302333D01*
X21235833Y-22921380D02*
X21235833Y-21921380D01*
X21235833Y-22873761D02*
X21331071Y-22921380D01*
X21521547Y-22921380D01*
X21616785Y-22873761D01*
X21664404Y-22826142D01*
X21712023Y-22730904D01*
X21712023Y-22445190D01*
X21664404Y-22349952D01*
X21616785Y-22302333D01*
X21521547Y-22254714D01*
X21331071Y-22254714D01*
X21235833Y-22302333D01*
X20378690Y-22873761D02*
X20473928Y-22921380D01*
X20664404Y-22921380D01*
X20759642Y-22873761D01*
X20807261Y-22778523D01*
X20807261Y-22397571D01*
X20759642Y-22302333D01*
X20664404Y-22254714D01*
X20473928Y-22254714D01*
X20378690Y-22302333D01*
X20331071Y-22397571D01*
X20331071Y-22492809D01*
X20807261Y-22588047D01*
X19997738Y-22254714D02*
X19759642Y-22921380D01*
X19521547Y-22254714D01*
X19140595Y-22921380D02*
X19140595Y-22254714D01*
X19140595Y-21921380D02*
X19188214Y-21969000D01*
X19140595Y-22016619D01*
X19092976Y-21969000D01*
X19140595Y-21921380D01*
X19140595Y-22016619D01*
X18235833Y-22873761D02*
X18331071Y-22921380D01*
X18521547Y-22921380D01*
X18616785Y-22873761D01*
X18664404Y-22826142D01*
X18712023Y-22730904D01*
X18712023Y-22445190D01*
X18664404Y-22349952D01*
X18616785Y-22302333D01*
X18521547Y-22254714D01*
X18331071Y-22254714D01*
X18235833Y-22302333D01*
X17426309Y-22873761D02*
X17521547Y-22921380D01*
X17712023Y-22921380D01*
X17807261Y-22873761D01*
X17854880Y-22778523D01*
X17854880Y-22397571D01*
X17807261Y-22302333D01*
X17712023Y-22254714D01*
X17521547Y-22254714D01*
X17426309Y-22302333D01*
X17378690Y-22397571D01*
X17378690Y-22492809D01*
X17854880Y-22588047D01*
X15902500Y-23302333D02*
X15950119Y-23254714D01*
X16045357Y-23111857D01*
X16092976Y-23016619D01*
X16140595Y-22873761D01*
X16188214Y-22635666D01*
X16188214Y-22445190D01*
X16140595Y-22207095D01*
X16092976Y-22064238D01*
X16045357Y-21969000D01*
X15950119Y-21826142D01*
X15902500Y-21778523D01*
X15521547Y-22921380D02*
X15521547Y-21921380D01*
X15188214Y-22635666D01*
X14854880Y-21921380D01*
X14854880Y-22921380D01*
X14378690Y-22921380D02*
X14378690Y-22254714D01*
X14378690Y-21921380D02*
X14426309Y-21969000D01*
X14378690Y-22016619D01*
X14331071Y-21969000D01*
X14378690Y-21921380D01*
X14378690Y-22016619D01*
X13473928Y-22873761D02*
X13569166Y-22921380D01*
X13759642Y-22921380D01*
X13854880Y-22873761D01*
X13902500Y-22826142D01*
X13950119Y-22730904D01*
X13950119Y-22445190D01*
X13902500Y-22349952D01*
X13854880Y-22302333D01*
X13759642Y-22254714D01*
X13569166Y-22254714D01*
X13473928Y-22302333D01*
X13045357Y-22921380D02*
X13045357Y-22254714D01*
X13045357Y-22445190D02*
X12997738Y-22349952D01*
X12950119Y-22302333D01*
X12854880Y-22254714D01*
X12759642Y-22254714D01*
X12283452Y-22921380D02*
X12378690Y-22873761D01*
X12426309Y-22826142D01*
X12473928Y-22730904D01*
X12473928Y-22445190D01*
X12426309Y-22349952D01*
X12378690Y-22302333D01*
X12283452Y-22254714D01*
X12140595Y-22254714D01*
X12045357Y-22302333D01*
X11997738Y-22349952D01*
X11950119Y-22445190D01*
X11950119Y-22730904D01*
X11997738Y-22826142D01*
X12045357Y-22873761D01*
X12140595Y-22921380D01*
X12283452Y-22921380D01*
X11188214Y-22397571D02*
X11045357Y-22445190D01*
X10997738Y-22492809D01*
X10950119Y-22588047D01*
X10950119Y-22730904D01*
X10997738Y-22826142D01*
X11045357Y-22873761D01*
X11140595Y-22921380D01*
X11521547Y-22921380D01*
X11521547Y-21921380D01*
X11188214Y-21921380D01*
X11092976Y-21969000D01*
X11045357Y-22016619D01*
X10997738Y-22111857D01*
X10997738Y-22207095D01*
X11045357Y-22302333D01*
X11092976Y-22349952D01*
X11188214Y-22397571D01*
X11521547Y-22397571D01*
X10616785Y-23302333D02*
X10569166Y-23254714D01*
X10473928Y-23111857D01*
X10426309Y-23016619D01*
X10378690Y-22873761D01*
X10331071Y-22635666D01*
X10331071Y-22445190D01*
X10378690Y-22207095D01*
X10426309Y-22064238D01*
X10473928Y-21969000D01*
X10569166Y-21826142D01*
X10616785Y-21778523D01*
X32664404Y-18349380D02*
X32664404Y-17349380D01*
X32664404Y-17825571D02*
X32092976Y-17825571D01*
X32092976Y-18349380D02*
X32092976Y-17349380D01*
X31473928Y-18349380D02*
X31569166Y-18301761D01*
X31616785Y-18254142D01*
X31664404Y-18158904D01*
X31664404Y-17873190D01*
X31616785Y-17777952D01*
X31569166Y-17730333D01*
X31473928Y-17682714D01*
X31331071Y-17682714D01*
X31235833Y-17730333D01*
X31188214Y-17777952D01*
X31140595Y-17873190D01*
X31140595Y-18158904D01*
X31188214Y-18254142D01*
X31235833Y-18301761D01*
X31331071Y-18349380D01*
X31473928Y-18349380D01*
X30759642Y-18301761D02*
X30664404Y-18349380D01*
X30473928Y-18349380D01*
X30378690Y-18301761D01*
X30331071Y-18206523D01*
X30331071Y-18158904D01*
X30378690Y-18063666D01*
X30473928Y-18016047D01*
X30616785Y-18016047D01*
X30712023Y-17968428D01*
X30759642Y-17873190D01*
X30759642Y-17825571D01*
X30712023Y-17730333D01*
X30616785Y-17682714D01*
X30473928Y-17682714D01*
X30378690Y-17730333D01*
X30045357Y-17682714D02*
X29664404Y-17682714D01*
X29902500Y-17349380D02*
X29902500Y-18206523D01*
X29854880Y-18301761D01*
X29759642Y-18349380D01*
X29664404Y-18349380D01*
X28616785Y-17301761D02*
X29473928Y-18587476D01*
X27854880Y-18349380D02*
X27854880Y-17349380D01*
X27854880Y-18301761D02*
X27950119Y-18349380D01*
X28140595Y-18349380D01*
X28235833Y-18301761D01*
X28283452Y-18254142D01*
X28331071Y-18158904D01*
X28331071Y-17873190D01*
X28283452Y-17777952D01*
X28235833Y-17730333D01*
X28140595Y-17682714D01*
X27950119Y-17682714D01*
X27854880Y-17730333D01*
X26997738Y-18301761D02*
X27092976Y-18349380D01*
X27283452Y-18349380D01*
X27378690Y-18301761D01*
X27426309Y-18206523D01*
X27426309Y-17825571D01*
X27378690Y-17730333D01*
X27283452Y-17682714D01*
X27092976Y-17682714D01*
X26997738Y-17730333D01*
X26950119Y-17825571D01*
X26950119Y-17920809D01*
X27426309Y-18016047D01*
X26616785Y-17682714D02*
X26378690Y-18349380D01*
X26140595Y-17682714D01*
X25759642Y-18349380D02*
X25759642Y-17682714D01*
X25759642Y-17349380D02*
X25807261Y-17397000D01*
X25759642Y-17444619D01*
X25712023Y-17397000D01*
X25759642Y-17349380D01*
X25759642Y-17444619D01*
X24854880Y-18301761D02*
X24950119Y-18349380D01*
X25140595Y-18349380D01*
X25235833Y-18301761D01*
X25283452Y-18254142D01*
X25331071Y-18158904D01*
X25331071Y-17873190D01*
X25283452Y-17777952D01*
X25235833Y-17730333D01*
X25140595Y-17682714D01*
X24950119Y-17682714D01*
X24854880Y-17730333D01*
X24045357Y-18301761D02*
X24140595Y-18349380D01*
X24331071Y-18349380D01*
X24426309Y-18301761D01*
X24473928Y-18206523D01*
X24473928Y-17825571D01*
X24426309Y-17730333D01*
X24331071Y-17682714D01*
X24140595Y-17682714D01*
X24045357Y-17730333D01*
X23997738Y-17825571D01*
X23997738Y-17920809D01*
X24473928Y-18016047D01*
X22521547Y-18730333D02*
X22569166Y-18682714D01*
X22664404Y-18539857D01*
X22712023Y-18444619D01*
X22759642Y-18301761D01*
X22807261Y-18063666D01*
X22807261Y-17873190D01*
X22759642Y-17635095D01*
X22712023Y-17492238D01*
X22664404Y-17397000D01*
X22569166Y-17254142D01*
X22521547Y-17206523D01*
X22140595Y-18349380D02*
X22140595Y-17349380D01*
X21807261Y-18063666D01*
X21473928Y-17349380D01*
X21473928Y-18349380D01*
X20997738Y-18349380D02*
X20997738Y-17682714D01*
X20997738Y-17349380D02*
X21045357Y-17397000D01*
X20997738Y-17444619D01*
X20950119Y-17397000D01*
X20997738Y-17349380D01*
X20997738Y-17444619D01*
X20092976Y-18301761D02*
X20188214Y-18349380D01*
X20378690Y-18349380D01*
X20473928Y-18301761D01*
X20521547Y-18254142D01*
X20569166Y-18158904D01*
X20569166Y-17873190D01*
X20521547Y-17777952D01*
X20473928Y-17730333D01*
X20378690Y-17682714D01*
X20188214Y-17682714D01*
X20092976Y-17730333D01*
X19664404Y-18349380D02*
X19664404Y-17682714D01*
X19664404Y-17873190D02*
X19616785Y-17777952D01*
X19569166Y-17730333D01*
X19473928Y-17682714D01*
X19378690Y-17682714D01*
X18902500Y-18349380D02*
X18997738Y-18301761D01*
X19045357Y-18254142D01*
X19092976Y-18158904D01*
X19092976Y-17873190D01*
X19045357Y-17777952D01*
X18997738Y-17730333D01*
X18902500Y-17682714D01*
X18759642Y-17682714D01*
X18664404Y-17730333D01*
X18616785Y-17777952D01*
X18569166Y-17873190D01*
X18569166Y-18158904D01*
X18616785Y-18254142D01*
X18664404Y-18301761D01*
X18759642Y-18349380D01*
X18902500Y-18349380D01*
X17807261Y-17825571D02*
X17664404Y-17873190D01*
X17616785Y-17920809D01*
X17569166Y-18016047D01*
X17569166Y-18158904D01*
X17616785Y-18254142D01*
X17664404Y-18301761D01*
X17759642Y-18349380D01*
X18140595Y-18349380D01*
X18140595Y-17349380D01*
X17807261Y-17349380D01*
X17712023Y-17397000D01*
X17664404Y-17444619D01*
X17616785Y-17539857D01*
X17616785Y-17635095D01*
X17664404Y-17730333D01*
X17712023Y-17777952D01*
X17807261Y-17825571D01*
X18140595Y-17825571D01*
X15950119Y-18349380D02*
X15950119Y-17825571D01*
X15997738Y-17730333D01*
X16092976Y-17682714D01*
X16283452Y-17682714D01*
X16378690Y-17730333D01*
X15950119Y-18301761D02*
X16045357Y-18349380D01*
X16283452Y-18349380D01*
X16378690Y-18301761D01*
X16426309Y-18206523D01*
X16426309Y-18111285D01*
X16378690Y-18016047D01*
X16283452Y-17968428D01*
X16045357Y-17968428D01*
X15950119Y-17920809D01*
X15473928Y-17682714D02*
X15473928Y-18349380D01*
X15473928Y-17777952D02*
X15426309Y-17730333D01*
X15331071Y-17682714D01*
X15188214Y-17682714D01*
X15092976Y-17730333D01*
X15045357Y-17825571D01*
X15045357Y-18349380D01*
X14140595Y-18349380D02*
X14140595Y-17349380D01*
X14140595Y-18301761D02*
X14235833Y-18349380D01*
X14426309Y-18349380D01*
X14521547Y-18301761D01*
X14569166Y-18254142D01*
X14616785Y-18158904D01*
X14616785Y-17873190D01*
X14569166Y-17777952D01*
X14521547Y-17730333D01*
X14426309Y-17682714D01*
X14235833Y-17682714D01*
X14140595Y-17730333D01*
X12950119Y-18063666D02*
X12473928Y-18063666D01*
X13045357Y-18349380D02*
X12712023Y-17349380D01*
X12378690Y-18349380D01*
X12140595Y-18730333D02*
X12092976Y-18682714D01*
X11997738Y-18539857D01*
X11950119Y-18444619D01*
X11902500Y-18301761D01*
X11854880Y-18063666D01*
X11854880Y-17873190D01*
X11902500Y-17635095D01*
X11950119Y-17492238D01*
X11997738Y-17397000D01*
X12092976Y-17254142D01*
X12140595Y-17206523D01*
X32331071Y-20111571D02*
X32188214Y-20159190D01*
X32140595Y-20206809D01*
X32092976Y-20302047D01*
X32092976Y-20444904D01*
X32140595Y-20540142D01*
X32188214Y-20587761D01*
X32283452Y-20635380D01*
X32664404Y-20635380D01*
X32664404Y-19635380D01*
X32331071Y-19635380D01*
X32235833Y-19683000D01*
X32188214Y-19730619D01*
X32140595Y-19825857D01*
X32140595Y-19921095D01*
X32188214Y-20016333D01*
X32235833Y-20063952D01*
X32331071Y-20111571D01*
X32664404Y-20111571D01*
X31235833Y-19968714D02*
X31235833Y-20635380D01*
X31664404Y-19968714D02*
X31664404Y-20492523D01*
X31616785Y-20587761D01*
X31521547Y-20635380D01*
X31378690Y-20635380D01*
X31283452Y-20587761D01*
X31235833Y-20540142D01*
X30807261Y-20587761D02*
X30712023Y-20635380D01*
X30521547Y-20635380D01*
X30426309Y-20587761D01*
X30378690Y-20492523D01*
X30378690Y-20444904D01*
X30426309Y-20349666D01*
X30521547Y-20302047D01*
X30664404Y-20302047D01*
X30759642Y-20254428D01*
X30807261Y-20159190D01*
X30807261Y-20111571D01*
X30759642Y-20016333D01*
X30664404Y-19968714D01*
X30521547Y-19968714D01*
X30426309Y-20016333D01*
X29950119Y-20254428D02*
X29188214Y-20254428D01*
X28712023Y-19968714D02*
X28712023Y-20968714D01*
X28712023Y-20016333D02*
X28616785Y-19968714D01*
X28426309Y-19968714D01*
X28331071Y-20016333D01*
X28283452Y-20063952D01*
X28235833Y-20159190D01*
X28235833Y-20444904D01*
X28283452Y-20540142D01*
X28331071Y-20587761D01*
X28426309Y-20635380D01*
X28616785Y-20635380D01*
X28712023Y-20587761D01*
X27664404Y-20635380D02*
X27759642Y-20587761D01*
X27807261Y-20540142D01*
X27854880Y-20444904D01*
X27854880Y-20159190D01*
X27807261Y-20063952D01*
X27759642Y-20016333D01*
X27664404Y-19968714D01*
X27521547Y-19968714D01*
X27426309Y-20016333D01*
X27378690Y-20063952D01*
X27331071Y-20159190D01*
X27331071Y-20444904D01*
X27378690Y-20540142D01*
X27426309Y-20587761D01*
X27521547Y-20635380D01*
X27664404Y-20635380D01*
X26997738Y-19968714D02*
X26807261Y-20635380D01*
X26616785Y-20159190D01*
X26426309Y-20635380D01*
X26235833Y-19968714D01*
X25473928Y-20587761D02*
X25569166Y-20635380D01*
X25759642Y-20635380D01*
X25854880Y-20587761D01*
X25902500Y-20492523D01*
X25902500Y-20111571D01*
X25854880Y-20016333D01*
X25759642Y-19968714D01*
X25569166Y-19968714D01*
X25473928Y-20016333D01*
X25426309Y-20111571D01*
X25426309Y-20206809D01*
X25902500Y-20302047D01*
X24997738Y-20635380D02*
X24997738Y-19968714D01*
X24997738Y-20159190D02*
X24950119Y-20063952D01*
X24902500Y-20016333D01*
X24807261Y-19968714D01*
X24712023Y-19968714D01*
X23997738Y-20587761D02*
X24092976Y-20635380D01*
X24283452Y-20635380D01*
X24378690Y-20587761D01*
X24426309Y-20492523D01*
X24426309Y-20111571D01*
X24378690Y-20016333D01*
X24283452Y-19968714D01*
X24092976Y-19968714D01*
X23997738Y-20016333D01*
X23950119Y-20111571D01*
X23950119Y-20206809D01*
X24426309Y-20302047D01*
X23092976Y-20635380D02*
X23092976Y-19635380D01*
X23092976Y-20587761D02*
X23188214Y-20635380D01*
X23378690Y-20635380D01*
X23473928Y-20587761D01*
X23521547Y-20540142D01*
X23569166Y-20444904D01*
X23569166Y-20159190D01*
X23521547Y-20063952D01*
X23473928Y-20016333D01*
X23378690Y-19968714D01*
X23188214Y-19968714D01*
X23092976Y-20016333D01*
X21426309Y-20635380D02*
X21426309Y-19635380D01*
X21426309Y-20587761D02*
X21521547Y-20635380D01*
X21712023Y-20635380D01*
X21807261Y-20587761D01*
X21854880Y-20540142D01*
X21902500Y-20444904D01*
X21902500Y-20159190D01*
X21854880Y-20063952D01*
X21807261Y-20016333D01*
X21712023Y-19968714D01*
X21521547Y-19968714D01*
X21426309Y-20016333D01*
X20569166Y-20587761D02*
X20664404Y-20635380D01*
X20854880Y-20635380D01*
X20950119Y-20587761D01*
X20997738Y-20492523D01*
X20997738Y-20111571D01*
X20950119Y-20016333D01*
X20854880Y-19968714D01*
X20664404Y-19968714D01*
X20569166Y-20016333D01*
X20521547Y-20111571D01*
X20521547Y-20206809D01*
X20997738Y-20302047D01*
X20188214Y-19968714D02*
X19950119Y-20635380D01*
X19712023Y-19968714D01*
X19331071Y-20635380D02*
X19331071Y-19968714D01*
X19331071Y-19635380D02*
X19378690Y-19683000D01*
X19331071Y-19730619D01*
X19283452Y-19683000D01*
X19331071Y-19635380D01*
X19331071Y-19730619D01*
X18426309Y-20587761D02*
X18521547Y-20635380D01*
X18712023Y-20635380D01*
X18807261Y-20587761D01*
X18854880Y-20540142D01*
X18902500Y-20444904D01*
X18902500Y-20159190D01*
X18854880Y-20063952D01*
X18807261Y-20016333D01*
X18712023Y-19968714D01*
X18521547Y-19968714D01*
X18426309Y-20016333D01*
X17616785Y-20587761D02*
X17712023Y-20635380D01*
X17902500Y-20635380D01*
X17997738Y-20587761D01*
X18045357Y-20492523D01*
X18045357Y-20111571D01*
X17997738Y-20016333D01*
X17902500Y-19968714D01*
X17712023Y-19968714D01*
X17616785Y-20016333D01*
X17569166Y-20111571D01*
X17569166Y-20206809D01*
X18045357Y-20302047D01*
X16092976Y-21016333D02*
X16140595Y-20968714D01*
X16235833Y-20825857D01*
X16283452Y-20730619D01*
X16331071Y-20587761D01*
X16378690Y-20349666D01*
X16378690Y-20159190D01*
X16331071Y-19921095D01*
X16283452Y-19778238D01*
X16235833Y-19683000D01*
X16140595Y-19540142D01*
X16092976Y-19492523D01*
X15712023Y-20635380D02*
X15712023Y-19635380D01*
X15378690Y-20349666D01*
X15045357Y-19635380D01*
X15045357Y-20635380D01*
X14569166Y-20635380D02*
X14569166Y-19968714D01*
X14569166Y-19635380D02*
X14616785Y-19683000D01*
X14569166Y-19730619D01*
X14521547Y-19683000D01*
X14569166Y-19635380D01*
X14569166Y-19730619D01*
X13664404Y-20587761D02*
X13759642Y-20635380D01*
X13950119Y-20635380D01*
X14045357Y-20587761D01*
X14092976Y-20540142D01*
X14140595Y-20444904D01*
X14140595Y-20159190D01*
X14092976Y-20063952D01*
X14045357Y-20016333D01*
X13950119Y-19968714D01*
X13759642Y-19968714D01*
X13664404Y-20016333D01*
X13235833Y-20635380D02*
X13235833Y-19968714D01*
X13235833Y-20159190D02*
X13188214Y-20063952D01*
X13140595Y-20016333D01*
X13045357Y-19968714D01*
X12950119Y-19968714D01*
X12473928Y-20635380D02*
X12569166Y-20587761D01*
X12616785Y-20540142D01*
X12664404Y-20444904D01*
X12664404Y-20159190D01*
X12616785Y-20063952D01*
X12569166Y-20016333D01*
X12473928Y-19968714D01*
X12331071Y-19968714D01*
X12235833Y-20016333D01*
X12188214Y-20063952D01*
X12140595Y-20159190D01*
X12140595Y-20444904D01*
X12188214Y-20540142D01*
X12235833Y-20587761D01*
X12331071Y-20635380D01*
X12473928Y-20635380D01*
X11378690Y-20111571D02*
X11235833Y-20159190D01*
X11188214Y-20206809D01*
X11140595Y-20302047D01*
X11140595Y-20444904D01*
X11188214Y-20540142D01*
X11235833Y-20587761D01*
X11331071Y-20635380D01*
X11712023Y-20635380D01*
X11712023Y-19635380D01*
X11378690Y-19635380D01*
X11283452Y-19683000D01*
X11235833Y-19730619D01*
X11188214Y-19825857D01*
X11188214Y-19921095D01*
X11235833Y-20016333D01*
X11283452Y-20063952D01*
X11378690Y-20111571D01*
X11712023Y-20111571D01*
X10807261Y-21016333D02*
X10759642Y-20968714D01*
X10664404Y-20825857D01*
X10616785Y-20730619D01*
X10569166Y-20587761D01*
X10521547Y-20349666D01*
X10521547Y-20159190D01*
X10569166Y-19921095D01*
X10616785Y-19778238D01*
X10664404Y-19683000D01*
X10759642Y-19540142D01*
X10807261Y-19492523D01*
X32664404Y-16063380D02*
X32664404Y-15063380D01*
X32283452Y-15063380D01*
X32188214Y-15111000D01*
X32140595Y-15158619D01*
X32092976Y-15253857D01*
X32092976Y-15396714D01*
X32140595Y-15491952D01*
X32188214Y-15539571D01*
X32283452Y-15587190D01*
X32664404Y-15587190D01*
X31759642Y-15063380D02*
X31521547Y-16063380D01*
X31331071Y-15349095D01*
X31140595Y-16063380D01*
X30902500Y-15063380D01*
X29950119Y-16063380D02*
X30283452Y-15587190D01*
X30521547Y-16063380D02*
X30521547Y-15063380D01*
X30140595Y-15063380D01*
X30045357Y-15111000D01*
X29997738Y-15158619D01*
X29950119Y-15253857D01*
X29950119Y-15396714D01*
X29997738Y-15491952D01*
X30045357Y-15539571D01*
X30140595Y-15587190D01*
X30521547Y-15587190D01*
X29759642Y-16158619D02*
X28997738Y-16158619D01*
X28759642Y-16063380D02*
X28759642Y-15063380D01*
X28426309Y-15777666D01*
X28092976Y-15063380D01*
X28092976Y-16063380D01*
X27426309Y-15063380D02*
X27235833Y-15063380D01*
X27140595Y-15111000D01*
X27045357Y-15206238D01*
X26997738Y-15396714D01*
X26997738Y-15730047D01*
X27045357Y-15920523D01*
X27140595Y-16015761D01*
X27235833Y-16063380D01*
X27426309Y-16063380D01*
X27521547Y-16015761D01*
X27616785Y-15920523D01*
X27664404Y-15730047D01*
X27664404Y-15396714D01*
X27616785Y-15206238D01*
X27521547Y-15111000D01*
X27426309Y-15063380D01*
X26569166Y-16063380D02*
X26569166Y-15063380D01*
X26331071Y-15063380D01*
X26188214Y-15111000D01*
X26092976Y-15206238D01*
X26045357Y-15301476D01*
X25997738Y-15491952D01*
X25997738Y-15634809D01*
X26045357Y-15825285D01*
X26092976Y-15920523D01*
X26188214Y-16015761D01*
X26331071Y-16063380D01*
X26569166Y-16063380D01*
X25569166Y-15539571D02*
X25235833Y-15539571D01*
X25092976Y-16063380D02*
X25569166Y-16063380D01*
X25569166Y-15063380D01*
X25092976Y-15063380D01*
X23616785Y-15063380D02*
X23616785Y-15777666D01*
X23664404Y-15920523D01*
X23759642Y-16015761D01*
X23902500Y-16063380D01*
X23997738Y-16063380D01*
X22712023Y-15063380D02*
X22902500Y-15063380D01*
X22997738Y-15111000D01*
X23045357Y-15158619D01*
X23140595Y-15301476D01*
X23188214Y-15491952D01*
X23188214Y-15872904D01*
X23140595Y-15968142D01*
X23092976Y-16015761D01*
X22997738Y-16063380D01*
X22807261Y-16063380D01*
X22712023Y-16015761D01*
X22664404Y-15968142D01*
X22616785Y-15872904D01*
X22616785Y-15634809D01*
X22664404Y-15539571D01*
X22712023Y-15491952D01*
X22807261Y-15444333D01*
X22997738Y-15444333D01*
X23092976Y-15491952D01*
X23140595Y-15539571D01*
X23188214Y-15634809D01*
X21426309Y-15063380D02*
X21426309Y-15872904D01*
X21378690Y-15968142D01*
X21331071Y-16015761D01*
X21235833Y-16063380D01*
X21045357Y-16063380D01*
X20950119Y-16015761D01*
X20902500Y-15968142D01*
X20854880Y-15872904D01*
X20854880Y-15063380D01*
X20426309Y-16015761D02*
X20331071Y-16063380D01*
X20140595Y-16063380D01*
X20045357Y-16015761D01*
X19997738Y-15920523D01*
X19997738Y-15872904D01*
X20045357Y-15777666D01*
X20140595Y-15730047D01*
X20283452Y-15730047D01*
X20378690Y-15682428D01*
X20426309Y-15587190D01*
X20426309Y-15539571D01*
X20378690Y-15444333D01*
X20283452Y-15396714D01*
X20140595Y-15396714D01*
X20045357Y-15444333D01*
X19140595Y-16063380D02*
X19140595Y-15539571D01*
X19188214Y-15444333D01*
X19283452Y-15396714D01*
X19473928Y-15396714D01*
X19569166Y-15444333D01*
X19140595Y-16015761D02*
X19235833Y-16063380D01*
X19473928Y-16063380D01*
X19569166Y-16015761D01*
X19616785Y-15920523D01*
X19616785Y-15825285D01*
X19569166Y-15730047D01*
X19473928Y-15682428D01*
X19235833Y-15682428D01*
X19140595Y-15634809D01*
X18235833Y-15396714D02*
X18235833Y-16206238D01*
X18283452Y-16301476D01*
X18331071Y-16349095D01*
X18426309Y-16396714D01*
X18569166Y-16396714D01*
X18664404Y-16349095D01*
X18235833Y-16015761D02*
X18331071Y-16063380D01*
X18521547Y-16063380D01*
X18616785Y-16015761D01*
X18664404Y-15968142D01*
X18712023Y-15872904D01*
X18712023Y-15587190D01*
X18664404Y-15491952D01*
X18616785Y-15444333D01*
X18521547Y-15396714D01*
X18331071Y-15396714D01*
X18235833Y-15444333D01*
X17378690Y-16015761D02*
X17473928Y-16063380D01*
X17664404Y-16063380D01*
X17759642Y-16015761D01*
X17807261Y-15920523D01*
X17807261Y-15539571D01*
X17759642Y-15444333D01*
X17664404Y-15396714D01*
X17473928Y-15396714D01*
X17378690Y-15444333D01*
X17331071Y-15539571D01*
X17331071Y-15634809D01*
X17807261Y-15730047D01*
X35238333Y-15063380D02*
X34619285Y-15063380D01*
X34952619Y-15444333D01*
X34809761Y-15444333D01*
X34714523Y-15491952D01*
X34666904Y-15539571D01*
X34619285Y-15634809D01*
X34619285Y-15872904D01*
X34666904Y-15968142D01*
X34714523Y-16015761D01*
X34809761Y-16063380D01*
X35095476Y-16063380D01*
X35190714Y-16015761D01*
X35238333Y-15968142D01*
X36714714Y-15158619D02*
X36667095Y-15111000D01*
X36571857Y-15063380D01*
X36333761Y-15063380D01*
X36238523Y-15111000D01*
X36190904Y-15158619D01*
X36143285Y-15253857D01*
X36143285Y-15349095D01*
X36190904Y-15491952D01*
X36762333Y-16063380D01*
X36143285Y-16063380D01*
X37667285Y-16063380D02*
X38238714Y-16063380D01*
X37953000Y-16063380D02*
X37953000Y-15063380D01*
X38048238Y-15206238D01*
X38143476Y-15301476D01*
X38238714Y-15349095D01*
M02*
