M48
; DRILL file {KiCad 5.1.5} date Пн 24 фев 2020 15:24:26
; FORMAT={-:-/ absolute / metric / decimal}
; #@! TF.CreationDate,2020-02-24T15:24:26+03:00
; #@! TF.GenerationSoftware,Kicad,Pcbnew,5.1.5
; #@! TF.FileFunction,Plated,1,2,PTH
FMAT,2
METRIC
T1C0.400
T2C0.650
T3C0.700
T4C1.000
T5C2.300
%
G90
G05
T1
X21.59Y-53.34
X23.495Y-66.04
X28.575Y-60.325
X28.575Y-63.5
X30.48Y-65.405
X31.115Y-72.39
X31.115Y-74.93
X31.115Y-77.47
X32.385Y-56.515
X32.385Y-62.865
X32.385Y-62.865
X32.385Y-85.725
X33.42Y-84.855
X34.2Y-86.45
X34.29Y-81.915
X35.491Y-87.561
X35.687Y-53.657
X36.195Y-62.865
X38.1Y-87.63
X38.227Y-73.66
X39.37Y-81.915
X40.64Y-78.74
X41.275Y-85.09
X41.402Y-76.2
X42.44Y-79.905
X42.545Y-85.725
X43.815Y-85.725
X45.085Y-69.85
X45.72Y-61.595
X46.355Y-73.66
X46.355Y-77.47
X49.53Y-74.93
X50.8Y-61.595
X52.07Y-87.122
X53.086Y-78.486
T4
X31.115Y-59.055
X33.655Y-59.055
X36.195Y-59.055
X23.495Y-74.93
X23.495Y-77.47
X23.495Y-80.01
X23.495Y-82.55
X23.495Y-85.09
X23.495Y-87.63
X23.495Y-90.17
X23.495Y-92.71
X31.115Y-94.615
X33.655Y-94.615
X36.195Y-94.615
X38.735Y-94.615
X41.275Y-94.615
X43.815Y-94.615
X46.355Y-94.615
X48.895Y-94.615
X51.435Y-94.615
X53.975Y-94.615
X20.955Y-74.93
X20.955Y-77.47
X20.955Y-80.01
X20.955Y-82.55
X20.955Y-85.09
X20.955Y-87.63
X20.955Y-90.17
X20.955Y-92.71
X44.96Y-59.185
X47.5Y-59.185
X49.53Y-59.185
X52.07Y-59.185
X48.26Y-71.755
X50.8Y-71.755
X53.34Y-71.755
X55.88Y-71.755
T5
X41.91Y-56.515
X55.63Y-56.515
T2
G00X22.345Y-51.585
M15
G01X22.345Y-51.985
M16
G05
G00X27.185Y-51.585
M15
G01X27.185Y-51.985
M16
G05
T3
G00X22.035Y-48.535
M15
G01X22.035Y-49.035
M16
G05
G00X27.495Y-48.535
M15
G01X27.495Y-49.035
M16
G05
T0
M30
