G04 #@! TF.GenerationSoftware,KiCad,Pcbnew,5.1.5*
G04 #@! TF.CreationDate,2020-02-24T15:24:22+03:00*
G04 #@! TF.ProjectId,max3421eboard,6d617833-3432-4316-9562-6f6172642e6b,rev?*
G04 #@! TF.SameCoordinates,Original*
G04 #@! TF.FileFunction,Copper,L1,Top*
G04 #@! TF.FilePolarity,Positive*
%FSLAX46Y46*%
G04 Gerber Fmt 4.6, Leading zero omitted, Abs format (unit mm)*
G04 Created by KiCad (PCBNEW 5.1.5) date 2020-02-24 15:24:22*
%MOMM*%
%LPD*%
G04 APERTURE LIST*
%ADD10C,0.100000*%
%ADD11R,1.250000X1.500000*%
%ADD12R,1.300000X1.500000*%
%ADD13C,1.500000*%
%ADD14C,3.000000*%
%ADD15R,1.500000X1.250000*%
%ADD16R,0.400000X1.650000*%
%ADD17O,1.100000X1.500000*%
%ADD18O,1.200000X1.700000*%
%ADD19R,1.430000X2.500000*%
%ADD20R,1.700000X1.700000*%
%ADD21O,1.700000X1.700000*%
%ADD22R,3.500000X2.400000*%
%ADD23R,0.650000X1.560000*%
%ADD24R,1.500000X1.300000*%
%ADD25R,1.060000X0.650000*%
%ADD26C,0.800000*%
%ADD27C,0.250000*%
%ADD28C,0.200000*%
G04 APERTURE END LIST*
D10*
G36*
X39112000Y-71582000D02*
G01*
X38612000Y-71582000D01*
X38612000Y-72182000D01*
X39112000Y-72182000D01*
X39112000Y-71582000D01*
G37*
D11*
X41275000Y-74910000D03*
X41275000Y-72410000D03*
G04 #@! TA.AperFunction,SMDPad,CuDef*
D10*
G36*
X37241998Y-79901477D02*
G01*
X36433775Y-79093254D01*
X36613380Y-78913649D01*
X37421603Y-79721872D01*
X37241998Y-79901477D01*
G37*
G04 #@! TD.AperFunction*
G04 #@! TA.AperFunction,SMDPad,CuDef*
G36*
X37595552Y-79547924D02*
G01*
X36787329Y-78739701D01*
X36966934Y-78560096D01*
X37775157Y-79368319D01*
X37595552Y-79547924D01*
G37*
G04 #@! TD.AperFunction*
G04 #@! TA.AperFunction,SMDPad,CuDef*
G36*
X37949105Y-79194370D02*
G01*
X37140882Y-78386147D01*
X37320487Y-78206542D01*
X38128710Y-79014765D01*
X37949105Y-79194370D01*
G37*
G04 #@! TD.AperFunction*
G04 #@! TA.AperFunction,SMDPad,CuDef*
G36*
X38302659Y-78840817D02*
G01*
X37494436Y-78032594D01*
X37674041Y-77852989D01*
X38482264Y-78661212D01*
X38302659Y-78840817D01*
G37*
G04 #@! TD.AperFunction*
G04 #@! TA.AperFunction,SMDPad,CuDef*
G36*
X38656212Y-78487264D02*
G01*
X37847989Y-77679041D01*
X38027594Y-77499436D01*
X38835817Y-78307659D01*
X38656212Y-78487264D01*
G37*
G04 #@! TD.AperFunction*
G04 #@! TA.AperFunction,SMDPad,CuDef*
G36*
X39009765Y-78133710D02*
G01*
X38201542Y-77325487D01*
X38381147Y-77145882D01*
X39189370Y-77954105D01*
X39009765Y-78133710D01*
G37*
G04 #@! TD.AperFunction*
G04 #@! TA.AperFunction,SMDPad,CuDef*
G36*
X39363319Y-77780157D02*
G01*
X38555096Y-76971934D01*
X38734701Y-76792329D01*
X39542924Y-77600552D01*
X39363319Y-77780157D01*
G37*
G04 #@! TD.AperFunction*
G04 #@! TA.AperFunction,SMDPad,CuDef*
G36*
X39716872Y-77426603D02*
G01*
X38908649Y-76618380D01*
X39088254Y-76438775D01*
X39896477Y-77246998D01*
X39716872Y-77426603D01*
G37*
G04 #@! TD.AperFunction*
G04 #@! TA.AperFunction,SMDPad,CuDef*
G36*
X41563128Y-77426603D02*
G01*
X41383523Y-77246998D01*
X42191746Y-76438775D01*
X42371351Y-76618380D01*
X41563128Y-77426603D01*
G37*
G04 #@! TD.AperFunction*
G04 #@! TA.AperFunction,SMDPad,CuDef*
G36*
X41916681Y-77780157D02*
G01*
X41737076Y-77600552D01*
X42545299Y-76792329D01*
X42724904Y-76971934D01*
X41916681Y-77780157D01*
G37*
G04 #@! TD.AperFunction*
G04 #@! TA.AperFunction,SMDPad,CuDef*
G36*
X42270235Y-78133710D02*
G01*
X42090630Y-77954105D01*
X42898853Y-77145882D01*
X43078458Y-77325487D01*
X42270235Y-78133710D01*
G37*
G04 #@! TD.AperFunction*
G04 #@! TA.AperFunction,SMDPad,CuDef*
G36*
X42623788Y-78487264D02*
G01*
X42444183Y-78307659D01*
X43252406Y-77499436D01*
X43432011Y-77679041D01*
X42623788Y-78487264D01*
G37*
G04 #@! TD.AperFunction*
G04 #@! TA.AperFunction,SMDPad,CuDef*
G36*
X42977341Y-78840817D02*
G01*
X42797736Y-78661212D01*
X43605959Y-77852989D01*
X43785564Y-78032594D01*
X42977341Y-78840817D01*
G37*
G04 #@! TD.AperFunction*
G04 #@! TA.AperFunction,SMDPad,CuDef*
G36*
X43330895Y-79194370D02*
G01*
X43151290Y-79014765D01*
X43959513Y-78206542D01*
X44139118Y-78386147D01*
X43330895Y-79194370D01*
G37*
G04 #@! TD.AperFunction*
G04 #@! TA.AperFunction,SMDPad,CuDef*
G36*
X43684448Y-79547924D02*
G01*
X43504843Y-79368319D01*
X44313066Y-78560096D01*
X44492671Y-78739701D01*
X43684448Y-79547924D01*
G37*
G04 #@! TD.AperFunction*
G04 #@! TA.AperFunction,SMDPad,CuDef*
G36*
X44038002Y-79901477D02*
G01*
X43858397Y-79721872D01*
X44666620Y-78913649D01*
X44846225Y-79093254D01*
X44038002Y-79901477D01*
G37*
G04 #@! TD.AperFunction*
G04 #@! TA.AperFunction,SMDPad,CuDef*
G36*
X44666620Y-82376351D02*
G01*
X43858397Y-81568128D01*
X44038002Y-81388523D01*
X44846225Y-82196746D01*
X44666620Y-82376351D01*
G37*
G04 #@! TD.AperFunction*
G04 #@! TA.AperFunction,SMDPad,CuDef*
G36*
X44313066Y-82729904D02*
G01*
X43504843Y-81921681D01*
X43684448Y-81742076D01*
X44492671Y-82550299D01*
X44313066Y-82729904D01*
G37*
G04 #@! TD.AperFunction*
G04 #@! TA.AperFunction,SMDPad,CuDef*
G36*
X43959513Y-83083458D02*
G01*
X43151290Y-82275235D01*
X43330895Y-82095630D01*
X44139118Y-82903853D01*
X43959513Y-83083458D01*
G37*
G04 #@! TD.AperFunction*
G04 #@! TA.AperFunction,SMDPad,CuDef*
G36*
X43605959Y-83437011D02*
G01*
X42797736Y-82628788D01*
X42977341Y-82449183D01*
X43785564Y-83257406D01*
X43605959Y-83437011D01*
G37*
G04 #@! TD.AperFunction*
G04 #@! TA.AperFunction,SMDPad,CuDef*
G36*
X43252406Y-83790564D02*
G01*
X42444183Y-82982341D01*
X42623788Y-82802736D01*
X43432011Y-83610959D01*
X43252406Y-83790564D01*
G37*
G04 #@! TD.AperFunction*
G04 #@! TA.AperFunction,SMDPad,CuDef*
G36*
X42898853Y-84144118D02*
G01*
X42090630Y-83335895D01*
X42270235Y-83156290D01*
X43078458Y-83964513D01*
X42898853Y-84144118D01*
G37*
G04 #@! TD.AperFunction*
G04 #@! TA.AperFunction,SMDPad,CuDef*
G36*
X42545299Y-84497671D02*
G01*
X41737076Y-83689448D01*
X41916681Y-83509843D01*
X42724904Y-84318066D01*
X42545299Y-84497671D01*
G37*
G04 #@! TD.AperFunction*
G04 #@! TA.AperFunction,SMDPad,CuDef*
G36*
X42191746Y-84851225D02*
G01*
X41383523Y-84043002D01*
X41563128Y-83863397D01*
X42371351Y-84671620D01*
X42191746Y-84851225D01*
G37*
G04 #@! TD.AperFunction*
G04 #@! TA.AperFunction,SMDPad,CuDef*
G36*
X39088254Y-84851225D02*
G01*
X38908649Y-84671620D01*
X39716872Y-83863397D01*
X39896477Y-84043002D01*
X39088254Y-84851225D01*
G37*
G04 #@! TD.AperFunction*
G04 #@! TA.AperFunction,SMDPad,CuDef*
G36*
X38734701Y-84497671D02*
G01*
X38555096Y-84318066D01*
X39363319Y-83509843D01*
X39542924Y-83689448D01*
X38734701Y-84497671D01*
G37*
G04 #@! TD.AperFunction*
G04 #@! TA.AperFunction,SMDPad,CuDef*
G36*
X38381147Y-84144118D02*
G01*
X38201542Y-83964513D01*
X39009765Y-83156290D01*
X39189370Y-83335895D01*
X38381147Y-84144118D01*
G37*
G04 #@! TD.AperFunction*
G04 #@! TA.AperFunction,SMDPad,CuDef*
G36*
X38027594Y-83790564D02*
G01*
X37847989Y-83610959D01*
X38656212Y-82802736D01*
X38835817Y-82982341D01*
X38027594Y-83790564D01*
G37*
G04 #@! TD.AperFunction*
G04 #@! TA.AperFunction,SMDPad,CuDef*
G36*
X37674041Y-83437011D02*
G01*
X37494436Y-83257406D01*
X38302659Y-82449183D01*
X38482264Y-82628788D01*
X37674041Y-83437011D01*
G37*
G04 #@! TD.AperFunction*
G04 #@! TA.AperFunction,SMDPad,CuDef*
G36*
X37320487Y-83083458D02*
G01*
X37140882Y-82903853D01*
X37949105Y-82095630D01*
X38128710Y-82275235D01*
X37320487Y-83083458D01*
G37*
G04 #@! TD.AperFunction*
G04 #@! TA.AperFunction,SMDPad,CuDef*
G36*
X36966934Y-82729904D02*
G01*
X36787329Y-82550299D01*
X37595552Y-81742076D01*
X37775157Y-81921681D01*
X36966934Y-82729904D01*
G37*
G04 #@! TD.AperFunction*
G04 #@! TA.AperFunction,SMDPad,CuDef*
G36*
X36613380Y-82376351D02*
G01*
X36433775Y-82196746D01*
X37241998Y-81388523D01*
X37421603Y-81568128D01*
X36613380Y-82376351D01*
G37*
G04 #@! TD.AperFunction*
D12*
X37465000Y-54610000D03*
X37465000Y-51910000D03*
D13*
X44960000Y-59185000D03*
X47500000Y-59185000D03*
X49530000Y-59185000D03*
X52070000Y-59185000D03*
D14*
X41910000Y-56515000D03*
X55630000Y-56515000D03*
D11*
X43180000Y-74910000D03*
X43180000Y-72410000D03*
D15*
X49550000Y-85852000D03*
X52050000Y-85852000D03*
D11*
X45085000Y-73660000D03*
X45085000Y-71160000D03*
D16*
X26065000Y-51665000D03*
X25415000Y-51665000D03*
X24765000Y-51665000D03*
X24115000Y-51665000D03*
X23465000Y-51665000D03*
D17*
X27185000Y-51785000D03*
X22345000Y-51785000D03*
D18*
X27495000Y-48785000D03*
X22035000Y-48785000D03*
D19*
X25725000Y-48545000D03*
X23805000Y-48545000D03*
D20*
X55880000Y-71755000D03*
D21*
X53340000Y-71755000D03*
X50800000Y-71755000D03*
X48260000Y-71755000D03*
D12*
X47625000Y-64770000D03*
X47625000Y-67470000D03*
D22*
X33080000Y-68580000D03*
X27880000Y-68580000D03*
D12*
X50800000Y-64770000D03*
X50800000Y-67470000D03*
D20*
X23495000Y-74930000D03*
D21*
X23495000Y-77470000D03*
X23495000Y-80010000D03*
X23495000Y-82550000D03*
X23495000Y-85090000D03*
X23495000Y-87630000D03*
X23495000Y-90170000D03*
X23495000Y-92710000D03*
D23*
X49215000Y-83265000D03*
X50165000Y-83265000D03*
X51115000Y-83265000D03*
X51115000Y-80565000D03*
X49215000Y-80565000D03*
D24*
X29370000Y-77470000D03*
X26670000Y-77470000D03*
X26670000Y-72390000D03*
X29370000Y-72390000D03*
X42545000Y-87630000D03*
X39845000Y-87630000D03*
X29370000Y-74930000D03*
X26670000Y-74930000D03*
D12*
X26670000Y-55245000D03*
X26670000Y-57945000D03*
X23495000Y-55245000D03*
X23495000Y-57945000D03*
G04 #@! TA.AperFunction,SMDPad,CuDef*
D10*
G36*
X38712000Y-72632000D02*
G01*
X38212000Y-72632000D01*
X38212000Y-72631398D01*
X38187466Y-72631398D01*
X38138635Y-72626588D01*
X38090510Y-72617016D01*
X38043555Y-72602772D01*
X37998222Y-72583995D01*
X37954949Y-72560864D01*
X37914150Y-72533604D01*
X37876221Y-72502476D01*
X37841524Y-72467779D01*
X37810396Y-72429850D01*
X37783136Y-72389051D01*
X37760005Y-72345778D01*
X37741228Y-72300445D01*
X37726984Y-72253490D01*
X37717412Y-72205365D01*
X37712602Y-72156534D01*
X37712602Y-72132000D01*
X37712000Y-72132000D01*
X37712000Y-71632000D01*
X37712602Y-71632000D01*
X37712602Y-71607466D01*
X37717412Y-71558635D01*
X37726984Y-71510510D01*
X37741228Y-71463555D01*
X37760005Y-71418222D01*
X37783136Y-71374949D01*
X37810396Y-71334150D01*
X37841524Y-71296221D01*
X37876221Y-71261524D01*
X37914150Y-71230396D01*
X37954949Y-71203136D01*
X37998222Y-71180005D01*
X38043555Y-71161228D01*
X38090510Y-71146984D01*
X38138635Y-71137412D01*
X38187466Y-71132602D01*
X38212000Y-71132602D01*
X38212000Y-71132000D01*
X38712000Y-71132000D01*
X38712000Y-72632000D01*
G37*
G04 #@! TD.AperFunction*
G04 #@! TA.AperFunction,SMDPad,CuDef*
G36*
X39512000Y-71132602D02*
G01*
X39536534Y-71132602D01*
X39585365Y-71137412D01*
X39633490Y-71146984D01*
X39680445Y-71161228D01*
X39725778Y-71180005D01*
X39769051Y-71203136D01*
X39809850Y-71230396D01*
X39847779Y-71261524D01*
X39882476Y-71296221D01*
X39913604Y-71334150D01*
X39940864Y-71374949D01*
X39963995Y-71418222D01*
X39982772Y-71463555D01*
X39997016Y-71510510D01*
X40006588Y-71558635D01*
X40011398Y-71607466D01*
X40011398Y-71632000D01*
X40012000Y-71632000D01*
X40012000Y-72132000D01*
X40011398Y-72132000D01*
X40011398Y-72156534D01*
X40006588Y-72205365D01*
X39997016Y-72253490D01*
X39982772Y-72300445D01*
X39963995Y-72345778D01*
X39940864Y-72389051D01*
X39913604Y-72429850D01*
X39882476Y-72467779D01*
X39847779Y-72502476D01*
X39809850Y-72533604D01*
X39769051Y-72560864D01*
X39725778Y-72583995D01*
X39680445Y-72602772D01*
X39633490Y-72617016D01*
X39585365Y-72626588D01*
X39536534Y-72631398D01*
X39512000Y-72631398D01*
X39512000Y-72632000D01*
X39012000Y-72632000D01*
X39012000Y-71132000D01*
X39512000Y-71132000D01*
X39512000Y-71132602D01*
G37*
G04 #@! TD.AperFunction*
D15*
X35560000Y-83185000D03*
X33060000Y-83185000D03*
X49042000Y-78486000D03*
X51542000Y-78486000D03*
D11*
X53086000Y-80538000D03*
X53086000Y-83038000D03*
D15*
X34250000Y-65405000D03*
X31750000Y-65405000D03*
X29170000Y-65405000D03*
X26670000Y-65405000D03*
D20*
X31115000Y-59055000D03*
D21*
X33655000Y-59055000D03*
X36195000Y-59055000D03*
D25*
X34417000Y-54610000D03*
X34417000Y-53660000D03*
X34417000Y-52710000D03*
X32217000Y-52710000D03*
X32217000Y-54610000D03*
D20*
X31115000Y-94615000D03*
D21*
X33655000Y-94615000D03*
X36195000Y-94615000D03*
X38735000Y-94615000D03*
X41275000Y-94615000D03*
X43815000Y-94615000D03*
X46355000Y-94615000D03*
X48895000Y-94615000D03*
X51435000Y-94615000D03*
X53975000Y-94615000D03*
D20*
X20955000Y-74930000D03*
D21*
X20955000Y-77470000D03*
X20955000Y-80010000D03*
X20955000Y-82550000D03*
X20955000Y-85090000D03*
X20955000Y-87630000D03*
X20955000Y-90170000D03*
X20955000Y-92710000D03*
D26*
X30480000Y-65405000D03*
X21590000Y-53340000D03*
X45085000Y-69850000D03*
X35687000Y-53657500D03*
X42440330Y-79905330D03*
X39370000Y-81915000D03*
X34290000Y-81915000D03*
X53086000Y-78486000D03*
X52070000Y-87122000D03*
X50800000Y-61595000D03*
X45720000Y-61595000D03*
X46355000Y-77470000D03*
X41402000Y-76200000D03*
X43815000Y-85725000D03*
X42545000Y-85725000D03*
X41275000Y-85090000D03*
X38100000Y-87630000D03*
X35491384Y-87561384D03*
X34199999Y-86450001D03*
X32385000Y-85725000D03*
X23495000Y-66040000D03*
X32385000Y-62865000D03*
X32385000Y-56515000D03*
X32385000Y-62865000D03*
X28575000Y-60325000D03*
X33420001Y-84855001D03*
X28575000Y-63500000D03*
X31115000Y-77470000D03*
X31115000Y-74930000D03*
X31115000Y-72390000D03*
X40640000Y-78740000D03*
X38227000Y-73660000D03*
X36195000Y-62865000D03*
X49530000Y-74930000D03*
X46355000Y-73660000D03*
D27*
X23465000Y-51515000D02*
X23465000Y-51465000D01*
X23465000Y-51465000D02*
X23415000Y-51515000D01*
X29170000Y-65405000D02*
X30480000Y-65405000D01*
X30480000Y-65405000D02*
X31750000Y-65405000D01*
X30480000Y-65405000D02*
X30480000Y-65278000D01*
X25965000Y-48785000D02*
X25725000Y-48545000D01*
X23780000Y-48545000D02*
X23540000Y-48785000D01*
X23805000Y-48545000D02*
X23780000Y-48545000D01*
X23465000Y-48885000D02*
X23805000Y-48545000D01*
X23465000Y-51665000D02*
X23495000Y-51435000D01*
X23465000Y-51465000D02*
X23495000Y-51435000D01*
X23465000Y-51665000D02*
X23465000Y-51465000D01*
X22275000Y-48545000D02*
X22035000Y-48785000D01*
X23805000Y-48545000D02*
X22275000Y-48545000D01*
X27255000Y-48545000D02*
X27495000Y-48785000D01*
X25725000Y-48545000D02*
X27255000Y-48545000D01*
X22860000Y-53340000D02*
X21590000Y-53340000D01*
X23465000Y-51665000D02*
X23465000Y-52735000D01*
X23465000Y-52735000D02*
X22860000Y-53340000D01*
X45085000Y-71080000D02*
X45085000Y-70955000D01*
X45085000Y-71080000D02*
X45085000Y-71120000D01*
X45065000Y-70485000D02*
X45085000Y-70505000D01*
X35684500Y-53660000D02*
X35687000Y-53657500D01*
X34417000Y-53660000D02*
X35684500Y-53660000D01*
X45085000Y-69850000D02*
X45085000Y-71160000D01*
X38241473Y-81915000D02*
X39370000Y-81915000D01*
X37566929Y-82589544D02*
X38241473Y-81915000D01*
X42440330Y-79905330D02*
X43645204Y-78700456D01*
X34060000Y-83185000D02*
X34290000Y-82955000D01*
X33060000Y-83185000D02*
X34060000Y-83185000D01*
X34290000Y-82955000D02*
X34290000Y-81915000D01*
X52050000Y-84856000D02*
X52050000Y-85852000D01*
X53086000Y-83038000D02*
X53086000Y-83820000D01*
X53086000Y-83820000D02*
X52050000Y-84856000D01*
X51542000Y-78486000D02*
X53086000Y-78486000D01*
X43180000Y-72410000D02*
X41275000Y-72410000D01*
X43180000Y-72410000D02*
X43180000Y-71501000D01*
X43521000Y-71160000D02*
X45085000Y-71160000D01*
X43180000Y-71501000D02*
X43521000Y-71160000D01*
X52070000Y-87122000D02*
X52050000Y-87102000D01*
X52050000Y-87102000D02*
X52050000Y-85852000D01*
X50419000Y-84455000D02*
X50165000Y-84201000D01*
X51689000Y-84455000D02*
X50419000Y-84455000D01*
X50165000Y-84201000D02*
X50165000Y-83265000D01*
X52050000Y-84856000D02*
X52050000Y-84816000D01*
X52050000Y-84816000D02*
X51689000Y-84455000D01*
X51142000Y-80538000D02*
X51115000Y-80565000D01*
X53086000Y-80538000D02*
X51142000Y-80538000D01*
X50800000Y-61595000D02*
X50800000Y-61595000D01*
X44450000Y-61595000D02*
X45720000Y-61595000D01*
X43085001Y-60230001D02*
X44450000Y-61595000D01*
X33655000Y-59055000D02*
X34830001Y-60230001D01*
X34830001Y-60230001D02*
X43085001Y-60230001D01*
X53340000Y-93980000D02*
X53975000Y-94615000D01*
X53975000Y-93412919D02*
X53975000Y-94615000D01*
X49215000Y-85517000D02*
X49550000Y-85852000D01*
X49215000Y-83265000D02*
X49215000Y-85517000D01*
X49215000Y-83265000D02*
X49215000Y-82357000D01*
X49215000Y-82357000D02*
X49530000Y-82042000D01*
X49530000Y-82042000D02*
X50800000Y-82042000D01*
X51115000Y-82357000D02*
X51115000Y-83265000D01*
X50800000Y-82042000D02*
X51115000Y-82357000D01*
X53975000Y-92075000D02*
X53975000Y-93412919D01*
X49550000Y-85852000D02*
X49550000Y-87650000D01*
X49550000Y-87650000D02*
X50546000Y-88646000D01*
X50546000Y-88646000D02*
X53975000Y-92075000D01*
X53848000Y-87630000D02*
X52832000Y-88646000D01*
X55880000Y-61595000D02*
X57150000Y-62865000D01*
X50800000Y-61595000D02*
X55880000Y-61595000D01*
X57150000Y-82042000D02*
X53848000Y-85344000D01*
X52832000Y-88646000D02*
X50546000Y-88646000D01*
X57150000Y-62865000D02*
X57150000Y-82042000D01*
X53848000Y-85344000D02*
X53848000Y-87630000D01*
D28*
X49530000Y-63500000D02*
X50800000Y-64770000D01*
X49530000Y-59185000D02*
X49530000Y-63500000D01*
D27*
X47500000Y-64645000D02*
X47625000Y-64770000D01*
D28*
X47500000Y-60245660D02*
X46990000Y-60755660D01*
X46990000Y-62865000D02*
X47625000Y-63500000D01*
X47625000Y-63500000D02*
X47625000Y-64770000D01*
X46990000Y-60755660D02*
X46990000Y-62865000D01*
X47500000Y-59185000D02*
X47500000Y-60245660D01*
X24395000Y-55245000D02*
X23495000Y-55245000D01*
X24765000Y-54875000D02*
X24395000Y-55245000D01*
X24765000Y-51515000D02*
X24765000Y-54875000D01*
X25770000Y-55245000D02*
X26670000Y-55245000D01*
X25415000Y-54890000D02*
X25770000Y-55245000D01*
X25415000Y-51515000D02*
X25415000Y-54890000D01*
D27*
X42230990Y-77286243D02*
X42298857Y-77286243D01*
X43180000Y-76337233D02*
X42230990Y-77286243D01*
X43180000Y-75565000D02*
X43180000Y-76337233D01*
X46355000Y-77470000D02*
X46355000Y-77470000D01*
X48260000Y-91440000D02*
X51435000Y-94615000D01*
X48260000Y-81915000D02*
X48260000Y-91440000D01*
X49215000Y-80565000D02*
X49215000Y-80960000D01*
X49215000Y-80960000D02*
X48260000Y-81915000D01*
X49215000Y-78659000D02*
X49042000Y-78486000D01*
X49215000Y-80565000D02*
X49215000Y-78659000D01*
X47371000Y-78486000D02*
X46355000Y-77470000D01*
X49042000Y-78486000D02*
X47371000Y-78486000D01*
X43180000Y-74910000D02*
X41275000Y-74910000D01*
X41275000Y-74910000D02*
X41275000Y-74930000D01*
X41402000Y-75057000D02*
X41402000Y-76200000D01*
X41275000Y-74930000D02*
X41402000Y-75057000D01*
X40239000Y-74910000D02*
X41275000Y-74910000D01*
X39512000Y-71882000D02*
X39512000Y-74183000D01*
X39512000Y-74183000D02*
X40239000Y-74910000D01*
X45171235Y-78958629D02*
X45171235Y-81193765D01*
X44801245Y-78588639D02*
X45171235Y-78958629D01*
X43998757Y-79054010D02*
X44464128Y-78588639D01*
X44464128Y-78588639D02*
X44801245Y-78588639D01*
X46990000Y-83067701D02*
X47655008Y-83732709D01*
X45171235Y-81193765D02*
X46990000Y-83012530D01*
X46990000Y-83012530D02*
X46990000Y-83067701D01*
X47655008Y-93375008D02*
X48895000Y-94615000D01*
X47655008Y-83732709D02*
X47655008Y-93375008D01*
X47204999Y-93765001D02*
X46355000Y-94615000D01*
X47204999Y-83919110D02*
X47204999Y-93765001D01*
X44352311Y-81066422D02*
X47204999Y-83919110D01*
X44352311Y-79407563D02*
X44352311Y-81066422D01*
X44664999Y-93765001D02*
X43815000Y-94615000D01*
X44531916Y-81882437D02*
X46620035Y-83970556D01*
X46620035Y-83970556D02*
X46620035Y-91809965D01*
X44352311Y-81882437D02*
X44531916Y-81882437D01*
X46620035Y-91809965D02*
X44664999Y-93765001D01*
X46170026Y-84475127D02*
X46170026Y-89719974D01*
X42124999Y-93765001D02*
X41275000Y-94615000D01*
X46170026Y-89719974D02*
X42124999Y-93765001D01*
X43998757Y-82303857D02*
X46170026Y-84475127D01*
X43998757Y-82235990D02*
X43998757Y-82303857D01*
X45720000Y-87632820D02*
X39587819Y-93765001D01*
X39584999Y-93765001D02*
X38735000Y-94615000D01*
X45720000Y-84732207D02*
X45720000Y-87632820D01*
X43645204Y-82657411D02*
X45720000Y-84732207D01*
X43645204Y-82589544D02*
X43645204Y-82657411D01*
X39587819Y-93765001D02*
X39584999Y-93765001D01*
X43291650Y-82943097D02*
X43291650Y-83010963D01*
X44990011Y-87726399D02*
X43816410Y-88900000D01*
X43291650Y-83010963D02*
X44990010Y-84709323D01*
X44990010Y-84709323D02*
X44990011Y-87726399D01*
X41910000Y-88900000D02*
X36195000Y-94615000D01*
X43816410Y-88900000D02*
X41910000Y-88900000D01*
X37587165Y-77238612D02*
X33864336Y-77238612D01*
X38341903Y-77993350D02*
X37587165Y-77238612D01*
X31092948Y-80010000D02*
X23495000Y-80010000D01*
X33864336Y-77238612D02*
X31092948Y-80010000D01*
X37330068Y-77688621D02*
X34050737Y-77688621D01*
X37988350Y-78346903D02*
X37330068Y-77688621D01*
X29189358Y-82550000D02*
X23495000Y-82550000D01*
X34050737Y-77688621D02*
X29189358Y-82550000D01*
X37072970Y-78138630D02*
X34237138Y-78138630D01*
X37634796Y-78700456D02*
X37072970Y-78138630D01*
X27285768Y-85090000D02*
X23495000Y-85090000D01*
X34237138Y-78138630D02*
X27285768Y-85090000D01*
X23495000Y-87630000D02*
X24697081Y-87630000D01*
X25400000Y-87630000D02*
X23495000Y-87630000D01*
X37281243Y-79054010D02*
X36815872Y-78588639D01*
X34423539Y-78588639D02*
X25382178Y-87630000D01*
X36815872Y-78588639D02*
X34423539Y-78588639D01*
X25382178Y-87630000D02*
X24765000Y-87630000D01*
X24130000Y-90170000D02*
X23495000Y-90170000D01*
X30664991Y-82983597D02*
X32368588Y-81280000D01*
X36927689Y-79407563D02*
X34241025Y-79407563D01*
X34241025Y-79407563D02*
X32059294Y-81589294D01*
X30664991Y-83001419D02*
X24131410Y-89535000D01*
X30664991Y-82983597D02*
X30664991Y-83001419D01*
X24130000Y-89535000D02*
X23495000Y-90170000D01*
X24131410Y-89535000D02*
X24130000Y-89535000D01*
X33094999Y-81189999D02*
X31115000Y-83169998D01*
X36235251Y-81189999D02*
X33094999Y-81189999D01*
X36927689Y-81882437D02*
X36235251Y-81189999D01*
X25400000Y-90805000D02*
X23495000Y-92710000D01*
X25400000Y-89535000D02*
X25400000Y-90805000D01*
X31115000Y-83169998D02*
X31115000Y-83187820D01*
X31115000Y-83187820D02*
X25400000Y-88902820D01*
X25400000Y-88902820D02*
X25400000Y-89535000D01*
X43815000Y-84880660D02*
X43815000Y-85725000D01*
X42584544Y-83650204D02*
X43815000Y-84880660D01*
X42696361Y-84469128D02*
X42696361Y-85573639D01*
X42230990Y-84003757D02*
X42696361Y-84469128D01*
X42696361Y-85573639D02*
X42545000Y-85725000D01*
X42545000Y-85725000D02*
X42545000Y-85725000D01*
X42545000Y-85725000D02*
X42545000Y-85725000D01*
X41877437Y-84357311D02*
X41275000Y-84959748D01*
X41275000Y-84959748D02*
X41275000Y-85090000D01*
X41275000Y-85090000D02*
X41275000Y-85090000D01*
X41275000Y-85090000D02*
X41275000Y-85090000D01*
X39402563Y-84536916D02*
X38100000Y-85839479D01*
X39402563Y-84357311D02*
X39402563Y-84536916D01*
X38100000Y-85839479D02*
X38100000Y-87630000D01*
X38100000Y-87630000D02*
X38100000Y-87630000D01*
X39049010Y-84003757D02*
X35491384Y-87561384D01*
X35491384Y-87561384D02*
X35422767Y-87630000D01*
X35895659Y-86450001D02*
X34199999Y-86450001D01*
X38695456Y-83650204D02*
X35895659Y-86450001D01*
X38341903Y-83296650D02*
X35913553Y-85725000D01*
X35913553Y-85725000D02*
X32385000Y-85725000D01*
X32385000Y-85725000D02*
X32385000Y-85725000D01*
X26670000Y-74930000D02*
X23495000Y-74930000D01*
X24115000Y-51515000D02*
X24115000Y-52440000D01*
X26670000Y-74030000D02*
X26670000Y-74930000D01*
X27040000Y-73660000D02*
X26670000Y-74030000D01*
X35422768Y-73660000D02*
X27040000Y-73660000D01*
X39049010Y-77286243D02*
X35422768Y-73660000D01*
X24115000Y-51665000D02*
X24115000Y-52740000D01*
X23495000Y-66040000D02*
X22225000Y-64770000D01*
X22235000Y-64760000D02*
X22235000Y-54620000D01*
X22225000Y-64770000D02*
X22235000Y-64760000D01*
X24115000Y-52740000D02*
X22235000Y-54620000D01*
X26670000Y-77470000D02*
X23495000Y-77470000D01*
X26670000Y-76570000D02*
X26670000Y-77470000D01*
X32385000Y-62865000D02*
X32385000Y-62865000D01*
X33072001Y-53274999D02*
X33072001Y-55827999D01*
X34417000Y-52710000D02*
X33637000Y-52710000D01*
X33637000Y-52710000D02*
X33072001Y-53274999D01*
X33072001Y-55827999D02*
X32385000Y-56515000D01*
X32385000Y-56515000D02*
X32385000Y-56515000D01*
X32385000Y-62865000D02*
X32385000Y-62865000D01*
X22225000Y-76200000D02*
X19685000Y-76200000D01*
X23495000Y-77470000D02*
X22225000Y-76200000D01*
X19685000Y-76200000D02*
X19050000Y-75565000D01*
X19050000Y-75565000D02*
X19050000Y-74295000D01*
X19050000Y-74295000D02*
X20320000Y-73025000D01*
X20320000Y-73025000D02*
X21590000Y-73025000D01*
X21590000Y-73025000D02*
X22860000Y-71755000D01*
X22860000Y-71755000D02*
X24765000Y-69850000D01*
X29119999Y-62774999D02*
X29210000Y-62865000D01*
X24765000Y-64135000D02*
X26035000Y-62865000D01*
X29210000Y-62865000D02*
X32385000Y-62865000D01*
X24765000Y-69850000D02*
X24765000Y-64135000D01*
X26035000Y-62865000D02*
X28136998Y-62865000D01*
X28136998Y-62865000D02*
X28226999Y-62774999D01*
X28226999Y-62774999D02*
X29119999Y-62774999D01*
X26670000Y-76570000D02*
X27040000Y-76200000D01*
X37255660Y-76200000D02*
X38695456Y-77639796D01*
X27040000Y-76200000D02*
X37255660Y-76200000D01*
X32217000Y-53285000D02*
X31527000Y-53975000D01*
X32217000Y-52710000D02*
X32217000Y-53285000D01*
X31527000Y-53975000D02*
X29210000Y-53975000D01*
X29210000Y-53975000D02*
X28575000Y-54610000D01*
X28575000Y-54610000D02*
X28575000Y-60325000D01*
X28575000Y-60325000D02*
X28575000Y-60325000D01*
X37988350Y-82943097D02*
X37522979Y-83408468D01*
X36076446Y-84855001D02*
X33420001Y-84855001D01*
X37988350Y-82943097D02*
X36076446Y-84855001D01*
X33420001Y-84855001D02*
X33420001Y-84855001D01*
X26614998Y-63500000D02*
X28575000Y-63500000D01*
X25400000Y-64714998D02*
X26614998Y-63500000D01*
X25400000Y-71755000D02*
X26035000Y-72390000D01*
X20955000Y-74930000D02*
X23495000Y-72390000D01*
X25400000Y-70485000D02*
X25400000Y-64714998D01*
X25400000Y-71755000D02*
X24130000Y-71755000D01*
X23495000Y-72390000D02*
X24130000Y-71755000D01*
X24130000Y-71755000D02*
X25400000Y-70485000D01*
X29370000Y-74930000D02*
X29845000Y-74930000D01*
X29845000Y-74930000D02*
X31115000Y-74930000D01*
X31115000Y-74930000D02*
X31115000Y-74930000D01*
X29370000Y-72390000D02*
X31115000Y-72390000D01*
X37281123Y-82235990D02*
X37280146Y-82235013D01*
X37281243Y-82235990D02*
X37281123Y-82235990D01*
X37281243Y-82235990D02*
X39121117Y-80396117D01*
X39121117Y-80396117D02*
X40640000Y-78877233D01*
X37281243Y-82235990D02*
X37746613Y-81770620D01*
X40640000Y-78877233D02*
X40640000Y-78877233D01*
X40640000Y-84455000D02*
X40640000Y-78740000D01*
X39845000Y-87630000D02*
X39845000Y-85250000D01*
X39845000Y-85250000D02*
X40640000Y-84455000D01*
X36332233Y-83185000D02*
X35560000Y-83185000D01*
X37281243Y-82235990D02*
X36332233Y-83185000D01*
X29370000Y-77470000D02*
X31115000Y-77470000D01*
X38212000Y-71882000D02*
X38212000Y-73645000D01*
X38212000Y-73645000D02*
X38227000Y-73660000D01*
D28*
X47625000Y-67470000D02*
X47625000Y-71120000D01*
D27*
X42938097Y-77993350D02*
X43005963Y-77993350D01*
X47625000Y-71120000D02*
X48260000Y-71755000D01*
D28*
X27370000Y-61820000D02*
X41181800Y-61820000D01*
X23495000Y-57945000D02*
X27370000Y-61820000D01*
X46831800Y-67470000D02*
X47175000Y-67470000D01*
X41181800Y-61820000D02*
X46831800Y-67470000D01*
X47175000Y-67470000D02*
X47625000Y-67470000D01*
X42973451Y-77993350D02*
X42938097Y-77993350D01*
X48260000Y-73658603D02*
X47213603Y-74705000D01*
X48260000Y-71755000D02*
X48260000Y-73658603D01*
X47213603Y-74705000D02*
X46261801Y-74705000D01*
X46261801Y-74705000D02*
X42973451Y-77993350D01*
D27*
X26670000Y-57945000D02*
X26670000Y-57785000D01*
D28*
X51181000Y-67470000D02*
X50731000Y-67020000D01*
D27*
X51181000Y-71374000D02*
X50800000Y-71755000D01*
D28*
X51181000Y-67470000D02*
X51181000Y-71374000D01*
X46448199Y-75155000D02*
X43291650Y-78311549D01*
X43291650Y-78311549D02*
X43291650Y-78346903D01*
X50800000Y-71755000D02*
X47400000Y-75155000D01*
X47400000Y-75155000D02*
X46448199Y-75155000D01*
X50350000Y-67020000D02*
X50800000Y-67470000D01*
X49115002Y-67020000D02*
X50350000Y-67020000D01*
X48515001Y-66419999D02*
X49115002Y-67020000D01*
X26670000Y-60483603D02*
X27556397Y-61370000D01*
X26670000Y-57945000D02*
X26670000Y-60483603D01*
X46734999Y-66419999D02*
X48515001Y-66419999D01*
X27556397Y-61370000D02*
X41368200Y-61370000D01*
X41368200Y-61370000D02*
X46609000Y-66421000D01*
X46609000Y-66421000D02*
X46733998Y-66421000D01*
D27*
X28575000Y-67885000D02*
X27880000Y-68580000D01*
X26670000Y-67370000D02*
X27880000Y-68580000D01*
X26670000Y-65405000D02*
X26670000Y-67370000D01*
X38869326Y-76467319D02*
X39402563Y-76932689D01*
X27880000Y-68580000D02*
X27880000Y-70425000D01*
X27880000Y-70425000D02*
X28575000Y-71120000D01*
X33589874Y-71120000D02*
X39402563Y-76932689D01*
X28575000Y-71120000D02*
X33589874Y-71120000D01*
X33020000Y-68520000D02*
X33080000Y-68580000D01*
X32385000Y-67885000D02*
X33080000Y-68580000D01*
X34250000Y-67410000D02*
X33080000Y-68580000D01*
X34250000Y-65405000D02*
X34250000Y-67410000D01*
X33630000Y-68580000D02*
X33080000Y-68580000D01*
X33080000Y-69790000D02*
X33080000Y-68580000D01*
X33020000Y-69850000D02*
X33080000Y-69790000D01*
X41877437Y-76932689D02*
X40102689Y-76932689D01*
X40102689Y-76932689D02*
X33020000Y-69850000D01*
X42584544Y-77639796D02*
X45085000Y-75139340D01*
X39370000Y-62865000D02*
X39370000Y-62865000D01*
X34417000Y-54610000D02*
X37465000Y-54610000D01*
X36195000Y-59055000D02*
X36195000Y-57785000D01*
X37465000Y-56515000D02*
X37465000Y-54610000D01*
X36195000Y-57785000D02*
X37465000Y-56515000D01*
X45085000Y-75139340D02*
X45085000Y-73660000D01*
X55880000Y-72855000D02*
X55880000Y-71755000D01*
X49530000Y-74930000D02*
X53805000Y-74930000D01*
X53805000Y-74930000D02*
X55880000Y-72855000D01*
X46355000Y-73660000D02*
X45085000Y-73660000D01*
X39370000Y-62865000D02*
X36195000Y-62865000D01*
X40675002Y-64135000D02*
X40640000Y-64135000D01*
X40640000Y-64135000D02*
X39370000Y-62865000D01*
X46355000Y-73660000D02*
X46355000Y-69814998D01*
X46355000Y-69814998D02*
X46035001Y-69494999D01*
X43815000Y-67310000D02*
X40675002Y-64135000D01*
X46035001Y-69494999D02*
X43815000Y-67310000D01*
X44540001Y-84898554D02*
X44540001Y-87539999D01*
X42938097Y-83296650D02*
X44540001Y-84898554D01*
X44450000Y-87630000D02*
X41910000Y-87630000D01*
X44540001Y-87539999D02*
X44450000Y-87630000D01*
X41810000Y-87630000D02*
X41910000Y-87630000D01*
X40540000Y-88900000D02*
X41810000Y-87630000D01*
X39370000Y-88900000D02*
X40540000Y-88900000D01*
X33655000Y-94615000D02*
X39370000Y-88900000D01*
X26065000Y-51515000D02*
X26065000Y-51990000D01*
X36565000Y-51910000D02*
X37465000Y-51910000D01*
X31576998Y-51910000D02*
X36565000Y-51910000D01*
X30626988Y-52860010D02*
X31576998Y-51910000D01*
X26185010Y-52860010D02*
X30626988Y-52860010D01*
X26065000Y-52740000D02*
X26185010Y-52860010D01*
X26065000Y-51665000D02*
X26065000Y-52740000D01*
X37465000Y-51910000D02*
X50640000Y-51910000D01*
X52070000Y-53340000D02*
X52070000Y-59185000D01*
X50640000Y-51910000D02*
X52070000Y-53340000D01*
X31437000Y-54610000D02*
X32217000Y-54610000D01*
X31115000Y-54932000D02*
X31437000Y-54610000D01*
X31115000Y-59055000D02*
X31115000Y-54932000D01*
M02*
