G04 #@! TF.GenerationSoftware,KiCad,Pcbnew,5.1.5*
G04 #@! TF.CreationDate,2020-02-24T15:17:29+03:00*
G04 #@! TF.ProjectId,max3421eboard,6d617833-3432-4316-9562-6f6172642e6b,rev?*
G04 #@! TF.SameCoordinates,Original*
G04 #@! TF.FileFunction,Soldermask,Bot*
G04 #@! TF.FilePolarity,Negative*
%FSLAX46Y46*%
G04 Gerber Fmt 4.6, Leading zero omitted, Abs format (unit mm)*
G04 Created by KiCad (PCBNEW 5.1.5) date 2020-02-24 15:17:29*
%MOMM*%
%LPD*%
G04 APERTURE LIST*
%ADD10C,0.100000*%
G04 APERTURE END LIST*
D10*
G36*
X32016000Y-95516000D02*
G01*
X30214000Y-95516000D01*
X30214000Y-93714000D01*
X32016000Y-93714000D01*
X32016000Y-95516000D01*
G37*
G36*
X51548512Y-93718927D02*
G01*
X51697812Y-93748624D01*
X51861784Y-93816544D01*
X52009354Y-93915147D01*
X52134853Y-94040646D01*
X52233456Y-94188216D01*
X52301376Y-94352188D01*
X52336000Y-94526259D01*
X52336000Y-94703741D01*
X52301376Y-94877812D01*
X52233456Y-95041784D01*
X52134853Y-95189354D01*
X52009354Y-95314853D01*
X51861784Y-95413456D01*
X51697812Y-95481376D01*
X51548512Y-95511073D01*
X51523742Y-95516000D01*
X51346258Y-95516000D01*
X51321488Y-95511073D01*
X51172188Y-95481376D01*
X51008216Y-95413456D01*
X50860646Y-95314853D01*
X50735147Y-95189354D01*
X50636544Y-95041784D01*
X50568624Y-94877812D01*
X50534000Y-94703741D01*
X50534000Y-94526259D01*
X50568624Y-94352188D01*
X50636544Y-94188216D01*
X50735147Y-94040646D01*
X50860646Y-93915147D01*
X51008216Y-93816544D01*
X51172188Y-93748624D01*
X51321488Y-93718927D01*
X51346258Y-93714000D01*
X51523742Y-93714000D01*
X51548512Y-93718927D01*
G37*
G36*
X54088512Y-93718927D02*
G01*
X54237812Y-93748624D01*
X54401784Y-93816544D01*
X54549354Y-93915147D01*
X54674853Y-94040646D01*
X54773456Y-94188216D01*
X54841376Y-94352188D01*
X54876000Y-94526259D01*
X54876000Y-94703741D01*
X54841376Y-94877812D01*
X54773456Y-95041784D01*
X54674853Y-95189354D01*
X54549354Y-95314853D01*
X54401784Y-95413456D01*
X54237812Y-95481376D01*
X54088512Y-95511073D01*
X54063742Y-95516000D01*
X53886258Y-95516000D01*
X53861488Y-95511073D01*
X53712188Y-95481376D01*
X53548216Y-95413456D01*
X53400646Y-95314853D01*
X53275147Y-95189354D01*
X53176544Y-95041784D01*
X53108624Y-94877812D01*
X53074000Y-94703741D01*
X53074000Y-94526259D01*
X53108624Y-94352188D01*
X53176544Y-94188216D01*
X53275147Y-94040646D01*
X53400646Y-93915147D01*
X53548216Y-93816544D01*
X53712188Y-93748624D01*
X53861488Y-93718927D01*
X53886258Y-93714000D01*
X54063742Y-93714000D01*
X54088512Y-93718927D01*
G37*
G36*
X49008512Y-93718927D02*
G01*
X49157812Y-93748624D01*
X49321784Y-93816544D01*
X49469354Y-93915147D01*
X49594853Y-94040646D01*
X49693456Y-94188216D01*
X49761376Y-94352188D01*
X49796000Y-94526259D01*
X49796000Y-94703741D01*
X49761376Y-94877812D01*
X49693456Y-95041784D01*
X49594853Y-95189354D01*
X49469354Y-95314853D01*
X49321784Y-95413456D01*
X49157812Y-95481376D01*
X49008512Y-95511073D01*
X48983742Y-95516000D01*
X48806258Y-95516000D01*
X48781488Y-95511073D01*
X48632188Y-95481376D01*
X48468216Y-95413456D01*
X48320646Y-95314853D01*
X48195147Y-95189354D01*
X48096544Y-95041784D01*
X48028624Y-94877812D01*
X47994000Y-94703741D01*
X47994000Y-94526259D01*
X48028624Y-94352188D01*
X48096544Y-94188216D01*
X48195147Y-94040646D01*
X48320646Y-93915147D01*
X48468216Y-93816544D01*
X48632188Y-93748624D01*
X48781488Y-93718927D01*
X48806258Y-93714000D01*
X48983742Y-93714000D01*
X49008512Y-93718927D01*
G37*
G36*
X46468512Y-93718927D02*
G01*
X46617812Y-93748624D01*
X46781784Y-93816544D01*
X46929354Y-93915147D01*
X47054853Y-94040646D01*
X47153456Y-94188216D01*
X47221376Y-94352188D01*
X47256000Y-94526259D01*
X47256000Y-94703741D01*
X47221376Y-94877812D01*
X47153456Y-95041784D01*
X47054853Y-95189354D01*
X46929354Y-95314853D01*
X46781784Y-95413456D01*
X46617812Y-95481376D01*
X46468512Y-95511073D01*
X46443742Y-95516000D01*
X46266258Y-95516000D01*
X46241488Y-95511073D01*
X46092188Y-95481376D01*
X45928216Y-95413456D01*
X45780646Y-95314853D01*
X45655147Y-95189354D01*
X45556544Y-95041784D01*
X45488624Y-94877812D01*
X45454000Y-94703741D01*
X45454000Y-94526259D01*
X45488624Y-94352188D01*
X45556544Y-94188216D01*
X45655147Y-94040646D01*
X45780646Y-93915147D01*
X45928216Y-93816544D01*
X46092188Y-93748624D01*
X46241488Y-93718927D01*
X46266258Y-93714000D01*
X46443742Y-93714000D01*
X46468512Y-93718927D01*
G37*
G36*
X43928512Y-93718927D02*
G01*
X44077812Y-93748624D01*
X44241784Y-93816544D01*
X44389354Y-93915147D01*
X44514853Y-94040646D01*
X44613456Y-94188216D01*
X44681376Y-94352188D01*
X44716000Y-94526259D01*
X44716000Y-94703741D01*
X44681376Y-94877812D01*
X44613456Y-95041784D01*
X44514853Y-95189354D01*
X44389354Y-95314853D01*
X44241784Y-95413456D01*
X44077812Y-95481376D01*
X43928512Y-95511073D01*
X43903742Y-95516000D01*
X43726258Y-95516000D01*
X43701488Y-95511073D01*
X43552188Y-95481376D01*
X43388216Y-95413456D01*
X43240646Y-95314853D01*
X43115147Y-95189354D01*
X43016544Y-95041784D01*
X42948624Y-94877812D01*
X42914000Y-94703741D01*
X42914000Y-94526259D01*
X42948624Y-94352188D01*
X43016544Y-94188216D01*
X43115147Y-94040646D01*
X43240646Y-93915147D01*
X43388216Y-93816544D01*
X43552188Y-93748624D01*
X43701488Y-93718927D01*
X43726258Y-93714000D01*
X43903742Y-93714000D01*
X43928512Y-93718927D01*
G37*
G36*
X38848512Y-93718927D02*
G01*
X38997812Y-93748624D01*
X39161784Y-93816544D01*
X39309354Y-93915147D01*
X39434853Y-94040646D01*
X39533456Y-94188216D01*
X39601376Y-94352188D01*
X39636000Y-94526259D01*
X39636000Y-94703741D01*
X39601376Y-94877812D01*
X39533456Y-95041784D01*
X39434853Y-95189354D01*
X39309354Y-95314853D01*
X39161784Y-95413456D01*
X38997812Y-95481376D01*
X38848512Y-95511073D01*
X38823742Y-95516000D01*
X38646258Y-95516000D01*
X38621488Y-95511073D01*
X38472188Y-95481376D01*
X38308216Y-95413456D01*
X38160646Y-95314853D01*
X38035147Y-95189354D01*
X37936544Y-95041784D01*
X37868624Y-94877812D01*
X37834000Y-94703741D01*
X37834000Y-94526259D01*
X37868624Y-94352188D01*
X37936544Y-94188216D01*
X38035147Y-94040646D01*
X38160646Y-93915147D01*
X38308216Y-93816544D01*
X38472188Y-93748624D01*
X38621488Y-93718927D01*
X38646258Y-93714000D01*
X38823742Y-93714000D01*
X38848512Y-93718927D01*
G37*
G36*
X36308512Y-93718927D02*
G01*
X36457812Y-93748624D01*
X36621784Y-93816544D01*
X36769354Y-93915147D01*
X36894853Y-94040646D01*
X36993456Y-94188216D01*
X37061376Y-94352188D01*
X37096000Y-94526259D01*
X37096000Y-94703741D01*
X37061376Y-94877812D01*
X36993456Y-95041784D01*
X36894853Y-95189354D01*
X36769354Y-95314853D01*
X36621784Y-95413456D01*
X36457812Y-95481376D01*
X36308512Y-95511073D01*
X36283742Y-95516000D01*
X36106258Y-95516000D01*
X36081488Y-95511073D01*
X35932188Y-95481376D01*
X35768216Y-95413456D01*
X35620646Y-95314853D01*
X35495147Y-95189354D01*
X35396544Y-95041784D01*
X35328624Y-94877812D01*
X35294000Y-94703741D01*
X35294000Y-94526259D01*
X35328624Y-94352188D01*
X35396544Y-94188216D01*
X35495147Y-94040646D01*
X35620646Y-93915147D01*
X35768216Y-93816544D01*
X35932188Y-93748624D01*
X36081488Y-93718927D01*
X36106258Y-93714000D01*
X36283742Y-93714000D01*
X36308512Y-93718927D01*
G37*
G36*
X33768512Y-93718927D02*
G01*
X33917812Y-93748624D01*
X34081784Y-93816544D01*
X34229354Y-93915147D01*
X34354853Y-94040646D01*
X34453456Y-94188216D01*
X34521376Y-94352188D01*
X34556000Y-94526259D01*
X34556000Y-94703741D01*
X34521376Y-94877812D01*
X34453456Y-95041784D01*
X34354853Y-95189354D01*
X34229354Y-95314853D01*
X34081784Y-95413456D01*
X33917812Y-95481376D01*
X33768512Y-95511073D01*
X33743742Y-95516000D01*
X33566258Y-95516000D01*
X33541488Y-95511073D01*
X33392188Y-95481376D01*
X33228216Y-95413456D01*
X33080646Y-95314853D01*
X32955147Y-95189354D01*
X32856544Y-95041784D01*
X32788624Y-94877812D01*
X32754000Y-94703741D01*
X32754000Y-94526259D01*
X32788624Y-94352188D01*
X32856544Y-94188216D01*
X32955147Y-94040646D01*
X33080646Y-93915147D01*
X33228216Y-93816544D01*
X33392188Y-93748624D01*
X33541488Y-93718927D01*
X33566258Y-93714000D01*
X33743742Y-93714000D01*
X33768512Y-93718927D01*
G37*
G36*
X41388512Y-93718927D02*
G01*
X41537812Y-93748624D01*
X41701784Y-93816544D01*
X41849354Y-93915147D01*
X41974853Y-94040646D01*
X42073456Y-94188216D01*
X42141376Y-94352188D01*
X42176000Y-94526259D01*
X42176000Y-94703741D01*
X42141376Y-94877812D01*
X42073456Y-95041784D01*
X41974853Y-95189354D01*
X41849354Y-95314853D01*
X41701784Y-95413456D01*
X41537812Y-95481376D01*
X41388512Y-95511073D01*
X41363742Y-95516000D01*
X41186258Y-95516000D01*
X41161488Y-95511073D01*
X41012188Y-95481376D01*
X40848216Y-95413456D01*
X40700646Y-95314853D01*
X40575147Y-95189354D01*
X40476544Y-95041784D01*
X40408624Y-94877812D01*
X40374000Y-94703741D01*
X40374000Y-94526259D01*
X40408624Y-94352188D01*
X40476544Y-94188216D01*
X40575147Y-94040646D01*
X40700646Y-93915147D01*
X40848216Y-93816544D01*
X41012188Y-93748624D01*
X41161488Y-93718927D01*
X41186258Y-93714000D01*
X41363742Y-93714000D01*
X41388512Y-93718927D01*
G37*
G36*
X21068512Y-91813927D02*
G01*
X21217812Y-91843624D01*
X21381784Y-91911544D01*
X21529354Y-92010147D01*
X21654853Y-92135646D01*
X21753456Y-92283216D01*
X21821376Y-92447188D01*
X21856000Y-92621259D01*
X21856000Y-92798741D01*
X21821376Y-92972812D01*
X21753456Y-93136784D01*
X21654853Y-93284354D01*
X21529354Y-93409853D01*
X21381784Y-93508456D01*
X21217812Y-93576376D01*
X21068512Y-93606073D01*
X21043742Y-93611000D01*
X20866258Y-93611000D01*
X20841488Y-93606073D01*
X20692188Y-93576376D01*
X20528216Y-93508456D01*
X20380646Y-93409853D01*
X20255147Y-93284354D01*
X20156544Y-93136784D01*
X20088624Y-92972812D01*
X20054000Y-92798741D01*
X20054000Y-92621259D01*
X20088624Y-92447188D01*
X20156544Y-92283216D01*
X20255147Y-92135646D01*
X20380646Y-92010147D01*
X20528216Y-91911544D01*
X20692188Y-91843624D01*
X20841488Y-91813927D01*
X20866258Y-91809000D01*
X21043742Y-91809000D01*
X21068512Y-91813927D01*
G37*
G36*
X23608512Y-91813927D02*
G01*
X23757812Y-91843624D01*
X23921784Y-91911544D01*
X24069354Y-92010147D01*
X24194853Y-92135646D01*
X24293456Y-92283216D01*
X24361376Y-92447188D01*
X24396000Y-92621259D01*
X24396000Y-92798741D01*
X24361376Y-92972812D01*
X24293456Y-93136784D01*
X24194853Y-93284354D01*
X24069354Y-93409853D01*
X23921784Y-93508456D01*
X23757812Y-93576376D01*
X23608512Y-93606073D01*
X23583742Y-93611000D01*
X23406258Y-93611000D01*
X23381488Y-93606073D01*
X23232188Y-93576376D01*
X23068216Y-93508456D01*
X22920646Y-93409853D01*
X22795147Y-93284354D01*
X22696544Y-93136784D01*
X22628624Y-92972812D01*
X22594000Y-92798741D01*
X22594000Y-92621259D01*
X22628624Y-92447188D01*
X22696544Y-92283216D01*
X22795147Y-92135646D01*
X22920646Y-92010147D01*
X23068216Y-91911544D01*
X23232188Y-91843624D01*
X23381488Y-91813927D01*
X23406258Y-91809000D01*
X23583742Y-91809000D01*
X23608512Y-91813927D01*
G37*
G36*
X21068512Y-89273927D02*
G01*
X21217812Y-89303624D01*
X21381784Y-89371544D01*
X21529354Y-89470147D01*
X21654853Y-89595646D01*
X21753456Y-89743216D01*
X21821376Y-89907188D01*
X21856000Y-90081259D01*
X21856000Y-90258741D01*
X21821376Y-90432812D01*
X21753456Y-90596784D01*
X21654853Y-90744354D01*
X21529354Y-90869853D01*
X21381784Y-90968456D01*
X21217812Y-91036376D01*
X21068512Y-91066073D01*
X21043742Y-91071000D01*
X20866258Y-91071000D01*
X20841488Y-91066073D01*
X20692188Y-91036376D01*
X20528216Y-90968456D01*
X20380646Y-90869853D01*
X20255147Y-90744354D01*
X20156544Y-90596784D01*
X20088624Y-90432812D01*
X20054000Y-90258741D01*
X20054000Y-90081259D01*
X20088624Y-89907188D01*
X20156544Y-89743216D01*
X20255147Y-89595646D01*
X20380646Y-89470147D01*
X20528216Y-89371544D01*
X20692188Y-89303624D01*
X20841488Y-89273927D01*
X20866258Y-89269000D01*
X21043742Y-89269000D01*
X21068512Y-89273927D01*
G37*
G36*
X23608512Y-89273927D02*
G01*
X23757812Y-89303624D01*
X23921784Y-89371544D01*
X24069354Y-89470147D01*
X24194853Y-89595646D01*
X24293456Y-89743216D01*
X24361376Y-89907188D01*
X24396000Y-90081259D01*
X24396000Y-90258741D01*
X24361376Y-90432812D01*
X24293456Y-90596784D01*
X24194853Y-90744354D01*
X24069354Y-90869853D01*
X23921784Y-90968456D01*
X23757812Y-91036376D01*
X23608512Y-91066073D01*
X23583742Y-91071000D01*
X23406258Y-91071000D01*
X23381488Y-91066073D01*
X23232188Y-91036376D01*
X23068216Y-90968456D01*
X22920646Y-90869853D01*
X22795147Y-90744354D01*
X22696544Y-90596784D01*
X22628624Y-90432812D01*
X22594000Y-90258741D01*
X22594000Y-90081259D01*
X22628624Y-89907188D01*
X22696544Y-89743216D01*
X22795147Y-89595646D01*
X22920646Y-89470147D01*
X23068216Y-89371544D01*
X23232188Y-89303624D01*
X23381488Y-89273927D01*
X23406258Y-89269000D01*
X23583742Y-89269000D01*
X23608512Y-89273927D01*
G37*
G36*
X21068512Y-86733927D02*
G01*
X21217812Y-86763624D01*
X21381784Y-86831544D01*
X21529354Y-86930147D01*
X21654853Y-87055646D01*
X21753456Y-87203216D01*
X21821376Y-87367188D01*
X21856000Y-87541259D01*
X21856000Y-87718741D01*
X21821376Y-87892812D01*
X21753456Y-88056784D01*
X21654853Y-88204354D01*
X21529354Y-88329853D01*
X21381784Y-88428456D01*
X21217812Y-88496376D01*
X21068512Y-88526073D01*
X21043742Y-88531000D01*
X20866258Y-88531000D01*
X20841488Y-88526073D01*
X20692188Y-88496376D01*
X20528216Y-88428456D01*
X20380646Y-88329853D01*
X20255147Y-88204354D01*
X20156544Y-88056784D01*
X20088624Y-87892812D01*
X20054000Y-87718741D01*
X20054000Y-87541259D01*
X20088624Y-87367188D01*
X20156544Y-87203216D01*
X20255147Y-87055646D01*
X20380646Y-86930147D01*
X20528216Y-86831544D01*
X20692188Y-86763624D01*
X20841488Y-86733927D01*
X20866258Y-86729000D01*
X21043742Y-86729000D01*
X21068512Y-86733927D01*
G37*
G36*
X23608512Y-86733927D02*
G01*
X23757812Y-86763624D01*
X23921784Y-86831544D01*
X24069354Y-86930147D01*
X24194853Y-87055646D01*
X24293456Y-87203216D01*
X24361376Y-87367188D01*
X24396000Y-87541259D01*
X24396000Y-87718741D01*
X24361376Y-87892812D01*
X24293456Y-88056784D01*
X24194853Y-88204354D01*
X24069354Y-88329853D01*
X23921784Y-88428456D01*
X23757812Y-88496376D01*
X23608512Y-88526073D01*
X23583742Y-88531000D01*
X23406258Y-88531000D01*
X23381488Y-88526073D01*
X23232188Y-88496376D01*
X23068216Y-88428456D01*
X22920646Y-88329853D01*
X22795147Y-88204354D01*
X22696544Y-88056784D01*
X22628624Y-87892812D01*
X22594000Y-87718741D01*
X22594000Y-87541259D01*
X22628624Y-87367188D01*
X22696544Y-87203216D01*
X22795147Y-87055646D01*
X22920646Y-86930147D01*
X23068216Y-86831544D01*
X23232188Y-86763624D01*
X23381488Y-86733927D01*
X23406258Y-86729000D01*
X23583742Y-86729000D01*
X23608512Y-86733927D01*
G37*
G36*
X23608512Y-84193927D02*
G01*
X23757812Y-84223624D01*
X23921784Y-84291544D01*
X24069354Y-84390147D01*
X24194853Y-84515646D01*
X24293456Y-84663216D01*
X24361376Y-84827188D01*
X24396000Y-85001259D01*
X24396000Y-85178741D01*
X24361376Y-85352812D01*
X24293456Y-85516784D01*
X24194853Y-85664354D01*
X24069354Y-85789853D01*
X23921784Y-85888456D01*
X23757812Y-85956376D01*
X23608512Y-85986073D01*
X23583742Y-85991000D01*
X23406258Y-85991000D01*
X23381488Y-85986073D01*
X23232188Y-85956376D01*
X23068216Y-85888456D01*
X22920646Y-85789853D01*
X22795147Y-85664354D01*
X22696544Y-85516784D01*
X22628624Y-85352812D01*
X22594000Y-85178741D01*
X22594000Y-85001259D01*
X22628624Y-84827188D01*
X22696544Y-84663216D01*
X22795147Y-84515646D01*
X22920646Y-84390147D01*
X23068216Y-84291544D01*
X23232188Y-84223624D01*
X23381488Y-84193927D01*
X23406258Y-84189000D01*
X23583742Y-84189000D01*
X23608512Y-84193927D01*
G37*
G36*
X21068512Y-84193927D02*
G01*
X21217812Y-84223624D01*
X21381784Y-84291544D01*
X21529354Y-84390147D01*
X21654853Y-84515646D01*
X21753456Y-84663216D01*
X21821376Y-84827188D01*
X21856000Y-85001259D01*
X21856000Y-85178741D01*
X21821376Y-85352812D01*
X21753456Y-85516784D01*
X21654853Y-85664354D01*
X21529354Y-85789853D01*
X21381784Y-85888456D01*
X21217812Y-85956376D01*
X21068512Y-85986073D01*
X21043742Y-85991000D01*
X20866258Y-85991000D01*
X20841488Y-85986073D01*
X20692188Y-85956376D01*
X20528216Y-85888456D01*
X20380646Y-85789853D01*
X20255147Y-85664354D01*
X20156544Y-85516784D01*
X20088624Y-85352812D01*
X20054000Y-85178741D01*
X20054000Y-85001259D01*
X20088624Y-84827188D01*
X20156544Y-84663216D01*
X20255147Y-84515646D01*
X20380646Y-84390147D01*
X20528216Y-84291544D01*
X20692188Y-84223624D01*
X20841488Y-84193927D01*
X20866258Y-84189000D01*
X21043742Y-84189000D01*
X21068512Y-84193927D01*
G37*
G36*
X21068512Y-81653927D02*
G01*
X21217812Y-81683624D01*
X21381784Y-81751544D01*
X21529354Y-81850147D01*
X21654853Y-81975646D01*
X21753456Y-82123216D01*
X21821376Y-82287188D01*
X21856000Y-82461259D01*
X21856000Y-82638741D01*
X21821376Y-82812812D01*
X21753456Y-82976784D01*
X21654853Y-83124354D01*
X21529354Y-83249853D01*
X21381784Y-83348456D01*
X21217812Y-83416376D01*
X21068512Y-83446073D01*
X21043742Y-83451000D01*
X20866258Y-83451000D01*
X20841488Y-83446073D01*
X20692188Y-83416376D01*
X20528216Y-83348456D01*
X20380646Y-83249853D01*
X20255147Y-83124354D01*
X20156544Y-82976784D01*
X20088624Y-82812812D01*
X20054000Y-82638741D01*
X20054000Y-82461259D01*
X20088624Y-82287188D01*
X20156544Y-82123216D01*
X20255147Y-81975646D01*
X20380646Y-81850147D01*
X20528216Y-81751544D01*
X20692188Y-81683624D01*
X20841488Y-81653927D01*
X20866258Y-81649000D01*
X21043742Y-81649000D01*
X21068512Y-81653927D01*
G37*
G36*
X23608512Y-81653927D02*
G01*
X23757812Y-81683624D01*
X23921784Y-81751544D01*
X24069354Y-81850147D01*
X24194853Y-81975646D01*
X24293456Y-82123216D01*
X24361376Y-82287188D01*
X24396000Y-82461259D01*
X24396000Y-82638741D01*
X24361376Y-82812812D01*
X24293456Y-82976784D01*
X24194853Y-83124354D01*
X24069354Y-83249853D01*
X23921784Y-83348456D01*
X23757812Y-83416376D01*
X23608512Y-83446073D01*
X23583742Y-83451000D01*
X23406258Y-83451000D01*
X23381488Y-83446073D01*
X23232188Y-83416376D01*
X23068216Y-83348456D01*
X22920646Y-83249853D01*
X22795147Y-83124354D01*
X22696544Y-82976784D01*
X22628624Y-82812812D01*
X22594000Y-82638741D01*
X22594000Y-82461259D01*
X22628624Y-82287188D01*
X22696544Y-82123216D01*
X22795147Y-81975646D01*
X22920646Y-81850147D01*
X23068216Y-81751544D01*
X23232188Y-81683624D01*
X23381488Y-81653927D01*
X23406258Y-81649000D01*
X23583742Y-81649000D01*
X23608512Y-81653927D01*
G37*
G36*
X21068512Y-79113927D02*
G01*
X21217812Y-79143624D01*
X21381784Y-79211544D01*
X21529354Y-79310147D01*
X21654853Y-79435646D01*
X21753456Y-79583216D01*
X21821376Y-79747188D01*
X21856000Y-79921259D01*
X21856000Y-80098741D01*
X21821376Y-80272812D01*
X21753456Y-80436784D01*
X21654853Y-80584354D01*
X21529354Y-80709853D01*
X21381784Y-80808456D01*
X21217812Y-80876376D01*
X21068512Y-80906073D01*
X21043742Y-80911000D01*
X20866258Y-80911000D01*
X20841488Y-80906073D01*
X20692188Y-80876376D01*
X20528216Y-80808456D01*
X20380646Y-80709853D01*
X20255147Y-80584354D01*
X20156544Y-80436784D01*
X20088624Y-80272812D01*
X20054000Y-80098741D01*
X20054000Y-79921259D01*
X20088624Y-79747188D01*
X20156544Y-79583216D01*
X20255147Y-79435646D01*
X20380646Y-79310147D01*
X20528216Y-79211544D01*
X20692188Y-79143624D01*
X20841488Y-79113927D01*
X20866258Y-79109000D01*
X21043742Y-79109000D01*
X21068512Y-79113927D01*
G37*
G36*
X23608512Y-79113927D02*
G01*
X23757812Y-79143624D01*
X23921784Y-79211544D01*
X24069354Y-79310147D01*
X24194853Y-79435646D01*
X24293456Y-79583216D01*
X24361376Y-79747188D01*
X24396000Y-79921259D01*
X24396000Y-80098741D01*
X24361376Y-80272812D01*
X24293456Y-80436784D01*
X24194853Y-80584354D01*
X24069354Y-80709853D01*
X23921784Y-80808456D01*
X23757812Y-80876376D01*
X23608512Y-80906073D01*
X23583742Y-80911000D01*
X23406258Y-80911000D01*
X23381488Y-80906073D01*
X23232188Y-80876376D01*
X23068216Y-80808456D01*
X22920646Y-80709853D01*
X22795147Y-80584354D01*
X22696544Y-80436784D01*
X22628624Y-80272812D01*
X22594000Y-80098741D01*
X22594000Y-79921259D01*
X22628624Y-79747188D01*
X22696544Y-79583216D01*
X22795147Y-79435646D01*
X22920646Y-79310147D01*
X23068216Y-79211544D01*
X23232188Y-79143624D01*
X23381488Y-79113927D01*
X23406258Y-79109000D01*
X23583742Y-79109000D01*
X23608512Y-79113927D01*
G37*
G36*
X21068512Y-76573927D02*
G01*
X21217812Y-76603624D01*
X21381784Y-76671544D01*
X21529354Y-76770147D01*
X21654853Y-76895646D01*
X21753456Y-77043216D01*
X21821376Y-77207188D01*
X21856000Y-77381259D01*
X21856000Y-77558741D01*
X21821376Y-77732812D01*
X21753456Y-77896784D01*
X21654853Y-78044354D01*
X21529354Y-78169853D01*
X21381784Y-78268456D01*
X21217812Y-78336376D01*
X21068512Y-78366073D01*
X21043742Y-78371000D01*
X20866258Y-78371000D01*
X20841488Y-78366073D01*
X20692188Y-78336376D01*
X20528216Y-78268456D01*
X20380646Y-78169853D01*
X20255147Y-78044354D01*
X20156544Y-77896784D01*
X20088624Y-77732812D01*
X20054000Y-77558741D01*
X20054000Y-77381259D01*
X20088624Y-77207188D01*
X20156544Y-77043216D01*
X20255147Y-76895646D01*
X20380646Y-76770147D01*
X20528216Y-76671544D01*
X20692188Y-76603624D01*
X20841488Y-76573927D01*
X20866258Y-76569000D01*
X21043742Y-76569000D01*
X21068512Y-76573927D01*
G37*
G36*
X23608512Y-76573927D02*
G01*
X23757812Y-76603624D01*
X23921784Y-76671544D01*
X24069354Y-76770147D01*
X24194853Y-76895646D01*
X24293456Y-77043216D01*
X24361376Y-77207188D01*
X24396000Y-77381259D01*
X24396000Y-77558741D01*
X24361376Y-77732812D01*
X24293456Y-77896784D01*
X24194853Y-78044354D01*
X24069354Y-78169853D01*
X23921784Y-78268456D01*
X23757812Y-78336376D01*
X23608512Y-78366073D01*
X23583742Y-78371000D01*
X23406258Y-78371000D01*
X23381488Y-78366073D01*
X23232188Y-78336376D01*
X23068216Y-78268456D01*
X22920646Y-78169853D01*
X22795147Y-78044354D01*
X22696544Y-77896784D01*
X22628624Y-77732812D01*
X22594000Y-77558741D01*
X22594000Y-77381259D01*
X22628624Y-77207188D01*
X22696544Y-77043216D01*
X22795147Y-76895646D01*
X22920646Y-76770147D01*
X23068216Y-76671544D01*
X23232188Y-76603624D01*
X23381488Y-76573927D01*
X23406258Y-76569000D01*
X23583742Y-76569000D01*
X23608512Y-76573927D01*
G37*
G36*
X24396000Y-75831000D02*
G01*
X22594000Y-75831000D01*
X22594000Y-74029000D01*
X24396000Y-74029000D01*
X24396000Y-75831000D01*
G37*
G36*
X21856000Y-75831000D02*
G01*
X20054000Y-75831000D01*
X20054000Y-74029000D01*
X21856000Y-74029000D01*
X21856000Y-75831000D01*
G37*
G36*
X48373512Y-70858927D02*
G01*
X48522812Y-70888624D01*
X48686784Y-70956544D01*
X48834354Y-71055147D01*
X48959853Y-71180646D01*
X49058456Y-71328216D01*
X49126376Y-71492188D01*
X49161000Y-71666259D01*
X49161000Y-71843741D01*
X49126376Y-72017812D01*
X49058456Y-72181784D01*
X48959853Y-72329354D01*
X48834354Y-72454853D01*
X48686784Y-72553456D01*
X48522812Y-72621376D01*
X48373512Y-72651073D01*
X48348742Y-72656000D01*
X48171258Y-72656000D01*
X48146488Y-72651073D01*
X47997188Y-72621376D01*
X47833216Y-72553456D01*
X47685646Y-72454853D01*
X47560147Y-72329354D01*
X47461544Y-72181784D01*
X47393624Y-72017812D01*
X47359000Y-71843741D01*
X47359000Y-71666259D01*
X47393624Y-71492188D01*
X47461544Y-71328216D01*
X47560147Y-71180646D01*
X47685646Y-71055147D01*
X47833216Y-70956544D01*
X47997188Y-70888624D01*
X48146488Y-70858927D01*
X48171258Y-70854000D01*
X48348742Y-70854000D01*
X48373512Y-70858927D01*
G37*
G36*
X56781000Y-72656000D02*
G01*
X54979000Y-72656000D01*
X54979000Y-70854000D01*
X56781000Y-70854000D01*
X56781000Y-72656000D01*
G37*
G36*
X53453512Y-70858927D02*
G01*
X53602812Y-70888624D01*
X53766784Y-70956544D01*
X53914354Y-71055147D01*
X54039853Y-71180646D01*
X54138456Y-71328216D01*
X54206376Y-71492188D01*
X54241000Y-71666259D01*
X54241000Y-71843741D01*
X54206376Y-72017812D01*
X54138456Y-72181784D01*
X54039853Y-72329354D01*
X53914354Y-72454853D01*
X53766784Y-72553456D01*
X53602812Y-72621376D01*
X53453512Y-72651073D01*
X53428742Y-72656000D01*
X53251258Y-72656000D01*
X53226488Y-72651073D01*
X53077188Y-72621376D01*
X52913216Y-72553456D01*
X52765646Y-72454853D01*
X52640147Y-72329354D01*
X52541544Y-72181784D01*
X52473624Y-72017812D01*
X52439000Y-71843741D01*
X52439000Y-71666259D01*
X52473624Y-71492188D01*
X52541544Y-71328216D01*
X52640147Y-71180646D01*
X52765646Y-71055147D01*
X52913216Y-70956544D01*
X53077188Y-70888624D01*
X53226488Y-70858927D01*
X53251258Y-70854000D01*
X53428742Y-70854000D01*
X53453512Y-70858927D01*
G37*
G36*
X50913512Y-70858927D02*
G01*
X51062812Y-70888624D01*
X51226784Y-70956544D01*
X51374354Y-71055147D01*
X51499853Y-71180646D01*
X51598456Y-71328216D01*
X51666376Y-71492188D01*
X51701000Y-71666259D01*
X51701000Y-71843741D01*
X51666376Y-72017812D01*
X51598456Y-72181784D01*
X51499853Y-72329354D01*
X51374354Y-72454853D01*
X51226784Y-72553456D01*
X51062812Y-72621376D01*
X50913512Y-72651073D01*
X50888742Y-72656000D01*
X50711258Y-72656000D01*
X50686488Y-72651073D01*
X50537188Y-72621376D01*
X50373216Y-72553456D01*
X50225646Y-72454853D01*
X50100147Y-72329354D01*
X50001544Y-72181784D01*
X49933624Y-72017812D01*
X49899000Y-71843741D01*
X49899000Y-71666259D01*
X49933624Y-71492188D01*
X50001544Y-71328216D01*
X50100147Y-71180646D01*
X50225646Y-71055147D01*
X50373216Y-70956544D01*
X50537188Y-70888624D01*
X50686488Y-70858927D01*
X50711258Y-70854000D01*
X50888742Y-70854000D01*
X50913512Y-70858927D01*
G37*
G36*
X28119642Y-67809781D02*
G01*
X28265414Y-67870162D01*
X28265416Y-67870163D01*
X28396608Y-67957822D01*
X28508178Y-68069392D01*
X28595837Y-68200584D01*
X28595838Y-68200586D01*
X28656219Y-68346358D01*
X28687000Y-68501107D01*
X28687000Y-68658893D01*
X28656219Y-68813642D01*
X28595838Y-68959414D01*
X28595837Y-68959416D01*
X28508178Y-69090608D01*
X28396608Y-69202178D01*
X28265416Y-69289837D01*
X28265415Y-69289838D01*
X28265414Y-69289838D01*
X28119642Y-69350219D01*
X27964893Y-69381000D01*
X27807107Y-69381000D01*
X27652358Y-69350219D01*
X27506586Y-69289838D01*
X27506585Y-69289838D01*
X27506584Y-69289837D01*
X27375392Y-69202178D01*
X27263822Y-69090608D01*
X27176163Y-68959416D01*
X27176162Y-68959414D01*
X27115781Y-68813642D01*
X27085000Y-68658893D01*
X27085000Y-68501107D01*
X27115781Y-68346358D01*
X27176162Y-68200586D01*
X27176163Y-68200584D01*
X27263822Y-68069392D01*
X27375392Y-67957822D01*
X27506584Y-67870163D01*
X27506586Y-67870162D01*
X27652358Y-67809781D01*
X27807107Y-67779000D01*
X27964893Y-67779000D01*
X28119642Y-67809781D01*
G37*
G36*
X32999642Y-67809781D02*
G01*
X33145414Y-67870162D01*
X33145416Y-67870163D01*
X33276608Y-67957822D01*
X33388178Y-68069392D01*
X33475837Y-68200584D01*
X33475838Y-68200586D01*
X33536219Y-68346358D01*
X33567000Y-68501107D01*
X33567000Y-68658893D01*
X33536219Y-68813642D01*
X33475838Y-68959414D01*
X33475837Y-68959416D01*
X33388178Y-69090608D01*
X33276608Y-69202178D01*
X33145416Y-69289837D01*
X33145415Y-69289838D01*
X33145414Y-69289838D01*
X32999642Y-69350219D01*
X32844893Y-69381000D01*
X32687107Y-69381000D01*
X32532358Y-69350219D01*
X32386586Y-69289838D01*
X32386585Y-69289838D01*
X32386584Y-69289837D01*
X32255392Y-69202178D01*
X32143822Y-69090608D01*
X32056163Y-68959416D01*
X32056162Y-68959414D01*
X31995781Y-68813642D01*
X31965000Y-68658893D01*
X31965000Y-68501107D01*
X31995781Y-68346358D01*
X32056162Y-68200586D01*
X32056163Y-68200584D01*
X32143822Y-68069392D01*
X32255392Y-67957822D01*
X32386584Y-67870163D01*
X32386586Y-67870162D01*
X32532358Y-67809781D01*
X32687107Y-67779000D01*
X32844893Y-67779000D01*
X32999642Y-67809781D01*
G37*
G36*
X47733642Y-58414781D02*
G01*
X47879414Y-58475162D01*
X47879416Y-58475163D01*
X48010608Y-58562822D01*
X48122178Y-58674392D01*
X48209837Y-58805584D01*
X48209838Y-58805586D01*
X48270219Y-58951358D01*
X48301000Y-59106107D01*
X48301000Y-59263893D01*
X48270219Y-59418642D01*
X48209838Y-59564414D01*
X48209837Y-59564416D01*
X48122178Y-59695608D01*
X48010608Y-59807178D01*
X47879416Y-59894837D01*
X47879415Y-59894838D01*
X47879414Y-59894838D01*
X47733642Y-59955219D01*
X47578893Y-59986000D01*
X47421107Y-59986000D01*
X47266358Y-59955219D01*
X47120586Y-59894838D01*
X47120585Y-59894838D01*
X47120584Y-59894837D01*
X46989392Y-59807178D01*
X46877822Y-59695608D01*
X46790163Y-59564416D01*
X46790162Y-59564414D01*
X46729781Y-59418642D01*
X46699000Y-59263893D01*
X46699000Y-59106107D01*
X46729781Y-58951358D01*
X46790162Y-58805586D01*
X46790163Y-58805584D01*
X46877822Y-58674392D01*
X46989392Y-58562822D01*
X47120584Y-58475163D01*
X47120586Y-58475162D01*
X47266358Y-58414781D01*
X47421107Y-58384000D01*
X47578893Y-58384000D01*
X47733642Y-58414781D01*
G37*
G36*
X45193642Y-58414781D02*
G01*
X45339414Y-58475162D01*
X45339416Y-58475163D01*
X45470608Y-58562822D01*
X45582178Y-58674392D01*
X45669837Y-58805584D01*
X45669838Y-58805586D01*
X45730219Y-58951358D01*
X45761000Y-59106107D01*
X45761000Y-59263893D01*
X45730219Y-59418642D01*
X45669838Y-59564414D01*
X45669837Y-59564416D01*
X45582178Y-59695608D01*
X45470608Y-59807178D01*
X45339416Y-59894837D01*
X45339415Y-59894838D01*
X45339414Y-59894838D01*
X45193642Y-59955219D01*
X45038893Y-59986000D01*
X44881107Y-59986000D01*
X44726358Y-59955219D01*
X44580586Y-59894838D01*
X44580585Y-59894838D01*
X44580584Y-59894837D01*
X44449392Y-59807178D01*
X44337822Y-59695608D01*
X44250163Y-59564416D01*
X44250162Y-59564414D01*
X44189781Y-59418642D01*
X44159000Y-59263893D01*
X44159000Y-59106107D01*
X44189781Y-58951358D01*
X44250162Y-58805586D01*
X44250163Y-58805584D01*
X44337822Y-58674392D01*
X44449392Y-58562822D01*
X44580584Y-58475163D01*
X44580586Y-58475162D01*
X44726358Y-58414781D01*
X44881107Y-58384000D01*
X45038893Y-58384000D01*
X45193642Y-58414781D01*
G37*
G36*
X49763642Y-58414781D02*
G01*
X49909414Y-58475162D01*
X49909416Y-58475163D01*
X50040608Y-58562822D01*
X50152178Y-58674392D01*
X50239837Y-58805584D01*
X50239838Y-58805586D01*
X50300219Y-58951358D01*
X50331000Y-59106107D01*
X50331000Y-59263893D01*
X50300219Y-59418642D01*
X50239838Y-59564414D01*
X50239837Y-59564416D01*
X50152178Y-59695608D01*
X50040608Y-59807178D01*
X49909416Y-59894837D01*
X49909415Y-59894838D01*
X49909414Y-59894838D01*
X49763642Y-59955219D01*
X49608893Y-59986000D01*
X49451107Y-59986000D01*
X49296358Y-59955219D01*
X49150586Y-59894838D01*
X49150585Y-59894838D01*
X49150584Y-59894837D01*
X49019392Y-59807178D01*
X48907822Y-59695608D01*
X48820163Y-59564416D01*
X48820162Y-59564414D01*
X48759781Y-59418642D01*
X48729000Y-59263893D01*
X48729000Y-59106107D01*
X48759781Y-58951358D01*
X48820162Y-58805586D01*
X48820163Y-58805584D01*
X48907822Y-58674392D01*
X49019392Y-58562822D01*
X49150584Y-58475163D01*
X49150586Y-58475162D01*
X49296358Y-58414781D01*
X49451107Y-58384000D01*
X49608893Y-58384000D01*
X49763642Y-58414781D01*
G37*
G36*
X52303642Y-58414781D02*
G01*
X52449414Y-58475162D01*
X52449416Y-58475163D01*
X52580608Y-58562822D01*
X52692178Y-58674392D01*
X52779837Y-58805584D01*
X52779838Y-58805586D01*
X52840219Y-58951358D01*
X52871000Y-59106107D01*
X52871000Y-59263893D01*
X52840219Y-59418642D01*
X52779838Y-59564414D01*
X52779837Y-59564416D01*
X52692178Y-59695608D01*
X52580608Y-59807178D01*
X52449416Y-59894837D01*
X52449415Y-59894838D01*
X52449414Y-59894838D01*
X52303642Y-59955219D01*
X52148893Y-59986000D01*
X51991107Y-59986000D01*
X51836358Y-59955219D01*
X51690586Y-59894838D01*
X51690585Y-59894838D01*
X51690584Y-59894837D01*
X51559392Y-59807178D01*
X51447822Y-59695608D01*
X51360163Y-59564416D01*
X51360162Y-59564414D01*
X51299781Y-59418642D01*
X51269000Y-59263893D01*
X51269000Y-59106107D01*
X51299781Y-58951358D01*
X51360162Y-58805586D01*
X51360163Y-58805584D01*
X51447822Y-58674392D01*
X51559392Y-58562822D01*
X51690584Y-58475163D01*
X51690586Y-58475162D01*
X51836358Y-58414781D01*
X51991107Y-58384000D01*
X52148893Y-58384000D01*
X52303642Y-58414781D01*
G37*
G36*
X32016000Y-59956000D02*
G01*
X30214000Y-59956000D01*
X30214000Y-58154000D01*
X32016000Y-58154000D01*
X32016000Y-59956000D01*
G37*
G36*
X33768512Y-58158927D02*
G01*
X33917812Y-58188624D01*
X34081784Y-58256544D01*
X34229354Y-58355147D01*
X34354853Y-58480646D01*
X34453456Y-58628216D01*
X34521376Y-58792188D01*
X34556000Y-58966259D01*
X34556000Y-59143741D01*
X34521376Y-59317812D01*
X34453456Y-59481784D01*
X34354853Y-59629354D01*
X34229354Y-59754853D01*
X34081784Y-59853456D01*
X33917812Y-59921376D01*
X33768512Y-59951073D01*
X33743742Y-59956000D01*
X33566258Y-59956000D01*
X33541488Y-59951073D01*
X33392188Y-59921376D01*
X33228216Y-59853456D01*
X33080646Y-59754853D01*
X32955147Y-59629354D01*
X32856544Y-59481784D01*
X32788624Y-59317812D01*
X32754000Y-59143741D01*
X32754000Y-58966259D01*
X32788624Y-58792188D01*
X32856544Y-58628216D01*
X32955147Y-58480646D01*
X33080646Y-58355147D01*
X33228216Y-58256544D01*
X33392188Y-58188624D01*
X33541488Y-58158927D01*
X33566258Y-58154000D01*
X33743742Y-58154000D01*
X33768512Y-58158927D01*
G37*
G36*
X36308512Y-58158927D02*
G01*
X36457812Y-58188624D01*
X36621784Y-58256544D01*
X36769354Y-58355147D01*
X36894853Y-58480646D01*
X36993456Y-58628216D01*
X37061376Y-58792188D01*
X37096000Y-58966259D01*
X37096000Y-59143741D01*
X37061376Y-59317812D01*
X36993456Y-59481784D01*
X36894853Y-59629354D01*
X36769354Y-59754853D01*
X36621784Y-59853456D01*
X36457812Y-59921376D01*
X36308512Y-59951073D01*
X36283742Y-59956000D01*
X36106258Y-59956000D01*
X36081488Y-59951073D01*
X35932188Y-59921376D01*
X35768216Y-59853456D01*
X35620646Y-59754853D01*
X35495147Y-59629354D01*
X35396544Y-59481784D01*
X35328624Y-59317812D01*
X35294000Y-59143741D01*
X35294000Y-58966259D01*
X35328624Y-58792188D01*
X35396544Y-58628216D01*
X35495147Y-58480646D01*
X35620646Y-58355147D01*
X35768216Y-58256544D01*
X35932188Y-58188624D01*
X36081488Y-58158927D01*
X36106258Y-58154000D01*
X36283742Y-58154000D01*
X36308512Y-58158927D01*
G37*
G36*
X42212585Y-54993802D02*
G01*
X42362410Y-55023604D01*
X42644674Y-55140521D01*
X42898705Y-55310259D01*
X43114741Y-55526295D01*
X43284479Y-55780326D01*
X43401396Y-56062590D01*
X43461000Y-56362240D01*
X43461000Y-56667760D01*
X43401396Y-56967410D01*
X43284479Y-57249674D01*
X43114741Y-57503705D01*
X42898705Y-57719741D01*
X42644674Y-57889479D01*
X42362410Y-58006396D01*
X42212585Y-58036198D01*
X42062761Y-58066000D01*
X41757239Y-58066000D01*
X41607415Y-58036198D01*
X41457590Y-58006396D01*
X41175326Y-57889479D01*
X40921295Y-57719741D01*
X40705259Y-57503705D01*
X40535521Y-57249674D01*
X40418604Y-56967410D01*
X40359000Y-56667760D01*
X40359000Y-56362240D01*
X40418604Y-56062590D01*
X40535521Y-55780326D01*
X40705259Y-55526295D01*
X40921295Y-55310259D01*
X41175326Y-55140521D01*
X41457590Y-55023604D01*
X41607415Y-54993802D01*
X41757239Y-54964000D01*
X42062761Y-54964000D01*
X42212585Y-54993802D01*
G37*
G36*
X55932585Y-54993802D02*
G01*
X56082410Y-55023604D01*
X56364674Y-55140521D01*
X56618705Y-55310259D01*
X56834741Y-55526295D01*
X57004479Y-55780326D01*
X57121396Y-56062590D01*
X57181000Y-56362240D01*
X57181000Y-56667760D01*
X57121396Y-56967410D01*
X57004479Y-57249674D01*
X56834741Y-57503705D01*
X56618705Y-57719741D01*
X56364674Y-57889479D01*
X56082410Y-58006396D01*
X55932585Y-58036198D01*
X55782761Y-58066000D01*
X55477239Y-58066000D01*
X55327415Y-58036198D01*
X55177590Y-58006396D01*
X54895326Y-57889479D01*
X54641295Y-57719741D01*
X54425259Y-57503705D01*
X54255521Y-57249674D01*
X54138604Y-56967410D01*
X54079000Y-56667760D01*
X54079000Y-56362240D01*
X54138604Y-56062590D01*
X54255521Y-55780326D01*
X54425259Y-55526295D01*
X54641295Y-55310259D01*
X54895326Y-55140521D01*
X55177590Y-55023604D01*
X55327415Y-54993802D01*
X55477239Y-54964000D01*
X55782761Y-54964000D01*
X55932585Y-54993802D01*
G37*
G36*
X27491348Y-50373320D02*
G01*
X27491350Y-50373321D01*
X27491351Y-50373321D01*
X27632574Y-50431817D01*
X27632577Y-50431819D01*
X27759669Y-50516739D01*
X27867761Y-50624831D01*
X27952681Y-50751923D01*
X27952683Y-50751926D01*
X28011179Y-50893149D01*
X28041000Y-51043071D01*
X28041000Y-51195929D01*
X28011179Y-51345851D01*
X27952683Y-51487074D01*
X27952681Y-51487077D01*
X27867761Y-51614169D01*
X27759669Y-51722261D01*
X27632577Y-51807181D01*
X27632574Y-51807183D01*
X27491351Y-51865679D01*
X27491350Y-51865679D01*
X27491348Y-51865680D01*
X27341431Y-51895500D01*
X27188569Y-51895500D01*
X27038652Y-51865680D01*
X27038650Y-51865679D01*
X27038649Y-51865679D01*
X26897426Y-51807183D01*
X26897423Y-51807181D01*
X26770331Y-51722261D01*
X26662239Y-51614169D01*
X26577319Y-51487077D01*
X26577317Y-51487074D01*
X26518821Y-51345851D01*
X26489000Y-51195929D01*
X26489000Y-51043071D01*
X26518821Y-50893149D01*
X26577317Y-50751926D01*
X26577319Y-50751923D01*
X26662239Y-50624831D01*
X26770331Y-50516739D01*
X26897423Y-50431819D01*
X26897426Y-50431817D01*
X27038649Y-50373321D01*
X27038650Y-50373321D01*
X27038652Y-50373320D01*
X27188569Y-50343500D01*
X27341431Y-50343500D01*
X27491348Y-50373320D01*
G37*
G36*
X22491348Y-50373320D02*
G01*
X22491350Y-50373321D01*
X22491351Y-50373321D01*
X22632574Y-50431817D01*
X22632577Y-50431819D01*
X22759669Y-50516739D01*
X22867761Y-50624831D01*
X22952681Y-50751923D01*
X22952683Y-50751926D01*
X23011179Y-50893149D01*
X23041000Y-51043071D01*
X23041000Y-51195929D01*
X23011179Y-51345851D01*
X22952683Y-51487074D01*
X22952681Y-51487077D01*
X22867761Y-51614169D01*
X22759669Y-51722261D01*
X22632577Y-51807181D01*
X22632574Y-51807183D01*
X22491351Y-51865679D01*
X22491350Y-51865679D01*
X22491348Y-51865680D01*
X22341431Y-51895500D01*
X22188569Y-51895500D01*
X22038652Y-51865680D01*
X22038650Y-51865679D01*
X22038649Y-51865679D01*
X21897426Y-51807183D01*
X21897423Y-51807181D01*
X21770331Y-51722261D01*
X21662239Y-51614169D01*
X21577319Y-51487077D01*
X21577317Y-51487074D01*
X21518821Y-51345851D01*
X21489000Y-51195929D01*
X21489000Y-51043071D01*
X21518821Y-50893149D01*
X21577317Y-50751926D01*
X21577319Y-50751923D01*
X21662239Y-50624831D01*
X21770331Y-50516739D01*
X21897423Y-50431819D01*
X21897426Y-50431817D01*
X22038649Y-50373321D01*
X22038650Y-50373321D01*
X22038652Y-50373320D01*
X22188569Y-50343500D01*
X22341431Y-50343500D01*
X22491348Y-50373320D01*
G37*
G36*
X21392618Y-47427920D02*
G01*
X21483404Y-47455460D01*
X21515336Y-47465146D01*
X21628425Y-47525594D01*
X21727554Y-47606946D01*
X21808906Y-47706075D01*
X21869354Y-47819164D01*
X21879040Y-47851096D01*
X21906580Y-47941882D01*
X21916000Y-48037527D01*
X21916000Y-48801473D01*
X21906580Y-48897118D01*
X21879040Y-48987904D01*
X21869354Y-49019836D01*
X21808906Y-49132925D01*
X21727554Y-49232053D01*
X21628424Y-49313406D01*
X21515335Y-49373854D01*
X21483403Y-49383540D01*
X21392617Y-49411080D01*
X21265000Y-49423649D01*
X21137382Y-49411080D01*
X21046596Y-49383540D01*
X21014664Y-49373854D01*
X20901575Y-49313406D01*
X20802447Y-49232054D01*
X20721094Y-49132924D01*
X20660646Y-49019835D01*
X20650960Y-48987903D01*
X20623420Y-48897117D01*
X20614000Y-48801472D01*
X20614000Y-48037527D01*
X20623420Y-47941882D01*
X20660645Y-47819168D01*
X20685608Y-47772466D01*
X20721095Y-47706075D01*
X20802447Y-47606946D01*
X20901576Y-47525594D01*
X21014665Y-47465146D01*
X21046597Y-47455460D01*
X21137383Y-47427920D01*
X21265000Y-47415351D01*
X21392618Y-47427920D01*
G37*
G36*
X28392617Y-47427920D02*
G01*
X28483403Y-47455460D01*
X28515335Y-47465146D01*
X28628424Y-47525594D01*
X28727554Y-47606947D01*
X28808906Y-47706075D01*
X28869354Y-47819164D01*
X28879040Y-47851096D01*
X28906580Y-47941882D01*
X28916000Y-48037527D01*
X28916000Y-48801473D01*
X28906580Y-48897118D01*
X28879040Y-48987904D01*
X28869354Y-49019836D01*
X28808906Y-49132925D01*
X28727554Y-49232054D01*
X28628425Y-49313406D01*
X28515336Y-49373854D01*
X28483404Y-49383540D01*
X28392618Y-49411080D01*
X28265000Y-49423649D01*
X28137383Y-49411080D01*
X28046597Y-49383540D01*
X28014665Y-49373854D01*
X27901576Y-49313406D01*
X27802447Y-49232054D01*
X27721095Y-49132925D01*
X27660648Y-49019837D01*
X27660645Y-49019832D01*
X27623420Y-48897118D01*
X27614000Y-48801473D01*
X27614000Y-48037528D01*
X27623420Y-47941883D01*
X27660645Y-47819169D01*
X27660646Y-47819165D01*
X27721094Y-47706076D01*
X27802447Y-47606946D01*
X27901575Y-47525594D01*
X28014664Y-47465146D01*
X28046596Y-47455460D01*
X28137382Y-47427920D01*
X28265000Y-47415351D01*
X28392617Y-47427920D01*
G37*
M02*
