G04 #@! TF.GenerationSoftware,KiCad,Pcbnew,5.1.5*
G04 #@! TF.CreationDate,2020-02-24T18:37:19+03:00*
G04 #@! TF.ProjectId,max3421eboard,6d617833-3432-4316-9562-6f6172642e6b,rev?*
G04 #@! TF.SameCoordinates,PXf42400PY2bde780*
G04 #@! TF.FileFunction,Soldermask,Top*
G04 #@! TF.FilePolarity,Negative*
%FSLAX46Y46*%
G04 Gerber Fmt 4.6, Leading zero omitted, Abs format (unit mm)*
G04 Created by KiCad (PCBNEW 5.1.5) date 2020-02-24 18:37:19*
%MOMM*%
%LPD*%
G04 APERTURE LIST*
%ADD10C,0.100000*%
G04 APERTURE END LIST*
D10*
G36*
X21697000Y-25517000D02*
G01*
X20427000Y-25517000D01*
X20427000Y-24247000D01*
X21697000Y-24247000D01*
X21697000Y-25517000D01*
G37*
X21697000Y-25517000D02*
X20427000Y-25517000D01*
X20427000Y-24247000D01*
X21697000Y-24247000D01*
X21697000Y-25517000D01*
G36*
X14215000Y-48515000D02*
G01*
X12415000Y-48515000D01*
X12415000Y-46715000D01*
X14215000Y-46715000D01*
X14215000Y-48515000D01*
G37*
G36*
X33897523Y-46749586D02*
G01*
X34061308Y-46817429D01*
X34061310Y-46817430D01*
X34208717Y-46915924D01*
X34334076Y-47041283D01*
X34334078Y-47041286D01*
X34432571Y-47188692D01*
X34500414Y-47352477D01*
X34535000Y-47526358D01*
X34535000Y-47703642D01*
X34500414Y-47877523D01*
X34432571Y-48041308D01*
X34432570Y-48041310D01*
X34334076Y-48188717D01*
X34208717Y-48314076D01*
X34061310Y-48412570D01*
X34061309Y-48412571D01*
X34061308Y-48412571D01*
X33897523Y-48480414D01*
X33723642Y-48515000D01*
X33546358Y-48515000D01*
X33372477Y-48480414D01*
X33208692Y-48412571D01*
X33208691Y-48412571D01*
X33208690Y-48412570D01*
X33061283Y-48314076D01*
X32935924Y-48188717D01*
X32837430Y-48041310D01*
X32837429Y-48041308D01*
X32769586Y-47877523D01*
X32735000Y-47703642D01*
X32735000Y-47526358D01*
X32769586Y-47352477D01*
X32837429Y-47188692D01*
X32935922Y-47041286D01*
X32935924Y-47041283D01*
X33061283Y-46915924D01*
X33208690Y-46817430D01*
X33208692Y-46817429D01*
X33372477Y-46749586D01*
X33546358Y-46715000D01*
X33723642Y-46715000D01*
X33897523Y-46749586D01*
G37*
G36*
X36437523Y-46749586D02*
G01*
X36601308Y-46817429D01*
X36601310Y-46817430D01*
X36748717Y-46915924D01*
X36874076Y-47041283D01*
X36874078Y-47041286D01*
X36972571Y-47188692D01*
X37040414Y-47352477D01*
X37075000Y-47526358D01*
X37075000Y-47703642D01*
X37040414Y-47877523D01*
X36972571Y-48041308D01*
X36972570Y-48041310D01*
X36874076Y-48188717D01*
X36748717Y-48314076D01*
X36601310Y-48412570D01*
X36601309Y-48412571D01*
X36601308Y-48412571D01*
X36437523Y-48480414D01*
X36263642Y-48515000D01*
X36086358Y-48515000D01*
X35912477Y-48480414D01*
X35748692Y-48412571D01*
X35748691Y-48412571D01*
X35748690Y-48412570D01*
X35601283Y-48314076D01*
X35475924Y-48188717D01*
X35377430Y-48041310D01*
X35377429Y-48041308D01*
X35309586Y-47877523D01*
X35275000Y-47703642D01*
X35275000Y-47526358D01*
X35309586Y-47352477D01*
X35377429Y-47188692D01*
X35475922Y-47041286D01*
X35475924Y-47041283D01*
X35601283Y-46915924D01*
X35748690Y-46817430D01*
X35748692Y-46817429D01*
X35912477Y-46749586D01*
X36086358Y-46715000D01*
X36263642Y-46715000D01*
X36437523Y-46749586D01*
G37*
G36*
X31357523Y-46749586D02*
G01*
X31521308Y-46817429D01*
X31521310Y-46817430D01*
X31668717Y-46915924D01*
X31794076Y-47041283D01*
X31794078Y-47041286D01*
X31892571Y-47188692D01*
X31960414Y-47352477D01*
X31995000Y-47526358D01*
X31995000Y-47703642D01*
X31960414Y-47877523D01*
X31892571Y-48041308D01*
X31892570Y-48041310D01*
X31794076Y-48188717D01*
X31668717Y-48314076D01*
X31521310Y-48412570D01*
X31521309Y-48412571D01*
X31521308Y-48412571D01*
X31357523Y-48480414D01*
X31183642Y-48515000D01*
X31006358Y-48515000D01*
X30832477Y-48480414D01*
X30668692Y-48412571D01*
X30668691Y-48412571D01*
X30668690Y-48412570D01*
X30521283Y-48314076D01*
X30395924Y-48188717D01*
X30297430Y-48041310D01*
X30297429Y-48041308D01*
X30229586Y-47877523D01*
X30195000Y-47703642D01*
X30195000Y-47526358D01*
X30229586Y-47352477D01*
X30297429Y-47188692D01*
X30395922Y-47041286D01*
X30395924Y-47041283D01*
X30521283Y-46915924D01*
X30668690Y-46817430D01*
X30668692Y-46817429D01*
X30832477Y-46749586D01*
X31006358Y-46715000D01*
X31183642Y-46715000D01*
X31357523Y-46749586D01*
G37*
G36*
X28817523Y-46749586D02*
G01*
X28981308Y-46817429D01*
X28981310Y-46817430D01*
X29128717Y-46915924D01*
X29254076Y-47041283D01*
X29254078Y-47041286D01*
X29352571Y-47188692D01*
X29420414Y-47352477D01*
X29455000Y-47526358D01*
X29455000Y-47703642D01*
X29420414Y-47877523D01*
X29352571Y-48041308D01*
X29352570Y-48041310D01*
X29254076Y-48188717D01*
X29128717Y-48314076D01*
X28981310Y-48412570D01*
X28981309Y-48412571D01*
X28981308Y-48412571D01*
X28817523Y-48480414D01*
X28643642Y-48515000D01*
X28466358Y-48515000D01*
X28292477Y-48480414D01*
X28128692Y-48412571D01*
X28128691Y-48412571D01*
X28128690Y-48412570D01*
X27981283Y-48314076D01*
X27855924Y-48188717D01*
X27757430Y-48041310D01*
X27757429Y-48041308D01*
X27689586Y-47877523D01*
X27655000Y-47703642D01*
X27655000Y-47526358D01*
X27689586Y-47352477D01*
X27757429Y-47188692D01*
X27855922Y-47041286D01*
X27855924Y-47041283D01*
X27981283Y-46915924D01*
X28128690Y-46817430D01*
X28128692Y-46817429D01*
X28292477Y-46749586D01*
X28466358Y-46715000D01*
X28643642Y-46715000D01*
X28817523Y-46749586D01*
G37*
G36*
X26277523Y-46749586D02*
G01*
X26441308Y-46817429D01*
X26441310Y-46817430D01*
X26588717Y-46915924D01*
X26714076Y-47041283D01*
X26714078Y-47041286D01*
X26812571Y-47188692D01*
X26880414Y-47352477D01*
X26915000Y-47526358D01*
X26915000Y-47703642D01*
X26880414Y-47877523D01*
X26812571Y-48041308D01*
X26812570Y-48041310D01*
X26714076Y-48188717D01*
X26588717Y-48314076D01*
X26441310Y-48412570D01*
X26441309Y-48412571D01*
X26441308Y-48412571D01*
X26277523Y-48480414D01*
X26103642Y-48515000D01*
X25926358Y-48515000D01*
X25752477Y-48480414D01*
X25588692Y-48412571D01*
X25588691Y-48412571D01*
X25588690Y-48412570D01*
X25441283Y-48314076D01*
X25315924Y-48188717D01*
X25217430Y-48041310D01*
X25217429Y-48041308D01*
X25149586Y-47877523D01*
X25115000Y-47703642D01*
X25115000Y-47526358D01*
X25149586Y-47352477D01*
X25217429Y-47188692D01*
X25315922Y-47041286D01*
X25315924Y-47041283D01*
X25441283Y-46915924D01*
X25588690Y-46817430D01*
X25588692Y-46817429D01*
X25752477Y-46749586D01*
X25926358Y-46715000D01*
X26103642Y-46715000D01*
X26277523Y-46749586D01*
G37*
G36*
X21197523Y-46749586D02*
G01*
X21361308Y-46817429D01*
X21361310Y-46817430D01*
X21508717Y-46915924D01*
X21634076Y-47041283D01*
X21634078Y-47041286D01*
X21732571Y-47188692D01*
X21800414Y-47352477D01*
X21835000Y-47526358D01*
X21835000Y-47703642D01*
X21800414Y-47877523D01*
X21732571Y-48041308D01*
X21732570Y-48041310D01*
X21634076Y-48188717D01*
X21508717Y-48314076D01*
X21361310Y-48412570D01*
X21361309Y-48412571D01*
X21361308Y-48412571D01*
X21197523Y-48480414D01*
X21023642Y-48515000D01*
X20846358Y-48515000D01*
X20672477Y-48480414D01*
X20508692Y-48412571D01*
X20508691Y-48412571D01*
X20508690Y-48412570D01*
X20361283Y-48314076D01*
X20235924Y-48188717D01*
X20137430Y-48041310D01*
X20137429Y-48041308D01*
X20069586Y-47877523D01*
X20035000Y-47703642D01*
X20035000Y-47526358D01*
X20069586Y-47352477D01*
X20137429Y-47188692D01*
X20235922Y-47041286D01*
X20235924Y-47041283D01*
X20361283Y-46915924D01*
X20508690Y-46817430D01*
X20508692Y-46817429D01*
X20672477Y-46749586D01*
X20846358Y-46715000D01*
X21023642Y-46715000D01*
X21197523Y-46749586D01*
G37*
G36*
X23737523Y-46749586D02*
G01*
X23901308Y-46817429D01*
X23901310Y-46817430D01*
X24048717Y-46915924D01*
X24174076Y-47041283D01*
X24174078Y-47041286D01*
X24272571Y-47188692D01*
X24340414Y-47352477D01*
X24375000Y-47526358D01*
X24375000Y-47703642D01*
X24340414Y-47877523D01*
X24272571Y-48041308D01*
X24272570Y-48041310D01*
X24174076Y-48188717D01*
X24048717Y-48314076D01*
X23901310Y-48412570D01*
X23901309Y-48412571D01*
X23901308Y-48412571D01*
X23737523Y-48480414D01*
X23563642Y-48515000D01*
X23386358Y-48515000D01*
X23212477Y-48480414D01*
X23048692Y-48412571D01*
X23048691Y-48412571D01*
X23048690Y-48412570D01*
X22901283Y-48314076D01*
X22775924Y-48188717D01*
X22677430Y-48041310D01*
X22677429Y-48041308D01*
X22609586Y-47877523D01*
X22575000Y-47703642D01*
X22575000Y-47526358D01*
X22609586Y-47352477D01*
X22677429Y-47188692D01*
X22775922Y-47041286D01*
X22775924Y-47041283D01*
X22901283Y-46915924D01*
X23048690Y-46817430D01*
X23048692Y-46817429D01*
X23212477Y-46749586D01*
X23386358Y-46715000D01*
X23563642Y-46715000D01*
X23737523Y-46749586D01*
G37*
G36*
X16117523Y-46749586D02*
G01*
X16281308Y-46817429D01*
X16281310Y-46817430D01*
X16428717Y-46915924D01*
X16554076Y-47041283D01*
X16554078Y-47041286D01*
X16652571Y-47188692D01*
X16720414Y-47352477D01*
X16755000Y-47526358D01*
X16755000Y-47703642D01*
X16720414Y-47877523D01*
X16652571Y-48041308D01*
X16652570Y-48041310D01*
X16554076Y-48188717D01*
X16428717Y-48314076D01*
X16281310Y-48412570D01*
X16281309Y-48412571D01*
X16281308Y-48412571D01*
X16117523Y-48480414D01*
X15943642Y-48515000D01*
X15766358Y-48515000D01*
X15592477Y-48480414D01*
X15428692Y-48412571D01*
X15428691Y-48412571D01*
X15428690Y-48412570D01*
X15281283Y-48314076D01*
X15155924Y-48188717D01*
X15057430Y-48041310D01*
X15057429Y-48041308D01*
X14989586Y-47877523D01*
X14955000Y-47703642D01*
X14955000Y-47526358D01*
X14989586Y-47352477D01*
X15057429Y-47188692D01*
X15155922Y-47041286D01*
X15155924Y-47041283D01*
X15281283Y-46915924D01*
X15428690Y-46817430D01*
X15428692Y-46817429D01*
X15592477Y-46749586D01*
X15766358Y-46715000D01*
X15943642Y-46715000D01*
X16117523Y-46749586D01*
G37*
G36*
X18657523Y-46749586D02*
G01*
X18821308Y-46817429D01*
X18821310Y-46817430D01*
X18968717Y-46915924D01*
X19094076Y-47041283D01*
X19094078Y-47041286D01*
X19192571Y-47188692D01*
X19260414Y-47352477D01*
X19295000Y-47526358D01*
X19295000Y-47703642D01*
X19260414Y-47877523D01*
X19192571Y-48041308D01*
X19192570Y-48041310D01*
X19094076Y-48188717D01*
X18968717Y-48314076D01*
X18821310Y-48412570D01*
X18821309Y-48412571D01*
X18821308Y-48412571D01*
X18657523Y-48480414D01*
X18483642Y-48515000D01*
X18306358Y-48515000D01*
X18132477Y-48480414D01*
X17968692Y-48412571D01*
X17968691Y-48412571D01*
X17968690Y-48412570D01*
X17821283Y-48314076D01*
X17695924Y-48188717D01*
X17597430Y-48041310D01*
X17597429Y-48041308D01*
X17529586Y-47877523D01*
X17495000Y-47703642D01*
X17495000Y-47526358D01*
X17529586Y-47352477D01*
X17597429Y-47188692D01*
X17695922Y-47041286D01*
X17695924Y-47041283D01*
X17821283Y-46915924D01*
X17968690Y-46817430D01*
X17968692Y-46817429D01*
X18132477Y-46749586D01*
X18306358Y-46715000D01*
X18483642Y-46715000D01*
X18657523Y-46749586D01*
G37*
G36*
X3417523Y-44844586D02*
G01*
X3581308Y-44912429D01*
X3581310Y-44912430D01*
X3728717Y-45010924D01*
X3854076Y-45136283D01*
X3854078Y-45136286D01*
X3952571Y-45283692D01*
X4020414Y-45447477D01*
X4055000Y-45621358D01*
X4055000Y-45798642D01*
X4020414Y-45972523D01*
X3952571Y-46136308D01*
X3952570Y-46136310D01*
X3854076Y-46283717D01*
X3728717Y-46409076D01*
X3581310Y-46507570D01*
X3581309Y-46507571D01*
X3581308Y-46507571D01*
X3417523Y-46575414D01*
X3243642Y-46610000D01*
X3066358Y-46610000D01*
X2892477Y-46575414D01*
X2728692Y-46507571D01*
X2728691Y-46507571D01*
X2728690Y-46507570D01*
X2581283Y-46409076D01*
X2455924Y-46283717D01*
X2357430Y-46136310D01*
X2357429Y-46136308D01*
X2289586Y-45972523D01*
X2255000Y-45798642D01*
X2255000Y-45621358D01*
X2289586Y-45447477D01*
X2357429Y-45283692D01*
X2455922Y-45136286D01*
X2455924Y-45136283D01*
X2581283Y-45010924D01*
X2728690Y-44912430D01*
X2728692Y-44912429D01*
X2892477Y-44844586D01*
X3066358Y-44810000D01*
X3243642Y-44810000D01*
X3417523Y-44844586D01*
G37*
G36*
X5957523Y-44844586D02*
G01*
X6121308Y-44912429D01*
X6121310Y-44912430D01*
X6268717Y-45010924D01*
X6394076Y-45136283D01*
X6394078Y-45136286D01*
X6492571Y-45283692D01*
X6560414Y-45447477D01*
X6595000Y-45621358D01*
X6595000Y-45798642D01*
X6560414Y-45972523D01*
X6492571Y-46136308D01*
X6492570Y-46136310D01*
X6394076Y-46283717D01*
X6268717Y-46409076D01*
X6121310Y-46507570D01*
X6121309Y-46507571D01*
X6121308Y-46507571D01*
X5957523Y-46575414D01*
X5783642Y-46610000D01*
X5606358Y-46610000D01*
X5432477Y-46575414D01*
X5268692Y-46507571D01*
X5268691Y-46507571D01*
X5268690Y-46507570D01*
X5121283Y-46409076D01*
X4995924Y-46283717D01*
X4897430Y-46136310D01*
X4897429Y-46136308D01*
X4829586Y-45972523D01*
X4795000Y-45798642D01*
X4795000Y-45621358D01*
X4829586Y-45447477D01*
X4897429Y-45283692D01*
X4995922Y-45136286D01*
X4995924Y-45136283D01*
X5121283Y-45010924D01*
X5268690Y-44912430D01*
X5268692Y-44912429D01*
X5432477Y-44844586D01*
X5606358Y-44810000D01*
X5783642Y-44810000D01*
X5957523Y-44844586D01*
G37*
G36*
X3417523Y-42304586D02*
G01*
X3581308Y-42372429D01*
X3581310Y-42372430D01*
X3728717Y-42470924D01*
X3854076Y-42596283D01*
X3854078Y-42596286D01*
X3952571Y-42743692D01*
X4020414Y-42907477D01*
X4055000Y-43081358D01*
X4055000Y-43258642D01*
X4020414Y-43432523D01*
X3952571Y-43596308D01*
X3952570Y-43596310D01*
X3854076Y-43743717D01*
X3728717Y-43869076D01*
X3581310Y-43967570D01*
X3581309Y-43967571D01*
X3581308Y-43967571D01*
X3417523Y-44035414D01*
X3243642Y-44070000D01*
X3066358Y-44070000D01*
X2892477Y-44035414D01*
X2728692Y-43967571D01*
X2728691Y-43967571D01*
X2728690Y-43967570D01*
X2581283Y-43869076D01*
X2455924Y-43743717D01*
X2357430Y-43596310D01*
X2357429Y-43596308D01*
X2289586Y-43432523D01*
X2255000Y-43258642D01*
X2255000Y-43081358D01*
X2289586Y-42907477D01*
X2357429Y-42743692D01*
X2455922Y-42596286D01*
X2455924Y-42596283D01*
X2581283Y-42470924D01*
X2728690Y-42372430D01*
X2728692Y-42372429D01*
X2892477Y-42304586D01*
X3066358Y-42270000D01*
X3243642Y-42270000D01*
X3417523Y-42304586D01*
G37*
G36*
X5957523Y-42304586D02*
G01*
X6121308Y-42372429D01*
X6121310Y-42372430D01*
X6268717Y-42470924D01*
X6394076Y-42596283D01*
X6394078Y-42596286D01*
X6492571Y-42743692D01*
X6560414Y-42907477D01*
X6595000Y-43081358D01*
X6595000Y-43258642D01*
X6560414Y-43432523D01*
X6492571Y-43596308D01*
X6492570Y-43596310D01*
X6394076Y-43743717D01*
X6268717Y-43869076D01*
X6121310Y-43967570D01*
X6121309Y-43967571D01*
X6121308Y-43967571D01*
X5957523Y-44035414D01*
X5783642Y-44070000D01*
X5606358Y-44070000D01*
X5432477Y-44035414D01*
X5268692Y-43967571D01*
X5268691Y-43967571D01*
X5268690Y-43967570D01*
X5121283Y-43869076D01*
X4995924Y-43743717D01*
X4897430Y-43596310D01*
X4897429Y-43596308D01*
X4829586Y-43432523D01*
X4795000Y-43258642D01*
X4795000Y-43081358D01*
X4829586Y-42907477D01*
X4897429Y-42743692D01*
X4995922Y-42596286D01*
X4995924Y-42596283D01*
X5121283Y-42470924D01*
X5268690Y-42372430D01*
X5268692Y-42372429D01*
X5432477Y-42304586D01*
X5606358Y-42270000D01*
X5783642Y-42270000D01*
X5957523Y-42304586D01*
G37*
G36*
X5957523Y-39764586D02*
G01*
X6121308Y-39832429D01*
X6121310Y-39832430D01*
X6268717Y-39930924D01*
X6394076Y-40056283D01*
X6394078Y-40056286D01*
X6492571Y-40203692D01*
X6560414Y-40367477D01*
X6595000Y-40541358D01*
X6595000Y-40718642D01*
X6560414Y-40892523D01*
X6492571Y-41056308D01*
X6492570Y-41056310D01*
X6394076Y-41203717D01*
X6268717Y-41329076D01*
X6121310Y-41427570D01*
X6121309Y-41427571D01*
X6121308Y-41427571D01*
X5957523Y-41495414D01*
X5783642Y-41530000D01*
X5606358Y-41530000D01*
X5432477Y-41495414D01*
X5268692Y-41427571D01*
X5268691Y-41427571D01*
X5268690Y-41427570D01*
X5121283Y-41329076D01*
X4995924Y-41203717D01*
X4897430Y-41056310D01*
X4897429Y-41056308D01*
X4829586Y-40892523D01*
X4795000Y-40718642D01*
X4795000Y-40541358D01*
X4829586Y-40367477D01*
X4897429Y-40203692D01*
X4995922Y-40056286D01*
X4995924Y-40056283D01*
X5121283Y-39930924D01*
X5268690Y-39832430D01*
X5268692Y-39832429D01*
X5432477Y-39764586D01*
X5606358Y-39730000D01*
X5783642Y-39730000D01*
X5957523Y-39764586D01*
G37*
G36*
X3417523Y-39764586D02*
G01*
X3581308Y-39832429D01*
X3581310Y-39832430D01*
X3728717Y-39930924D01*
X3854076Y-40056283D01*
X3854078Y-40056286D01*
X3952571Y-40203692D01*
X4020414Y-40367477D01*
X4055000Y-40541358D01*
X4055000Y-40718642D01*
X4020414Y-40892523D01*
X3952571Y-41056308D01*
X3952570Y-41056310D01*
X3854076Y-41203717D01*
X3728717Y-41329076D01*
X3581310Y-41427570D01*
X3581309Y-41427571D01*
X3581308Y-41427571D01*
X3417523Y-41495414D01*
X3243642Y-41530000D01*
X3066358Y-41530000D01*
X2892477Y-41495414D01*
X2728692Y-41427571D01*
X2728691Y-41427571D01*
X2728690Y-41427570D01*
X2581283Y-41329076D01*
X2455924Y-41203717D01*
X2357430Y-41056310D01*
X2357429Y-41056308D01*
X2289586Y-40892523D01*
X2255000Y-40718642D01*
X2255000Y-40541358D01*
X2289586Y-40367477D01*
X2357429Y-40203692D01*
X2455922Y-40056286D01*
X2455924Y-40056283D01*
X2581283Y-39930924D01*
X2728690Y-39832430D01*
X2728692Y-39832429D01*
X2892477Y-39764586D01*
X3066358Y-39730000D01*
X3243642Y-39730000D01*
X3417523Y-39764586D01*
G37*
G36*
X25545000Y-41330000D02*
G01*
X23945000Y-41330000D01*
X23945000Y-39930000D01*
X25545000Y-39930000D01*
X25545000Y-41330000D01*
G37*
G36*
X22845000Y-41330000D02*
G01*
X21245000Y-41330000D01*
X21245000Y-39930000D01*
X22845000Y-39930000D01*
X22845000Y-41330000D01*
G37*
G36*
X35050000Y-39527000D02*
G01*
X33450000Y-39527000D01*
X33450000Y-38177000D01*
X35050000Y-38177000D01*
X35050000Y-39527000D01*
G37*
G36*
X32550000Y-39527000D02*
G01*
X30950000Y-39527000D01*
X30950000Y-38177000D01*
X32550000Y-38177000D01*
X32550000Y-39527000D01*
G37*
G36*
X3417523Y-37224586D02*
G01*
X3581308Y-37292429D01*
X3581310Y-37292430D01*
X3728717Y-37390924D01*
X3854076Y-37516283D01*
X3854078Y-37516286D01*
X3952571Y-37663692D01*
X4020414Y-37827477D01*
X4055000Y-38001358D01*
X4055000Y-38178642D01*
X4020414Y-38352523D01*
X3952571Y-38516308D01*
X3952570Y-38516310D01*
X3854076Y-38663717D01*
X3728717Y-38789076D01*
X3581310Y-38887570D01*
X3581309Y-38887571D01*
X3581308Y-38887571D01*
X3417523Y-38955414D01*
X3243642Y-38990000D01*
X3066358Y-38990000D01*
X2892477Y-38955414D01*
X2728692Y-38887571D01*
X2728691Y-38887571D01*
X2728690Y-38887570D01*
X2581283Y-38789076D01*
X2455924Y-38663717D01*
X2357430Y-38516310D01*
X2357429Y-38516308D01*
X2289586Y-38352523D01*
X2255000Y-38178642D01*
X2255000Y-38001358D01*
X2289586Y-37827477D01*
X2357429Y-37663692D01*
X2455922Y-37516286D01*
X2455924Y-37516283D01*
X2581283Y-37390924D01*
X2728690Y-37292430D01*
X2728692Y-37292429D01*
X2892477Y-37224586D01*
X3066358Y-37190000D01*
X3243642Y-37190000D01*
X3417523Y-37224586D01*
G37*
G36*
X5957523Y-37224586D02*
G01*
X6121308Y-37292429D01*
X6121310Y-37292430D01*
X6268717Y-37390924D01*
X6394076Y-37516283D01*
X6394078Y-37516286D01*
X6492571Y-37663692D01*
X6560414Y-37827477D01*
X6595000Y-38001358D01*
X6595000Y-38178642D01*
X6560414Y-38352523D01*
X6492571Y-38516308D01*
X6492570Y-38516310D01*
X6394076Y-38663717D01*
X6268717Y-38789076D01*
X6121310Y-38887570D01*
X6121309Y-38887571D01*
X6121308Y-38887571D01*
X5957523Y-38955414D01*
X5783642Y-38990000D01*
X5606358Y-38990000D01*
X5432477Y-38955414D01*
X5268692Y-38887571D01*
X5268691Y-38887571D01*
X5268690Y-38887570D01*
X5121283Y-38789076D01*
X4995924Y-38663717D01*
X4897430Y-38516310D01*
X4897429Y-38516308D01*
X4829586Y-38352523D01*
X4795000Y-38178642D01*
X4795000Y-38001358D01*
X4829586Y-37827477D01*
X4897429Y-37663692D01*
X4995922Y-37516286D01*
X4995924Y-37516283D01*
X5121283Y-37390924D01*
X5268690Y-37292430D01*
X5268692Y-37292429D01*
X5432477Y-37224586D01*
X5606358Y-37190000D01*
X5783642Y-37190000D01*
X5957523Y-37224586D01*
G37*
G36*
X24642062Y-37671620D02*
G01*
X24391746Y-37921936D01*
X23512812Y-37043002D01*
X23763128Y-36792686D01*
X24642062Y-37671620D01*
G37*
G36*
X22167188Y-37043002D02*
G01*
X21288254Y-37921936D01*
X21037938Y-37671620D01*
X21916872Y-36792686D01*
X22167188Y-37043002D01*
G37*
G36*
X24995615Y-37318066D02*
G01*
X24745299Y-37568382D01*
X23866365Y-36689448D01*
X24116681Y-36439132D01*
X24995615Y-37318066D01*
G37*
G36*
X21813635Y-36689448D02*
G01*
X20934701Y-37568382D01*
X20684385Y-37318066D01*
X21563319Y-36439132D01*
X21813635Y-36689448D01*
G37*
G36*
X21460081Y-36335895D02*
G01*
X20581147Y-37214829D01*
X20330831Y-36964513D01*
X21209765Y-36085579D01*
X21460081Y-36335895D01*
G37*
G36*
X25349169Y-36964513D02*
G01*
X25098853Y-37214829D01*
X24219919Y-36335895D01*
X24470235Y-36085579D01*
X25349169Y-36964513D01*
G37*
G36*
X33690000Y-37095000D02*
G01*
X32940000Y-37095000D01*
X32940000Y-35435000D01*
X33690000Y-35435000D01*
X33690000Y-37095000D01*
G37*
G36*
X32740000Y-37095000D02*
G01*
X31990000Y-37095000D01*
X31990000Y-35435000D01*
X32740000Y-35435000D01*
X32740000Y-37095000D01*
G37*
G36*
X31790000Y-37095000D02*
G01*
X31040000Y-37095000D01*
X31040000Y-35435000D01*
X31790000Y-35435000D01*
X31790000Y-37095000D01*
G37*
G36*
X21106528Y-35982341D02*
G01*
X20227594Y-36861275D01*
X19977278Y-36610959D01*
X20856212Y-35732025D01*
X21106528Y-35982341D01*
G37*
G36*
X25702722Y-36610959D02*
G01*
X25452406Y-36861275D01*
X24573472Y-35982341D01*
X24823788Y-35732025D01*
X25702722Y-36610959D01*
G37*
G36*
X18560000Y-36860000D02*
G01*
X16960000Y-36860000D01*
X16960000Y-35510000D01*
X18560000Y-35510000D01*
X18560000Y-36860000D01*
G37*
G36*
X16060000Y-36860000D02*
G01*
X14460000Y-36860000D01*
X14460000Y-35510000D01*
X16060000Y-35510000D01*
X16060000Y-36860000D01*
G37*
G36*
X35961000Y-36838000D02*
G01*
X34611000Y-36838000D01*
X34611000Y-35238000D01*
X35961000Y-35238000D01*
X35961000Y-36838000D01*
G37*
G36*
X26056275Y-36257406D02*
G01*
X25805959Y-36507722D01*
X24927025Y-35628788D01*
X25177341Y-35378472D01*
X26056275Y-36257406D01*
G37*
G36*
X20752975Y-35628788D02*
G01*
X19874041Y-36507722D01*
X19623725Y-36257406D01*
X20502659Y-35378472D01*
X20752975Y-35628788D01*
G37*
G36*
X3417523Y-34684586D02*
G01*
X3581308Y-34752429D01*
X3581310Y-34752430D01*
X3728717Y-34850924D01*
X3854076Y-34976283D01*
X3854078Y-34976286D01*
X3952571Y-35123692D01*
X4020414Y-35287477D01*
X4055000Y-35461358D01*
X4055000Y-35638642D01*
X4020414Y-35812523D01*
X3982583Y-35903853D01*
X3952570Y-35976310D01*
X3854076Y-36123717D01*
X3728717Y-36249076D01*
X3581310Y-36347570D01*
X3581309Y-36347571D01*
X3581308Y-36347571D01*
X3417523Y-36415414D01*
X3243642Y-36450000D01*
X3066358Y-36450000D01*
X2892477Y-36415414D01*
X2728692Y-36347571D01*
X2728691Y-36347571D01*
X2728690Y-36347570D01*
X2581283Y-36249076D01*
X2455924Y-36123717D01*
X2357430Y-35976310D01*
X2327417Y-35903853D01*
X2289586Y-35812523D01*
X2255000Y-35638642D01*
X2255000Y-35461358D01*
X2289586Y-35287477D01*
X2357429Y-35123692D01*
X2455922Y-34976286D01*
X2455924Y-34976283D01*
X2581283Y-34850924D01*
X2728690Y-34752430D01*
X2728692Y-34752429D01*
X2892477Y-34684586D01*
X3066358Y-34650000D01*
X3243642Y-34650000D01*
X3417523Y-34684586D01*
G37*
G36*
X5957523Y-34684586D02*
G01*
X6121308Y-34752429D01*
X6121310Y-34752430D01*
X6268717Y-34850924D01*
X6394076Y-34976283D01*
X6394078Y-34976286D01*
X6492571Y-35123692D01*
X6560414Y-35287477D01*
X6595000Y-35461358D01*
X6595000Y-35638642D01*
X6560414Y-35812523D01*
X6522583Y-35903853D01*
X6492570Y-35976310D01*
X6394076Y-36123717D01*
X6268717Y-36249076D01*
X6121310Y-36347570D01*
X6121309Y-36347571D01*
X6121308Y-36347571D01*
X5957523Y-36415414D01*
X5783642Y-36450000D01*
X5606358Y-36450000D01*
X5432477Y-36415414D01*
X5268692Y-36347571D01*
X5268691Y-36347571D01*
X5268690Y-36347570D01*
X5121283Y-36249076D01*
X4995924Y-36123717D01*
X4897430Y-35976310D01*
X4867417Y-35903853D01*
X4829586Y-35812523D01*
X4795000Y-35638642D01*
X4795000Y-35461358D01*
X4829586Y-35287477D01*
X4897429Y-35123692D01*
X4995922Y-34976286D01*
X4995924Y-34976283D01*
X5121283Y-34850924D01*
X5268690Y-34752430D01*
X5268692Y-34752429D01*
X5432477Y-34684586D01*
X5606358Y-34650000D01*
X5783642Y-34650000D01*
X5957523Y-34684586D01*
G37*
G36*
X20399421Y-35275235D02*
G01*
X19520487Y-36154169D01*
X19270171Y-35903853D01*
X20149105Y-35024919D01*
X20399421Y-35275235D01*
G37*
G36*
X26409829Y-35903853D02*
G01*
X26159513Y-36154169D01*
X25280579Y-35275235D01*
X25530895Y-35024919D01*
X26409829Y-35903853D01*
G37*
G36*
X26763382Y-35550299D02*
G01*
X26513066Y-35800615D01*
X25634132Y-34921681D01*
X25884448Y-34671365D01*
X26763382Y-35550299D01*
G37*
G36*
X20045868Y-34921681D02*
G01*
X19166934Y-35800615D01*
X18916618Y-35550299D01*
X19795552Y-34671365D01*
X20045868Y-34921681D01*
G37*
G36*
X19692314Y-34568128D02*
G01*
X18813380Y-35447062D01*
X18563064Y-35196746D01*
X19441998Y-34317812D01*
X19692314Y-34568128D01*
G37*
G36*
X27116936Y-35196746D02*
G01*
X26866620Y-35447062D01*
X25987686Y-34568128D01*
X26238002Y-34317812D01*
X27116936Y-35196746D01*
G37*
G36*
X33690000Y-34395000D02*
G01*
X32940000Y-34395000D01*
X32940000Y-32735000D01*
X33690000Y-32735000D01*
X33690000Y-34395000D01*
G37*
G36*
X31790000Y-34395000D02*
G01*
X31040000Y-34395000D01*
X31040000Y-32735000D01*
X31790000Y-32735000D01*
X31790000Y-34395000D01*
G37*
G36*
X35961000Y-34338000D02*
G01*
X34611000Y-34338000D01*
X34611000Y-32738000D01*
X35961000Y-32738000D01*
X35961000Y-34338000D01*
G37*
G36*
X5957523Y-32144586D02*
G01*
X6121308Y-32212429D01*
X6121310Y-32212430D01*
X6268717Y-32310924D01*
X6394076Y-32436283D01*
X6394078Y-32436286D01*
X6492571Y-32583692D01*
X6560414Y-32747477D01*
X6595000Y-32921358D01*
X6595000Y-33098642D01*
X6560414Y-33272523D01*
X6492571Y-33436308D01*
X6492570Y-33436310D01*
X6394076Y-33583717D01*
X6268717Y-33709076D01*
X6121310Y-33807570D01*
X6121309Y-33807571D01*
X6121308Y-33807571D01*
X5957523Y-33875414D01*
X5783642Y-33910000D01*
X5606358Y-33910000D01*
X5432477Y-33875414D01*
X5268692Y-33807571D01*
X5268691Y-33807571D01*
X5268690Y-33807570D01*
X5121283Y-33709076D01*
X4995924Y-33583717D01*
X4897430Y-33436310D01*
X4897429Y-33436308D01*
X4829586Y-33272523D01*
X4795000Y-33098642D01*
X4795000Y-32921358D01*
X4829586Y-32747477D01*
X4897429Y-32583692D01*
X4995922Y-32436286D01*
X4995924Y-32436283D01*
X5121283Y-32310924D01*
X5268690Y-32212430D01*
X5268692Y-32212429D01*
X5432477Y-32144586D01*
X5606358Y-32110000D01*
X5783642Y-32110000D01*
X5957523Y-32144586D01*
G37*
G36*
X3417523Y-32144586D02*
G01*
X3581308Y-32212429D01*
X3581310Y-32212430D01*
X3728717Y-32310924D01*
X3854076Y-32436283D01*
X3854078Y-32436286D01*
X3952571Y-32583692D01*
X4020414Y-32747477D01*
X4055000Y-32921358D01*
X4055000Y-33098642D01*
X4020414Y-33272523D01*
X3952571Y-33436308D01*
X3952570Y-33436310D01*
X3854076Y-33583717D01*
X3728717Y-33709076D01*
X3581310Y-33807570D01*
X3581309Y-33807571D01*
X3581308Y-33807571D01*
X3417523Y-33875414D01*
X3243642Y-33910000D01*
X3066358Y-33910000D01*
X2892477Y-33875414D01*
X2728692Y-33807571D01*
X2728691Y-33807571D01*
X2728690Y-33807570D01*
X2581283Y-33709076D01*
X2455924Y-33583717D01*
X2357430Y-33436310D01*
X2357429Y-33436308D01*
X2289586Y-33272523D01*
X2255000Y-33098642D01*
X2255000Y-32921358D01*
X2289586Y-32747477D01*
X2357429Y-32583692D01*
X2455922Y-32436286D01*
X2455924Y-32436283D01*
X2581283Y-32310924D01*
X2728690Y-32212430D01*
X2728692Y-32212429D01*
X2892477Y-32144586D01*
X3066358Y-32110000D01*
X3243642Y-32110000D01*
X3417523Y-32144586D01*
G37*
G36*
X27116936Y-32093254D02*
G01*
X26238002Y-32972188D01*
X25987686Y-32721872D01*
X26866620Y-31842938D01*
X27116936Y-32093254D01*
G37*
G36*
X19692314Y-32721872D02*
G01*
X19441998Y-32972188D01*
X18563064Y-32093254D01*
X18813380Y-31842938D01*
X19692314Y-32721872D01*
G37*
G36*
X26763382Y-31739701D02*
G01*
X25884448Y-32618635D01*
X25634132Y-32368319D01*
X26513066Y-31489385D01*
X26763382Y-31739701D01*
G37*
G36*
X20045868Y-32368319D02*
G01*
X19795552Y-32618635D01*
X18916618Y-31739701D01*
X19166934Y-31489385D01*
X20045868Y-32368319D01*
G37*
G36*
X20399421Y-32014765D02*
G01*
X20149105Y-32265081D01*
X19270171Y-31386147D01*
X19520487Y-31135831D01*
X20399421Y-32014765D01*
G37*
G36*
X26409829Y-31386147D02*
G01*
X25530895Y-32265081D01*
X25280579Y-32014765D01*
X26159513Y-31135831D01*
X26409829Y-31386147D01*
G37*
G36*
X32042000Y-32161000D02*
G01*
X30442000Y-32161000D01*
X30442000Y-30811000D01*
X32042000Y-30811000D01*
X32042000Y-32161000D01*
G37*
G36*
X34542000Y-32161000D02*
G01*
X32942000Y-32161000D01*
X32942000Y-30811000D01*
X34542000Y-30811000D01*
X34542000Y-32161000D01*
G37*
G36*
X26056275Y-31032594D02*
G01*
X25177341Y-31911528D01*
X24927025Y-31661212D01*
X25805959Y-30782278D01*
X26056275Y-31032594D01*
G37*
G36*
X20752975Y-31661212D02*
G01*
X20502659Y-31911528D01*
X19623725Y-31032594D01*
X19874041Y-30782278D01*
X20752975Y-31661212D01*
G37*
G36*
X21106528Y-31307659D02*
G01*
X20856212Y-31557975D01*
X19977278Y-30679041D01*
X20227594Y-30428725D01*
X21106528Y-31307659D01*
G37*
G36*
X25702722Y-30679041D02*
G01*
X24823788Y-31557975D01*
X24573472Y-31307659D01*
X25452406Y-30428725D01*
X25702722Y-30679041D01*
G37*
G36*
X5957523Y-29604586D02*
G01*
X6121308Y-29672429D01*
X6121310Y-29672430D01*
X6268717Y-29770924D01*
X6394076Y-29896283D01*
X6394078Y-29896286D01*
X6492571Y-30043692D01*
X6560414Y-30207477D01*
X6595000Y-30381358D01*
X6595000Y-30558642D01*
X6560414Y-30732523D01*
X6511393Y-30850868D01*
X6492570Y-30896310D01*
X6394076Y-31043717D01*
X6268717Y-31169076D01*
X6121310Y-31267570D01*
X6121309Y-31267571D01*
X6121308Y-31267571D01*
X5957523Y-31335414D01*
X5783642Y-31370000D01*
X5606358Y-31370000D01*
X5432477Y-31335414D01*
X5268692Y-31267571D01*
X5268691Y-31267571D01*
X5268690Y-31267570D01*
X5121283Y-31169076D01*
X4995924Y-31043717D01*
X4897430Y-30896310D01*
X4878607Y-30850868D01*
X4829586Y-30732523D01*
X4795000Y-30558642D01*
X4795000Y-30381358D01*
X4829586Y-30207477D01*
X4897429Y-30043692D01*
X4995922Y-29896286D01*
X4995924Y-29896283D01*
X5121283Y-29770924D01*
X5268690Y-29672430D01*
X5268692Y-29672429D01*
X5432477Y-29604586D01*
X5606358Y-29570000D01*
X5783642Y-29570000D01*
X5957523Y-29604586D01*
G37*
G36*
X3417523Y-29604586D02*
G01*
X3581308Y-29672429D01*
X3581310Y-29672430D01*
X3728717Y-29770924D01*
X3854076Y-29896283D01*
X3854078Y-29896286D01*
X3952571Y-30043692D01*
X4020414Y-30207477D01*
X4055000Y-30381358D01*
X4055000Y-30558642D01*
X4020414Y-30732523D01*
X3971393Y-30850868D01*
X3952570Y-30896310D01*
X3854076Y-31043717D01*
X3728717Y-31169076D01*
X3581310Y-31267570D01*
X3581309Y-31267571D01*
X3581308Y-31267571D01*
X3417523Y-31335414D01*
X3243642Y-31370000D01*
X3066358Y-31370000D01*
X2892477Y-31335414D01*
X2728692Y-31267571D01*
X2728691Y-31267571D01*
X2728690Y-31267570D01*
X2581283Y-31169076D01*
X2455924Y-31043717D01*
X2357430Y-30896310D01*
X2338607Y-30850868D01*
X2289586Y-30732523D01*
X2255000Y-30558642D01*
X2255000Y-30381358D01*
X2289586Y-30207477D01*
X2357429Y-30043692D01*
X2455922Y-29896286D01*
X2455924Y-29896283D01*
X2581283Y-29770924D01*
X2728690Y-29672430D01*
X2728692Y-29672429D01*
X2892477Y-29604586D01*
X3066358Y-29570000D01*
X3243642Y-29570000D01*
X3417523Y-29604586D01*
G37*
G36*
X21460081Y-30954105D02*
G01*
X21209765Y-31204421D01*
X20330831Y-30325487D01*
X20581147Y-30075171D01*
X21460081Y-30954105D01*
G37*
G36*
X25349169Y-30325487D02*
G01*
X24470235Y-31204421D01*
X24219919Y-30954105D01*
X25098853Y-30075171D01*
X25349169Y-30325487D01*
G37*
G36*
X9670000Y-31170000D02*
G01*
X8070000Y-31170000D01*
X8070000Y-29770000D01*
X9670000Y-29770000D01*
X9670000Y-31170000D01*
G37*
G36*
X12370000Y-31170000D02*
G01*
X10770000Y-31170000D01*
X10770000Y-29770000D01*
X12370000Y-29770000D01*
X12370000Y-31170000D01*
G37*
G36*
X24995615Y-29971934D02*
G01*
X24116681Y-30850868D01*
X23866365Y-30600552D01*
X24745299Y-29721618D01*
X24995615Y-29971934D01*
G37*
G36*
X21813635Y-30600552D02*
G01*
X21563319Y-30850868D01*
X20684385Y-29971934D01*
X20934701Y-29721618D01*
X21813635Y-30600552D01*
G37*
G36*
X24642062Y-29618380D02*
G01*
X23763128Y-30497314D01*
X23512812Y-30246998D01*
X24391746Y-29368064D01*
X24642062Y-29618380D01*
G37*
G36*
X22167188Y-30246998D02*
G01*
X21916872Y-30497314D01*
X21037938Y-29618380D01*
X21288254Y-29368064D01*
X22167188Y-30246998D01*
G37*
G36*
X6595000Y-28830000D02*
G01*
X4795000Y-28830000D01*
X4795000Y-27030000D01*
X6595000Y-27030000D01*
X6595000Y-28830000D01*
G37*
G36*
X4055000Y-28830000D02*
G01*
X2255000Y-28830000D01*
X2255000Y-27030000D01*
X4055000Y-27030000D01*
X4055000Y-28830000D01*
G37*
G36*
X26055000Y-28710000D02*
G01*
X24705000Y-28710000D01*
X24705000Y-27110000D01*
X26055000Y-27110000D01*
X26055000Y-28710000D01*
G37*
G36*
X24150000Y-28710000D02*
G01*
X22800000Y-28710000D01*
X22800000Y-27110000D01*
X24150000Y-27110000D01*
X24150000Y-28710000D01*
G37*
G36*
X12370000Y-28630000D02*
G01*
X10770000Y-28630000D01*
X10770000Y-27230000D01*
X12370000Y-27230000D01*
X12370000Y-28630000D01*
G37*
G36*
X9670000Y-28630000D02*
G01*
X8070000Y-28630000D01*
X8070000Y-27230000D01*
X9670000Y-27230000D01*
X9670000Y-28630000D01*
G37*
G36*
X27960000Y-27460000D02*
G01*
X26610000Y-27460000D01*
X26610000Y-25860000D01*
X27960000Y-25860000D01*
X27960000Y-27460000D01*
G37*
G36*
X26055000Y-26210000D02*
G01*
X24705000Y-26210000D01*
X24705000Y-24610000D01*
X26055000Y-24610000D01*
X26055000Y-26210000D01*
G37*
G36*
X24150000Y-26210000D02*
G01*
X22800000Y-26210000D01*
X22800000Y-24610000D01*
X24150000Y-24610000D01*
X24150000Y-26210000D01*
G37*
G36*
X9670000Y-26090000D02*
G01*
X8070000Y-26090000D01*
X8070000Y-24690000D01*
X9670000Y-24690000D01*
X9670000Y-26090000D01*
G37*
G36*
X12370000Y-26090000D02*
G01*
X10770000Y-26090000D01*
X10770000Y-24690000D01*
X12370000Y-24690000D01*
X12370000Y-26090000D01*
G37*
G36*
X21717355Y-24082285D02*
G01*
X21721802Y-24082723D01*
X21721803Y-24082723D01*
X21728908Y-24083423D01*
X21728974Y-24082751D01*
X21736156Y-24083815D01*
X21757447Y-24083815D01*
X21765910Y-24084648D01*
X21770811Y-24085131D01*
X21770813Y-24085131D01*
X21774373Y-24085482D01*
X21863516Y-24103214D01*
X21866936Y-24104251D01*
X21866944Y-24104253D01*
X21876369Y-24107112D01*
X21876374Y-24107114D01*
X21879799Y-24108153D01*
X21963767Y-24142934D01*
X21966917Y-24144618D01*
X21966925Y-24144621D01*
X21975611Y-24149264D01*
X21975616Y-24149267D01*
X21978764Y-24150950D01*
X22054340Y-24201448D01*
X22057102Y-24203715D01*
X22057110Y-24203720D01*
X22064057Y-24209422D01*
X22067488Y-24212238D01*
X22131762Y-24276512D01*
X22134031Y-24279277D01*
X22140280Y-24286890D01*
X22140285Y-24286898D01*
X22142552Y-24289660D01*
X22193050Y-24365236D01*
X22194733Y-24368384D01*
X22194736Y-24368389D01*
X22199379Y-24377075D01*
X22199382Y-24377083D01*
X22201066Y-24380233D01*
X22235847Y-24464201D01*
X22236886Y-24467626D01*
X22236888Y-24467631D01*
X22239747Y-24477056D01*
X22239749Y-24477064D01*
X22240786Y-24480484D01*
X22258518Y-24569627D01*
X22260185Y-24586553D01*
X22260185Y-24607844D01*
X22261249Y-24615026D01*
X22260577Y-24615092D01*
X22262593Y-24635562D01*
X22262593Y-25128438D01*
X22260577Y-25148908D01*
X22261249Y-25148974D01*
X22260185Y-25156156D01*
X22260185Y-25177447D01*
X22258518Y-25194373D01*
X22240786Y-25283516D01*
X22239749Y-25286936D01*
X22239747Y-25286944D01*
X22236888Y-25296369D01*
X22236886Y-25296374D01*
X22235847Y-25299799D01*
X22201066Y-25383767D01*
X22199382Y-25386917D01*
X22199379Y-25386925D01*
X22194736Y-25395611D01*
X22194733Y-25395616D01*
X22193050Y-25398764D01*
X22142552Y-25474340D01*
X22140285Y-25477102D01*
X22140280Y-25477110D01*
X22134578Y-25484057D01*
X22131762Y-25487488D01*
X22067488Y-25551762D01*
X22064723Y-25554031D01*
X22057110Y-25560280D01*
X22057102Y-25560285D01*
X22054340Y-25562552D01*
X21978764Y-25613050D01*
X21975616Y-25614733D01*
X21975611Y-25614736D01*
X21966925Y-25619379D01*
X21966917Y-25619382D01*
X21963767Y-25621066D01*
X21879799Y-25655847D01*
X21876374Y-25656886D01*
X21876369Y-25656888D01*
X21866944Y-25659747D01*
X21866936Y-25659749D01*
X21863516Y-25660786D01*
X21774373Y-25678518D01*
X21770813Y-25678869D01*
X21770811Y-25678869D01*
X21765910Y-25679351D01*
X21757447Y-25680185D01*
X21736156Y-25680185D01*
X21728974Y-25681249D01*
X21728908Y-25680577D01*
X21721803Y-25681277D01*
X21721802Y-25681277D01*
X21717355Y-25681715D01*
X21708438Y-25682593D01*
X21215562Y-25682593D01*
X21207255Y-25681775D01*
X21202198Y-25681277D01*
X21192773Y-25678418D01*
X21188083Y-25675911D01*
X21184090Y-25673777D01*
X21184089Y-25673776D01*
X21184087Y-25673775D01*
X21176474Y-25667526D01*
X21170225Y-25659913D01*
X21165582Y-25651227D01*
X21162723Y-25641802D01*
X21161758Y-25632000D01*
X21161407Y-25628438D01*
X21161407Y-24135562D01*
X21162723Y-24122200D01*
X21162723Y-24122198D01*
X21165582Y-24112773D01*
X21170225Y-24104087D01*
X21176474Y-24096474D01*
X21184087Y-24090225D01*
X21184089Y-24090224D01*
X21184090Y-24090223D01*
X21188083Y-24088089D01*
X21192773Y-24085582D01*
X21202198Y-24082723D01*
X21207255Y-24082225D01*
X21215562Y-24081407D01*
X21708438Y-24081407D01*
X21717355Y-24082285D01*
G37*
G36*
X20916745Y-24082225D02*
G01*
X20921802Y-24082723D01*
X20931227Y-24085582D01*
X20935917Y-24088089D01*
X20939910Y-24090223D01*
X20939911Y-24090224D01*
X20939913Y-24090225D01*
X20947526Y-24096474D01*
X20953775Y-24104087D01*
X20958418Y-24112773D01*
X20961277Y-24122198D01*
X20961277Y-24122200D01*
X20962593Y-24135562D01*
X20962593Y-25628438D01*
X20962242Y-25632000D01*
X20961277Y-25641802D01*
X20958418Y-25651227D01*
X20953775Y-25659913D01*
X20947526Y-25667526D01*
X20939913Y-25673775D01*
X20939911Y-25673776D01*
X20939910Y-25673777D01*
X20935917Y-25675911D01*
X20931227Y-25678418D01*
X20921802Y-25681277D01*
X20916745Y-25681775D01*
X20908438Y-25682593D01*
X20415562Y-25682593D01*
X20406645Y-25681715D01*
X20402198Y-25681277D01*
X20402197Y-25681277D01*
X20395092Y-25680577D01*
X20395026Y-25681249D01*
X20387844Y-25680185D01*
X20366553Y-25680185D01*
X20358090Y-25679351D01*
X20353189Y-25678869D01*
X20353187Y-25678869D01*
X20349627Y-25678518D01*
X20260484Y-25660786D01*
X20257064Y-25659749D01*
X20257056Y-25659747D01*
X20247631Y-25656888D01*
X20247626Y-25656886D01*
X20244201Y-25655847D01*
X20160233Y-25621066D01*
X20157083Y-25619382D01*
X20157075Y-25619379D01*
X20148389Y-25614736D01*
X20148384Y-25614733D01*
X20145236Y-25613050D01*
X20069660Y-25562552D01*
X20066898Y-25560285D01*
X20066890Y-25560280D01*
X20059277Y-25554031D01*
X20056512Y-25551762D01*
X19992238Y-25487488D01*
X19989422Y-25484057D01*
X19983720Y-25477110D01*
X19983715Y-25477102D01*
X19981448Y-25474340D01*
X19930950Y-25398764D01*
X19929267Y-25395616D01*
X19929264Y-25395611D01*
X19924621Y-25386925D01*
X19924618Y-25386917D01*
X19922934Y-25383767D01*
X19888153Y-25299799D01*
X19887114Y-25296374D01*
X19887112Y-25296369D01*
X19884253Y-25286944D01*
X19884251Y-25286936D01*
X19883214Y-25283516D01*
X19865482Y-25194373D01*
X19863815Y-25177447D01*
X19863815Y-25156156D01*
X19862751Y-25148974D01*
X19863423Y-25148908D01*
X19861407Y-25128438D01*
X19861407Y-24635562D01*
X19863423Y-24615092D01*
X19862751Y-24615026D01*
X19863815Y-24607844D01*
X19863815Y-24586553D01*
X19865482Y-24569627D01*
X19883214Y-24480484D01*
X19884251Y-24477064D01*
X19884253Y-24477056D01*
X19887112Y-24467631D01*
X19887114Y-24467626D01*
X19888153Y-24464201D01*
X19922934Y-24380233D01*
X19924618Y-24377083D01*
X19924621Y-24377075D01*
X19929264Y-24368389D01*
X19929267Y-24368384D01*
X19930950Y-24365236D01*
X19981448Y-24289660D01*
X19983715Y-24286898D01*
X19983720Y-24286890D01*
X19989969Y-24279277D01*
X19992238Y-24276512D01*
X20056512Y-24212238D01*
X20059943Y-24209422D01*
X20066890Y-24203720D01*
X20066898Y-24203715D01*
X20069660Y-24201448D01*
X20145236Y-24150950D01*
X20148384Y-24149267D01*
X20148389Y-24149264D01*
X20157075Y-24144621D01*
X20157083Y-24144618D01*
X20160233Y-24142934D01*
X20244201Y-24108153D01*
X20247626Y-24107114D01*
X20247631Y-24107112D01*
X20257056Y-24104253D01*
X20257064Y-24104251D01*
X20260484Y-24103214D01*
X20349627Y-24085482D01*
X20353187Y-24085131D01*
X20353189Y-24085131D01*
X20358090Y-24084648D01*
X20366553Y-24083815D01*
X20387844Y-24083815D01*
X20395026Y-24082751D01*
X20395092Y-24083423D01*
X20402197Y-24082723D01*
X20402198Y-24082723D01*
X20406645Y-24082285D01*
X20415562Y-24081407D01*
X20908438Y-24081407D01*
X20916745Y-24082225D01*
G37*
G36*
X35802523Y-23889586D02*
G01*
X35966308Y-23957429D01*
X35966310Y-23957430D01*
X36113717Y-24055924D01*
X36239076Y-24181283D01*
X36239078Y-24181286D01*
X36337571Y-24328692D01*
X36405414Y-24492477D01*
X36440000Y-24666358D01*
X36440000Y-24843642D01*
X36405414Y-25017523D01*
X36350964Y-25148974D01*
X36337570Y-25181310D01*
X36239076Y-25328717D01*
X36113717Y-25454076D01*
X35966310Y-25552570D01*
X35966309Y-25552571D01*
X35966308Y-25552571D01*
X35802523Y-25620414D01*
X35628642Y-25655000D01*
X35451358Y-25655000D01*
X35277477Y-25620414D01*
X35113692Y-25552571D01*
X35113691Y-25552571D01*
X35113690Y-25552570D01*
X34966283Y-25454076D01*
X34840924Y-25328717D01*
X34742430Y-25181310D01*
X34729036Y-25148974D01*
X34674586Y-25017523D01*
X34640000Y-24843642D01*
X34640000Y-24666358D01*
X34674586Y-24492477D01*
X34742429Y-24328692D01*
X34840922Y-24181286D01*
X34840924Y-24181283D01*
X34966283Y-24055924D01*
X35113690Y-23957430D01*
X35113692Y-23957429D01*
X35277477Y-23889586D01*
X35451358Y-23855000D01*
X35628642Y-23855000D01*
X35802523Y-23889586D01*
G37*
G36*
X38980000Y-25655000D02*
G01*
X37180000Y-25655000D01*
X37180000Y-23855000D01*
X38980000Y-23855000D01*
X38980000Y-25655000D01*
G37*
G36*
X30722523Y-23889586D02*
G01*
X30886308Y-23957429D01*
X30886310Y-23957430D01*
X31033717Y-24055924D01*
X31159076Y-24181283D01*
X31159078Y-24181286D01*
X31257571Y-24328692D01*
X31325414Y-24492477D01*
X31360000Y-24666358D01*
X31360000Y-24843642D01*
X31325414Y-25017523D01*
X31270964Y-25148974D01*
X31257570Y-25181310D01*
X31159076Y-25328717D01*
X31033717Y-25454076D01*
X30886310Y-25552570D01*
X30886309Y-25552571D01*
X30886308Y-25552571D01*
X30722523Y-25620414D01*
X30548642Y-25655000D01*
X30371358Y-25655000D01*
X30197477Y-25620414D01*
X30033692Y-25552571D01*
X30033691Y-25552571D01*
X30033690Y-25552570D01*
X29886283Y-25454076D01*
X29760924Y-25328717D01*
X29662430Y-25181310D01*
X29649036Y-25148974D01*
X29594586Y-25017523D01*
X29560000Y-24843642D01*
X29560000Y-24666358D01*
X29594586Y-24492477D01*
X29662429Y-24328692D01*
X29760922Y-24181286D01*
X29760924Y-24181283D01*
X29886283Y-24055924D01*
X30033690Y-23957430D01*
X30033692Y-23957429D01*
X30197477Y-23889586D01*
X30371358Y-23855000D01*
X30548642Y-23855000D01*
X30722523Y-23889586D01*
G37*
G36*
X33262523Y-23889586D02*
G01*
X33426308Y-23957429D01*
X33426310Y-23957430D01*
X33573717Y-24055924D01*
X33699076Y-24181283D01*
X33699078Y-24181286D01*
X33797571Y-24328692D01*
X33865414Y-24492477D01*
X33900000Y-24666358D01*
X33900000Y-24843642D01*
X33865414Y-25017523D01*
X33810964Y-25148974D01*
X33797570Y-25181310D01*
X33699076Y-25328717D01*
X33573717Y-25454076D01*
X33426310Y-25552570D01*
X33426309Y-25552571D01*
X33426308Y-25552571D01*
X33262523Y-25620414D01*
X33088642Y-25655000D01*
X32911358Y-25655000D01*
X32737477Y-25620414D01*
X32573692Y-25552571D01*
X32573691Y-25552571D01*
X32573690Y-25552570D01*
X32426283Y-25454076D01*
X32300924Y-25328717D01*
X32202430Y-25181310D01*
X32189036Y-25148974D01*
X32134586Y-25017523D01*
X32100000Y-24843642D01*
X32100000Y-24666358D01*
X32134586Y-24492477D01*
X32202429Y-24328692D01*
X32300922Y-24181286D01*
X32300924Y-24181283D01*
X32426283Y-24055924D01*
X32573690Y-23957430D01*
X32573692Y-23957429D01*
X32737477Y-23889586D01*
X32911358Y-23855000D01*
X33088642Y-23855000D01*
X33262523Y-23889586D01*
G37*
G36*
X27960000Y-24960000D02*
G01*
X26610000Y-24960000D01*
X26610000Y-23360000D01*
X27960000Y-23360000D01*
X27960000Y-24960000D01*
G37*
G36*
X17080000Y-22830000D02*
G01*
X13480000Y-22830000D01*
X13480000Y-20330000D01*
X17080000Y-20330000D01*
X17080000Y-22830000D01*
G37*
G36*
X11880000Y-22830000D02*
G01*
X8280000Y-22830000D01*
X8280000Y-20330000D01*
X11880000Y-20330000D01*
X11880000Y-22830000D01*
G37*
G36*
X30525000Y-21270000D02*
G01*
X29125000Y-21270000D01*
X29125000Y-19670000D01*
X30525000Y-19670000D01*
X30525000Y-21270000D01*
G37*
G36*
X33700000Y-21270000D02*
G01*
X32300000Y-21270000D01*
X32300000Y-19670000D01*
X33700000Y-19670000D01*
X33700000Y-21270000D01*
G37*
G36*
X17250000Y-19080000D02*
G01*
X15650000Y-19080000D01*
X15650000Y-17730000D01*
X17250000Y-17730000D01*
X17250000Y-19080000D01*
G37*
G36*
X12170000Y-19080000D02*
G01*
X10570000Y-19080000D01*
X10570000Y-17730000D01*
X12170000Y-17730000D01*
X12170000Y-19080000D01*
G37*
G36*
X14750000Y-19080000D02*
G01*
X13150000Y-19080000D01*
X13150000Y-17730000D01*
X14750000Y-17730000D01*
X14750000Y-19080000D01*
G37*
G36*
X9670000Y-19080000D02*
G01*
X8070000Y-19080000D01*
X8070000Y-17730000D01*
X9670000Y-17730000D01*
X9670000Y-19080000D01*
G37*
G36*
X30525000Y-18570000D02*
G01*
X29125000Y-18570000D01*
X29125000Y-16970000D01*
X30525000Y-16970000D01*
X30525000Y-18570000D01*
G37*
G36*
X33700000Y-18570000D02*
G01*
X32300000Y-18570000D01*
X32300000Y-16970000D01*
X33700000Y-16970000D01*
X33700000Y-18570000D01*
G37*
G36*
X34503354Y-11415743D02*
G01*
X34648940Y-11476047D01*
X34735896Y-11534150D01*
X34779970Y-11563599D01*
X34891401Y-11675030D01*
X34891402Y-11675032D01*
X34978953Y-11806060D01*
X35039257Y-11951646D01*
X35070000Y-12106207D01*
X35070000Y-12263793D01*
X35039257Y-12418354D01*
X34978953Y-12563940D01*
X34935672Y-12628714D01*
X34891401Y-12694970D01*
X34779970Y-12806401D01*
X34735896Y-12835850D01*
X34648940Y-12893953D01*
X34503354Y-12954257D01*
X34348793Y-12985000D01*
X34191207Y-12985000D01*
X34036646Y-12954257D01*
X33891060Y-12893953D01*
X33804104Y-12835850D01*
X33760030Y-12806401D01*
X33648599Y-12694970D01*
X33604328Y-12628714D01*
X33561047Y-12563940D01*
X33500743Y-12418354D01*
X33470000Y-12263793D01*
X33470000Y-12106207D01*
X33500743Y-11951646D01*
X33561047Y-11806060D01*
X33648598Y-11675032D01*
X33648599Y-11675030D01*
X33760030Y-11563599D01*
X33804104Y-11534150D01*
X33891060Y-11476047D01*
X34036646Y-11415743D01*
X34191207Y-11385000D01*
X34348793Y-11385000D01*
X34503354Y-11415743D01*
G37*
G36*
X31963354Y-11415743D02*
G01*
X32108940Y-11476047D01*
X32195896Y-11534150D01*
X32239970Y-11563599D01*
X32351401Y-11675030D01*
X32351402Y-11675032D01*
X32438953Y-11806060D01*
X32499257Y-11951646D01*
X32530000Y-12106207D01*
X32530000Y-12263793D01*
X32499257Y-12418354D01*
X32438953Y-12563940D01*
X32395672Y-12628714D01*
X32351401Y-12694970D01*
X32239970Y-12806401D01*
X32195896Y-12835850D01*
X32108940Y-12893953D01*
X31963354Y-12954257D01*
X31808793Y-12985000D01*
X31651207Y-12985000D01*
X31496646Y-12954257D01*
X31351060Y-12893953D01*
X31264104Y-12835850D01*
X31220030Y-12806401D01*
X31108599Y-12694970D01*
X31064328Y-12628714D01*
X31021047Y-12563940D01*
X30960743Y-12418354D01*
X30930000Y-12263793D01*
X30930000Y-12106207D01*
X30960743Y-11951646D01*
X31021047Y-11806060D01*
X31108598Y-11675032D01*
X31108599Y-11675030D01*
X31220030Y-11563599D01*
X31264104Y-11534150D01*
X31351060Y-11476047D01*
X31496646Y-11415743D01*
X31651207Y-11385000D01*
X31808793Y-11385000D01*
X31963354Y-11415743D01*
G37*
G36*
X29933354Y-11415743D02*
G01*
X30078940Y-11476047D01*
X30165896Y-11534150D01*
X30209970Y-11563599D01*
X30321401Y-11675030D01*
X30321402Y-11675032D01*
X30408953Y-11806060D01*
X30469257Y-11951646D01*
X30500000Y-12106207D01*
X30500000Y-12263793D01*
X30469257Y-12418354D01*
X30408953Y-12563940D01*
X30365672Y-12628714D01*
X30321401Y-12694970D01*
X30209970Y-12806401D01*
X30165896Y-12835850D01*
X30078940Y-12893953D01*
X29933354Y-12954257D01*
X29778793Y-12985000D01*
X29621207Y-12985000D01*
X29466646Y-12954257D01*
X29321060Y-12893953D01*
X29234104Y-12835850D01*
X29190030Y-12806401D01*
X29078599Y-12694970D01*
X29034328Y-12628714D01*
X28991047Y-12563940D01*
X28930743Y-12418354D01*
X28900000Y-12263793D01*
X28900000Y-12106207D01*
X28930743Y-11951646D01*
X28991047Y-11806060D01*
X29078598Y-11675032D01*
X29078599Y-11675030D01*
X29190030Y-11563599D01*
X29234104Y-11534150D01*
X29321060Y-11476047D01*
X29466646Y-11415743D01*
X29621207Y-11385000D01*
X29778793Y-11385000D01*
X29933354Y-11415743D01*
G37*
G36*
X27393354Y-11415743D02*
G01*
X27538940Y-11476047D01*
X27625896Y-11534150D01*
X27669970Y-11563599D01*
X27781401Y-11675030D01*
X27781402Y-11675032D01*
X27868953Y-11806060D01*
X27929257Y-11951646D01*
X27960000Y-12106207D01*
X27960000Y-12263793D01*
X27929257Y-12418354D01*
X27868953Y-12563940D01*
X27825672Y-12628714D01*
X27781401Y-12694970D01*
X27669970Y-12806401D01*
X27625896Y-12835850D01*
X27538940Y-12893953D01*
X27393354Y-12954257D01*
X27238793Y-12985000D01*
X27081207Y-12985000D01*
X26926646Y-12954257D01*
X26781060Y-12893953D01*
X26694104Y-12835850D01*
X26650030Y-12806401D01*
X26538599Y-12694970D01*
X26494328Y-12628714D01*
X26451047Y-12563940D01*
X26390743Y-12418354D01*
X26360000Y-12263793D01*
X26360000Y-12106207D01*
X26390743Y-11951646D01*
X26451047Y-11806060D01*
X26538598Y-11675032D01*
X26538599Y-11675030D01*
X26650030Y-11563599D01*
X26694104Y-11534150D01*
X26781060Y-11476047D01*
X26926646Y-11415743D01*
X27081207Y-11385000D01*
X27238793Y-11385000D01*
X27393354Y-11415743D01*
G37*
G36*
X14215000Y-12955000D02*
G01*
X12415000Y-12955000D01*
X12415000Y-11155000D01*
X14215000Y-11155000D01*
X14215000Y-12955000D01*
G37*
G36*
X16117523Y-11189586D02*
G01*
X16281308Y-11257429D01*
X16281310Y-11257430D01*
X16428717Y-11355924D01*
X16554076Y-11481283D01*
X16609078Y-11563599D01*
X16652571Y-11628692D01*
X16720414Y-11792477D01*
X16755000Y-11966358D01*
X16755000Y-12143642D01*
X16720414Y-12317523D01*
X16652571Y-12481308D01*
X16652570Y-12481310D01*
X16554076Y-12628717D01*
X16428717Y-12754076D01*
X16281310Y-12852570D01*
X16281309Y-12852571D01*
X16281308Y-12852571D01*
X16117523Y-12920414D01*
X15943642Y-12955000D01*
X15766358Y-12955000D01*
X15592477Y-12920414D01*
X15428692Y-12852571D01*
X15428691Y-12852571D01*
X15428690Y-12852570D01*
X15281283Y-12754076D01*
X15155924Y-12628717D01*
X15057430Y-12481310D01*
X15057429Y-12481308D01*
X14989586Y-12317523D01*
X14955000Y-12143642D01*
X14955000Y-11966358D01*
X14989586Y-11792477D01*
X15057429Y-11628692D01*
X15100923Y-11563599D01*
X15155924Y-11481283D01*
X15281283Y-11355924D01*
X15428690Y-11257430D01*
X15428692Y-11257429D01*
X15592477Y-11189586D01*
X15766358Y-11155000D01*
X15943642Y-11155000D01*
X16117523Y-11189586D01*
G37*
G36*
X18657523Y-11189586D02*
G01*
X18821308Y-11257429D01*
X18821310Y-11257430D01*
X18968717Y-11355924D01*
X19094076Y-11481283D01*
X19149078Y-11563599D01*
X19192571Y-11628692D01*
X19260414Y-11792477D01*
X19295000Y-11966358D01*
X19295000Y-12143642D01*
X19260414Y-12317523D01*
X19192571Y-12481308D01*
X19192570Y-12481310D01*
X19094076Y-12628717D01*
X18968717Y-12754076D01*
X18821310Y-12852570D01*
X18821309Y-12852571D01*
X18821308Y-12852571D01*
X18657523Y-12920414D01*
X18483642Y-12955000D01*
X18306358Y-12955000D01*
X18132477Y-12920414D01*
X17968692Y-12852571D01*
X17968691Y-12852571D01*
X17968690Y-12852570D01*
X17821283Y-12754076D01*
X17695924Y-12628717D01*
X17597430Y-12481310D01*
X17597429Y-12481308D01*
X17529586Y-12317523D01*
X17495000Y-12143642D01*
X17495000Y-11966358D01*
X17529586Y-11792477D01*
X17597429Y-11628692D01*
X17640923Y-11563599D01*
X17695924Y-11481283D01*
X17821283Y-11355924D01*
X17968690Y-11257430D01*
X17968692Y-11257429D01*
X18132477Y-11189586D01*
X18306358Y-11155000D01*
X18483642Y-11155000D01*
X18657523Y-11189586D01*
G37*
G36*
X9570000Y-11745000D02*
G01*
X8170000Y-11745000D01*
X8170000Y-10145000D01*
X9570000Y-10145000D01*
X9570000Y-11745000D01*
G37*
G36*
X6395000Y-11745000D02*
G01*
X4995000Y-11745000D01*
X4995000Y-10145000D01*
X6395000Y-10145000D01*
X6395000Y-11745000D01*
G37*
G36*
X38057526Y-7979891D02*
G01*
X38282121Y-8024565D01*
X38564199Y-8141407D01*
X38564200Y-8141408D01*
X38818068Y-8311036D01*
X39033964Y-8526932D01*
X39033966Y-8526935D01*
X39203593Y-8780801D01*
X39320435Y-9062879D01*
X39380000Y-9362339D01*
X39380000Y-9667661D01*
X39320435Y-9967121D01*
X39203593Y-10249199D01*
X39203592Y-10249200D01*
X39033964Y-10503068D01*
X38818068Y-10718964D01*
X38818065Y-10718966D01*
X38564199Y-10888593D01*
X38282121Y-11005435D01*
X38057526Y-11050109D01*
X37982662Y-11065000D01*
X37677338Y-11065000D01*
X37602474Y-11050109D01*
X37377879Y-11005435D01*
X37095801Y-10888593D01*
X36841935Y-10718966D01*
X36841932Y-10718964D01*
X36626036Y-10503068D01*
X36456408Y-10249200D01*
X36456407Y-10249199D01*
X36339565Y-9967121D01*
X36280000Y-9667661D01*
X36280000Y-9362339D01*
X36339565Y-9062879D01*
X36456407Y-8780801D01*
X36626034Y-8526935D01*
X36626036Y-8526932D01*
X36841932Y-8311036D01*
X37095800Y-8141408D01*
X37095801Y-8141407D01*
X37377879Y-8024565D01*
X37602474Y-7979891D01*
X37677338Y-7965000D01*
X37982662Y-7965000D01*
X38057526Y-7979891D01*
G37*
G36*
X24337526Y-7979891D02*
G01*
X24562121Y-8024565D01*
X24844199Y-8141407D01*
X24844200Y-8141408D01*
X25098068Y-8311036D01*
X25313964Y-8526932D01*
X25313966Y-8526935D01*
X25483593Y-8780801D01*
X25600435Y-9062879D01*
X25660000Y-9362339D01*
X25660000Y-9667661D01*
X25600435Y-9967121D01*
X25483593Y-10249199D01*
X25483592Y-10249200D01*
X25313964Y-10503068D01*
X25098068Y-10718964D01*
X25098065Y-10718966D01*
X24844199Y-10888593D01*
X24562121Y-11005435D01*
X24337526Y-11050109D01*
X24262662Y-11065000D01*
X23957338Y-11065000D01*
X23882474Y-11050109D01*
X23657879Y-11005435D01*
X23375801Y-10888593D01*
X23121935Y-10718966D01*
X23121932Y-10718964D01*
X22906036Y-10503068D01*
X22736408Y-10249200D01*
X22736407Y-10249199D01*
X22619565Y-9967121D01*
X22560000Y-9667661D01*
X22560000Y-9362339D01*
X22619565Y-9062879D01*
X22736407Y-8780801D01*
X22906034Y-8526935D01*
X22906036Y-8526932D01*
X23121932Y-8311036D01*
X23375800Y-8141408D01*
X23375801Y-8141407D01*
X23657879Y-8024565D01*
X23882474Y-7979891D01*
X23957338Y-7965000D01*
X24262662Y-7965000D01*
X24337526Y-7979891D01*
G37*
G36*
X9570000Y-9045000D02*
G01*
X8170000Y-9045000D01*
X8170000Y-7445000D01*
X9570000Y-7445000D01*
X9570000Y-9045000D01*
G37*
G36*
X6395000Y-9045000D02*
G01*
X4995000Y-9045000D01*
X4995000Y-7445000D01*
X6395000Y-7445000D01*
X6395000Y-9045000D01*
G37*
G36*
X20365000Y-8410000D02*
G01*
X18965000Y-8410000D01*
X18965000Y-6810000D01*
X20365000Y-6810000D01*
X20365000Y-8410000D01*
G37*
G36*
X17197000Y-7985000D02*
G01*
X16037000Y-7985000D01*
X16037000Y-7235000D01*
X17197000Y-7235000D01*
X17197000Y-7985000D01*
G37*
G36*
X14997000Y-7985000D02*
G01*
X13837000Y-7985000D01*
X13837000Y-7235000D01*
X14997000Y-7235000D01*
X14997000Y-7985000D01*
G37*
G36*
X17197000Y-7035000D02*
G01*
X16037000Y-7035000D01*
X16037000Y-6285000D01*
X17197000Y-6285000D01*
X17197000Y-7035000D01*
G37*
G36*
X14997000Y-6085000D02*
G01*
X13837000Y-6085000D01*
X13837000Y-5335000D01*
X14997000Y-5335000D01*
X14997000Y-6085000D01*
G37*
G36*
X17197000Y-6085000D02*
G01*
X16037000Y-6085000D01*
X16037000Y-5335000D01*
X17197000Y-5335000D01*
X17197000Y-6085000D01*
G37*
G36*
X20365000Y-5710000D02*
G01*
X18965000Y-5710000D01*
X18965000Y-4110000D01*
X20365000Y-4110000D01*
X20365000Y-5710000D01*
G37*
G36*
X9502621Y-3993682D02*
G01*
X9615721Y-4027990D01*
X9719955Y-4083704D01*
X9811317Y-4158683D01*
X9886296Y-4250045D01*
X9942010Y-4354279D01*
X9976318Y-4467380D01*
X9985000Y-4555527D01*
X9985000Y-5014474D01*
X9976318Y-5102621D01*
X9942010Y-5215721D01*
X9886296Y-5319955D01*
X9811317Y-5411317D01*
X9719954Y-5486296D01*
X9615720Y-5542010D01*
X9502620Y-5576318D01*
X9385000Y-5587903D01*
X9267379Y-5576318D01*
X9154279Y-5542010D01*
X9050045Y-5486296D01*
X8958683Y-5411317D01*
X8883704Y-5319954D01*
X8827990Y-5215720D01*
X8793682Y-5102620D01*
X8785000Y-5014473D01*
X8785000Y-4555526D01*
X8793682Y-4467379D01*
X8827990Y-4354279D01*
X8883705Y-4250045D01*
X8958684Y-4158683D01*
X9050046Y-4083704D01*
X9154280Y-4027990D01*
X9267380Y-3993682D01*
X9385000Y-3982097D01*
X9502621Y-3993682D01*
G37*
G36*
X4662621Y-3993682D02*
G01*
X4775721Y-4027990D01*
X4879955Y-4083704D01*
X4971317Y-4158683D01*
X5046296Y-4250045D01*
X5102010Y-4354279D01*
X5136318Y-4467380D01*
X5145000Y-4555527D01*
X5145000Y-5014474D01*
X5136318Y-5102621D01*
X5102010Y-5215721D01*
X5046296Y-5319955D01*
X4971317Y-5411317D01*
X4879954Y-5486296D01*
X4775720Y-5542010D01*
X4662620Y-5576318D01*
X4545000Y-5587903D01*
X4427379Y-5576318D01*
X4314279Y-5542010D01*
X4210045Y-5486296D01*
X4118683Y-5411317D01*
X4043704Y-5319954D01*
X3987990Y-5215720D01*
X3953682Y-5102620D01*
X3945000Y-5014473D01*
X3945000Y-4555526D01*
X3953682Y-4467379D01*
X3987990Y-4354279D01*
X4043705Y-4250045D01*
X4118684Y-4158683D01*
X4210046Y-4083704D01*
X4314280Y-4027990D01*
X4427380Y-3993682D01*
X4545000Y-3982097D01*
X4662621Y-3993682D01*
G37*
G36*
X5915000Y-5540000D02*
G01*
X5415000Y-5540000D01*
X5415000Y-3790000D01*
X5915000Y-3790000D01*
X5915000Y-5540000D01*
G37*
G36*
X7865000Y-5540000D02*
G01*
X7365000Y-5540000D01*
X7365000Y-3790000D01*
X7865000Y-3790000D01*
X7865000Y-5540000D01*
G37*
G36*
X7215000Y-5540000D02*
G01*
X6715000Y-5540000D01*
X6715000Y-3790000D01*
X7215000Y-3790000D01*
X7215000Y-5540000D01*
G37*
G36*
X8515000Y-5540000D02*
G01*
X8015000Y-5540000D01*
X8015000Y-3790000D01*
X8515000Y-3790000D01*
X8515000Y-5540000D01*
G37*
G36*
X6565000Y-5540000D02*
G01*
X6065000Y-5540000D01*
X6065000Y-3790000D01*
X6565000Y-3790000D01*
X6565000Y-5540000D01*
G37*
G36*
X8690000Y-2845000D02*
G01*
X7160000Y-2845000D01*
X7160000Y-245000D01*
X8690000Y-245000D01*
X8690000Y-2845000D01*
G37*
G36*
X6770000Y-2845000D02*
G01*
X5240000Y-2845000D01*
X5240000Y-245000D01*
X6770000Y-245000D01*
X6770000Y-2845000D01*
G37*
G36*
X4362422Y-894405D02*
G01*
X4484948Y-931573D01*
X4597868Y-991930D01*
X4696843Y-1073157D01*
X4778070Y-1172132D01*
X4838427Y-1285052D01*
X4875595Y-1407578D01*
X4885000Y-1503068D01*
X4885000Y-2066932D01*
X4875595Y-2162422D01*
X4838427Y-2284948D01*
X4778070Y-2397868D01*
X4696843Y-2496843D01*
X4597867Y-2578070D01*
X4484947Y-2638427D01*
X4362421Y-2675595D01*
X4235000Y-2688145D01*
X4107578Y-2675595D01*
X3985052Y-2638427D01*
X3872132Y-2578070D01*
X3773157Y-2496843D01*
X3691930Y-2397867D01*
X3631573Y-2284947D01*
X3594405Y-2162421D01*
X3585000Y-2066931D01*
X3585000Y-1503068D01*
X3594405Y-1407578D01*
X3631573Y-1285052D01*
X3691930Y-1172132D01*
X3773158Y-1073157D01*
X3872133Y-991930D01*
X3985053Y-931573D01*
X4107579Y-894405D01*
X4235000Y-881855D01*
X4362422Y-894405D01*
G37*
G36*
X9822422Y-894405D02*
G01*
X9944948Y-931573D01*
X10057868Y-991930D01*
X10156843Y-1073157D01*
X10238070Y-1172132D01*
X10298427Y-1285052D01*
X10335595Y-1407578D01*
X10345000Y-1503068D01*
X10345000Y-2066932D01*
X10335595Y-2162422D01*
X10298427Y-2284948D01*
X10238070Y-2397868D01*
X10156843Y-2496843D01*
X10057867Y-2578070D01*
X9944947Y-2638427D01*
X9822421Y-2675595D01*
X9695000Y-2688145D01*
X9567578Y-2675595D01*
X9445052Y-2638427D01*
X9332132Y-2578070D01*
X9233157Y-2496843D01*
X9151930Y-2397867D01*
X9091573Y-2284947D01*
X9054405Y-2162421D01*
X9045000Y-2066931D01*
X9045000Y-1503068D01*
X9054405Y-1407578D01*
X9091573Y-1285052D01*
X9151930Y-1172132D01*
X9233158Y-1073157D01*
X9332133Y-991930D01*
X9445053Y-931573D01*
X9567579Y-894405D01*
X9695000Y-881855D01*
X9822422Y-894405D01*
G37*
M02*
