G04 #@! TF.GenerationSoftware,KiCad,Pcbnew,5.1.5*
G04 #@! TF.CreationDate,2020-02-24T18:37:19+03:00*
G04 #@! TF.ProjectId,max3421eboard,6d617833-3432-4316-9562-6f6172642e6b,rev?*
G04 #@! TF.SameCoordinates,PXf42400PY2bde780*
G04 #@! TF.FileFunction,Legend,Top*
G04 #@! TF.FilePolarity,Positive*
%FSLAX46Y46*%
G04 Gerber Fmt 4.6, Leading zero omitted, Abs format (unit mm)*
G04 Created by KiCad (PCBNEW 5.1.5) date 2020-02-24 18:37:19*
%MOMM*%
%LPD*%
G04 APERTURE LIST*
%ADD10C,0.150000*%
%ADD11C,0.400000*%
%ADD12C,0.120000*%
%ADD13C,0.254000*%
G04 APERTURE END LIST*
D10*
X19244761Y-17207380D02*
X19244761Y-16207380D01*
X19578095Y-16921666D01*
X19911428Y-16207380D01*
X19911428Y-17207380D01*
X20340000Y-16921666D02*
X20816190Y-16921666D01*
X20244761Y-17207380D02*
X20578095Y-16207380D01*
X20911428Y-17207380D01*
X21149523Y-16207380D02*
X21816190Y-17207380D01*
X21816190Y-16207380D02*
X21149523Y-17207380D01*
X22101904Y-16207380D02*
X22720952Y-16207380D01*
X22387619Y-16588333D01*
X22530476Y-16588333D01*
X22625714Y-16635952D01*
X22673333Y-16683571D01*
X22720952Y-16778809D01*
X22720952Y-17016904D01*
X22673333Y-17112142D01*
X22625714Y-17159761D01*
X22530476Y-17207380D01*
X22244761Y-17207380D01*
X22149523Y-17159761D01*
X22101904Y-17112142D01*
X23578095Y-16540714D02*
X23578095Y-17207380D01*
X23340000Y-16159761D02*
X23101904Y-16874047D01*
X23720952Y-16874047D01*
X24054285Y-16302619D02*
X24101904Y-16255000D01*
X24197142Y-16207380D01*
X24435238Y-16207380D01*
X24530476Y-16255000D01*
X24578095Y-16302619D01*
X24625714Y-16397857D01*
X24625714Y-16493095D01*
X24578095Y-16635952D01*
X24006666Y-17207380D01*
X24625714Y-17207380D01*
X25578095Y-17207380D02*
X25006666Y-17207380D01*
X25292380Y-17207380D02*
X25292380Y-16207380D01*
X25197142Y-16350238D01*
X25101904Y-16445476D01*
X25006666Y-16493095D01*
X26006666Y-16683571D02*
X26340000Y-16683571D01*
X26482857Y-17207380D02*
X26006666Y-17207380D01*
X26006666Y-16207380D01*
X26482857Y-16207380D01*
X18530476Y-18857380D02*
X18530476Y-17857380D01*
X18530476Y-18333571D02*
X19101904Y-18333571D01*
X19101904Y-18857380D02*
X19101904Y-17857380D01*
X19720952Y-18857380D02*
X19625714Y-18809761D01*
X19578095Y-18762142D01*
X19530476Y-18666904D01*
X19530476Y-18381190D01*
X19578095Y-18285952D01*
X19625714Y-18238333D01*
X19720952Y-18190714D01*
X19863809Y-18190714D01*
X19959047Y-18238333D01*
X20006666Y-18285952D01*
X20054285Y-18381190D01*
X20054285Y-18666904D01*
X20006666Y-18762142D01*
X19959047Y-18809761D01*
X19863809Y-18857380D01*
X19720952Y-18857380D01*
X20435238Y-18809761D02*
X20530476Y-18857380D01*
X20720952Y-18857380D01*
X20816190Y-18809761D01*
X20863809Y-18714523D01*
X20863809Y-18666904D01*
X20816190Y-18571666D01*
X20720952Y-18524047D01*
X20578095Y-18524047D01*
X20482857Y-18476428D01*
X20435238Y-18381190D01*
X20435238Y-18333571D01*
X20482857Y-18238333D01*
X20578095Y-18190714D01*
X20720952Y-18190714D01*
X20816190Y-18238333D01*
X21149523Y-18190714D02*
X21530476Y-18190714D01*
X21292380Y-17857380D02*
X21292380Y-18714523D01*
X21340000Y-18809761D01*
X21435238Y-18857380D01*
X21530476Y-18857380D01*
X22578095Y-17809761D02*
X21720952Y-19095476D01*
X23340000Y-18857380D02*
X23340000Y-17857380D01*
X23340000Y-18809761D02*
X23244761Y-18857380D01*
X23054285Y-18857380D01*
X22959047Y-18809761D01*
X22911428Y-18762142D01*
X22863809Y-18666904D01*
X22863809Y-18381190D01*
X22911428Y-18285952D01*
X22959047Y-18238333D01*
X23054285Y-18190714D01*
X23244761Y-18190714D01*
X23340000Y-18238333D01*
X24197142Y-18809761D02*
X24101904Y-18857380D01*
X23911428Y-18857380D01*
X23816190Y-18809761D01*
X23768571Y-18714523D01*
X23768571Y-18333571D01*
X23816190Y-18238333D01*
X23911428Y-18190714D01*
X24101904Y-18190714D01*
X24197142Y-18238333D01*
X24244761Y-18333571D01*
X24244761Y-18428809D01*
X23768571Y-18524047D01*
X24578095Y-18190714D02*
X24816190Y-18857380D01*
X25054285Y-18190714D01*
X25435238Y-18857380D02*
X25435238Y-18190714D01*
X25435238Y-17857380D02*
X25387619Y-17905000D01*
X25435238Y-17952619D01*
X25482857Y-17905000D01*
X25435238Y-17857380D01*
X25435238Y-17952619D01*
X26340000Y-18809761D02*
X26244761Y-18857380D01*
X26054285Y-18857380D01*
X25959047Y-18809761D01*
X25911428Y-18762142D01*
X25863809Y-18666904D01*
X25863809Y-18381190D01*
X25911428Y-18285952D01*
X25959047Y-18238333D01*
X26054285Y-18190714D01*
X26244761Y-18190714D01*
X26340000Y-18238333D01*
X27149523Y-18809761D02*
X27054285Y-18857380D01*
X26863809Y-18857380D01*
X26768571Y-18809761D01*
X26720952Y-18714523D01*
X26720952Y-18333571D01*
X26768571Y-18238333D01*
X26863809Y-18190714D01*
X27054285Y-18190714D01*
X27149523Y-18238333D01*
X27197142Y-18333571D01*
X27197142Y-18428809D01*
X26720952Y-18524047D01*
X18054285Y-19840714D02*
X18292380Y-20507380D01*
X18530476Y-19840714D01*
X18911428Y-20507380D02*
X18911428Y-19840714D01*
X18911428Y-19507380D02*
X18863809Y-19555000D01*
X18911428Y-19602619D01*
X18959047Y-19555000D01*
X18911428Y-19507380D01*
X18911428Y-19602619D01*
X19387619Y-20507380D02*
X19387619Y-19840714D01*
X19387619Y-20031190D02*
X19435238Y-19935952D01*
X19482857Y-19888333D01*
X19578095Y-19840714D01*
X19673333Y-19840714D01*
X20006666Y-20507380D02*
X20006666Y-19507380D01*
X20101904Y-20126428D02*
X20387619Y-20507380D01*
X20387619Y-19840714D02*
X20006666Y-20221666D01*
X20816190Y-20507380D02*
X20816190Y-19507380D01*
X20911428Y-20126428D02*
X21197142Y-20507380D01*
X21197142Y-19840714D02*
X20816190Y-20221666D01*
X22054285Y-19840714D02*
X22054285Y-20507380D01*
X21625714Y-19840714D02*
X21625714Y-20364523D01*
X21673333Y-20459761D01*
X21768571Y-20507380D01*
X21911428Y-20507380D01*
X22006666Y-20459761D01*
X22054285Y-20412142D01*
X22530476Y-19840714D02*
X22530476Y-20507380D01*
X22530476Y-19935952D02*
X22578095Y-19888333D01*
X22673333Y-19840714D01*
X22816190Y-19840714D01*
X22911428Y-19888333D01*
X22959047Y-19983571D01*
X22959047Y-20507380D01*
X23816190Y-20459761D02*
X23720952Y-20507380D01*
X23530476Y-20507380D01*
X23435238Y-20459761D01*
X23387619Y-20364523D01*
X23387619Y-19983571D01*
X23435238Y-19888333D01*
X23530476Y-19840714D01*
X23720952Y-19840714D01*
X23816190Y-19888333D01*
X23863809Y-19983571D01*
X23863809Y-20078809D01*
X23387619Y-20174047D01*
X24292380Y-19840714D02*
X24292380Y-20507380D01*
X24292380Y-19935952D02*
X24340000Y-19888333D01*
X24435238Y-19840714D01*
X24578095Y-19840714D01*
X24673333Y-19888333D01*
X24720952Y-19983571D01*
X24720952Y-20507380D01*
X25197142Y-20412142D02*
X25244761Y-20459761D01*
X25197142Y-20507380D01*
X25149523Y-20459761D01*
X25197142Y-20412142D01*
X25197142Y-20507380D01*
X25673333Y-19840714D02*
X25673333Y-20507380D01*
X25673333Y-19935952D02*
X25720952Y-19888333D01*
X25816190Y-19840714D01*
X25959047Y-19840714D01*
X26054285Y-19888333D01*
X26101904Y-19983571D01*
X26101904Y-20507380D01*
X26959047Y-20459761D02*
X26863809Y-20507380D01*
X26673333Y-20507380D01*
X26578095Y-20459761D01*
X26530476Y-20364523D01*
X26530476Y-19983571D01*
X26578095Y-19888333D01*
X26673333Y-19840714D01*
X26863809Y-19840714D01*
X26959047Y-19888333D01*
X27006666Y-19983571D01*
X27006666Y-20078809D01*
X26530476Y-20174047D01*
X27292380Y-19840714D02*
X27673333Y-19840714D01*
X27435238Y-19507380D02*
X27435238Y-20364523D01*
X27482857Y-20459761D01*
X27578095Y-20507380D01*
X27673333Y-20507380D01*
X10823095Y-15047380D02*
X10823095Y-14047380D01*
X11204047Y-14047380D01*
X11299285Y-14095000D01*
X11346904Y-14142619D01*
X11394523Y-14237857D01*
X11394523Y-14380714D01*
X11346904Y-14475952D01*
X11299285Y-14523571D01*
X11204047Y-14571190D01*
X10823095Y-14571190D01*
X11727857Y-14047380D02*
X11965952Y-15047380D01*
X12156428Y-14333095D01*
X12346904Y-15047380D01*
X12585000Y-14047380D01*
X13537380Y-15047380D02*
X13204047Y-14571190D01*
X12965952Y-15047380D02*
X12965952Y-14047380D01*
X13346904Y-14047380D01*
X13442142Y-14095000D01*
X13489761Y-14142619D01*
X13537380Y-14237857D01*
X13537380Y-14380714D01*
X13489761Y-14475952D01*
X13442142Y-14523571D01*
X13346904Y-14571190D01*
X12965952Y-14571190D01*
X13727857Y-15142619D02*
X14489761Y-15142619D01*
X14727857Y-15047380D02*
X14727857Y-14047380D01*
X15061190Y-14761666D01*
X15394523Y-14047380D01*
X15394523Y-15047380D01*
X16061190Y-14047380D02*
X16251666Y-14047380D01*
X16346904Y-14095000D01*
X16442142Y-14190238D01*
X16489761Y-14380714D01*
X16489761Y-14714047D01*
X16442142Y-14904523D01*
X16346904Y-14999761D01*
X16251666Y-15047380D01*
X16061190Y-15047380D01*
X15965952Y-14999761D01*
X15870714Y-14904523D01*
X15823095Y-14714047D01*
X15823095Y-14380714D01*
X15870714Y-14190238D01*
X15965952Y-14095000D01*
X16061190Y-14047380D01*
X16918333Y-15047380D02*
X16918333Y-14047380D01*
X17156428Y-14047380D01*
X17299285Y-14095000D01*
X17394523Y-14190238D01*
X17442142Y-14285476D01*
X17489761Y-14475952D01*
X17489761Y-14618809D01*
X17442142Y-14809285D01*
X17394523Y-14904523D01*
X17299285Y-14999761D01*
X17156428Y-15047380D01*
X16918333Y-15047380D01*
X17918333Y-14523571D02*
X18251666Y-14523571D01*
X18394523Y-15047380D02*
X17918333Y-15047380D01*
X17918333Y-14047380D01*
X18394523Y-14047380D01*
X18799761Y-45725714D02*
X18847380Y-45582857D01*
X18847380Y-45344761D01*
X18799761Y-45249523D01*
X18752142Y-45201904D01*
X18656904Y-45154285D01*
X18561666Y-45154285D01*
X18466428Y-45201904D01*
X18418809Y-45249523D01*
X18371190Y-45344761D01*
X18323571Y-45535238D01*
X18275952Y-45630476D01*
X18228333Y-45678095D01*
X18133095Y-45725714D01*
X18037857Y-45725714D01*
X17942619Y-45678095D01*
X17895000Y-45630476D01*
X17847380Y-45535238D01*
X17847380Y-45297142D01*
X17895000Y-45154285D01*
X18752142Y-44154285D02*
X18799761Y-44201904D01*
X18847380Y-44344761D01*
X18847380Y-44440000D01*
X18799761Y-44582857D01*
X18704523Y-44678095D01*
X18609285Y-44725714D01*
X18418809Y-44773333D01*
X18275952Y-44773333D01*
X18085476Y-44725714D01*
X17990238Y-44678095D01*
X17895000Y-44582857D01*
X17847380Y-44440000D01*
X17847380Y-44344761D01*
X17895000Y-44201904D01*
X17942619Y-44154285D01*
X18847380Y-43725714D02*
X17847380Y-43725714D01*
X18847380Y-43154285D02*
X18275952Y-43582857D01*
X17847380Y-43154285D02*
X18418809Y-43725714D01*
D11*
X18595000Y-33645000D02*
G75*
G03X18595000Y-33645000I-200000J0D01*
G01*
D10*
X18268095Y-29287380D02*
X18268095Y-30096904D01*
X18315714Y-30192142D01*
X18363333Y-30239761D01*
X18458571Y-30287380D01*
X18649047Y-30287380D01*
X18744285Y-30239761D01*
X18791904Y-30192142D01*
X18839523Y-30096904D01*
X18839523Y-29287380D01*
X19839523Y-30287380D02*
X19268095Y-30287380D01*
X19553809Y-30287380D02*
X19553809Y-29287380D01*
X19458571Y-29430238D01*
X19363333Y-29525476D01*
X19268095Y-29573095D01*
D12*
X20046000Y-45710000D02*
X20046000Y-44186000D01*
X14966000Y-43297000D02*
X14966000Y-45837000D01*
D10*
X5195000Y-25120000D02*
X5147380Y-25215238D01*
X5147380Y-25358095D01*
X5195000Y-25500952D01*
X5290238Y-25596190D01*
X5385476Y-25643809D01*
X5575952Y-25691428D01*
X5718809Y-25691428D01*
X5909285Y-25643809D01*
X6004523Y-25596190D01*
X6099761Y-25500952D01*
X6147380Y-25358095D01*
X6147380Y-25262857D01*
X6099761Y-25120000D01*
X6052142Y-25072380D01*
X5718809Y-25072380D01*
X5718809Y-25262857D01*
X6147380Y-24643809D02*
X5147380Y-24643809D01*
X5147380Y-24262857D01*
X5195000Y-24167619D01*
X5242619Y-24120000D01*
X5337857Y-24072380D01*
X5480714Y-24072380D01*
X5575952Y-24120000D01*
X5623571Y-24167619D01*
X5671190Y-24262857D01*
X5671190Y-24643809D01*
X6147380Y-23643809D02*
X5147380Y-23643809D01*
X6147380Y-23167619D02*
X5147380Y-23167619D01*
X6147380Y-22596190D01*
X5147380Y-22596190D01*
X2655000Y-25151666D02*
X2607380Y-25246904D01*
X2607380Y-25389761D01*
X2655000Y-25532619D01*
X2750238Y-25627857D01*
X2845476Y-25675476D01*
X3035952Y-25723095D01*
X3178809Y-25723095D01*
X3369285Y-25675476D01*
X3464523Y-25627857D01*
X3559761Y-25532619D01*
X3607380Y-25389761D01*
X3607380Y-25294523D01*
X3559761Y-25151666D01*
X3512142Y-25104047D01*
X3178809Y-25104047D01*
X3178809Y-25294523D01*
X3607380Y-24675476D02*
X2607380Y-24675476D01*
X2607380Y-24294523D01*
X2655000Y-24199285D01*
X2702619Y-24151666D01*
X2797857Y-24104047D01*
X2940714Y-24104047D01*
X3035952Y-24151666D01*
X3083571Y-24199285D01*
X3131190Y-24294523D01*
X3131190Y-24675476D01*
X2607380Y-23485000D02*
X2607380Y-23294523D01*
X2655000Y-23199285D01*
X2750238Y-23104047D01*
X2940714Y-23056428D01*
X3274047Y-23056428D01*
X3464523Y-23104047D01*
X3559761Y-23199285D01*
X3607380Y-23294523D01*
X3607380Y-23485000D01*
X3559761Y-23580238D01*
X3464523Y-23675476D01*
X3274047Y-23723095D01*
X2940714Y-23723095D01*
X2750238Y-23675476D01*
X2655000Y-23580238D01*
X2607380Y-23485000D01*
X2607380Y-22627857D02*
X3416904Y-22627857D01*
X3512142Y-22580238D01*
X3559761Y-22532619D01*
X3607380Y-22437380D01*
X3607380Y-22246904D01*
X3559761Y-22151666D01*
X3512142Y-22104047D01*
X3416904Y-22056428D01*
X2607380Y-22056428D01*
X2607380Y-21723095D02*
X2607380Y-21151666D01*
X3607380Y-21437380D02*
X2607380Y-21437380D01*
X948380Y-27636380D02*
X1043619Y-27636380D01*
X1138857Y-27684000D01*
X1186476Y-27731619D01*
X1234095Y-27826857D01*
X1281714Y-28017333D01*
X1281714Y-28255428D01*
X1234095Y-28445904D01*
X1186476Y-28541142D01*
X1138857Y-28588761D01*
X1043619Y-28636380D01*
X948380Y-28636380D01*
X853142Y-28588761D01*
X805523Y-28541142D01*
X757904Y-28445904D01*
X710285Y-28255428D01*
X710285Y-28017333D01*
X757904Y-27826857D01*
X805523Y-27731619D01*
X853142Y-27684000D01*
X948380Y-27636380D01*
X1281714Y-31176380D02*
X710285Y-31176380D01*
X996000Y-31176380D02*
X996000Y-30176380D01*
X900761Y-30319238D01*
X805523Y-30414476D01*
X710285Y-30462095D01*
X710285Y-32811619D02*
X757904Y-32764000D01*
X853142Y-32716380D01*
X1091238Y-32716380D01*
X1186476Y-32764000D01*
X1234095Y-32811619D01*
X1281714Y-32906857D01*
X1281714Y-33002095D01*
X1234095Y-33144952D01*
X662666Y-33716380D01*
X1281714Y-33716380D01*
X662666Y-35256380D02*
X1281714Y-35256380D01*
X948380Y-35637333D01*
X1091238Y-35637333D01*
X1186476Y-35684952D01*
X1234095Y-35732571D01*
X1281714Y-35827809D01*
X1281714Y-36065904D01*
X1234095Y-36161142D01*
X1186476Y-36208761D01*
X1091238Y-36256380D01*
X805523Y-36256380D01*
X710285Y-36208761D01*
X662666Y-36161142D01*
X1186476Y-38129714D02*
X1186476Y-38796380D01*
X948380Y-37748761D02*
X710285Y-38463047D01*
X1329333Y-38463047D01*
X1234095Y-40336380D02*
X757904Y-40336380D01*
X710285Y-40812571D01*
X757904Y-40764952D01*
X853142Y-40717333D01*
X1091238Y-40717333D01*
X1186476Y-40764952D01*
X1234095Y-40812571D01*
X1281714Y-40907809D01*
X1281714Y-41145904D01*
X1234095Y-41241142D01*
X1186476Y-41288761D01*
X1091238Y-41336380D01*
X853142Y-41336380D01*
X757904Y-41288761D01*
X710285Y-41241142D01*
X1186476Y-42876380D02*
X996000Y-42876380D01*
X900761Y-42924000D01*
X853142Y-42971619D01*
X757904Y-43114476D01*
X710285Y-43304952D01*
X710285Y-43685904D01*
X757904Y-43781142D01*
X805523Y-43828761D01*
X900761Y-43876380D01*
X1091238Y-43876380D01*
X1186476Y-43828761D01*
X1234095Y-43781142D01*
X1281714Y-43685904D01*
X1281714Y-43447809D01*
X1234095Y-43352571D01*
X1186476Y-43304952D01*
X1091238Y-43257333D01*
X900761Y-43257333D01*
X805523Y-43304952D01*
X757904Y-43352571D01*
X710285Y-43447809D01*
X662666Y-45416380D02*
X1329333Y-45416380D01*
X900761Y-46416380D01*
X31547380Y-45725761D02*
X30547380Y-45725761D01*
X31547380Y-45249571D02*
X30547380Y-45249571D01*
X31547380Y-44678142D01*
X30547380Y-44678142D01*
X30547380Y-44344809D02*
X30547380Y-43773380D01*
X31547380Y-44059095D02*
X30547380Y-44059095D01*
X21339761Y-45709904D02*
X21387380Y-45567047D01*
X21387380Y-45328952D01*
X21339761Y-45233714D01*
X21292142Y-45186095D01*
X21196904Y-45138476D01*
X21101666Y-45138476D01*
X21006428Y-45186095D01*
X20958809Y-45233714D01*
X20911190Y-45328952D01*
X20863571Y-45519428D01*
X20815952Y-45614666D01*
X20768333Y-45662285D01*
X20673095Y-45709904D01*
X20577857Y-45709904D01*
X20482619Y-45662285D01*
X20435000Y-45614666D01*
X20387380Y-45519428D01*
X20387380Y-45281333D01*
X20435000Y-45138476D01*
X21339761Y-44757523D02*
X21387380Y-44614666D01*
X21387380Y-44376571D01*
X21339761Y-44281333D01*
X21292142Y-44233714D01*
X21196904Y-44186095D01*
X21101666Y-44186095D01*
X21006428Y-44233714D01*
X20958809Y-44281333D01*
X20911190Y-44376571D01*
X20863571Y-44567047D01*
X20815952Y-44662285D01*
X20768333Y-44709904D01*
X20673095Y-44757523D01*
X20577857Y-44757523D01*
X20482619Y-44709904D01*
X20435000Y-44662285D01*
X20387380Y-44567047D01*
X20387380Y-44328952D01*
X20435000Y-44186095D01*
X23927380Y-45757428D02*
X22927380Y-45757428D01*
X23641666Y-45424095D01*
X22927380Y-45090761D01*
X23927380Y-45090761D01*
X23927380Y-44614571D02*
X22927380Y-44614571D01*
X23879761Y-44186000D02*
X23927380Y-44043142D01*
X23927380Y-43805047D01*
X23879761Y-43709809D01*
X23832142Y-43662190D01*
X23736904Y-43614571D01*
X23641666Y-43614571D01*
X23546428Y-43662190D01*
X23498809Y-43709809D01*
X23451190Y-43805047D01*
X23403571Y-43995523D01*
X23355952Y-44090761D01*
X23308333Y-44138380D01*
X23213095Y-44186000D01*
X23117857Y-44186000D01*
X23022619Y-44138380D01*
X22975000Y-44090761D01*
X22927380Y-43995523D01*
X22927380Y-43757428D01*
X22975000Y-43614571D01*
X22927380Y-42995523D02*
X22927380Y-42805047D01*
X22975000Y-42709809D01*
X23070238Y-42614571D01*
X23260714Y-42566952D01*
X23594047Y-42566952D01*
X23784523Y-42614571D01*
X23879761Y-42709809D01*
X23927380Y-42805047D01*
X23927380Y-42995523D01*
X23879761Y-43090761D01*
X23784523Y-43186000D01*
X23594047Y-43233619D01*
X23260714Y-43233619D01*
X23070238Y-43186000D01*
X22975000Y-43090761D01*
X22927380Y-42995523D01*
X26467380Y-45757428D02*
X25467380Y-45757428D01*
X26181666Y-45424095D01*
X25467380Y-45090761D01*
X26467380Y-45090761D01*
X25467380Y-44424095D02*
X25467380Y-44233619D01*
X25515000Y-44138380D01*
X25610238Y-44043142D01*
X25800714Y-43995523D01*
X26134047Y-43995523D01*
X26324523Y-44043142D01*
X26419761Y-44138380D01*
X26467380Y-44233619D01*
X26467380Y-44424095D01*
X26419761Y-44519333D01*
X26324523Y-44614571D01*
X26134047Y-44662190D01*
X25800714Y-44662190D01*
X25610238Y-44614571D01*
X25515000Y-44519333D01*
X25467380Y-44424095D01*
X26419761Y-43614571D02*
X26467380Y-43471714D01*
X26467380Y-43233619D01*
X26419761Y-43138380D01*
X26372142Y-43090761D01*
X26276904Y-43043142D01*
X26181666Y-43043142D01*
X26086428Y-43090761D01*
X26038809Y-43138380D01*
X25991190Y-43233619D01*
X25943571Y-43424095D01*
X25895952Y-43519333D01*
X25848333Y-43566952D01*
X25753095Y-43614571D01*
X25657857Y-43614571D01*
X25562619Y-43566952D01*
X25515000Y-43519333D01*
X25467380Y-43424095D01*
X25467380Y-43186000D01*
X25515000Y-43043142D01*
X26467380Y-42614571D02*
X25467380Y-42614571D01*
X28055000Y-45154285D02*
X28007380Y-45249523D01*
X28007380Y-45392380D01*
X28055000Y-45535238D01*
X28150238Y-45630476D01*
X28245476Y-45678095D01*
X28435952Y-45725714D01*
X28578809Y-45725714D01*
X28769285Y-45678095D01*
X28864523Y-45630476D01*
X28959761Y-45535238D01*
X29007380Y-45392380D01*
X29007380Y-45297142D01*
X28959761Y-45154285D01*
X28912142Y-45106666D01*
X28578809Y-45106666D01*
X28578809Y-45297142D01*
X29007380Y-44678095D02*
X28007380Y-44678095D01*
X28007380Y-44297142D01*
X28055000Y-44201904D01*
X28102619Y-44154285D01*
X28197857Y-44106666D01*
X28340714Y-44106666D01*
X28435952Y-44154285D01*
X28483571Y-44201904D01*
X28531190Y-44297142D01*
X28531190Y-44678095D01*
X28007380Y-43773333D02*
X29007380Y-43106666D01*
X28007380Y-43106666D02*
X29007380Y-43773333D01*
X16307380Y-45186047D02*
X15831190Y-45519380D01*
X16307380Y-45757476D02*
X15307380Y-45757476D01*
X15307380Y-45376523D01*
X15355000Y-45281285D01*
X15402619Y-45233666D01*
X15497857Y-45186047D01*
X15640714Y-45186047D01*
X15735952Y-45233666D01*
X15783571Y-45281285D01*
X15831190Y-45376523D01*
X15831190Y-45757476D01*
X15783571Y-44757476D02*
X15783571Y-44424142D01*
X16307380Y-44281285D02*
X16307380Y-44757476D01*
X15307380Y-44757476D01*
X15307380Y-44281285D01*
X16259761Y-43900333D02*
X16307380Y-43757476D01*
X16307380Y-43519380D01*
X16259761Y-43424142D01*
X16212142Y-43376523D01*
X16116904Y-43328904D01*
X16021666Y-43328904D01*
X15926428Y-43376523D01*
X15878809Y-43424142D01*
X15831190Y-43519380D01*
X15783571Y-43709857D01*
X15735952Y-43805095D01*
X15688333Y-43852714D01*
X15593095Y-43900333D01*
X15497857Y-43900333D01*
X15402619Y-43852714D01*
X15355000Y-43805095D01*
X15307380Y-43709857D01*
X15307380Y-43471761D01*
X15355000Y-43328904D01*
X35627380Y-45638333D02*
X36627380Y-45305000D01*
X35627380Y-44971666D01*
X36103571Y-44305000D02*
X36151190Y-44162142D01*
X36198809Y-44114523D01*
X36294047Y-44066904D01*
X36436904Y-44066904D01*
X36532142Y-44114523D01*
X36579761Y-44162142D01*
X36627380Y-44257380D01*
X36627380Y-44638333D01*
X35627380Y-44638333D01*
X35627380Y-44305000D01*
X35675000Y-44209761D01*
X35722619Y-44162142D01*
X35817857Y-44114523D01*
X35913095Y-44114523D01*
X36008333Y-44162142D01*
X36055952Y-44209761D01*
X36103571Y-44305000D01*
X36103571Y-44638333D01*
X35627380Y-43638333D02*
X36436904Y-43638333D01*
X36532142Y-43590714D01*
X36579761Y-43543095D01*
X36627380Y-43447857D01*
X36627380Y-43257380D01*
X36579761Y-43162142D01*
X36532142Y-43114523D01*
X36436904Y-43066904D01*
X35627380Y-43066904D01*
X36579761Y-42638333D02*
X36627380Y-42495476D01*
X36627380Y-42257380D01*
X36579761Y-42162142D01*
X36532142Y-42114523D01*
X36436904Y-42066904D01*
X36341666Y-42066904D01*
X36246428Y-42114523D01*
X36198809Y-42162142D01*
X36151190Y-42257380D01*
X36103571Y-42447857D01*
X36055952Y-42543095D01*
X36008333Y-42590714D01*
X35913095Y-42638333D01*
X35817857Y-42638333D01*
X35722619Y-42590714D01*
X35675000Y-42543095D01*
X35627380Y-42447857D01*
X35627380Y-42209761D01*
X35675000Y-42066904D01*
X33087380Y-45662190D02*
X33087380Y-45043142D01*
X33468333Y-45376476D01*
X33468333Y-45233619D01*
X33515952Y-45138380D01*
X33563571Y-45090761D01*
X33658809Y-45043142D01*
X33896904Y-45043142D01*
X33992142Y-45090761D01*
X34039761Y-45138380D01*
X34087380Y-45233619D01*
X34087380Y-45519333D01*
X34039761Y-45614571D01*
X33992142Y-45662190D01*
X33992142Y-44614571D02*
X34039761Y-44566952D01*
X34087380Y-44614571D01*
X34039761Y-44662190D01*
X33992142Y-44614571D01*
X34087380Y-44614571D01*
X33087380Y-44233619D02*
X33087380Y-43614571D01*
X33468333Y-43947904D01*
X33468333Y-43805047D01*
X33515952Y-43709809D01*
X33563571Y-43662190D01*
X33658809Y-43614571D01*
X33896904Y-43614571D01*
X33992142Y-43662190D01*
X34039761Y-43709809D01*
X34087380Y-43805047D01*
X34087380Y-44090761D01*
X34039761Y-44186000D01*
X33992142Y-44233619D01*
X33087380Y-43328857D02*
X34087380Y-42995523D01*
X33087380Y-42662190D01*
X12815000Y-45201904D02*
X12767380Y-45297142D01*
X12767380Y-45440000D01*
X12815000Y-45582857D01*
X12910238Y-45678095D01*
X13005476Y-45725714D01*
X13195952Y-45773333D01*
X13338809Y-45773333D01*
X13529285Y-45725714D01*
X13624523Y-45678095D01*
X13719761Y-45582857D01*
X13767380Y-45440000D01*
X13767380Y-45344761D01*
X13719761Y-45201904D01*
X13672142Y-45154285D01*
X13338809Y-45154285D01*
X13338809Y-45344761D01*
X13767380Y-44725714D02*
X12767380Y-44725714D01*
X13767380Y-44154285D01*
X12767380Y-44154285D01*
X13767380Y-43678095D02*
X12767380Y-43678095D01*
X12767380Y-43440000D01*
X12815000Y-43297142D01*
X12910238Y-43201904D01*
X13005476Y-43154285D01*
X13195952Y-43106666D01*
X13338809Y-43106666D01*
X13529285Y-43154285D01*
X13624523Y-43201904D01*
X13719761Y-43297142D01*
X13767380Y-43440000D01*
X13767380Y-43678095D01*
X18061666Y-8967380D02*
X18680714Y-8967380D01*
X18347380Y-9348333D01*
X18490238Y-9348333D01*
X18585476Y-9395952D01*
X18633095Y-9443571D01*
X18680714Y-9538809D01*
X18680714Y-9776904D01*
X18633095Y-9872142D01*
X18585476Y-9919761D01*
X18490238Y-9967380D01*
X18204523Y-9967380D01*
X18109285Y-9919761D01*
X18061666Y-9872142D01*
X15569285Y-9062619D02*
X15616904Y-9015000D01*
X15712142Y-8967380D01*
X15950238Y-8967380D01*
X16045476Y-9015000D01*
X16093095Y-9062619D01*
X16140714Y-9157857D01*
X16140714Y-9253095D01*
X16093095Y-9395952D01*
X15521666Y-9967380D01*
X16140714Y-9967380D01*
X13600714Y-9967380D02*
X13029285Y-9967380D01*
X13315000Y-9967380D02*
X13315000Y-8967380D01*
X13219761Y-9110238D01*
X13124523Y-9205476D01*
X13029285Y-9253095D01*
D12*
X12299000Y-1895000D02*
X11664000Y-1260000D01*
X12299000Y-625000D02*
X11664000Y-1260000D01*
X11664000Y-1260000D02*
X12299000Y-625000D01*
X13569000Y-1260000D02*
X11664000Y-1260000D01*
X21189000Y-1895000D02*
X21824000Y-1260000D01*
X21189000Y-625000D02*
X21824000Y-1260000D01*
X19919000Y-1260000D02*
X21824000Y-1260000D01*
D10*
X37532380Y-31033333D02*
X38532380Y-30700000D01*
X37532380Y-30366666D01*
X38008571Y-29700000D02*
X38056190Y-29557142D01*
X38103809Y-29509523D01*
X38199047Y-29461904D01*
X38341904Y-29461904D01*
X38437142Y-29509523D01*
X38484761Y-29557142D01*
X38532380Y-29652380D01*
X38532380Y-30033333D01*
X37532380Y-30033333D01*
X37532380Y-29700000D01*
X37580000Y-29604761D01*
X37627619Y-29557142D01*
X37722857Y-29509523D01*
X37818095Y-29509523D01*
X37913333Y-29557142D01*
X37960952Y-29604761D01*
X38008571Y-29700000D01*
X38008571Y-30033333D01*
X37532380Y-29033333D02*
X38341904Y-29033333D01*
X38437142Y-28985714D01*
X38484761Y-28938095D01*
X38532380Y-28842857D01*
X38532380Y-28652380D01*
X38484761Y-28557142D01*
X38437142Y-28509523D01*
X38341904Y-28461904D01*
X37532380Y-28461904D01*
X38484761Y-28033333D02*
X38532380Y-27890476D01*
X38532380Y-27652380D01*
X38484761Y-27557142D01*
X38437142Y-27509523D01*
X38341904Y-27461904D01*
X38246666Y-27461904D01*
X38151428Y-27509523D01*
X38103809Y-27557142D01*
X38056190Y-27652380D01*
X38008571Y-27842857D01*
X37960952Y-27938095D01*
X37913333Y-27985714D01*
X37818095Y-28033333D01*
X37722857Y-28033333D01*
X37627619Y-27985714D01*
X37580000Y-27938095D01*
X37532380Y-27842857D01*
X37532380Y-27604761D01*
X37580000Y-27461904D01*
X35040000Y-29326904D02*
X34992380Y-29422142D01*
X34992380Y-29565000D01*
X35040000Y-29707857D01*
X35135238Y-29803095D01*
X35230476Y-29850714D01*
X35420952Y-29898333D01*
X35563809Y-29898333D01*
X35754285Y-29850714D01*
X35849523Y-29803095D01*
X35944761Y-29707857D01*
X35992380Y-29565000D01*
X35992380Y-29469761D01*
X35944761Y-29326904D01*
X35897142Y-29279285D01*
X35563809Y-29279285D01*
X35563809Y-29469761D01*
X35992380Y-28850714D02*
X34992380Y-28850714D01*
X35992380Y-28279285D01*
X34992380Y-28279285D01*
X35992380Y-27803095D02*
X34992380Y-27803095D01*
X34992380Y-27565000D01*
X35040000Y-27422142D01*
X35135238Y-27326904D01*
X35230476Y-27279285D01*
X35420952Y-27231666D01*
X35563809Y-27231666D01*
X35754285Y-27279285D01*
X35849523Y-27326904D01*
X35944761Y-27422142D01*
X35992380Y-27565000D01*
X35992380Y-27803095D01*
X33452380Y-28810952D02*
X32452380Y-28810952D01*
X32452380Y-28572857D01*
X32500000Y-28430000D01*
X32595238Y-28334761D01*
X32690476Y-28287142D01*
X32880952Y-28239523D01*
X33023809Y-28239523D01*
X33214285Y-28287142D01*
X33309523Y-28334761D01*
X33404761Y-28430000D01*
X33452380Y-28572857D01*
X33452380Y-28810952D01*
X33071428Y-27810952D02*
X33071428Y-27049047D01*
X30912380Y-28810952D02*
X29912380Y-28810952D01*
X29912380Y-28572857D01*
X29960000Y-28430000D01*
X30055238Y-28334761D01*
X30150476Y-28287142D01*
X30340952Y-28239523D01*
X30483809Y-28239523D01*
X30674285Y-28287142D01*
X30769523Y-28334761D01*
X30864761Y-28430000D01*
X30912380Y-28572857D01*
X30912380Y-28810952D01*
X30531428Y-27810952D02*
X30531428Y-27049047D01*
X30912380Y-27430000D02*
X30150476Y-27430000D01*
X12329714Y-3105428D02*
X12286857Y-3148285D01*
X12158285Y-3191142D01*
X12072571Y-3191142D01*
X11944000Y-3148285D01*
X11858285Y-3062571D01*
X11815428Y-2976857D01*
X11772571Y-2805428D01*
X11772571Y-2676857D01*
X11815428Y-2505428D01*
X11858285Y-2419714D01*
X11944000Y-2334000D01*
X12072571Y-2291142D01*
X12158285Y-2291142D01*
X12286857Y-2334000D01*
X12329714Y-2376857D01*
X12886857Y-2291142D02*
X13058285Y-2291142D01*
X13144000Y-2334000D01*
X13229714Y-2419714D01*
X13272571Y-2591142D01*
X13272571Y-2891142D01*
X13229714Y-3062571D01*
X13144000Y-3148285D01*
X13058285Y-3191142D01*
X12886857Y-3191142D01*
X12801142Y-3148285D01*
X12715428Y-3062571D01*
X12672571Y-2891142D01*
X12672571Y-2591142D01*
X12715428Y-2419714D01*
X12801142Y-2334000D01*
X12886857Y-2291142D01*
X13658285Y-3191142D02*
X13658285Y-2291142D01*
X14172571Y-3191142D01*
X14172571Y-2291142D01*
X14601142Y-3191142D02*
X14601142Y-2291142D01*
X15115428Y-3191142D01*
X15115428Y-2291142D01*
X15544000Y-2719714D02*
X15844000Y-2719714D01*
X15972571Y-3191142D02*
X15544000Y-3191142D01*
X15544000Y-2291142D01*
X15972571Y-2291142D01*
X16872571Y-3105428D02*
X16829714Y-3148285D01*
X16701142Y-3191142D01*
X16615428Y-3191142D01*
X16486857Y-3148285D01*
X16401142Y-3062571D01*
X16358285Y-2976857D01*
X16315428Y-2805428D01*
X16315428Y-2676857D01*
X16358285Y-2505428D01*
X16401142Y-2419714D01*
X16486857Y-2334000D01*
X16615428Y-2291142D01*
X16701142Y-2291142D01*
X16829714Y-2334000D01*
X16872571Y-2376857D01*
X17129714Y-2291142D02*
X17644000Y-2291142D01*
X17386857Y-3191142D02*
X17386857Y-2291142D01*
X18929714Y-2719714D02*
X19058285Y-2762571D01*
X19101142Y-2805428D01*
X19144000Y-2891142D01*
X19144000Y-3019714D01*
X19101142Y-3105428D01*
X19058285Y-3148285D01*
X18972571Y-3191142D01*
X18629714Y-3191142D01*
X18629714Y-2291142D01*
X18929714Y-2291142D01*
X19015428Y-2334000D01*
X19058285Y-2376857D01*
X19101142Y-2462571D01*
X19101142Y-2548285D01*
X19058285Y-2634000D01*
X19015428Y-2676857D01*
X18929714Y-2719714D01*
X18629714Y-2719714D01*
X19701142Y-2291142D02*
X19872571Y-2291142D01*
X19958285Y-2334000D01*
X20044000Y-2419714D01*
X20086857Y-2591142D01*
X20086857Y-2891142D01*
X20044000Y-3062571D01*
X19958285Y-3148285D01*
X19872571Y-3191142D01*
X19701142Y-3191142D01*
X19615428Y-3148285D01*
X19529714Y-3062571D01*
X19486857Y-2891142D01*
X19486857Y-2591142D01*
X19529714Y-2419714D01*
X19615428Y-2334000D01*
X19701142Y-2291142D01*
X20344000Y-2291142D02*
X20858285Y-2291142D01*
X20601142Y-3191142D02*
X20601142Y-2291142D01*
X21158285Y-3191142D02*
X21158285Y-2291142D01*
X21158285Y-2719714D02*
X21672571Y-2719714D01*
X21672571Y-3191142D02*
X21672571Y-2291142D01*
X14408285Y-1667142D02*
X14408285Y-767142D01*
X14622571Y-767142D01*
X14751142Y-810000D01*
X14836857Y-895714D01*
X14879714Y-981428D01*
X14922571Y-1152857D01*
X14922571Y-1281428D01*
X14879714Y-1452857D01*
X14836857Y-1538571D01*
X14751142Y-1624285D01*
X14622571Y-1667142D01*
X14408285Y-1667142D01*
X15479714Y-767142D02*
X15651142Y-767142D01*
X15736857Y-810000D01*
X15822571Y-895714D01*
X15865428Y-1067142D01*
X15865428Y-1367142D01*
X15822571Y-1538571D01*
X15736857Y-1624285D01*
X15651142Y-1667142D01*
X15479714Y-1667142D01*
X15394000Y-1624285D01*
X15308285Y-1538571D01*
X15265428Y-1367142D01*
X15265428Y-1067142D01*
X15308285Y-895714D01*
X15394000Y-810000D01*
X15479714Y-767142D01*
X16936857Y-1667142D02*
X16936857Y-767142D01*
X17451142Y-1667142D01*
X17451142Y-767142D01*
X18051142Y-767142D02*
X18222571Y-767142D01*
X18308285Y-810000D01*
X18394000Y-895714D01*
X18436857Y-1067142D01*
X18436857Y-1367142D01*
X18394000Y-1538571D01*
X18308285Y-1624285D01*
X18222571Y-1667142D01*
X18051142Y-1667142D01*
X17965428Y-1624285D01*
X17879714Y-1538571D01*
X17836857Y-1367142D01*
X17836857Y-1067142D01*
X17879714Y-895714D01*
X17965428Y-810000D01*
X18051142Y-767142D01*
X18694000Y-767142D02*
X19208285Y-767142D01*
X18951142Y-1667142D02*
X18951142Y-767142D01*
D12*
X22625000Y-26160000D02*
X22625000Y-27160000D01*
X24325000Y-27160000D02*
X24325000Y-26160000D01*
D13*
X21218679Y-33645000D02*
G75*
G03X21218679Y-33645000I-499999J0D01*
G01*
X19304466Y-33645000D02*
X22840000Y-37180534D01*
X22840000Y-30109466D02*
X19304466Y-33645000D01*
X26375534Y-33645000D02*
X22840000Y-30109466D01*
X22840000Y-37180534D02*
X26375534Y-33645000D01*
D12*
X20545000Y-5660000D02*
X20545000Y-6860000D01*
X18785000Y-6860000D02*
X18785000Y-5660000D01*
X23220000Y-13325000D02*
X23220000Y-10995000D01*
X38210000Y-13325000D02*
X38210000Y-11205000D01*
X23220000Y-13325000D02*
X38210000Y-13325000D01*
X23220000Y765000D02*
X38210000Y765000D01*
X23220000Y-8035000D02*
X23220000Y765000D01*
X38210000Y-7835000D02*
X38210000Y765000D01*
X24530000Y-26160000D02*
X24530000Y-27160000D01*
X26230000Y-27160000D02*
X26230000Y-26160000D01*
X33500000Y-38002000D02*
X32500000Y-38002000D01*
X32500000Y-39702000D02*
X33500000Y-39702000D01*
X26435000Y-24910000D02*
X26435000Y-25910000D01*
X28135000Y-25910000D02*
X28135000Y-24910000D01*
X10965000Y1035000D02*
X2965000Y1035000D01*
X10965000Y-6285000D02*
X2965000Y-6285000D01*
X2965000Y-6285000D02*
X2965000Y1035000D01*
X2965000Y415000D02*
X10965000Y415000D01*
X10965000Y1035000D02*
X10965000Y-6285000D01*
X29130000Y-23425000D02*
X29130000Y-26085000D01*
X36810000Y-23425000D02*
X29130000Y-23425000D01*
X36810000Y-26085000D02*
X29130000Y-26085000D01*
X36810000Y-23425000D02*
X36810000Y-26085000D01*
X38080000Y-23425000D02*
X39410000Y-23425000D01*
X39410000Y-23425000D02*
X39410000Y-24755000D01*
X28945000Y-19720000D02*
X28945000Y-18520000D01*
X30705000Y-18520000D02*
X30705000Y-19720000D01*
X9980000Y-23380000D02*
X17230000Y-23380000D01*
X17230000Y-23380000D02*
X17230000Y-19780000D01*
X17230000Y-19780000D02*
X9980000Y-19780000D01*
X32120000Y-19720000D02*
X32120000Y-18520000D01*
X33880000Y-18520000D02*
X33880000Y-19720000D01*
X4365000Y-47040000D02*
X7025000Y-47040000D01*
X4365000Y-29200000D02*
X4365000Y-47040000D01*
X7025000Y-29200000D02*
X7025000Y-47040000D01*
X4365000Y-29200000D02*
X7025000Y-29200000D01*
X4365000Y-27930000D02*
X4365000Y-26600000D01*
X4365000Y-26600000D02*
X5695000Y-26600000D01*
X33975000Y-35815000D02*
X33975000Y-34015000D01*
X30755000Y-34015000D02*
X30755000Y-36465000D01*
X9620000Y-29590000D02*
X10820000Y-29590000D01*
X10820000Y-31350000D02*
X9620000Y-31350000D01*
X10820000Y-26270000D02*
X9620000Y-26270000D01*
X9620000Y-24510000D02*
X10820000Y-24510000D01*
X22795000Y-39750000D02*
X23995000Y-39750000D01*
X23995000Y-41510000D02*
X22795000Y-41510000D01*
X9620000Y-27050000D02*
X10820000Y-27050000D01*
X10820000Y-28810000D02*
X9620000Y-28810000D01*
X7990000Y-10195000D02*
X7990000Y-8995000D01*
X9750000Y-8995000D02*
X9750000Y-10195000D01*
X4815000Y-10195000D02*
X4815000Y-8995000D01*
X6575000Y-8995000D02*
X6575000Y-10195000D01*
X20362000Y-23882000D02*
X21762000Y-23882000D01*
X22462000Y-24582000D02*
X22462000Y-25182000D01*
X21762000Y-25882000D02*
X20362000Y-25882000D01*
X19662000Y-25182000D02*
X19662000Y-24582000D01*
X19662000Y-24582000D02*
G75*
G02X20362000Y-23882000I700000J0D01*
G01*
X20362000Y-25882000D02*
G75*
G02X19662000Y-25182000I0J700000D01*
G01*
X22462000Y-25182000D02*
G75*
G02X21762000Y-25882000I-700000J0D01*
G01*
X21762000Y-23882000D02*
G75*
G02X22462000Y-24582000I0J-700000D01*
G01*
X16010000Y-37035000D02*
X17010000Y-37035000D01*
X17010000Y-35335000D02*
X16010000Y-35335000D01*
X32992000Y-30636000D02*
X31992000Y-30636000D01*
X31992000Y-32336000D02*
X32992000Y-32336000D01*
X36136000Y-35288000D02*
X36136000Y-34288000D01*
X34436000Y-34288000D02*
X34436000Y-35288000D01*
X14700000Y-19255000D02*
X15700000Y-19255000D01*
X15700000Y-17555000D02*
X14700000Y-17555000D01*
X9620000Y-19255000D02*
X10620000Y-19255000D01*
X10620000Y-17555000D02*
X9620000Y-17555000D01*
X19725000Y-13385000D02*
X19725000Y-10725000D01*
X14585000Y-13385000D02*
X19725000Y-13385000D01*
X14585000Y-10725000D02*
X19725000Y-10725000D01*
X14585000Y-13385000D02*
X14585000Y-10725000D01*
X13315000Y-13385000D02*
X11985000Y-13385000D01*
X11985000Y-13385000D02*
X11985000Y-12055000D01*
X16417000Y-5050000D02*
X14617000Y-5050000D01*
X14617000Y-8270000D02*
X17067000Y-8270000D01*
X37505000Y-48945000D02*
X37505000Y-46285000D01*
X14585000Y-48945000D02*
X37505000Y-48945000D01*
X14585000Y-46285000D02*
X37505000Y-46285000D01*
X14585000Y-48945000D02*
X14585000Y-46285000D01*
X13315000Y-48945000D02*
X11985000Y-48945000D01*
X11985000Y-48945000D02*
X11985000Y-47615000D01*
X1825000Y-47040000D02*
X4485000Y-47040000D01*
X1825000Y-29200000D02*
X1825000Y-47040000D01*
X4485000Y-29200000D02*
X4485000Y-47040000D01*
X1825000Y-29200000D02*
X4485000Y-29200000D01*
X1825000Y-27930000D02*
X1825000Y-26600000D01*
X1825000Y-26600000D02*
X3155000Y-26600000D01*
D10*
X20419142Y-28287142D02*
X20371523Y-28334761D01*
X20228666Y-28382380D01*
X20133428Y-28382380D01*
X19990571Y-28334761D01*
X19895333Y-28239523D01*
X19847714Y-28144285D01*
X19800095Y-27953809D01*
X19800095Y-27810952D01*
X19847714Y-27620476D01*
X19895333Y-27525238D01*
X19990571Y-27430000D01*
X20133428Y-27382380D01*
X20228666Y-27382380D01*
X20371523Y-27430000D01*
X20419142Y-27477619D01*
X21371523Y-28382380D02*
X20800095Y-28382380D01*
X21085809Y-28382380D02*
X21085809Y-27382380D01*
X20990571Y-27525238D01*
X20895333Y-27620476D01*
X20800095Y-27668095D01*
X21990571Y-27382380D02*
X22085809Y-27382380D01*
X22181047Y-27430000D01*
X22228666Y-27477619D01*
X22276285Y-27572857D01*
X22323904Y-27763333D01*
X22323904Y-28001428D01*
X22276285Y-28191904D01*
X22228666Y-28287142D01*
X22181047Y-28334761D01*
X22085809Y-28382380D01*
X21990571Y-28382380D01*
X21895333Y-28334761D01*
X21847714Y-28287142D01*
X21800095Y-28191904D01*
X21752476Y-28001428D01*
X21752476Y-27763333D01*
X21800095Y-27572857D01*
X21847714Y-27477619D01*
X21895333Y-27430000D01*
X21990571Y-27382380D01*
X21530333Y-6886380D02*
X21054142Y-6886380D01*
X21054142Y-5886380D01*
X22387476Y-6886380D02*
X21816047Y-6886380D01*
X22101761Y-6886380D02*
X22101761Y-5886380D01*
X22006523Y-6029238D01*
X21911285Y-6124476D01*
X21816047Y-6172095D01*
X30511666Y-13987380D02*
X30511666Y-14701666D01*
X30464047Y-14844523D01*
X30368809Y-14939761D01*
X30225952Y-14987380D01*
X30130714Y-14987380D01*
X31511666Y-14987380D02*
X30940238Y-14987380D01*
X31225952Y-14987380D02*
X31225952Y-13987380D01*
X31130714Y-14130238D01*
X31035476Y-14225476D01*
X30940238Y-14273095D01*
X25213333Y-24096142D02*
X25165714Y-24143761D01*
X25022857Y-24191380D01*
X24927619Y-24191380D01*
X24784761Y-24143761D01*
X24689523Y-24048523D01*
X24641904Y-23953285D01*
X24594285Y-23762809D01*
X24594285Y-23619952D01*
X24641904Y-23429476D01*
X24689523Y-23334238D01*
X24784761Y-23239000D01*
X24927619Y-23191380D01*
X25022857Y-23191380D01*
X25165714Y-23239000D01*
X25213333Y-23286619D01*
X25689523Y-24191380D02*
X25880000Y-24191380D01*
X25975238Y-24143761D01*
X26022857Y-24096142D01*
X26118095Y-23953285D01*
X26165714Y-23762809D01*
X26165714Y-23381857D01*
X26118095Y-23286619D01*
X26070476Y-23239000D01*
X25975238Y-23191380D01*
X25784761Y-23191380D01*
X25689523Y-23239000D01*
X25641904Y-23286619D01*
X25594285Y-23381857D01*
X25594285Y-23619952D01*
X25641904Y-23715190D01*
X25689523Y-23762809D01*
X25784761Y-23810428D01*
X25975238Y-23810428D01*
X26070476Y-23762809D01*
X26118095Y-23715190D01*
X26165714Y-23619952D01*
X36008333Y-39209142D02*
X35960714Y-39256761D01*
X35817857Y-39304380D01*
X35722619Y-39304380D01*
X35579761Y-39256761D01*
X35484523Y-39161523D01*
X35436904Y-39066285D01*
X35389285Y-38875809D01*
X35389285Y-38732952D01*
X35436904Y-38542476D01*
X35484523Y-38447238D01*
X35579761Y-38352000D01*
X35722619Y-38304380D01*
X35817857Y-38304380D01*
X35960714Y-38352000D01*
X36008333Y-38399619D01*
X36579761Y-38732952D02*
X36484523Y-38685333D01*
X36436904Y-38637714D01*
X36389285Y-38542476D01*
X36389285Y-38494857D01*
X36436904Y-38399619D01*
X36484523Y-38352000D01*
X36579761Y-38304380D01*
X36770238Y-38304380D01*
X36865476Y-38352000D01*
X36913095Y-38399619D01*
X36960714Y-38494857D01*
X36960714Y-38542476D01*
X36913095Y-38637714D01*
X36865476Y-38685333D01*
X36770238Y-38732952D01*
X36579761Y-38732952D01*
X36484523Y-38780571D01*
X36436904Y-38828190D01*
X36389285Y-38923428D01*
X36389285Y-39113904D01*
X36436904Y-39209142D01*
X36484523Y-39256761D01*
X36579761Y-39304380D01*
X36770238Y-39304380D01*
X36865476Y-39256761D01*
X36913095Y-39209142D01*
X36960714Y-39113904D01*
X36960714Y-38923428D01*
X36913095Y-38828190D01*
X36865476Y-38780571D01*
X36770238Y-38732952D01*
X27245333Y-28541142D02*
X27197714Y-28588761D01*
X27054857Y-28636380D01*
X26959619Y-28636380D01*
X26816761Y-28588761D01*
X26721523Y-28493523D01*
X26673904Y-28398285D01*
X26626285Y-28207809D01*
X26626285Y-28064952D01*
X26673904Y-27874476D01*
X26721523Y-27779238D01*
X26816761Y-27684000D01*
X26959619Y-27636380D01*
X27054857Y-27636380D01*
X27197714Y-27684000D01*
X27245333Y-27731619D01*
X28102476Y-27636380D02*
X27912000Y-27636380D01*
X27816761Y-27684000D01*
X27769142Y-27731619D01*
X27673904Y-27874476D01*
X27626285Y-28064952D01*
X27626285Y-28445904D01*
X27673904Y-28541142D01*
X27721523Y-28588761D01*
X27816761Y-28636380D01*
X28007238Y-28636380D01*
X28102476Y-28588761D01*
X28150095Y-28541142D01*
X28197714Y-28445904D01*
X28197714Y-28207809D01*
X28150095Y-28112571D01*
X28102476Y-28064952D01*
X28007238Y-28017333D01*
X27816761Y-28017333D01*
X27721523Y-28064952D01*
X27673904Y-28112571D01*
X27626285Y-28207809D01*
X7012666Y-6808380D02*
X7012666Y-7522666D01*
X6965047Y-7665523D01*
X6869809Y-7760761D01*
X6726952Y-7808380D01*
X6631714Y-7808380D01*
X7441238Y-6903619D02*
X7488857Y-6856000D01*
X7584095Y-6808380D01*
X7822190Y-6808380D01*
X7917428Y-6856000D01*
X7965047Y-6903619D01*
X8012666Y-6998857D01*
X8012666Y-7094095D01*
X7965047Y-7236952D01*
X7393619Y-7808380D01*
X8012666Y-7808380D01*
X37746666Y-21667380D02*
X37746666Y-22381666D01*
X37699047Y-22524523D01*
X37603809Y-22619761D01*
X37460952Y-22667380D01*
X37365714Y-22667380D01*
X38127619Y-21667380D02*
X38794285Y-21667380D01*
X38365714Y-22667380D01*
X29658333Y-22667380D02*
X29325000Y-22191190D01*
X29086904Y-22667380D02*
X29086904Y-21667380D01*
X29467857Y-21667380D01*
X29563095Y-21715000D01*
X29610714Y-21762619D01*
X29658333Y-21857857D01*
X29658333Y-22000714D01*
X29610714Y-22095952D01*
X29563095Y-22143571D01*
X29467857Y-22191190D01*
X29086904Y-22191190D01*
X30610714Y-22667380D02*
X30039285Y-22667380D01*
X30325000Y-22667380D02*
X30325000Y-21667380D01*
X30229761Y-21810238D01*
X30134523Y-21905476D01*
X30039285Y-21953095D01*
X16013809Y-24096190D02*
X16013809Y-24572380D01*
X15680476Y-23572380D02*
X16013809Y-24096190D01*
X16347142Y-23572380D01*
X17204285Y-24572380D02*
X16632857Y-24572380D01*
X16918571Y-24572380D02*
X16918571Y-23572380D01*
X16823333Y-23715238D01*
X16728095Y-23810476D01*
X16632857Y-23858095D01*
X33087333Y-22667380D02*
X32754000Y-22191190D01*
X32515904Y-22667380D02*
X32515904Y-21667380D01*
X32896857Y-21667380D01*
X32992095Y-21715000D01*
X33039714Y-21762619D01*
X33087333Y-21857857D01*
X33087333Y-22000714D01*
X33039714Y-22095952D01*
X32992095Y-22143571D01*
X32896857Y-22191190D01*
X32515904Y-22191190D01*
X33468285Y-21762619D02*
X33515904Y-21715000D01*
X33611142Y-21667380D01*
X33849238Y-21667380D01*
X33944476Y-21715000D01*
X33992095Y-21762619D01*
X34039714Y-21857857D01*
X34039714Y-21953095D01*
X33992095Y-22095952D01*
X33420666Y-22667380D01*
X34039714Y-22667380D01*
X5147380Y-21278333D02*
X5861666Y-21278333D01*
X6004523Y-21325952D01*
X6099761Y-21421190D01*
X6147380Y-21564047D01*
X6147380Y-21659285D01*
X5480714Y-20373571D02*
X6147380Y-20373571D01*
X5099761Y-20611666D02*
X5814047Y-20849761D01*
X5814047Y-20230714D01*
X28809095Y-34621380D02*
X28809095Y-35430904D01*
X28856714Y-35526142D01*
X28904333Y-35573761D01*
X28999571Y-35621380D01*
X29190047Y-35621380D01*
X29285285Y-35573761D01*
X29332904Y-35526142D01*
X29380523Y-35430904D01*
X29380523Y-34621380D01*
X29809095Y-34716619D02*
X29856714Y-34669000D01*
X29951952Y-34621380D01*
X30190047Y-34621380D01*
X30285285Y-34669000D01*
X30332904Y-34716619D01*
X30380523Y-34811857D01*
X30380523Y-34907095D01*
X30332904Y-35049952D01*
X29761476Y-35621380D01*
X30380523Y-35621380D01*
X14418333Y-30922380D02*
X14085000Y-30446190D01*
X13846904Y-30922380D02*
X13846904Y-29922380D01*
X14227857Y-29922380D01*
X14323095Y-29970000D01*
X14370714Y-30017619D01*
X14418333Y-30112857D01*
X14418333Y-30255714D01*
X14370714Y-30350952D01*
X14323095Y-30398571D01*
X14227857Y-30446190D01*
X13846904Y-30446190D01*
X14989761Y-30350952D02*
X14894523Y-30303333D01*
X14846904Y-30255714D01*
X14799285Y-30160476D01*
X14799285Y-30112857D01*
X14846904Y-30017619D01*
X14894523Y-29970000D01*
X14989761Y-29922380D01*
X15180238Y-29922380D01*
X15275476Y-29970000D01*
X15323095Y-30017619D01*
X15370714Y-30112857D01*
X15370714Y-30160476D01*
X15323095Y-30255714D01*
X15275476Y-30303333D01*
X15180238Y-30350952D01*
X14989761Y-30350952D01*
X14894523Y-30398571D01*
X14846904Y-30446190D01*
X14799285Y-30541428D01*
X14799285Y-30731904D01*
X14846904Y-30827142D01*
X14894523Y-30874761D01*
X14989761Y-30922380D01*
X15180238Y-30922380D01*
X15275476Y-30874761D01*
X15323095Y-30827142D01*
X15370714Y-30731904D01*
X15370714Y-30541428D01*
X15323095Y-30446190D01*
X15275476Y-30398571D01*
X15180238Y-30350952D01*
X14418333Y-25842380D02*
X14085000Y-25366190D01*
X13846904Y-25842380D02*
X13846904Y-24842380D01*
X14227857Y-24842380D01*
X14323095Y-24890000D01*
X14370714Y-24937619D01*
X14418333Y-25032857D01*
X14418333Y-25175714D01*
X14370714Y-25270952D01*
X14323095Y-25318571D01*
X14227857Y-25366190D01*
X13846904Y-25366190D01*
X14751666Y-24842380D02*
X15418333Y-24842380D01*
X14989761Y-25842380D01*
X26483333Y-41082380D02*
X26150000Y-40606190D01*
X25911904Y-41082380D02*
X25911904Y-40082380D01*
X26292857Y-40082380D01*
X26388095Y-40130000D01*
X26435714Y-40177619D01*
X26483333Y-40272857D01*
X26483333Y-40415714D01*
X26435714Y-40510952D01*
X26388095Y-40558571D01*
X26292857Y-40606190D01*
X25911904Y-40606190D01*
X27340476Y-40082380D02*
X27150000Y-40082380D01*
X27054761Y-40130000D01*
X27007142Y-40177619D01*
X26911904Y-40320476D01*
X26864285Y-40510952D01*
X26864285Y-40891904D01*
X26911904Y-40987142D01*
X26959523Y-41034761D01*
X27054761Y-41082380D01*
X27245238Y-41082380D01*
X27340476Y-41034761D01*
X27388095Y-40987142D01*
X27435714Y-40891904D01*
X27435714Y-40653809D01*
X27388095Y-40558571D01*
X27340476Y-40510952D01*
X27245238Y-40463333D01*
X27054761Y-40463333D01*
X26959523Y-40510952D01*
X26911904Y-40558571D01*
X26864285Y-40653809D01*
X14418333Y-28382380D02*
X14085000Y-27906190D01*
X13846904Y-28382380D02*
X13846904Y-27382380D01*
X14227857Y-27382380D01*
X14323095Y-27430000D01*
X14370714Y-27477619D01*
X14418333Y-27572857D01*
X14418333Y-27715714D01*
X14370714Y-27810952D01*
X14323095Y-27858571D01*
X14227857Y-27906190D01*
X13846904Y-27906190D01*
X15323095Y-27382380D02*
X14846904Y-27382380D01*
X14799285Y-27858571D01*
X14846904Y-27810952D01*
X14942142Y-27763333D01*
X15180238Y-27763333D01*
X15275476Y-27810952D01*
X15323095Y-27858571D01*
X15370714Y-27953809D01*
X15370714Y-28191904D01*
X15323095Y-28287142D01*
X15275476Y-28334761D01*
X15180238Y-28382380D01*
X14942142Y-28382380D01*
X14846904Y-28334761D01*
X14799285Y-28287142D01*
X8703333Y-13142380D02*
X8370000Y-12666190D01*
X8131904Y-13142380D02*
X8131904Y-12142380D01*
X8512857Y-12142380D01*
X8608095Y-12190000D01*
X8655714Y-12237619D01*
X8703333Y-12332857D01*
X8703333Y-12475714D01*
X8655714Y-12570952D01*
X8608095Y-12618571D01*
X8512857Y-12666190D01*
X8131904Y-12666190D01*
X9560476Y-12475714D02*
X9560476Y-13142380D01*
X9322380Y-12094761D02*
X9084285Y-12809047D01*
X9703333Y-12809047D01*
X5528333Y-13142380D02*
X5195000Y-12666190D01*
X4956904Y-13142380D02*
X4956904Y-12142380D01*
X5337857Y-12142380D01*
X5433095Y-12190000D01*
X5480714Y-12237619D01*
X5528333Y-12332857D01*
X5528333Y-12475714D01*
X5480714Y-12570952D01*
X5433095Y-12618571D01*
X5337857Y-12666190D01*
X4956904Y-12666190D01*
X5861666Y-12142380D02*
X6480714Y-12142380D01*
X6147380Y-12523333D01*
X6290238Y-12523333D01*
X6385476Y-12570952D01*
X6433095Y-12618571D01*
X6480714Y-12713809D01*
X6480714Y-12951904D01*
X6433095Y-13047142D01*
X6385476Y-13094761D01*
X6290238Y-13142380D01*
X6004523Y-13142380D01*
X5909285Y-13094761D01*
X5861666Y-13047142D01*
X20228666Y-22429380D02*
X20228666Y-23143666D01*
X20181047Y-23286523D01*
X20085809Y-23381761D01*
X19942952Y-23429380D01*
X19847714Y-23429380D01*
X20704857Y-23429380D02*
X20704857Y-22429380D01*
X21085809Y-22429380D01*
X21181047Y-22477000D01*
X21228666Y-22524619D01*
X21276285Y-22619857D01*
X21276285Y-22762714D01*
X21228666Y-22857952D01*
X21181047Y-22905571D01*
X21085809Y-22953190D01*
X20704857Y-22953190D01*
X22228666Y-23429380D02*
X21657238Y-23429380D01*
X21942952Y-23429380D02*
X21942952Y-22429380D01*
X21847714Y-22572238D01*
X21752476Y-22667476D01*
X21657238Y-22715095D01*
X13168333Y-36542142D02*
X13120714Y-36589761D01*
X12977857Y-36637380D01*
X12882619Y-36637380D01*
X12739761Y-36589761D01*
X12644523Y-36494523D01*
X12596904Y-36399285D01*
X12549285Y-36208809D01*
X12549285Y-36065952D01*
X12596904Y-35875476D01*
X12644523Y-35780238D01*
X12739761Y-35685000D01*
X12882619Y-35637380D01*
X12977857Y-35637380D01*
X13120714Y-35685000D01*
X13168333Y-35732619D01*
X13501666Y-35637380D02*
X14168333Y-35637380D01*
X13739761Y-36637380D01*
X29277333Y-31843142D02*
X29229714Y-31890761D01*
X29086857Y-31938380D01*
X28991619Y-31938380D01*
X28848761Y-31890761D01*
X28753523Y-31795523D01*
X28705904Y-31700285D01*
X28658285Y-31509809D01*
X28658285Y-31366952D01*
X28705904Y-31176476D01*
X28753523Y-31081238D01*
X28848761Y-30986000D01*
X28991619Y-30938380D01*
X29086857Y-30938380D01*
X29229714Y-30986000D01*
X29277333Y-31033619D01*
X30134476Y-31271714D02*
X30134476Y-31938380D01*
X29896380Y-30890761D02*
X29658285Y-31605047D01*
X30277333Y-31605047D01*
X37024333Y-35145142D02*
X36976714Y-35192761D01*
X36833857Y-35240380D01*
X36738619Y-35240380D01*
X36595761Y-35192761D01*
X36500523Y-35097523D01*
X36452904Y-35002285D01*
X36405285Y-34811809D01*
X36405285Y-34668952D01*
X36452904Y-34478476D01*
X36500523Y-34383238D01*
X36595761Y-34288000D01*
X36738619Y-34240380D01*
X36833857Y-34240380D01*
X36976714Y-34288000D01*
X37024333Y-34335619D01*
X37357666Y-34240380D02*
X37976714Y-34240380D01*
X37643380Y-34621333D01*
X37786238Y-34621333D01*
X37881476Y-34668952D01*
X37929095Y-34716571D01*
X37976714Y-34811809D01*
X37976714Y-35049904D01*
X37929095Y-35145142D01*
X37881476Y-35192761D01*
X37786238Y-35240380D01*
X37500523Y-35240380D01*
X37405285Y-35192761D01*
X37357666Y-35145142D01*
X15688333Y-16857142D02*
X15640714Y-16904761D01*
X15497857Y-16952380D01*
X15402619Y-16952380D01*
X15259761Y-16904761D01*
X15164523Y-16809523D01*
X15116904Y-16714285D01*
X15069285Y-16523809D01*
X15069285Y-16380952D01*
X15116904Y-16190476D01*
X15164523Y-16095238D01*
X15259761Y-16000000D01*
X15402619Y-15952380D01*
X15497857Y-15952380D01*
X15640714Y-16000000D01*
X15688333Y-16047619D01*
X16069285Y-16047619D02*
X16116904Y-16000000D01*
X16212142Y-15952380D01*
X16450238Y-15952380D01*
X16545476Y-16000000D01*
X16593095Y-16047619D01*
X16640714Y-16142857D01*
X16640714Y-16238095D01*
X16593095Y-16380952D01*
X16021666Y-16952380D01*
X16640714Y-16952380D01*
X9338333Y-16857142D02*
X9290714Y-16904761D01*
X9147857Y-16952380D01*
X9052619Y-16952380D01*
X8909761Y-16904761D01*
X8814523Y-16809523D01*
X8766904Y-16714285D01*
X8719285Y-16523809D01*
X8719285Y-16380952D01*
X8766904Y-16190476D01*
X8814523Y-16095238D01*
X8909761Y-16000000D01*
X9052619Y-15952380D01*
X9147857Y-15952380D01*
X9290714Y-16000000D01*
X9338333Y-16047619D01*
X10290714Y-16952380D02*
X9719285Y-16952380D01*
X10005000Y-16952380D02*
X10005000Y-15952380D01*
X9909761Y-16095238D01*
X9814523Y-16190476D01*
X9719285Y-16238095D01*
X19966666Y-14047380D02*
X19966666Y-14761666D01*
X19919047Y-14904523D01*
X19823809Y-14999761D01*
X19680952Y-15047380D01*
X19585714Y-15047380D01*
X20871428Y-14047380D02*
X20680952Y-14047380D01*
X20585714Y-14095000D01*
X20538095Y-14142619D01*
X20442857Y-14285476D01*
X20395238Y-14475952D01*
X20395238Y-14856904D01*
X20442857Y-14952142D01*
X20490476Y-14999761D01*
X20585714Y-15047380D01*
X20776190Y-15047380D01*
X20871428Y-14999761D01*
X20919047Y-14952142D01*
X20966666Y-14856904D01*
X20966666Y-14618809D01*
X20919047Y-14523571D01*
X20871428Y-14475952D01*
X20776190Y-14428333D01*
X20585714Y-14428333D01*
X20490476Y-14475952D01*
X20442857Y-14523571D01*
X20395238Y-14618809D01*
X11791095Y-6300380D02*
X11791095Y-7109904D01*
X11838714Y-7205142D01*
X11886333Y-7252761D01*
X11981571Y-7300380D01*
X12172047Y-7300380D01*
X12267285Y-7252761D01*
X12314904Y-7205142D01*
X12362523Y-7109904D01*
X12362523Y-6300380D01*
X12743476Y-6300380D02*
X13362523Y-6300380D01*
X13029190Y-6681333D01*
X13172047Y-6681333D01*
X13267285Y-6728952D01*
X13314904Y-6776571D01*
X13362523Y-6871809D01*
X13362523Y-7109904D01*
X13314904Y-7205142D01*
X13267285Y-7252761D01*
X13172047Y-7300380D01*
X12886333Y-7300380D01*
X12791095Y-7252761D01*
X12743476Y-7205142D01*
X9806666Y-47067380D02*
X9806666Y-47781666D01*
X9759047Y-47924523D01*
X9663809Y-48019761D01*
X9520952Y-48067380D01*
X9425714Y-48067380D01*
X10187619Y-47067380D02*
X10806666Y-47067380D01*
X10473333Y-47448333D01*
X10616190Y-47448333D01*
X10711428Y-47495952D01*
X10759047Y-47543571D01*
X10806666Y-47638809D01*
X10806666Y-47876904D01*
X10759047Y-47972142D01*
X10711428Y-48019761D01*
X10616190Y-48067380D01*
X10330476Y-48067380D01*
X10235238Y-48019761D01*
X10187619Y-47972142D01*
X2607380Y-20008333D02*
X3321666Y-20008333D01*
X3464523Y-20055952D01*
X3559761Y-20151190D01*
X3607380Y-20294047D01*
X3607380Y-20389285D01*
X2607380Y-19055952D02*
X2607380Y-19532142D01*
X3083571Y-19579761D01*
X3035952Y-19532142D01*
X2988333Y-19436904D01*
X2988333Y-19198809D01*
X3035952Y-19103571D01*
X3083571Y-19055952D01*
X3178809Y-19008333D01*
X3416904Y-19008333D01*
X3512142Y-19055952D01*
X3559761Y-19103571D01*
X3607380Y-19198809D01*
X3607380Y-19436904D01*
X3559761Y-19532142D01*
X3512142Y-19579761D01*
M02*
